G04*
G04 #@! TF.GenerationSoftware,Altium Limited,Altium Designer,23.2.1 (34)*
G04*
G04 Layer_Color=8421504*
%FSLAX25Y25*%
%MOIN*%
G70*
G04*
G04 #@! TF.SameCoordinates,91C23CEB-00FB-43FC-9C52-439D6A026708*
G04*
G04*
G04 #@! TF.FilePolarity,Positive*
G04*
G01*
G75*
%ADD22R,0.04724X0.04724*%
%ADD23R,0.03543X0.03150*%
%ADD24R,0.01575X0.01890*%
%ADD25R,0.03150X0.03543*%
%ADD26R,0.03150X0.03543*%
%ADD27R,0.13780X0.09843*%
%ADD28R,0.04331X0.04331*%
%ADD29O,0.00984X0.06102*%
%ADD30R,0.04724X0.04724*%
%ADD31R,0.05900X0.02800*%
%ADD32R,0.02800X0.05900*%
%ADD33R,0.08504X0.11024*%
%ADD34R,0.03937X0.05512*%
%ADD35O,0.02756X0.09843*%
%ADD36R,0.02000X0.01402*%
%ADD37O,0.06102X0.00984*%
%ADD38R,0.03543X0.03937*%
%ADD39R,0.06693X0.06614*%
%ADD40R,0.03347X0.03347*%
%ADD41R,0.06614X0.06693*%
%ADD42R,0.03347X0.03740*%
%ADD43R,0.04331X0.04331*%
%ADD44R,0.03937X0.03543*%
%ADD45R,0.02835X0.07008*%
%ADD46R,0.04724X0.02756*%
%ADD47R,0.07874X0.09449*%
G04:AMPARAMS|DCode=48|XSize=25.59mil|YSize=64.96mil|CornerRadius=1.92mil|HoleSize=0mil|Usage=FLASHONLY|Rotation=0.000|XOffset=0mil|YOffset=0mil|HoleType=Round|Shape=RoundedRectangle|*
%AMROUNDEDRECTD48*
21,1,0.02559,0.06112,0,0,0.0*
21,1,0.02175,0.06496,0,0,0.0*
1,1,0.00384,0.01088,-0.03056*
1,1,0.00384,-0.01088,-0.03056*
1,1,0.00384,-0.01088,0.03056*
1,1,0.00384,0.01088,0.03056*
%
%ADD48ROUNDEDRECTD48*%
%ADD49R,0.04803X0.02441*%
%ADD50R,0.03543X0.03150*%
D22*
X341385Y556634D02*
D03*
Y548366D02*
D03*
X612992Y403855D02*
D03*
Y395588D02*
D03*
X341500Y541134D02*
D03*
Y532866D02*
D03*
X541142Y381755D02*
D03*
Y373487D02*
D03*
D23*
X398500Y483658D02*
D03*
Y478146D02*
D03*
X392500Y483658D02*
D03*
Y478146D02*
D03*
X379000Y483658D02*
D03*
Y478146D02*
D03*
X385000Y483658D02*
D03*
Y478146D02*
D03*
X777000Y478256D02*
D03*
Y472744D02*
D03*
X738000Y473244D02*
D03*
Y478756D02*
D03*
X732000Y478756D02*
D03*
Y473244D02*
D03*
X771000Y478256D02*
D03*
Y472744D02*
D03*
X354000Y555756D02*
D03*
Y550244D02*
D03*
X613796Y389567D02*
D03*
Y384055D02*
D03*
X406000Y478146D02*
D03*
Y483658D02*
D03*
X412000Y478146D02*
D03*
Y483658D02*
D03*
X425500Y478146D02*
D03*
Y483658D02*
D03*
X419500Y478146D02*
D03*
Y483658D02*
D03*
X354000Y539756D02*
D03*
Y534244D02*
D03*
X355000Y579756D02*
D03*
Y574244D02*
D03*
X468500Y577756D02*
D03*
Y572244D02*
D03*
X582103Y338779D02*
D03*
Y344291D02*
D03*
X541142Y396457D02*
D03*
Y390945D02*
D03*
X538189Y446457D02*
D03*
Y440945D02*
D03*
X527559Y446457D02*
D03*
Y440945D02*
D03*
D24*
X392000Y488303D02*
D03*
Y493500D02*
D03*
X399000D02*
D03*
Y488303D02*
D03*
X419000D02*
D03*
Y493500D02*
D03*
X378500Y488303D02*
D03*
Y493500D02*
D03*
X385500D02*
D03*
Y488303D02*
D03*
X405500D02*
D03*
Y493500D02*
D03*
X412500Y488303D02*
D03*
Y493500D02*
D03*
X426000Y488303D02*
D03*
Y493500D02*
D03*
D25*
X761000Y479937D02*
D03*
X764740Y472063D02*
D03*
X757260D02*
D03*
X676353Y515500D02*
D03*
X668873D02*
D03*
X672613Y507626D02*
D03*
X711740Y515437D02*
D03*
X704260D02*
D03*
X708000Y507563D02*
D03*
X422227Y361170D02*
D03*
X429708D02*
D03*
X457103Y361007D02*
D03*
X464584D02*
D03*
X425968Y353296D02*
D03*
X460844Y353133D02*
D03*
X686401Y445194D02*
D03*
X682660Y453068D02*
D03*
X690141D02*
D03*
X686401Y374328D02*
D03*
X682660Y382202D02*
D03*
X690141D02*
D03*
X725771Y375312D02*
D03*
X722030Y383186D02*
D03*
X729511D02*
D03*
X725771Y445194D02*
D03*
X722030Y453068D02*
D03*
X729511D02*
D03*
D26*
X750256Y476500D02*
D03*
X744744D02*
D03*
X456756Y537725D02*
D03*
X451244D02*
D03*
X684244Y519000D02*
D03*
X689756D02*
D03*
X689883Y513275D02*
D03*
X684371D02*
D03*
X689883Y507549D02*
D03*
X684371D02*
D03*
X710756Y521500D02*
D03*
X705244D02*
D03*
X719631Y519500D02*
D03*
X725143D02*
D03*
Y513500D02*
D03*
X719631D02*
D03*
X725143Y507595D02*
D03*
X719631D02*
D03*
X676756Y521500D02*
D03*
X671244D02*
D03*
X680709Y458268D02*
D03*
X686221D02*
D03*
X503150Y389617D02*
D03*
X508661D02*
D03*
Y416584D02*
D03*
X503150D02*
D03*
X508661Y395523D02*
D03*
X503150D02*
D03*
X508661Y430397D02*
D03*
X503150D02*
D03*
X836417Y415945D02*
D03*
X830906D02*
D03*
X836614Y401378D02*
D03*
X831102D02*
D03*
X836811Y382874D02*
D03*
X831299D02*
D03*
X836811Y376969D02*
D03*
X831299D02*
D03*
X837008Y368110D02*
D03*
X831496D02*
D03*
X831693Y354134D02*
D03*
X837205D02*
D03*
X804724Y416142D02*
D03*
X799213D02*
D03*
X805118Y401968D02*
D03*
X799606D02*
D03*
X805315Y383268D02*
D03*
X799803D02*
D03*
X805315Y376969D02*
D03*
X799803D02*
D03*
X805315Y367126D02*
D03*
X799803D02*
D03*
X804527Y353150D02*
D03*
X799016D02*
D03*
X776772Y417011D02*
D03*
X771260D02*
D03*
X837598Y335827D02*
D03*
X832087D02*
D03*
X837598Y329921D02*
D03*
X832087D02*
D03*
X804724Y333661D02*
D03*
X799213D02*
D03*
X804724Y327559D02*
D03*
X799213D02*
D03*
X703543Y458481D02*
D03*
X698032D02*
D03*
X698032Y452756D02*
D03*
X703543D02*
D03*
X698032Y446850D02*
D03*
X703543D02*
D03*
Y387615D02*
D03*
X698032D02*
D03*
X698032Y381890D02*
D03*
X703543D02*
D03*
X698032Y375984D02*
D03*
X703543D02*
D03*
X742913Y388599D02*
D03*
X737402D02*
D03*
X737402Y382874D02*
D03*
X742913D02*
D03*
X737402Y376969D02*
D03*
X742913D02*
D03*
Y456743D02*
D03*
X737402D02*
D03*
X737402Y451018D02*
D03*
X742913D02*
D03*
X737402Y445292D02*
D03*
X742913D02*
D03*
X839567Y481710D02*
D03*
X834055D02*
D03*
X839567Y463566D02*
D03*
X834055D02*
D03*
X857480Y395225D02*
D03*
X862992D02*
D03*
X862992Y400951D02*
D03*
X857480D02*
D03*
X857480Y406676D02*
D03*
X862992D02*
D03*
X857480Y428107D02*
D03*
X862992D02*
D03*
X857480Y433833D02*
D03*
X862992D02*
D03*
X857677Y444241D02*
D03*
X863189D02*
D03*
X863189Y449966D02*
D03*
X857677D02*
D03*
X857677Y455692D02*
D03*
X863189D02*
D03*
X857677Y477123D02*
D03*
X863189D02*
D03*
X857677Y482848D02*
D03*
X863189D02*
D03*
X456756Y532000D02*
D03*
X451244D02*
D03*
X729134Y458695D02*
D03*
X723622D02*
D03*
X729134Y388813D02*
D03*
X723622D02*
D03*
X689764Y389764D02*
D03*
X684252D02*
D03*
D27*
X653346Y361221D02*
D03*
X627756D02*
D03*
X589567Y429134D02*
D03*
X563976D02*
D03*
D28*
X659055Y519291D02*
D03*
Y512205D02*
D03*
X575787Y517520D02*
D03*
Y510433D02*
D03*
X658661Y561040D02*
D03*
Y568127D02*
D03*
D29*
X626181Y568602D02*
D03*
X624213D02*
D03*
X620276D02*
D03*
X618307D02*
D03*
X592717Y509350D02*
D03*
X594685D02*
D03*
X596654D02*
D03*
X598622D02*
D03*
X600591D02*
D03*
X602559D02*
D03*
X604528D02*
D03*
X606496D02*
D03*
X608465D02*
D03*
X610433D02*
D03*
X612402D02*
D03*
X614370D02*
D03*
X616339D02*
D03*
X618307D02*
D03*
X620276D02*
D03*
X622244D02*
D03*
X624213D02*
D03*
X626181D02*
D03*
X628150D02*
D03*
X630118D02*
D03*
X632087D02*
D03*
X634055D02*
D03*
X636024D02*
D03*
X637992D02*
D03*
X639961D02*
D03*
Y568602D02*
D03*
X637992D02*
D03*
X636024D02*
D03*
X634055D02*
D03*
X632087D02*
D03*
X630118D02*
D03*
X628150D02*
D03*
X622244D02*
D03*
X616339D02*
D03*
X614370D02*
D03*
X612402D02*
D03*
X610433D02*
D03*
X608465D02*
D03*
X606496D02*
D03*
X604528D02*
D03*
X602559D02*
D03*
X600591D02*
D03*
X598622D02*
D03*
X596654D02*
D03*
X594685D02*
D03*
X592717D02*
D03*
D30*
X453366Y565500D02*
D03*
X461634D02*
D03*
D31*
X418780Y531870D02*
D03*
Y536200D02*
D03*
X373500D02*
D03*
Y531870D02*
D03*
X418780Y544860D02*
D03*
Y540530D02*
D03*
X373500D02*
D03*
Y544860D02*
D03*
X418780Y553520D02*
D03*
Y549190D02*
D03*
X373500D02*
D03*
Y553520D02*
D03*
X418780Y562180D02*
D03*
Y557850D02*
D03*
X373500D02*
D03*
Y562180D02*
D03*
Y566510D02*
D03*
X418780D02*
D03*
X373500Y570840D02*
D03*
X418780D02*
D03*
X373500Y579500D02*
D03*
Y575170D02*
D03*
X418780Y608240D02*
D03*
Y603910D02*
D03*
X373500D02*
D03*
Y608240D02*
D03*
D32*
X409130Y525755D02*
D03*
X404800D02*
D03*
X400470D02*
D03*
X396140D02*
D03*
X391810D02*
D03*
X387480D02*
D03*
X383150D02*
D03*
D33*
X584547Y359252D02*
D03*
X567028D02*
D03*
D34*
X573622Y345866D02*
D03*
X569882Y337205D02*
D03*
X566142Y345866D02*
D03*
D35*
X673500Y477808D02*
D03*
X678500D02*
D03*
X683500D02*
D03*
X688500D02*
D03*
X673500Y497099D02*
D03*
X678500D02*
D03*
X683500D02*
D03*
X688500D02*
D03*
X708500Y477854D02*
D03*
X713500D02*
D03*
X718500D02*
D03*
X723500D02*
D03*
X708500Y497146D02*
D03*
X713500D02*
D03*
X718500D02*
D03*
X723500D02*
D03*
X702382Y434842D02*
D03*
X697382D02*
D03*
X692382D02*
D03*
X687382D02*
D03*
X702382Y415551D02*
D03*
X697382D02*
D03*
X692382D02*
D03*
X687382D02*
D03*
X702382Y363976D02*
D03*
X697382D02*
D03*
X692382D02*
D03*
X687382D02*
D03*
X702382Y344685D02*
D03*
X697382D02*
D03*
X692382D02*
D03*
X687382D02*
D03*
X741752Y364961D02*
D03*
X736752D02*
D03*
X731752D02*
D03*
X726752D02*
D03*
X741752Y345669D02*
D03*
X736752D02*
D03*
X731752D02*
D03*
X726752D02*
D03*
X741752Y434842D02*
D03*
X736752D02*
D03*
X731752D02*
D03*
X726752D02*
D03*
X741752Y415551D02*
D03*
X736752D02*
D03*
X731752D02*
D03*
X726752D02*
D03*
D36*
X520266Y442126D02*
D03*
Y446063D02*
D03*
X515167Y444095D02*
D03*
D37*
X645965Y515354D02*
D03*
Y517323D02*
D03*
Y519291D02*
D03*
Y521260D02*
D03*
Y523228D02*
D03*
Y525197D02*
D03*
Y527165D02*
D03*
Y529134D02*
D03*
Y531102D02*
D03*
Y533071D02*
D03*
Y535039D02*
D03*
Y537008D02*
D03*
Y538976D02*
D03*
Y540945D02*
D03*
Y542913D02*
D03*
Y544882D02*
D03*
Y546850D02*
D03*
Y548819D02*
D03*
Y550787D02*
D03*
Y552756D02*
D03*
Y554724D02*
D03*
Y556693D02*
D03*
Y558661D02*
D03*
Y560630D02*
D03*
Y562598D02*
D03*
X586713D02*
D03*
Y560630D02*
D03*
Y558661D02*
D03*
Y556693D02*
D03*
Y554724D02*
D03*
Y552756D02*
D03*
Y550787D02*
D03*
Y548819D02*
D03*
Y546850D02*
D03*
Y544882D02*
D03*
Y542913D02*
D03*
Y540945D02*
D03*
Y538976D02*
D03*
Y537008D02*
D03*
Y535039D02*
D03*
Y533071D02*
D03*
Y531102D02*
D03*
Y529134D02*
D03*
Y527165D02*
D03*
Y525197D02*
D03*
Y523228D02*
D03*
Y521260D02*
D03*
Y519291D02*
D03*
Y517323D02*
D03*
Y515354D02*
D03*
D38*
X566732Y527559D02*
D03*
X573032D02*
D03*
X410236Y336417D02*
D03*
Y329724D02*
D03*
X590158Y585663D02*
D03*
X596457D02*
D03*
X663583Y552756D02*
D03*
X657283D02*
D03*
X777756Y402509D02*
D03*
X771457D02*
D03*
X771654Y382874D02*
D03*
X777953D02*
D03*
X771654Y376378D02*
D03*
X777953D02*
D03*
X625591Y472835D02*
D03*
X619291D02*
D03*
X606283D02*
D03*
X612582D02*
D03*
X429117Y367486D02*
D03*
X422818D02*
D03*
X703346Y555545D02*
D03*
X697047D02*
D03*
Y548442D02*
D03*
X703346D02*
D03*
Y541339D02*
D03*
X697047D02*
D03*
X457694Y367323D02*
D03*
X463993D02*
D03*
X399606Y329724D02*
D03*
Y336417D02*
D03*
X404751Y329724D02*
D03*
Y336417D02*
D03*
X394462Y329724D02*
D03*
Y336417D02*
D03*
D39*
X512953Y407480D02*
D03*
X498858D02*
D03*
X840709Y392126D02*
D03*
X826614D02*
D03*
X841496Y344882D02*
D03*
X827402D02*
D03*
X809409Y392717D02*
D03*
X795315D02*
D03*
X808819Y343898D02*
D03*
X794724D02*
D03*
X781653Y392717D02*
D03*
X767559D02*
D03*
D40*
X499311Y423490D02*
D03*
X512500D02*
D03*
X827264Y408661D02*
D03*
X840453D02*
D03*
X827854Y361040D02*
D03*
X841043D02*
D03*
X795768Y408875D02*
D03*
X808957D02*
D03*
X796555Y360056D02*
D03*
X809744D02*
D03*
X768012Y410104D02*
D03*
X781201D02*
D03*
D41*
X494488Y464213D02*
D03*
Y478307D02*
D03*
D42*
X463501Y407514D02*
D03*
X458186D02*
D03*
X423310Y408465D02*
D03*
X428625D02*
D03*
D43*
X594291Y577379D02*
D03*
X587205D02*
D03*
X625591Y498228D02*
D03*
X632677D02*
D03*
X610827Y499803D02*
D03*
X603740D02*
D03*
X630315Y464550D02*
D03*
X623228D02*
D03*
D44*
X366339Y361946D02*
D03*
Y355647D02*
D03*
X639370Y483465D02*
D03*
Y489764D02*
D03*
X373443Y361946D02*
D03*
Y355647D02*
D03*
X435433Y414567D02*
D03*
Y408268D02*
D03*
X416502Y414567D02*
D03*
Y408268D02*
D03*
X452362D02*
D03*
Y414567D02*
D03*
X469325Y408268D02*
D03*
Y414567D02*
D03*
D45*
X381516Y347795D02*
D03*
X376516D02*
D03*
X371516D02*
D03*
X366516D02*
D03*
X381516Y329370D02*
D03*
X376516D02*
D03*
X371516D02*
D03*
X366516D02*
D03*
D46*
X675591Y548228D02*
D03*
Y544291D02*
D03*
Y552165D02*
D03*
X688189D02*
D03*
Y544291D02*
D03*
Y548228D02*
D03*
D47*
X623622Y484646D02*
D03*
X608268D02*
D03*
D48*
X418468Y376853D02*
D03*
X423467D02*
D03*
X428468D02*
D03*
X433467D02*
D03*
X418468Y399097D02*
D03*
X423467D02*
D03*
X428468D02*
D03*
X433467D02*
D03*
X468343Y398934D02*
D03*
X463343D02*
D03*
X458344D02*
D03*
X453343D02*
D03*
X468343Y376690D02*
D03*
X463343D02*
D03*
X458344D02*
D03*
X453343D02*
D03*
D49*
X842126Y476378D02*
D03*
Y472638D02*
D03*
Y468898D02*
D03*
X831811D02*
D03*
Y472638D02*
D03*
Y476378D02*
D03*
D50*
X856299Y418504D02*
D03*
X864173Y422244D02*
D03*
Y414764D02*
D03*
X856496Y467520D02*
D03*
X864370Y471260D02*
D03*
Y463779D02*
D03*
M02*
