G04*
G04 #@! TF.GenerationSoftware,Altium Limited,Altium Designer,23.2.1 (34)*
G04*
G04 Layer_Color=32896*
%FSLAX25Y25*%
%MOIN*%
G70*
G04*
G04 #@! TF.SameCoordinates,91C23CEB-00FB-43FC-9C52-439D6A026708*
G04*
G04*
G04 #@! TF.FilePolarity,Positive*
G04*
G01*
G75*
%ADD11C,0.00984*%
%ADD15C,0.00787*%
%ADD18C,0.00500*%
G36*
X752226Y344728D02*
X752331D01*
Y344622D01*
X752437D01*
Y344517D01*
X752331D01*
Y344622D01*
X752226D01*
Y344517D01*
X752331D01*
Y344412D01*
X752437D01*
Y344307D01*
X752331D01*
Y344201D01*
X752437D01*
Y343254D01*
X752542D01*
Y343149D01*
X752437D01*
Y343044D01*
X752542D01*
Y342939D01*
X752437D01*
Y342833D01*
X752542D01*
Y342728D01*
X752437D01*
Y342623D01*
X752542D01*
Y342518D01*
X752437D01*
Y342412D01*
X752542D01*
Y342307D01*
X752647D01*
Y342202D01*
X752542D01*
Y342307D01*
X752437D01*
Y342202D01*
X752542D01*
Y342097D01*
X752437D01*
Y341992D01*
X752542D01*
Y341886D01*
X752647D01*
Y341781D01*
X752542D01*
Y341886D01*
X752437D01*
Y341781D01*
X752542D01*
Y341676D01*
X752437D01*
Y341571D01*
X752542D01*
Y341465D01*
X752437D01*
Y341360D01*
X752542D01*
Y341255D01*
X752437D01*
Y341150D01*
X752542D01*
Y341044D01*
X752437D01*
Y340518D01*
X752331D01*
Y340413D01*
X752437D01*
Y340308D01*
X752331D01*
Y340413D01*
X752226D01*
Y340308D01*
X752331D01*
Y340203D01*
X752226D01*
Y340097D01*
X752331D01*
Y339992D01*
X752226D01*
Y339677D01*
X752121D01*
Y339571D01*
X752226D01*
Y339466D01*
X752121D01*
Y339361D01*
X752016D01*
Y339045D01*
X751910D01*
Y338940D01*
X751805D01*
Y338624D01*
X751700D01*
Y338519D01*
X751595D01*
Y338414D01*
X751489D01*
Y338309D01*
X751595D01*
Y338203D01*
X751489D01*
Y338309D01*
X751384D01*
Y338203D01*
X751279D01*
Y338098D01*
X751384D01*
Y337993D01*
X751279D01*
Y338098D01*
X751174D01*
Y337993D01*
X751069D01*
Y337888D01*
X751174D01*
Y337782D01*
X751069D01*
Y337888D01*
X750963D01*
Y337782D01*
X750858D01*
Y337677D01*
X750753D01*
Y337572D01*
X750648D01*
Y337467D01*
X750542D01*
Y337362D01*
X750332D01*
Y337256D01*
X750121D01*
Y337151D01*
X749806D01*
Y337046D01*
X749911D01*
Y336941D01*
X749806D01*
Y337046D01*
X749701D01*
Y336941D01*
X749595D01*
Y337046D01*
X749490D01*
Y336941D01*
X749385D01*
Y336835D01*
X749280D01*
Y336730D01*
X749174D01*
Y336835D01*
X749069D01*
Y336730D01*
X748964D01*
Y336835D01*
X748859D01*
Y336730D01*
X748543D01*
Y336625D01*
X748227D01*
Y336520D01*
X748122D01*
Y336625D01*
X748017D01*
Y336520D01*
X747912D01*
Y336414D01*
X747596D01*
Y336309D01*
X747491D01*
Y336414D01*
X747386D01*
Y336309D01*
X747280D01*
Y336414D01*
X747175D01*
Y336309D01*
X747070D01*
Y336204D01*
X746965D01*
Y336309D01*
X746859D01*
Y336204D01*
X746965D01*
Y336099D01*
X746859D01*
Y336204D01*
X746754D01*
Y336099D01*
X746649D01*
Y336204D01*
X746544D01*
Y336099D01*
X746439D01*
Y336204D01*
X746333D01*
Y336099D01*
X746228D01*
Y335994D01*
X745912D01*
Y335888D01*
X745807D01*
Y335994D01*
X745702D01*
Y335888D01*
X745597D01*
Y335994D01*
X745491D01*
Y335888D01*
X745386D01*
Y335783D01*
X745281D01*
Y335678D01*
X745176D01*
Y335783D01*
X745071D01*
Y335678D01*
X744965D01*
Y335783D01*
X744860D01*
Y335678D01*
X744755D01*
Y335783D01*
X744650D01*
Y335678D01*
X744544D01*
Y335573D01*
X744229D01*
Y335467D01*
X744123D01*
Y335573D01*
X744018D01*
Y335467D01*
X743703D01*
Y335362D01*
X743597D01*
Y335257D01*
X743492D01*
Y335362D01*
X743387D01*
Y335257D01*
X743282D01*
Y335362D01*
X743176D01*
Y335257D01*
X743071D01*
Y335362D01*
X742966D01*
Y335257D01*
X742861D01*
Y335152D01*
X742545D01*
Y335047D01*
X742440D01*
Y335152D01*
X742335D01*
Y335047D01*
X742229D01*
Y335362D01*
X742124D01*
Y335467D01*
X742019D01*
Y335573D01*
X742124D01*
Y335678D01*
X742019D01*
Y335994D01*
X742124D01*
Y336099D01*
X742019D01*
Y336204D01*
X742124D01*
Y336309D01*
X742019D01*
Y336414D01*
X742124D01*
Y336520D01*
X742019D01*
Y336835D01*
X742124D01*
Y336941D01*
X742019D01*
Y337046D01*
X742124D01*
Y337151D01*
X742019D01*
Y337256D01*
X742124D01*
Y337362D01*
X742019D01*
Y337677D01*
X742124D01*
Y337782D01*
X742019D01*
Y337888D01*
X742124D01*
Y337993D01*
X742019D01*
Y338098D01*
X742124D01*
Y338203D01*
X742019D01*
Y338519D01*
X742124D01*
Y338624D01*
X742019D01*
Y338730D01*
X742124D01*
Y338835D01*
X742019D01*
Y338940D01*
X742124D01*
Y339045D01*
X742019D01*
Y339361D01*
X742124D01*
Y339466D01*
X742019D01*
Y339571D01*
X742124D01*
Y339677D01*
X742019D01*
Y339782D01*
X742124D01*
Y339887D01*
X742229D01*
Y339992D01*
X742756D01*
Y340097D01*
X743071D01*
Y340203D01*
X743176D01*
Y340097D01*
X743282D01*
Y340203D01*
X743387D01*
Y340097D01*
X743492D01*
Y340203D01*
X743597D01*
Y340308D01*
X743703D01*
Y340203D01*
X743808D01*
Y340308D01*
X743913D01*
Y340413D01*
X744018D01*
Y340308D01*
X744123D01*
Y340413D01*
X744229D01*
Y340308D01*
X744334D01*
Y340203D01*
X744439D01*
Y340097D01*
X744334D01*
Y339992D01*
X744439D01*
Y339887D01*
X744334D01*
Y339782D01*
X744439D01*
Y339677D01*
X744334D01*
Y339571D01*
X744439D01*
Y339256D01*
X744334D01*
Y339150D01*
X744439D01*
Y339045D01*
X744544D01*
Y338940D01*
X744650D01*
Y339045D01*
X744755D01*
Y339150D01*
X744860D01*
Y339045D01*
X744965D01*
Y339150D01*
X745071D01*
Y339045D01*
X745176D01*
Y339150D01*
X745281D01*
Y339256D01*
X745597D01*
Y339361D01*
X745702D01*
Y339256D01*
X745807D01*
Y339361D01*
X745912D01*
Y339256D01*
X746018D01*
Y339361D01*
X746123D01*
Y339466D01*
X746228D01*
Y339361D01*
X746333D01*
Y339466D01*
X746439D01*
Y339571D01*
X746544D01*
Y339466D01*
X746649D01*
Y339571D01*
X746754D01*
Y339466D01*
X746859D01*
Y339571D01*
X746965D01*
Y339677D01*
X747280D01*
Y339782D01*
X747386D01*
Y339677D01*
X747491D01*
Y339782D01*
X747807D01*
Y339887D01*
X748122D01*
Y339992D01*
X748227D01*
Y339887D01*
X748333D01*
Y339992D01*
X748543D01*
Y340097D01*
X748753D01*
Y340203D01*
X748859D01*
Y340097D01*
X748964D01*
Y340203D01*
X749069D01*
Y340308D01*
X749174D01*
Y340413D01*
X749280D01*
Y340308D01*
X749385D01*
Y340413D01*
X749490D01*
Y340518D01*
X749595D01*
Y340624D01*
X749701D01*
Y340729D01*
X749806D01*
Y341044D01*
X749911D01*
Y341150D01*
X749806D01*
Y341255D01*
X749911D01*
Y341150D01*
X750016D01*
Y341465D01*
X750121D01*
Y341571D01*
X750016D01*
Y341676D01*
X750121D01*
Y341781D01*
X750016D01*
Y341886D01*
X750121D01*
Y341992D01*
X750016D01*
Y342097D01*
X750121D01*
Y341992D01*
X750227D01*
Y342097D01*
X750121D01*
Y342202D01*
X750016D01*
Y342307D01*
X750121D01*
Y342412D01*
X750016D01*
Y342518D01*
X750121D01*
Y342412D01*
X750227D01*
Y342518D01*
X750121D01*
Y342623D01*
X750016D01*
Y342728D01*
X750121D01*
Y342833D01*
X750016D01*
Y343149D01*
X749911D01*
Y343254D01*
X749806D01*
Y343360D01*
X749911D01*
Y343254D01*
X750016D01*
Y343360D01*
X749911D01*
Y343465D01*
X749806D01*
Y344307D01*
X750016D01*
Y344412D01*
X750121D01*
Y344307D01*
X750227D01*
Y344412D01*
X750542D01*
Y344517D01*
X750648D01*
Y344622D01*
X750753D01*
Y344517D01*
X750858D01*
Y344622D01*
X750963D01*
Y344517D01*
X751069D01*
Y344622D01*
X751279D01*
Y344728D01*
X751489D01*
Y344833D01*
X751595D01*
Y344728D01*
X751700D01*
Y344833D01*
X751805D01*
Y344728D01*
X751910D01*
Y344833D01*
X752016D01*
Y344728D01*
X752121D01*
Y344833D01*
X752226D01*
Y344728D01*
D02*
G37*
G36*
X752016Y335047D02*
X752121D01*
Y334941D01*
X752226D01*
Y334836D01*
X752331D01*
Y334731D01*
X752437D01*
Y334626D01*
X752331D01*
Y334520D01*
X752437D01*
Y334415D01*
X752331D01*
Y334520D01*
X752226D01*
Y334415D01*
X752331D01*
Y334310D01*
X752437D01*
Y334205D01*
X752331D01*
Y334099D01*
X752437D01*
Y333994D01*
X752331D01*
Y334099D01*
X752226D01*
Y333994D01*
X752331D01*
Y333889D01*
X752437D01*
Y333784D01*
X752331D01*
Y333679D01*
X752437D01*
Y333573D01*
X752331D01*
Y333679D01*
X752226D01*
Y333573D01*
X752331D01*
Y333468D01*
X752437D01*
Y333363D01*
X752331D01*
Y333258D01*
X752437D01*
Y333152D01*
X752331D01*
Y333258D01*
X752226D01*
Y333152D01*
X752331D01*
Y333047D01*
X752437D01*
Y332942D01*
X752331D01*
Y332837D01*
X752437D01*
Y332731D01*
X752331D01*
Y332837D01*
X752226D01*
Y332731D01*
X752331D01*
Y332626D01*
X752437D01*
Y332521D01*
X752331D01*
Y332416D01*
X752437D01*
Y332311D01*
X752331D01*
Y332416D01*
X752226D01*
Y332311D01*
X752331D01*
Y332205D01*
X752437D01*
Y332100D01*
X752331D01*
Y331995D01*
X752437D01*
Y331890D01*
X752331D01*
Y331995D01*
X752226D01*
Y331890D01*
X752331D01*
Y331784D01*
X752437D01*
Y331679D01*
X752331D01*
Y331574D01*
X752437D01*
Y331469D01*
X752331D01*
Y331574D01*
X752226D01*
Y331469D01*
X752331D01*
Y331363D01*
X752437D01*
Y331258D01*
X752331D01*
Y331153D01*
X752437D01*
Y331048D01*
X752331D01*
Y331153D01*
X752226D01*
Y331048D01*
X752331D01*
Y330943D01*
X752437D01*
Y330837D01*
X752331D01*
Y330732D01*
X752437D01*
Y330627D01*
X752331D01*
Y330732D01*
X752226D01*
Y330627D01*
X752331D01*
Y330522D01*
X752437D01*
Y330416D01*
X752331D01*
Y330311D01*
X752437D01*
Y330206D01*
X752331D01*
Y330311D01*
X752226D01*
Y330206D01*
X752331D01*
Y330101D01*
X752437D01*
Y329995D01*
X752331D01*
Y329890D01*
X752437D01*
Y329785D01*
X752331D01*
Y329890D01*
X752226D01*
Y329785D01*
X752331D01*
Y329680D01*
X752437D01*
Y329574D01*
X752331D01*
Y329469D01*
X752437D01*
Y329364D01*
X752331D01*
Y329469D01*
X752226D01*
Y329364D01*
X752331D01*
Y329259D01*
X752437D01*
Y329154D01*
X752331D01*
Y329048D01*
X752437D01*
Y328943D01*
X752331D01*
Y329048D01*
X752226D01*
Y328943D01*
X752331D01*
Y328838D01*
X752437D01*
Y328733D01*
X752331D01*
Y328627D01*
X752437D01*
Y328522D01*
X752331D01*
Y328627D01*
X752226D01*
Y328522D01*
X752331D01*
Y328417D01*
X752437D01*
Y328312D01*
X752331D01*
Y328206D01*
X752437D01*
Y328101D01*
X752331D01*
Y328206D01*
X752226D01*
Y328101D01*
X752331D01*
Y327996D01*
X752437D01*
Y327891D01*
X752331D01*
Y327786D01*
X752437D01*
Y327680D01*
X752331D01*
Y327786D01*
X752226D01*
Y327680D01*
X752331D01*
Y327575D01*
X752437D01*
Y327470D01*
X752331D01*
Y327365D01*
X752437D01*
Y327259D01*
X752331D01*
Y327365D01*
X752226D01*
Y327259D01*
X752331D01*
Y327154D01*
X752437D01*
Y327049D01*
X752331D01*
Y326944D01*
X752437D01*
Y326838D01*
X752331D01*
Y326944D01*
X752226D01*
Y326838D01*
X752331D01*
Y326733D01*
X752226D01*
Y326628D01*
X752121D01*
Y326733D01*
X752016D01*
Y326628D01*
X751700D01*
Y326523D01*
X751595D01*
Y326418D01*
X751489D01*
Y326523D01*
X751384D01*
Y326418D01*
X751279D01*
Y326523D01*
X751174D01*
Y326418D01*
X750858D01*
Y326312D01*
X750542D01*
Y326207D01*
X750437D01*
Y326312D01*
X750332D01*
Y326207D01*
X750227D01*
Y326312D01*
X750121D01*
Y326418D01*
X750016D01*
Y326523D01*
X749911D01*
Y326628D01*
X750016D01*
Y326733D01*
X749911D01*
Y326838D01*
X749806D01*
Y326944D01*
X749911D01*
Y326838D01*
X750016D01*
Y326944D01*
X749911D01*
Y327049D01*
X750016D01*
Y327154D01*
X749911D01*
Y327259D01*
X749806D01*
Y327365D01*
X749911D01*
Y327259D01*
X750016D01*
Y327365D01*
X749911D01*
Y327470D01*
X750016D01*
Y327575D01*
X749911D01*
Y327680D01*
X749806D01*
Y327786D01*
X749911D01*
Y327680D01*
X750016D01*
Y327786D01*
X749911D01*
Y327891D01*
X750016D01*
Y327996D01*
X749911D01*
Y328101D01*
X749806D01*
Y328206D01*
X749911D01*
Y328101D01*
X750016D01*
Y328206D01*
X749911D01*
Y328312D01*
X750016D01*
Y328417D01*
X749911D01*
Y328522D01*
X749806D01*
Y328627D01*
X749911D01*
Y328522D01*
X750016D01*
Y328627D01*
X749911D01*
Y328733D01*
X750016D01*
Y328838D01*
X749911D01*
Y328943D01*
X749806D01*
Y329048D01*
X749911D01*
Y328943D01*
X750016D01*
Y329048D01*
X749911D01*
Y329154D01*
X750016D01*
Y329259D01*
X749911D01*
Y329364D01*
X749806D01*
Y329469D01*
X749911D01*
Y329364D01*
X750016D01*
Y329469D01*
X749911D01*
Y329574D01*
X750016D01*
Y329680D01*
X749911D01*
Y329785D01*
X749806D01*
Y329890D01*
X749911D01*
Y329785D01*
X750016D01*
Y329890D01*
X749911D01*
Y329995D01*
X750016D01*
Y330101D01*
X749911D01*
Y330206D01*
X749806D01*
Y330311D01*
X749911D01*
Y330206D01*
X750016D01*
Y330311D01*
X749911D01*
Y330416D01*
X750016D01*
Y330522D01*
X749911D01*
Y330627D01*
X749806D01*
Y330732D01*
X749911D01*
Y330627D01*
X750016D01*
Y330732D01*
X749911D01*
Y330837D01*
X750016D01*
Y330943D01*
X749911D01*
Y331048D01*
X749806D01*
Y331153D01*
X749701D01*
Y331048D01*
X749595D01*
Y331153D01*
X749490D01*
Y331048D01*
X749174D01*
Y330943D01*
X748859D01*
Y330837D01*
X748753D01*
Y330943D01*
X748648D01*
Y330837D01*
X748543D01*
Y330732D01*
X748227D01*
Y330627D01*
X748122D01*
Y330732D01*
X748017D01*
Y330627D01*
X747912D01*
Y330732D01*
X747807D01*
Y330627D01*
X747701D01*
Y330732D01*
X747596D01*
Y330627D01*
X747701D01*
Y330522D01*
X747596D01*
Y330627D01*
X747491D01*
Y330522D01*
X747386D01*
Y330416D01*
X747280D01*
Y330522D01*
X747175D01*
Y330416D01*
X747070D01*
Y330522D01*
X746965D01*
Y330416D01*
X746859D01*
Y330311D01*
X746544D01*
Y330206D01*
X746439D01*
Y330311D01*
X746333D01*
Y330206D01*
X745807D01*
Y330101D01*
X745912D01*
Y329995D01*
X745807D01*
Y330101D01*
X745702D01*
Y329995D01*
X745597D01*
Y330101D01*
X745491D01*
Y329995D01*
X745386D01*
Y330101D01*
X745281D01*
Y329995D01*
X745176D01*
Y329890D01*
X744860D01*
Y329785D01*
X744755D01*
Y329890D01*
X744650D01*
Y329785D01*
X744334D01*
Y329680D01*
X744018D01*
Y329574D01*
X743913D01*
Y329680D01*
X743808D01*
Y329574D01*
X743703D01*
Y329680D01*
X743597D01*
Y329574D01*
X743492D01*
Y329469D01*
X743176D01*
Y329364D01*
X743071D01*
Y329469D01*
X742966D01*
Y329364D01*
X742861D01*
Y329259D01*
X742545D01*
Y329154D01*
X742440D01*
Y329259D01*
X742229D01*
Y329469D01*
X742124D01*
Y329574D01*
X742019D01*
Y329680D01*
X742124D01*
Y329785D01*
X742019D01*
Y330101D01*
X742124D01*
Y330206D01*
X742019D01*
Y330311D01*
X742124D01*
Y330416D01*
X742019D01*
Y330522D01*
X742124D01*
Y330627D01*
X742019D01*
Y330943D01*
X742124D01*
Y331048D01*
X742019D01*
Y331153D01*
X742124D01*
Y331258D01*
X742019D01*
Y331363D01*
X742124D01*
Y331469D01*
X742019D01*
Y331784D01*
X742124D01*
Y331890D01*
X742019D01*
Y331995D01*
X742124D01*
Y332100D01*
X742019D01*
Y332205D01*
X742124D01*
Y332311D01*
X742019D01*
Y332416D01*
X742124D01*
Y332521D01*
X742019D01*
Y332626D01*
X742124D01*
Y332521D01*
X742229D01*
Y332626D01*
X742335D01*
Y332521D01*
X742440D01*
Y332626D01*
X742756D01*
Y332731D01*
X742650D01*
Y332837D01*
X742756D01*
Y332731D01*
X742861D01*
Y332837D01*
X742966D01*
Y332731D01*
X743071D01*
Y332837D01*
X743176D01*
Y332731D01*
X743282D01*
Y332837D01*
X743387D01*
Y332731D01*
X743492D01*
Y332837D01*
X743387D01*
Y332942D01*
X743492D01*
Y332837D01*
X743597D01*
Y332942D01*
X743703D01*
Y333047D01*
X743808D01*
Y332942D01*
X743913D01*
Y333047D01*
X744018D01*
Y332942D01*
X744123D01*
Y333047D01*
X744334D01*
Y333152D01*
X744755D01*
Y333258D01*
X745071D01*
Y333363D01*
X745386D01*
Y333468D01*
X745491D01*
Y333363D01*
X745597D01*
Y333468D01*
X745702D01*
Y333363D01*
X745807D01*
Y333468D01*
X745912D01*
Y333573D01*
X746018D01*
Y333679D01*
X746123D01*
Y333573D01*
X746228D01*
Y333679D01*
X746333D01*
Y333573D01*
X746439D01*
Y333679D01*
X746754D01*
Y333784D01*
X746859D01*
Y333679D01*
X746965D01*
Y333784D01*
X747070D01*
Y333889D01*
X747175D01*
Y333784D01*
X747280D01*
Y333889D01*
X747386D01*
Y333784D01*
X747491D01*
Y333889D01*
X747596D01*
Y333994D01*
X747701D01*
Y334099D01*
X747807D01*
Y333994D01*
X747912D01*
Y334099D01*
X748017D01*
Y333994D01*
X748122D01*
Y334099D01*
X748438D01*
Y334205D01*
X748753D01*
Y334310D01*
X748859D01*
Y334205D01*
X748964D01*
Y334310D01*
X749280D01*
Y334415D01*
X749385D01*
Y334520D01*
X749490D01*
Y334415D01*
X749595D01*
Y334520D01*
X749701D01*
Y334415D01*
X749806D01*
Y334520D01*
X750016D01*
Y334626D01*
X750227D01*
Y334731D01*
X750332D01*
Y334626D01*
X750437D01*
Y334731D01*
X750542D01*
Y334626D01*
X750648D01*
Y334731D01*
X750753D01*
Y334836D01*
X750858D01*
Y334731D01*
X750963D01*
Y334836D01*
X751069D01*
Y334941D01*
X751174D01*
Y334836D01*
X751279D01*
Y334941D01*
X751384D01*
Y334836D01*
X751489D01*
Y334941D01*
X751595D01*
Y335047D01*
X751700D01*
Y334941D01*
X751805D01*
Y335047D01*
X751910D01*
Y335152D01*
X752016D01*
Y335047D01*
D02*
G37*
G36*
X749069Y324734D02*
X749174D01*
Y324629D01*
X749280D01*
Y324523D01*
X749385D01*
Y324629D01*
X749490D01*
Y324523D01*
X749595D01*
Y324629D01*
X749701D01*
Y324523D01*
X750016D01*
Y324418D01*
X750121D01*
Y324313D01*
X750227D01*
Y324418D01*
X750332D01*
Y324313D01*
X750437D01*
Y324208D01*
X750542D01*
Y324103D01*
X750648D01*
Y324208D01*
X750753D01*
Y324103D01*
X750858D01*
Y323997D01*
X750963D01*
Y323892D01*
X751069D01*
Y323787D01*
X751174D01*
Y323682D01*
X751279D01*
Y323576D01*
X751384D01*
Y323471D01*
X751489D01*
Y323366D01*
X751595D01*
Y323261D01*
X751700D01*
Y323155D01*
X751805D01*
Y322840D01*
X751910D01*
Y322735D01*
X752016D01*
Y322629D01*
X752121D01*
Y322524D01*
X752016D01*
Y322419D01*
X752121D01*
Y322314D01*
X752226D01*
Y321998D01*
X752331D01*
Y321893D01*
X752437D01*
Y321788D01*
X752331D01*
Y321893D01*
X752226D01*
Y321788D01*
X752331D01*
Y321682D01*
X752437D01*
Y321577D01*
X752331D01*
Y321472D01*
X752437D01*
Y320946D01*
X752542D01*
Y320840D01*
X752647D01*
Y320735D01*
X752542D01*
Y320840D01*
X752437D01*
Y320735D01*
X752542D01*
Y320630D01*
X752437D01*
Y320525D01*
X752542D01*
Y320420D01*
X752647D01*
Y320314D01*
X752542D01*
Y320420D01*
X752437D01*
Y320314D01*
X752542D01*
Y320209D01*
X752647D01*
Y320104D01*
X752542D01*
Y319999D01*
X752647D01*
Y319893D01*
X752542D01*
Y319788D01*
X752647D01*
Y319683D01*
X752542D01*
Y319578D01*
X752647D01*
Y319473D01*
X752542D01*
Y319367D01*
X752647D01*
Y319262D01*
X752542D01*
Y319157D01*
X752647D01*
Y319052D01*
X752542D01*
Y319157D01*
X752437D01*
Y319052D01*
X752542D01*
Y318946D01*
X752437D01*
Y318841D01*
X752542D01*
Y318736D01*
X752647D01*
Y318631D01*
X752542D01*
Y318736D01*
X752437D01*
Y318631D01*
X752542D01*
Y318525D01*
X752437D01*
Y318420D01*
X752542D01*
Y318315D01*
X752437D01*
Y317999D01*
X752331D01*
Y317894D01*
X752437D01*
Y317789D01*
X752331D01*
Y317684D01*
X752437D01*
Y317578D01*
X752331D01*
Y317684D01*
X752226D01*
Y317578D01*
X752331D01*
Y317473D01*
X752226D01*
Y317157D01*
X752121D01*
Y317052D01*
X752226D01*
Y316947D01*
X752121D01*
Y317052D01*
X752016D01*
Y316947D01*
X752121D01*
Y316842D01*
X752016D01*
Y316526D01*
X751910D01*
Y316421D01*
X751805D01*
Y316316D01*
X751910D01*
Y316210D01*
X751805D01*
Y315895D01*
X751700D01*
Y315789D01*
X751595D01*
Y315684D01*
X751489D01*
Y315789D01*
X751384D01*
Y315684D01*
X751279D01*
Y315579D01*
X751174D01*
Y315474D01*
X751069D01*
Y315579D01*
X750963D01*
Y315474D01*
X750858D01*
Y315579D01*
X750753D01*
Y315474D01*
X750648D01*
Y315579D01*
X750542D01*
Y315474D01*
X750437D01*
Y315369D01*
X750332D01*
Y315263D01*
X750227D01*
Y315369D01*
X750121D01*
Y315263D01*
X750016D01*
Y315369D01*
X749911D01*
Y315263D01*
X749806D01*
Y315158D01*
X749490D01*
Y315053D01*
X749385D01*
Y315158D01*
X749280D01*
Y315053D01*
X749174D01*
Y315158D01*
X749069D01*
Y315263D01*
X748964D01*
Y315369D01*
X748859D01*
Y315474D01*
X748964D01*
Y315579D01*
X748859D01*
Y315684D01*
X748753D01*
Y315789D01*
X748859D01*
Y315684D01*
X748964D01*
Y316000D01*
X749069D01*
Y316105D01*
X749174D01*
Y316210D01*
X749280D01*
Y316316D01*
X749385D01*
Y316631D01*
X749490D01*
Y316737D01*
X749595D01*
Y317052D01*
X749701D01*
Y317157D01*
X749806D01*
Y317473D01*
X749911D01*
Y317578D01*
X749806D01*
Y317684D01*
X749911D01*
Y317789D01*
X750016D01*
Y317894D01*
X749911D01*
Y317999D01*
X750016D01*
Y318315D01*
X750121D01*
Y318420D01*
X750016D01*
Y318525D01*
X750121D01*
Y318420D01*
X750227D01*
Y318525D01*
X750121D01*
Y318631D01*
X750016D01*
Y318736D01*
X750121D01*
Y318631D01*
X750227D01*
Y318736D01*
X750121D01*
Y318841D01*
X750227D01*
Y318946D01*
X750121D01*
Y319052D01*
X750016D01*
Y319157D01*
X750121D01*
Y319052D01*
X750227D01*
Y319157D01*
X750121D01*
Y319262D01*
X750227D01*
Y319367D01*
X750121D01*
Y319473D01*
X750016D01*
Y319578D01*
X750121D01*
Y319473D01*
X750227D01*
Y319578D01*
X750121D01*
Y319683D01*
X750016D01*
Y319788D01*
X750121D01*
Y319683D01*
X750227D01*
Y319788D01*
X750121D01*
Y319893D01*
X750016D01*
Y319999D01*
X750121D01*
Y320104D01*
X750016D01*
Y320209D01*
X749911D01*
Y320314D01*
X749806D01*
Y320420D01*
X749911D01*
Y320314D01*
X750016D01*
Y320420D01*
X749911D01*
Y320525D01*
X749806D01*
Y320630D01*
X749701D01*
Y320735D01*
X749595D01*
Y320840D01*
X749490D01*
Y320946D01*
X749385D01*
Y321051D01*
X749280D01*
Y320946D01*
X749174D01*
Y321051D01*
X749069D01*
Y321156D01*
X748753D01*
Y321261D01*
X748648D01*
Y321156D01*
X748543D01*
Y321261D01*
X748438D01*
Y321156D01*
X748333D01*
Y321261D01*
X748227D01*
Y321156D01*
X748122D01*
Y321261D01*
X748017D01*
Y321156D01*
X747912D01*
Y321261D01*
X747807D01*
Y321156D01*
X747701D01*
Y321261D01*
X747596D01*
Y321156D01*
X747491D01*
Y321261D01*
X747386D01*
Y321156D01*
X747070D01*
Y321051D01*
X746965D01*
Y320946D01*
X746859D01*
Y321051D01*
X746754D01*
Y320946D01*
X746439D01*
Y320840D01*
X746333D01*
Y320735D01*
X746228D01*
Y320840D01*
X746123D01*
Y320735D01*
X746018D01*
Y320630D01*
X745912D01*
Y320525D01*
X745807D01*
Y320420D01*
X745702D01*
Y320314D01*
X745597D01*
Y320420D01*
X745491D01*
Y320314D01*
X745386D01*
Y320209D01*
X745281D01*
Y320104D01*
X745176D01*
Y319999D01*
X745071D01*
Y319893D01*
X744965D01*
Y319788D01*
X744860D01*
Y319473D01*
X744755D01*
Y319367D01*
X744650D01*
Y319262D01*
X744544D01*
Y319157D01*
X744650D01*
Y319052D01*
X744544D01*
Y319157D01*
X744439D01*
Y319052D01*
X744544D01*
Y318946D01*
X744439D01*
Y318631D01*
X744334D01*
Y318525D01*
X744439D01*
Y318420D01*
X744334D01*
Y318525D01*
X744229D01*
Y318420D01*
X744334D01*
Y318315D01*
X744229D01*
Y318210D01*
X744334D01*
Y318105D01*
X744229D01*
Y317999D01*
X744334D01*
Y317894D01*
X744229D01*
Y317789D01*
X744334D01*
Y317684D01*
X744229D01*
Y317578D01*
X744334D01*
Y317473D01*
X744229D01*
Y317368D01*
X744334D01*
Y317263D01*
X744229D01*
Y317157D01*
X744334D01*
Y317052D01*
X744439D01*
Y316947D01*
X744334D01*
Y316842D01*
X744439D01*
Y316526D01*
X744544D01*
Y316421D01*
X744439D01*
Y316316D01*
X744544D01*
Y316210D01*
X744650D01*
Y315895D01*
X744755D01*
Y315789D01*
X744860D01*
Y315684D01*
X744965D01*
Y315579D01*
X745071D01*
Y315263D01*
X745176D01*
Y315158D01*
X745281D01*
Y315053D01*
X745386D01*
Y314948D01*
X745491D01*
Y314842D01*
X745597D01*
Y314737D01*
X745702D01*
Y314632D01*
X745597D01*
Y314737D01*
X745491D01*
Y314632D01*
X745597D01*
Y314527D01*
X745702D01*
Y314421D01*
X745597D01*
Y314527D01*
X745491D01*
Y314421D01*
X745597D01*
Y314316D01*
X745702D01*
Y314211D01*
X745597D01*
Y314316D01*
X745491D01*
Y314211D01*
X745386D01*
Y314106D01*
X745071D01*
Y314001D01*
X744965D01*
Y314106D01*
X744860D01*
Y314001D01*
X744650D01*
Y313895D01*
X744439D01*
Y313790D01*
X744334D01*
Y313895D01*
X744229D01*
Y313790D01*
X743913D01*
Y313895D01*
X743808D01*
Y313790D01*
X743913D01*
Y313685D01*
X743597D01*
Y313580D01*
X743492D01*
Y313685D01*
X743387D01*
Y313580D01*
X743282D01*
Y313685D01*
X743176D01*
Y313580D01*
X743071D01*
Y313474D01*
X742756D01*
Y313580D01*
X742650D01*
Y313895D01*
X742545D01*
Y314001D01*
X742440D01*
Y314106D01*
X742545D01*
Y314211D01*
X742440D01*
Y314316D01*
X742335D01*
Y314421D01*
X742229D01*
Y314527D01*
X742335D01*
Y314421D01*
X742440D01*
Y314527D01*
X742335D01*
Y314632D01*
X742229D01*
Y314737D01*
X742335D01*
Y314842D01*
X742229D01*
Y315158D01*
X742124D01*
Y315263D01*
X742019D01*
Y315369D01*
X742124D01*
Y315474D01*
X742019D01*
Y316210D01*
X741914D01*
Y316316D01*
X742019D01*
Y316421D01*
X741914D01*
Y316737D01*
X741808D01*
Y316842D01*
X741914D01*
Y316947D01*
X741808D01*
Y317052D01*
X741914D01*
Y317157D01*
X741808D01*
Y317263D01*
X741914D01*
Y317368D01*
X741808D01*
Y317473D01*
X741914D01*
Y317578D01*
X741808D01*
Y317684D01*
X741914D01*
Y317789D01*
X741808D01*
Y317894D01*
X741914D01*
Y317999D01*
X741808D01*
Y318105D01*
X741914D01*
Y318631D01*
X742019D01*
Y318736D01*
X741914D01*
Y318841D01*
X742019D01*
Y319367D01*
X742124D01*
Y319473D01*
X742019D01*
Y319578D01*
X742124D01*
Y319683D01*
X742229D01*
Y319788D01*
X742124D01*
Y319893D01*
X742229D01*
Y320209D01*
X742335D01*
Y320314D01*
X742440D01*
Y320420D01*
X742335D01*
Y320525D01*
X742440D01*
Y320630D01*
X742545D01*
Y320735D01*
X742440D01*
Y320840D01*
X742545D01*
Y320946D01*
X742650D01*
Y321261D01*
X742756D01*
Y321156D01*
X742861D01*
Y321261D01*
X742756D01*
Y321367D01*
X742861D01*
Y321682D01*
X743071D01*
Y321893D01*
X743176D01*
Y321998D01*
X743282D01*
Y322103D01*
X743387D01*
Y322208D01*
X743492D01*
Y322524D01*
X743597D01*
Y322419D01*
X743703D01*
Y322524D01*
X743597D01*
Y322629D01*
X743703D01*
Y322735D01*
X743808D01*
Y322629D01*
X743913D01*
Y322735D01*
X743808D01*
Y322840D01*
X743913D01*
Y322945D01*
X744018D01*
Y323050D01*
X744123D01*
Y323155D01*
X744229D01*
Y323050D01*
X744334D01*
Y323366D01*
X744439D01*
Y323261D01*
X744544D01*
Y323366D01*
X744650D01*
Y323471D01*
X744755D01*
Y323576D01*
X744860D01*
Y323682D01*
X744965D01*
Y323787D01*
X745071D01*
Y323682D01*
X745176D01*
Y323787D01*
X745281D01*
Y323892D01*
X745386D01*
Y323997D01*
X745491D01*
Y323892D01*
X745597D01*
Y323997D01*
X745702D01*
Y324103D01*
X745807D01*
Y324208D01*
X746123D01*
Y324313D01*
X746439D01*
Y324418D01*
X746754D01*
Y324313D01*
X746859D01*
Y324418D01*
X746754D01*
Y324523D01*
X747070D01*
Y324629D01*
X747175D01*
Y324523D01*
X747280D01*
Y324629D01*
X747386D01*
Y324523D01*
X747491D01*
Y324629D01*
X747596D01*
Y324523D01*
X747701D01*
Y324629D01*
X747807D01*
Y324523D01*
X747912D01*
Y324629D01*
X747807D01*
Y324734D01*
X747912D01*
Y324629D01*
X748227D01*
Y324734D01*
X748122D01*
Y324839D01*
X748227D01*
Y324734D01*
X748333D01*
Y324629D01*
X748438D01*
Y324734D01*
X748543D01*
Y324629D01*
X748648D01*
Y324734D01*
X748753D01*
Y324629D01*
X749069D01*
Y324734D01*
X748964D01*
Y324839D01*
X749069D01*
Y324734D01*
D02*
G37*
G36*
X752016Y313790D02*
X752226D01*
Y313580D01*
X752331D01*
Y313474D01*
X752437D01*
Y313369D01*
X752331D01*
Y313474D01*
X752226D01*
Y313369D01*
X752331D01*
Y313264D01*
X752437D01*
Y313159D01*
X752331D01*
Y313053D01*
X752437D01*
Y312948D01*
X752331D01*
Y313053D01*
X752226D01*
Y312948D01*
X752331D01*
Y312843D01*
X752437D01*
Y312738D01*
X752331D01*
Y312632D01*
X752437D01*
Y312527D01*
X752331D01*
Y312632D01*
X752226D01*
Y312527D01*
X752331D01*
Y312422D01*
X752437D01*
Y312317D01*
X752331D01*
Y312212D01*
X752437D01*
Y312106D01*
X752331D01*
Y312212D01*
X752226D01*
Y312106D01*
X752331D01*
Y312001D01*
X752437D01*
Y311896D01*
X752331D01*
Y311791D01*
X752437D01*
Y311685D01*
X752331D01*
Y311791D01*
X752226D01*
Y311685D01*
X752331D01*
Y311580D01*
X752437D01*
Y311475D01*
X752331D01*
Y311370D01*
X752437D01*
Y311264D01*
X752331D01*
Y311370D01*
X752226D01*
Y311264D01*
X752331D01*
Y311159D01*
X752437D01*
Y311054D01*
X752331D01*
Y310949D01*
X752437D01*
Y310844D01*
X752331D01*
Y310949D01*
X752226D01*
Y310844D01*
X752331D01*
Y310738D01*
X752437D01*
Y310633D01*
X752331D01*
Y310528D01*
X752016D01*
Y310423D01*
X751910D01*
Y310528D01*
X751805D01*
Y310423D01*
X751489D01*
Y310528D01*
X751384D01*
Y310423D01*
X751489D01*
Y310317D01*
X751174D01*
Y310212D01*
X751069D01*
Y310317D01*
X750963D01*
Y310212D01*
X750858D01*
Y310317D01*
X750753D01*
Y310212D01*
X750648D01*
Y310107D01*
X750332D01*
Y310002D01*
X750227D01*
Y310107D01*
X750121D01*
Y310002D01*
X750016D01*
Y309896D01*
X749911D01*
Y310002D01*
X749806D01*
Y309896D01*
X749701D01*
Y310002D01*
X749595D01*
Y309896D01*
X749701D01*
Y309791D01*
X749595D01*
Y309896D01*
X749490D01*
Y309791D01*
X749385D01*
Y309896D01*
X749280D01*
Y309791D01*
X749174D01*
Y309686D01*
X749280D01*
Y309581D01*
X749174D01*
Y309476D01*
X749280D01*
Y309370D01*
X749174D01*
Y309476D01*
X749069D01*
Y309370D01*
X749174D01*
Y309265D01*
X749069D01*
Y309160D01*
X749174D01*
Y309055D01*
X749280D01*
Y308949D01*
X749174D01*
Y309055D01*
X749069D01*
Y308949D01*
X749174D01*
Y308844D01*
X749280D01*
Y308739D01*
X749174D01*
Y308634D01*
X749280D01*
Y308528D01*
X749174D01*
Y308634D01*
X749069D01*
Y308528D01*
X749174D01*
Y308423D01*
X749069D01*
Y308318D01*
X749174D01*
Y308213D01*
X749280D01*
Y308108D01*
X749174D01*
Y308213D01*
X749069D01*
Y308108D01*
X749174D01*
Y308002D01*
X749069D01*
Y307897D01*
X749174D01*
Y307792D01*
X749069D01*
Y307687D01*
X749174D01*
Y307581D01*
X749069D01*
Y307476D01*
X749174D01*
Y307371D01*
X749069D01*
Y306845D01*
X748964D01*
Y306740D01*
X749069D01*
Y306634D01*
X748964D01*
Y306740D01*
X748859D01*
Y306634D01*
X748964D01*
Y306529D01*
X748859D01*
Y306424D01*
X748964D01*
Y306319D01*
X748859D01*
Y305793D01*
X748753D01*
Y305687D01*
X748648D01*
Y305161D01*
X748543D01*
Y305056D01*
X748438D01*
Y304740D01*
X748333D01*
Y304635D01*
X748227D01*
Y304319D01*
X748122D01*
Y304425D01*
X748017D01*
Y304319D01*
X748122D01*
Y304214D01*
X748017D01*
Y304109D01*
X747912D01*
Y304004D01*
X747807D01*
Y303899D01*
X747701D01*
Y303793D01*
X747596D01*
Y303478D01*
X747491D01*
Y303583D01*
X747386D01*
Y303267D01*
X747280D01*
Y303372D01*
X747175D01*
Y303267D01*
X747070D01*
Y303162D01*
X746965D01*
Y303057D01*
X746859D01*
Y302951D01*
X746754D01*
Y302846D01*
X746649D01*
Y302951D01*
X746544D01*
Y302846D01*
X746439D01*
Y302951D01*
X746333D01*
Y302741D01*
X746123D01*
Y302636D01*
X745597D01*
Y302531D01*
X745281D01*
Y302425D01*
X745176D01*
Y302531D01*
X744860D01*
Y302425D01*
X744755D01*
Y302531D01*
X744439D01*
Y302636D01*
X744123D01*
Y302741D01*
X744018D01*
Y302636D01*
X743913D01*
Y302741D01*
X743808D01*
Y302846D01*
X743492D01*
Y302951D01*
X743387D01*
Y303057D01*
X743282D01*
Y303162D01*
X743176D01*
Y303267D01*
X743071D01*
Y303372D01*
X742966D01*
Y303478D01*
X742861D01*
Y303583D01*
X742756D01*
Y303688D01*
X742650D01*
Y304004D01*
X742545D01*
Y304109D01*
X742440D01*
Y304425D01*
X742335D01*
Y304530D01*
X742229D01*
Y304635D01*
X742335D01*
Y304530D01*
X742440D01*
Y304635D01*
X742335D01*
Y304740D01*
X742229D01*
Y305477D01*
X742124D01*
Y305582D01*
X742019D01*
Y305687D01*
X742124D01*
Y305582D01*
X742229D01*
Y305687D01*
X742124D01*
Y305793D01*
X742229D01*
Y305898D01*
X742124D01*
Y306003D01*
X742019D01*
Y306108D01*
X742124D01*
Y306213D01*
X742019D01*
Y306319D01*
X742124D01*
Y306424D01*
X742019D01*
Y306529D01*
X742124D01*
Y306634D01*
X742019D01*
Y306740D01*
X742124D01*
Y306845D01*
X742019D01*
Y306950D01*
X742124D01*
Y307055D01*
X742019D01*
Y307371D01*
X742124D01*
Y307476D01*
X742019D01*
Y307581D01*
X742124D01*
Y307687D01*
X742019D01*
Y307792D01*
X742124D01*
Y307897D01*
X742019D01*
Y308213D01*
X742124D01*
Y308318D01*
X742019D01*
Y308423D01*
X742124D01*
Y308528D01*
X742019D01*
Y308634D01*
X742124D01*
Y308739D01*
X742019D01*
Y309055D01*
X742124D01*
Y309160D01*
X742019D01*
Y309265D01*
X742124D01*
Y309370D01*
X742019D01*
Y309476D01*
X742124D01*
Y309581D01*
X742019D01*
Y309896D01*
X742124D01*
Y310002D01*
X742019D01*
Y310107D01*
X742124D01*
Y310212D01*
X742019D01*
Y310317D01*
X742124D01*
Y310423D01*
X742019D01*
Y310738D01*
X742124D01*
Y310844D01*
X742019D01*
Y310949D01*
X742124D01*
Y311054D01*
X742019D01*
Y311159D01*
X742124D01*
Y311264D01*
X742019D01*
Y311370D01*
X742124D01*
Y311264D01*
X742229D01*
Y311370D01*
X742545D01*
Y311475D01*
X742650D01*
Y311580D01*
X742756D01*
Y311475D01*
X742861D01*
Y311580D01*
X743176D01*
Y311685D01*
X743492D01*
Y311791D01*
X743597D01*
Y311685D01*
X743703D01*
Y311791D01*
X743808D01*
Y311685D01*
X743913D01*
Y311791D01*
X744018D01*
Y311896D01*
X744334D01*
Y312001D01*
X744439D01*
Y311896D01*
X744544D01*
Y312001D01*
X744650D01*
Y311896D01*
X744755D01*
Y312001D01*
X744860D01*
Y312106D01*
X744755D01*
Y312212D01*
X744860D01*
Y312106D01*
X745176D01*
Y312212D01*
X745281D01*
Y312106D01*
X745386D01*
Y312212D01*
X745491D01*
Y312106D01*
X745597D01*
Y312212D01*
X745702D01*
Y312317D01*
X745807D01*
Y312422D01*
X745912D01*
Y312317D01*
X746018D01*
Y312422D01*
X746123D01*
Y312317D01*
X746228D01*
Y312422D01*
X746544D01*
Y312527D01*
X746859D01*
Y312632D01*
X746965D01*
Y312527D01*
X747070D01*
Y312632D01*
X747175D01*
Y312527D01*
X747280D01*
Y312632D01*
X747386D01*
Y312738D01*
X747491D01*
Y312843D01*
X747596D01*
Y312738D01*
X747701D01*
Y312843D01*
X747807D01*
Y312738D01*
X747912D01*
Y312843D01*
X748122D01*
Y312948D01*
X748543D01*
Y313053D01*
X748648D01*
Y312948D01*
X748753D01*
Y313053D01*
X748859D01*
Y312948D01*
X748964D01*
Y313053D01*
X748859D01*
Y313159D01*
X748964D01*
Y313053D01*
X749069D01*
Y313159D01*
X749174D01*
Y313264D01*
X749280D01*
Y313159D01*
X749385D01*
Y313264D01*
X749490D01*
Y313159D01*
X749595D01*
Y313264D01*
X749806D01*
Y313474D01*
X749911D01*
Y313369D01*
X750016D01*
Y313474D01*
X750121D01*
Y313369D01*
X750227D01*
Y313474D01*
X750332D01*
Y313369D01*
X750437D01*
Y313474D01*
X750542D01*
Y313580D01*
X750648D01*
Y313474D01*
X750753D01*
Y313580D01*
X750858D01*
Y313685D01*
X750963D01*
Y313580D01*
X751069D01*
Y313685D01*
X751174D01*
Y313580D01*
X751279D01*
Y313685D01*
X751489D01*
Y313895D01*
X751595D01*
Y313790D01*
X751700D01*
Y313895D01*
X751805D01*
Y313790D01*
X751910D01*
Y313895D01*
X752016D01*
Y313790D01*
D02*
G37*
G36*
X749490Y302004D02*
X749595D01*
Y301899D01*
X749911D01*
Y301794D01*
X750016D01*
Y301899D01*
X750121D01*
Y301794D01*
X750227D01*
Y301689D01*
X750542D01*
Y301583D01*
X750753D01*
Y301373D01*
X750858D01*
Y301478D01*
X750963D01*
Y301373D01*
X751069D01*
Y301268D01*
X751174D01*
Y301163D01*
X751279D01*
Y301057D01*
X751384D01*
Y300952D01*
X751489D01*
Y300847D01*
X751595D01*
Y300742D01*
X751700D01*
Y300636D01*
X751805D01*
Y300531D01*
X751700D01*
Y300636D01*
X751595D01*
Y300531D01*
X751700D01*
Y300426D01*
X751805D01*
Y300321D01*
X751910D01*
Y300215D01*
X752016D01*
Y299900D01*
X752121D01*
Y299795D01*
X752226D01*
Y299268D01*
X752331D01*
Y299163D01*
X752437D01*
Y299058D01*
X752331D01*
Y299163D01*
X752226D01*
Y299058D01*
X752331D01*
Y298953D01*
X752437D01*
Y298637D01*
X752542D01*
Y298532D01*
X752437D01*
Y298427D01*
X752542D01*
Y298321D01*
X752437D01*
Y298216D01*
X752542D01*
Y298111D01*
X752647D01*
Y298006D01*
X752542D01*
Y298111D01*
X752437D01*
Y298006D01*
X752542D01*
Y297900D01*
X752647D01*
Y297795D01*
X752542D01*
Y297690D01*
X752647D01*
Y297585D01*
X752542D01*
Y297690D01*
X752437D01*
Y297585D01*
X752542D01*
Y297479D01*
X752647D01*
Y297374D01*
X752542D01*
Y297269D01*
X752647D01*
Y297164D01*
X752542D01*
Y297059D01*
X752647D01*
Y296953D01*
X752542D01*
Y296848D01*
X752647D01*
Y296743D01*
X752542D01*
Y296848D01*
X752437D01*
Y296743D01*
X752542D01*
Y296427D01*
X752647D01*
Y296322D01*
X752542D01*
Y296427D01*
X752437D01*
Y296322D01*
X752542D01*
Y296217D01*
X752437D01*
Y296111D01*
X752542D01*
Y296006D01*
X752437D01*
Y295901D01*
X752542D01*
Y295796D01*
X752437D01*
Y295480D01*
X752331D01*
Y295375D01*
X752437D01*
Y295270D01*
X752331D01*
Y295375D01*
X752226D01*
Y295270D01*
X752331D01*
Y295164D01*
X752437D01*
Y295059D01*
X752331D01*
Y295164D01*
X752226D01*
Y295059D01*
X752331D01*
Y294954D01*
X752226D01*
Y294428D01*
X752121D01*
Y294323D01*
X752016D01*
Y293796D01*
X751910D01*
Y293691D01*
X751805D01*
Y293375D01*
X751700D01*
Y293270D01*
X751595D01*
Y293165D01*
X751700D01*
Y293060D01*
X751384D01*
Y292955D01*
X751279D01*
Y293060D01*
X751174D01*
Y292955D01*
X751069D01*
Y293060D01*
X750963D01*
Y292955D01*
X750858D01*
Y292849D01*
X750753D01*
Y292955D01*
X750648D01*
Y292849D01*
X750753D01*
Y292744D01*
X750648D01*
Y292849D01*
X750542D01*
Y292744D01*
X750437D01*
Y292849D01*
X750332D01*
Y292744D01*
X750227D01*
Y292849D01*
X750121D01*
Y292744D01*
X750016D01*
Y292639D01*
X749701D01*
Y292534D01*
X749595D01*
Y292639D01*
X749490D01*
Y292534D01*
X749174D01*
Y292639D01*
X749069D01*
Y292534D01*
X748964D01*
Y292849D01*
X748859D01*
Y292955D01*
X748753D01*
Y293060D01*
X748859D01*
Y292955D01*
X748964D01*
Y293060D01*
X748859D01*
Y293165D01*
X748964D01*
Y293270D01*
X749069D01*
Y293375D01*
X748964D01*
Y293481D01*
X749069D01*
Y293375D01*
X749174D01*
Y293481D01*
X749069D01*
Y293586D01*
X749174D01*
Y293691D01*
X749280D01*
Y293796D01*
X749385D01*
Y294112D01*
X749490D01*
Y294217D01*
X749595D01*
Y294323D01*
X749701D01*
Y294428D01*
X749595D01*
Y294533D01*
X749701D01*
Y294428D01*
X749806D01*
Y294533D01*
X749701D01*
Y294638D01*
X749806D01*
Y294954D01*
X749911D01*
Y295059D01*
X749806D01*
Y295164D01*
X749911D01*
Y295059D01*
X750016D01*
Y295164D01*
X749911D01*
Y295270D01*
X749806D01*
Y295375D01*
X749911D01*
Y295270D01*
X750016D01*
Y295585D01*
X750121D01*
Y295690D01*
X750016D01*
Y295796D01*
X750121D01*
Y295901D01*
X750016D01*
Y296006D01*
X750121D01*
Y296111D01*
X750227D01*
Y296217D01*
X750121D01*
Y296322D01*
X750016D01*
Y296427D01*
X750121D01*
Y296322D01*
X750227D01*
Y296427D01*
X750121D01*
Y296532D01*
X750227D01*
Y296638D01*
X750121D01*
Y296743D01*
X750016D01*
Y296848D01*
X750121D01*
Y296743D01*
X750227D01*
Y296848D01*
X750121D01*
Y296953D01*
X750016D01*
Y297059D01*
X750121D01*
Y296953D01*
X750227D01*
Y297059D01*
X750121D01*
Y297164D01*
X750016D01*
Y297269D01*
X750121D01*
Y297374D01*
X750016D01*
Y297690D01*
X749911D01*
Y297795D01*
X749806D01*
Y298111D01*
X749701D01*
Y298216D01*
X749595D01*
Y298321D01*
X749490D01*
Y298216D01*
X749385D01*
Y298321D01*
X749280D01*
Y298427D01*
X749174D01*
Y298532D01*
X749069D01*
Y298427D01*
X748964D01*
Y298532D01*
X748859D01*
Y298637D01*
X748753D01*
Y298532D01*
X748648D01*
Y298637D01*
X748333D01*
Y298532D01*
X748227D01*
Y298637D01*
X748122D01*
Y298742D01*
X748017D01*
Y298637D01*
X747912D01*
Y298532D01*
X747807D01*
Y298637D01*
X747701D01*
Y298532D01*
X747596D01*
Y298637D01*
X747491D01*
Y298532D01*
X747386D01*
Y298427D01*
X747280D01*
Y298532D01*
X747175D01*
Y298427D01*
X747070D01*
Y298532D01*
X746965D01*
Y298427D01*
X746859D01*
Y298532D01*
X746754D01*
Y298427D01*
X746649D01*
Y298321D01*
X746544D01*
Y298216D01*
X746439D01*
Y298321D01*
X746333D01*
Y298216D01*
X746228D01*
Y298111D01*
X745912D01*
Y298006D01*
X745807D01*
Y297900D01*
X745702D01*
Y297795D01*
X745597D01*
Y297900D01*
X745491D01*
Y297585D01*
X745386D01*
Y297690D01*
X745281D01*
Y297374D01*
X745176D01*
Y297479D01*
X745071D01*
Y297164D01*
X744965D01*
Y297269D01*
X744860D01*
Y296953D01*
X744755D01*
Y297059D01*
X744650D01*
Y296953D01*
X744755D01*
Y296848D01*
X744650D01*
Y296532D01*
X744544D01*
Y296427D01*
X744439D01*
Y295901D01*
X744334D01*
Y295796D01*
X744439D01*
Y295690D01*
X744334D01*
Y295796D01*
X744229D01*
Y295690D01*
X744334D01*
Y295585D01*
X744229D01*
Y295480D01*
X744334D01*
Y295375D01*
X744229D01*
Y295270D01*
X744334D01*
Y295164D01*
X744229D01*
Y295059D01*
X744334D01*
Y294954D01*
X744229D01*
Y294849D01*
X744334D01*
Y294743D01*
X744229D01*
Y294638D01*
X744334D01*
Y294533D01*
X744439D01*
Y294428D01*
X744334D01*
Y294533D01*
X744229D01*
Y294428D01*
X744334D01*
Y294323D01*
X744439D01*
Y294217D01*
X744334D01*
Y294112D01*
X744439D01*
Y294007D01*
X744544D01*
Y293902D01*
X744439D01*
Y293796D01*
X744544D01*
Y293691D01*
X744650D01*
Y293586D01*
X744544D01*
Y293481D01*
X744650D01*
Y293375D01*
X744755D01*
Y293270D01*
X744860D01*
Y292955D01*
X744965D01*
Y292849D01*
X745071D01*
Y292744D01*
X745176D01*
Y292639D01*
X745281D01*
Y292534D01*
X745386D01*
Y292428D01*
X745491D01*
Y292323D01*
X745597D01*
Y292218D01*
X745491D01*
Y292113D01*
X745597D01*
Y292007D01*
X745702D01*
Y291902D01*
X745597D01*
Y292007D01*
X745491D01*
Y291902D01*
X745597D01*
Y291797D01*
X745702D01*
Y291692D01*
X745597D01*
Y291797D01*
X745491D01*
Y291692D01*
X745597D01*
Y291587D01*
X745491D01*
Y291481D01*
X745386D01*
Y291587D01*
X745281D01*
Y291481D01*
X745176D01*
Y291587D01*
X745071D01*
Y291481D01*
X744965D01*
Y291376D01*
X744650D01*
Y291271D01*
X744544D01*
Y291376D01*
X744439D01*
Y291271D01*
X744123D01*
Y291166D01*
X744018D01*
Y291060D01*
X743913D01*
Y291166D01*
X743808D01*
Y291060D01*
X743703D01*
Y291166D01*
X743597D01*
Y291060D01*
X743492D01*
Y291166D01*
X743387D01*
Y291060D01*
X743282D01*
Y290955D01*
X743176D01*
Y290850D01*
X743071D01*
Y290955D01*
X742966D01*
Y290850D01*
X742861D01*
Y290955D01*
X742756D01*
Y291060D01*
X742650D01*
Y291376D01*
X742545D01*
Y291481D01*
X742440D01*
Y291797D01*
X742335D01*
Y291902D01*
X742229D01*
Y292007D01*
X742335D01*
Y292113D01*
X742229D01*
Y292428D01*
X742124D01*
Y292534D01*
X742229D01*
Y292639D01*
X742124D01*
Y292744D01*
X742019D01*
Y292849D01*
X742124D01*
Y292744D01*
X742229D01*
Y292849D01*
X742124D01*
Y292955D01*
X742019D01*
Y293481D01*
X741914D01*
Y293586D01*
X742019D01*
Y293691D01*
X741914D01*
Y293796D01*
X742019D01*
Y293902D01*
X741914D01*
Y294428D01*
X741808D01*
Y294533D01*
X741914D01*
Y294638D01*
X741808D01*
Y294743D01*
X741914D01*
Y294849D01*
X741808D01*
Y294954D01*
X741914D01*
Y295059D01*
X741808D01*
Y295164D01*
X741914D01*
Y295270D01*
X741808D01*
Y295375D01*
X741914D01*
Y295480D01*
X741808D01*
Y295585D01*
X741914D01*
Y295690D01*
X741808D01*
Y295796D01*
X741914D01*
Y295901D01*
X742019D01*
Y296006D01*
X741914D01*
Y296111D01*
X742019D01*
Y296217D01*
X741914D01*
Y296322D01*
X742019D01*
Y296848D01*
X742124D01*
Y296953D01*
X742229D01*
Y297059D01*
X742124D01*
Y297164D01*
X742229D01*
Y297479D01*
X742335D01*
Y297585D01*
X742229D01*
Y297690D01*
X742335D01*
Y297795D01*
X742229D01*
Y297900D01*
X742335D01*
Y297795D01*
X742440D01*
Y298111D01*
X742545D01*
Y298216D01*
X742650D01*
Y298321D01*
X742545D01*
Y298427D01*
X742650D01*
Y298532D01*
X742756D01*
Y298637D01*
X742650D01*
Y298742D01*
X742756D01*
Y298637D01*
X742861D01*
Y298742D01*
X742756D01*
Y298847D01*
X742861D01*
Y298953D01*
X742966D01*
Y299058D01*
X743071D01*
Y299374D01*
X743176D01*
Y299479D01*
X743282D01*
Y299584D01*
X743387D01*
Y299689D01*
X743492D01*
Y299795D01*
X743597D01*
Y299900D01*
X743492D01*
Y300005D01*
X743597D01*
Y299900D01*
X743703D01*
Y300215D01*
X743808D01*
Y300110D01*
X743913D01*
Y300426D01*
X744018D01*
Y300321D01*
X744123D01*
Y300426D01*
X744229D01*
Y300531D01*
X744334D01*
Y300636D01*
X744439D01*
Y300742D01*
X744334D01*
Y300847D01*
X744439D01*
Y300742D01*
X744544D01*
Y300847D01*
X744650D01*
Y300742D01*
X744755D01*
Y300847D01*
X744650D01*
Y300952D01*
X744755D01*
Y301057D01*
X744860D01*
Y300952D01*
X744965D01*
Y301057D01*
X745071D01*
Y301163D01*
X745176D01*
Y301268D01*
X745386D01*
Y301478D01*
X745491D01*
Y301373D01*
X745597D01*
Y301478D01*
X745702D01*
Y301583D01*
X746018D01*
Y301689D01*
X746333D01*
Y301794D01*
X746439D01*
Y301899D01*
X746544D01*
Y301794D01*
X746649D01*
Y301899D01*
X746754D01*
Y301794D01*
X746859D01*
Y301899D01*
X746965D01*
Y302004D01*
X747070D01*
Y301899D01*
X747175D01*
Y302004D01*
X747280D01*
Y302110D01*
X747386D01*
Y302004D01*
X747491D01*
Y302110D01*
X747596D01*
Y302004D01*
X747701D01*
Y302110D01*
X747807D01*
Y302004D01*
X747912D01*
Y302110D01*
X748017D01*
Y302004D01*
X748122D01*
Y302110D01*
X748227D01*
Y302004D01*
X748333D01*
Y302110D01*
X748438D01*
Y302004D01*
X748543D01*
Y302110D01*
X748648D01*
Y302004D01*
X748753D01*
Y302110D01*
X748859D01*
Y302004D01*
X748964D01*
Y302110D01*
X749069D01*
Y302004D01*
X749174D01*
Y302110D01*
X749280D01*
Y302004D01*
X749385D01*
Y302110D01*
X749490D01*
Y302004D01*
D02*
G37*
G36*
X752121Y291166D02*
X752226D01*
Y291060D01*
X752331D01*
Y290955D01*
X752437D01*
Y290850D01*
X752331D01*
Y290745D01*
X752437D01*
Y290639D01*
X752331D01*
Y290745D01*
X752226D01*
Y290639D01*
X752331D01*
Y290534D01*
X752437D01*
Y290429D01*
X752331D01*
Y290324D01*
X752437D01*
Y290219D01*
X752331D01*
Y290324D01*
X752226D01*
Y290219D01*
X752331D01*
Y290113D01*
X752437D01*
Y290008D01*
X752331D01*
Y289903D01*
X752437D01*
Y289798D01*
X752331D01*
Y289903D01*
X752226D01*
Y289798D01*
X752331D01*
Y289692D01*
X752437D01*
Y289587D01*
X752331D01*
Y289482D01*
X752437D01*
Y289377D01*
X752331D01*
Y289482D01*
X752226D01*
Y289377D01*
X752331D01*
Y289271D01*
X752437D01*
Y289166D01*
X752331D01*
Y289061D01*
X752437D01*
Y288956D01*
X752331D01*
Y289061D01*
X752226D01*
Y288956D01*
X752331D01*
Y288851D01*
X752437D01*
Y288745D01*
X752331D01*
Y288640D01*
X752437D01*
Y288535D01*
X752331D01*
Y288640D01*
X752226D01*
Y288535D01*
X752331D01*
Y288430D01*
X752437D01*
Y288324D01*
X752331D01*
Y288219D01*
X752437D01*
Y288114D01*
X752331D01*
Y288219D01*
X752226D01*
Y288114D01*
X752331D01*
Y288009D01*
X752437D01*
Y287903D01*
X752331D01*
Y287798D01*
X752437D01*
Y287693D01*
X752331D01*
Y287798D01*
X752226D01*
Y287693D01*
X752331D01*
Y287588D01*
X752437D01*
Y287483D01*
X752331D01*
Y287377D01*
X752437D01*
Y287272D01*
X752331D01*
Y287377D01*
X752226D01*
Y287272D01*
X752331D01*
Y287167D01*
X752437D01*
Y287062D01*
X752331D01*
Y286957D01*
X752437D01*
Y286851D01*
X752331D01*
Y286957D01*
X752226D01*
Y286851D01*
X752331D01*
Y286746D01*
X752437D01*
Y286641D01*
X752331D01*
Y286536D01*
X752437D01*
Y286430D01*
X752331D01*
Y286536D01*
X752226D01*
Y286430D01*
X752331D01*
Y286325D01*
X752437D01*
Y286220D01*
X752331D01*
Y286115D01*
X752437D01*
Y286009D01*
X752331D01*
Y286115D01*
X752226D01*
Y286009D01*
X752331D01*
Y285904D01*
X752437D01*
Y285799D01*
X752331D01*
Y285904D01*
X752226D01*
Y285799D01*
X752331D01*
Y285694D01*
X752437D01*
Y285589D01*
X752331D01*
Y285694D01*
X752226D01*
Y285589D01*
X752331D01*
Y285483D01*
X752437D01*
Y285378D01*
X752331D01*
Y285483D01*
X752226D01*
Y285378D01*
X752331D01*
Y285273D01*
X752437D01*
Y285168D01*
X752331D01*
Y285273D01*
X752226D01*
Y285168D01*
X752331D01*
Y285062D01*
X752226D01*
Y284957D01*
X752331D01*
Y284852D01*
X752226D01*
Y284747D01*
X752331D01*
Y284641D01*
X752226D01*
Y284326D01*
X752121D01*
Y284221D01*
X752226D01*
Y284115D01*
X752121D01*
Y284010D01*
X752226D01*
Y283905D01*
X752121D01*
Y283800D01*
X752016D01*
Y283694D01*
X752121D01*
Y283589D01*
X752016D01*
Y283273D01*
X751910D01*
Y283168D01*
X752016D01*
Y283063D01*
X751910D01*
Y283168D01*
X751805D01*
Y283063D01*
X751910D01*
Y282958D01*
X751805D01*
Y282642D01*
X751700D01*
Y282537D01*
X751595D01*
Y282221D01*
X751489D01*
Y282116D01*
X751384D01*
Y282011D01*
X751279D01*
Y281905D01*
X751174D01*
Y281590D01*
X751069D01*
Y281485D01*
X750963D01*
Y281379D01*
X750858D01*
Y281274D01*
X750753D01*
Y281169D01*
X750648D01*
Y281274D01*
X750542D01*
Y281169D01*
X750437D01*
Y281064D01*
X750332D01*
Y280958D01*
X750121D01*
Y280748D01*
X750016D01*
Y280853D01*
X749911D01*
Y280748D01*
X749806D01*
Y280853D01*
X749701D01*
Y280748D01*
X749595D01*
Y280643D01*
X749490D01*
Y280537D01*
X749385D01*
Y280643D01*
X749280D01*
Y280537D01*
X749174D01*
Y280643D01*
X749069D01*
Y280537D01*
X748964D01*
Y280643D01*
X748859D01*
Y280537D01*
X748753D01*
Y280643D01*
X748648D01*
Y280537D01*
X748543D01*
Y280643D01*
X748227D01*
Y280748D01*
X747912D01*
Y280853D01*
X747701D01*
Y281064D01*
X747596D01*
Y280958D01*
X747491D01*
Y281064D01*
X747386D01*
Y281169D01*
X747280D01*
Y281485D01*
X747175D01*
Y281379D01*
X747070D01*
Y281695D01*
X746965D01*
Y281800D01*
X746859D01*
Y281905D01*
X746754D01*
Y281800D01*
X746859D01*
Y281695D01*
X746754D01*
Y281379D01*
X746649D01*
Y281274D01*
X746544D01*
Y281169D01*
X746439D01*
Y281064D01*
X746333D01*
Y280958D01*
X746228D01*
Y280853D01*
X746123D01*
Y280748D01*
X746018D01*
Y280643D01*
X746123D01*
Y280537D01*
X746018D01*
Y280643D01*
X745912D01*
Y280537D01*
X745807D01*
Y280432D01*
X745702D01*
Y280327D01*
X745597D01*
Y280432D01*
X745491D01*
Y280327D01*
X745176D01*
Y280222D01*
X744860D01*
Y280117D01*
X744755D01*
Y280222D01*
X744650D01*
Y280117D01*
X744544D01*
Y280222D01*
X744439D01*
Y280117D01*
X744334D01*
Y280222D01*
X744018D01*
Y280327D01*
X743703D01*
Y280432D01*
X743597D01*
Y280327D01*
X743492D01*
Y280643D01*
X743387D01*
Y280537D01*
X743282D01*
Y280643D01*
X743176D01*
Y280748D01*
X743071D01*
Y280853D01*
X742966D01*
Y280958D01*
X742861D01*
Y281064D01*
X742756D01*
Y281169D01*
X742650D01*
Y281485D01*
X742545D01*
Y281590D01*
X742440D01*
Y281695D01*
X742545D01*
Y281800D01*
X742440D01*
Y281905D01*
X742335D01*
Y282011D01*
X742440D01*
Y282116D01*
X742335D01*
Y282221D01*
X742229D01*
Y282326D01*
X742335D01*
Y282432D01*
X742229D01*
Y282747D01*
X742124D01*
Y282853D01*
X742229D01*
Y282958D01*
X742124D01*
Y283063D01*
X742229D01*
Y283168D01*
X742124D01*
Y283273D01*
X742019D01*
Y283379D01*
X742124D01*
Y283484D01*
X742019D01*
Y283589D01*
X742124D01*
Y283694D01*
X742019D01*
Y283800D01*
X742124D01*
Y283905D01*
X742019D01*
Y284010D01*
X742124D01*
Y284115D01*
X742019D01*
Y284221D01*
X742124D01*
Y284326D01*
X742019D01*
Y284641D01*
X742124D01*
Y284747D01*
X742019D01*
Y284852D01*
X742124D01*
Y284957D01*
X742019D01*
Y285062D01*
X742124D01*
Y285168D01*
X742019D01*
Y285483D01*
X742124D01*
Y285589D01*
X742019D01*
Y285694D01*
X742124D01*
Y285799D01*
X742019D01*
Y285904D01*
X742124D01*
Y286009D01*
X742019D01*
Y286325D01*
X742124D01*
Y286430D01*
X742019D01*
Y286536D01*
X742124D01*
Y286641D01*
X742019D01*
Y286746D01*
X742124D01*
Y286851D01*
X742019D01*
Y287167D01*
X742124D01*
Y287272D01*
X742019D01*
Y287377D01*
X742124D01*
Y287483D01*
X742019D01*
Y287588D01*
X742124D01*
Y287693D01*
X742019D01*
Y288009D01*
X742124D01*
Y288114D01*
X742019D01*
Y288219D01*
X742124D01*
Y288324D01*
X742019D01*
Y288430D01*
X742124D01*
Y288535D01*
X742019D01*
Y288640D01*
X742124D01*
Y288745D01*
X742440D01*
Y288851D01*
X742545D01*
Y288745D01*
X742650D01*
Y288851D01*
X742966D01*
Y288956D01*
X743071D01*
Y289061D01*
X743176D01*
Y288956D01*
X743282D01*
Y289061D01*
X743387D01*
Y288956D01*
X743492D01*
Y289061D01*
X743703D01*
Y289166D01*
X743913D01*
Y289271D01*
X744018D01*
Y289166D01*
X744123D01*
Y289271D01*
X744229D01*
Y289166D01*
X744334D01*
Y289271D01*
X744439D01*
Y289377D01*
X744544D01*
Y289271D01*
X744650D01*
Y289377D01*
X744755D01*
Y289482D01*
X744860D01*
Y289377D01*
X744965D01*
Y289482D01*
X745071D01*
Y289377D01*
X745176D01*
Y289482D01*
X745281D01*
Y289587D01*
X745597D01*
Y289692D01*
X745702D01*
Y289587D01*
X745807D01*
Y289692D01*
X745912D01*
Y289587D01*
X746018D01*
Y289692D01*
X746123D01*
Y289798D01*
X746228D01*
Y289692D01*
X746333D01*
Y289798D01*
X746439D01*
Y289903D01*
X746544D01*
Y289798D01*
X746649D01*
Y289903D01*
X746754D01*
Y289798D01*
X746859D01*
Y289903D01*
X746965D01*
Y290008D01*
X747280D01*
Y290113D01*
X747386D01*
Y290008D01*
X747491D01*
Y290113D01*
X747807D01*
Y290219D01*
X748122D01*
Y290324D01*
X748227D01*
Y290219D01*
X748333D01*
Y290324D01*
X748438D01*
Y290219D01*
X748543D01*
Y290324D01*
X748648D01*
Y290429D01*
X748753D01*
Y290534D01*
X748859D01*
Y290429D01*
X748964D01*
Y290534D01*
X749069D01*
Y290429D01*
X749174D01*
Y290534D01*
X749490D01*
Y290639D01*
X749595D01*
Y290745D01*
X749701D01*
Y290639D01*
X749806D01*
Y290745D01*
X749911D01*
Y290639D01*
X750016D01*
Y290745D01*
X750121D01*
Y290639D01*
X750227D01*
Y290745D01*
X750121D01*
Y290850D01*
X750227D01*
Y290745D01*
X750332D01*
Y290850D01*
X750437D01*
Y290955D01*
X750542D01*
Y290850D01*
X750648D01*
Y290955D01*
X750753D01*
Y290850D01*
X750858D01*
Y290955D01*
X751174D01*
Y291060D01*
X751489D01*
Y291166D01*
X751805D01*
Y291271D01*
X751910D01*
Y291166D01*
X752016D01*
Y291271D01*
X752121D01*
Y291166D01*
D02*
G37*
G36*
X750753Y372719D02*
X750858D01*
Y372614D01*
X750963D01*
Y372719D01*
X751069D01*
Y372614D01*
X751384D01*
Y372508D01*
X751489D01*
Y372614D01*
X751595D01*
Y372508D01*
X751700D01*
Y372614D01*
X751805D01*
Y372508D01*
X751910D01*
Y372403D01*
X752226D01*
Y372298D01*
X752331D01*
Y372403D01*
X752437D01*
Y372298D01*
X752542D01*
Y372193D01*
X752647D01*
Y372087D01*
X752752D01*
Y372193D01*
X752857D01*
Y372087D01*
X752963D01*
Y371982D01*
X753068D01*
Y371877D01*
X753173D01*
Y371982D01*
X753278D01*
Y371877D01*
X753384D01*
Y371772D01*
X753489D01*
Y371666D01*
X753594D01*
Y371561D01*
X753910D01*
Y371456D01*
X754015D01*
Y371351D01*
X754120D01*
Y371246D01*
X754225D01*
Y371140D01*
X754331D01*
Y371035D01*
X754436D01*
Y370930D01*
X754541D01*
Y370825D01*
X754646D01*
Y370719D01*
X754752D01*
Y370614D01*
X754857D01*
Y370509D01*
X754962D01*
Y370404D01*
X755067D01*
Y370298D01*
X755173D01*
Y369983D01*
X755278D01*
Y369878D01*
X755383D01*
Y369772D01*
X755488D01*
Y369667D01*
X755593D01*
Y369351D01*
X755699D01*
Y369246D01*
X755804D01*
Y368930D01*
X755909D01*
Y368825D01*
X756014D01*
Y368510D01*
X756120D01*
Y368404D01*
X756225D01*
Y368089D01*
X756330D01*
Y367983D01*
X756435D01*
Y367878D01*
X756330D01*
Y367773D01*
X756435D01*
Y367457D01*
X756540D01*
Y367352D01*
X756646D01*
Y367247D01*
X756540D01*
Y367352D01*
X756435D01*
Y367247D01*
X756540D01*
Y367142D01*
X756646D01*
Y366826D01*
X756751D01*
Y366721D01*
X756646D01*
Y366615D01*
X756751D01*
Y366510D01*
X756856D01*
Y366405D01*
X756751D01*
Y366300D01*
X756856D01*
Y365774D01*
X756961D01*
Y365668D01*
X757067D01*
Y365563D01*
X756961D01*
Y365668D01*
X756856D01*
Y365563D01*
X756961D01*
Y365458D01*
X757067D01*
Y365353D01*
X756961D01*
Y365458D01*
X756856D01*
Y365353D01*
X756961D01*
Y365247D01*
X757067D01*
Y365142D01*
X756961D01*
Y365247D01*
X756856D01*
Y365142D01*
X756961D01*
Y365037D01*
X757067D01*
Y364932D01*
X756961D01*
Y364826D01*
X757067D01*
Y362617D01*
X756961D01*
Y362511D01*
X757067D01*
Y362406D01*
X756961D01*
Y362301D01*
X757067D01*
Y362196D01*
X756961D01*
Y362301D01*
X756856D01*
Y362196D01*
X756961D01*
Y362090D01*
X757067D01*
Y361985D01*
X756961D01*
Y362090D01*
X756856D01*
Y361985D01*
X756961D01*
Y361880D01*
X757067D01*
Y361775D01*
X756961D01*
Y361880D01*
X756856D01*
Y361775D01*
X756961D01*
Y361670D01*
X756856D01*
Y361564D01*
X756961D01*
Y361459D01*
X756856D01*
Y361143D01*
X756751D01*
Y361038D01*
X756856D01*
Y360933D01*
X756751D01*
Y360828D01*
X756856D01*
Y360722D01*
X756751D01*
Y360828D01*
X756646D01*
Y360722D01*
X756751D01*
Y360617D01*
X756646D01*
Y360512D01*
X756751D01*
Y360407D01*
X756646D01*
Y359881D01*
X756540D01*
Y359775D01*
X756646D01*
Y359670D01*
X756540D01*
Y359775D01*
X756435D01*
Y359670D01*
X756540D01*
Y359565D01*
X756435D01*
Y359249D01*
X756330D01*
Y359144D01*
X756435D01*
Y359039D01*
X756330D01*
Y358723D01*
X756225D01*
Y358407D01*
X756120D01*
Y358092D01*
X756014D01*
Y357776D01*
X755909D01*
Y357671D01*
X755804D01*
Y357566D01*
X755909D01*
Y357460D01*
X755804D01*
Y357355D01*
X755699D01*
Y357250D01*
X755804D01*
Y357145D01*
X755699D01*
Y357250D01*
X755593D01*
Y357145D01*
X755699D01*
Y357039D01*
X755593D01*
Y356724D01*
X755488D01*
Y356618D01*
X755383D01*
Y356303D01*
X755278D01*
Y356198D01*
X755173D01*
Y356092D01*
X755278D01*
Y355987D01*
X755173D01*
Y355882D01*
X755067D01*
Y355777D01*
X754962D01*
Y355461D01*
X754857D01*
Y355356D01*
X754752D01*
Y355040D01*
X754646D01*
Y354935D01*
X754541D01*
Y354830D01*
X754436D01*
Y354724D01*
X754541D01*
Y354619D01*
X754436D01*
Y354724D01*
X754331D01*
Y354619D01*
X754436D01*
Y354514D01*
X754331D01*
Y354409D01*
X754225D01*
Y354304D01*
X754120D01*
Y353988D01*
X754015D01*
Y353883D01*
X753910D01*
Y353777D01*
X753805D01*
Y353672D01*
X753699D01*
Y353567D01*
X753594D01*
Y353462D01*
X753699D01*
Y353356D01*
X753594D01*
Y353462D01*
X753489D01*
Y353146D01*
X753384D01*
Y353251D01*
X753278D01*
Y353146D01*
X753384D01*
Y353041D01*
X753278D01*
Y352936D01*
X753173D01*
Y353041D01*
X753068D01*
Y352936D01*
X753173D01*
Y352830D01*
X753068D01*
Y352725D01*
X752963D01*
Y352620D01*
X752857D01*
Y352515D01*
X752752D01*
Y352409D01*
X752647D01*
Y352304D01*
X752542D01*
Y352199D01*
X752437D01*
Y352094D01*
X752331D01*
Y351988D01*
X752226D01*
Y351883D01*
X752121D01*
Y351778D01*
X752016D01*
Y351673D01*
X751910D01*
Y351568D01*
X751805D01*
Y351462D01*
X751700D01*
Y351357D01*
X751595D01*
Y351252D01*
X751489D01*
Y351357D01*
X751384D01*
Y351041D01*
X751279D01*
Y351147D01*
X751174D01*
Y351041D01*
X751069D01*
Y350936D01*
X751174D01*
Y350831D01*
X751069D01*
Y350936D01*
X750963D01*
Y350831D01*
X750858D01*
Y350726D01*
X750753D01*
Y350620D01*
X750542D01*
Y350515D01*
X750332D01*
Y350410D01*
X750227D01*
Y350305D01*
X750121D01*
Y350200D01*
X750016D01*
Y350305D01*
X749911D01*
Y350200D01*
X749806D01*
Y350515D01*
X749911D01*
Y350620D01*
X749806D01*
Y350936D01*
X749911D01*
Y351041D01*
X749806D01*
Y351357D01*
X749911D01*
Y351462D01*
X749806D01*
Y351778D01*
X749911D01*
Y351883D01*
X749806D01*
Y352199D01*
X749911D01*
Y352304D01*
X749806D01*
Y352620D01*
X749911D01*
Y352725D01*
X749806D01*
Y353041D01*
X749911D01*
Y353146D01*
X749806D01*
Y353462D01*
X749911D01*
Y353567D01*
X749806D01*
Y353883D01*
X749911D01*
Y353988D01*
X749806D01*
Y354304D01*
X749911D01*
Y354409D01*
X749806D01*
Y354724D01*
X749911D01*
Y354830D01*
X749806D01*
Y355145D01*
X749911D01*
Y355251D01*
X749806D01*
Y355356D01*
X749911D01*
Y355251D01*
X750016D01*
Y355356D01*
X750121D01*
Y355461D01*
X750227D01*
Y355566D01*
X750332D01*
Y355672D01*
X750437D01*
Y355777D01*
X750648D01*
Y355987D01*
X750753D01*
Y355882D01*
X750858D01*
Y356092D01*
X751069D01*
Y356198D01*
X751174D01*
Y356303D01*
X751069D01*
Y356408D01*
X751174D01*
Y356303D01*
X751279D01*
Y356408D01*
X751384D01*
Y356513D01*
X751489D01*
Y356829D01*
X751595D01*
Y356724D01*
X751700D01*
Y356934D01*
X751805D01*
Y357039D01*
X751910D01*
Y357250D01*
X752016D01*
Y357355D01*
X752121D01*
Y357460D01*
X752226D01*
Y357566D01*
X752331D01*
Y357671D01*
X752437D01*
Y357776D01*
X752331D01*
Y357881D01*
X752437D01*
Y357776D01*
X752542D01*
Y357881D01*
X752437D01*
Y357986D01*
X752542D01*
Y358092D01*
X752647D01*
Y358197D01*
X752752D01*
Y358513D01*
X752857D01*
Y358618D01*
X752963D01*
Y358723D01*
X753068D01*
Y358828D01*
X753173D01*
Y358934D01*
X753068D01*
Y359039D01*
X753173D01*
Y359354D01*
X753278D01*
Y359460D01*
X753384D01*
Y359565D01*
X753489D01*
Y359670D01*
X753384D01*
Y359775D01*
X753489D01*
Y359670D01*
X753594D01*
Y359775D01*
X753489D01*
Y359881D01*
X753384D01*
Y359986D01*
X753489D01*
Y359881D01*
X753594D01*
Y360196D01*
X753699D01*
Y360302D01*
X753594D01*
Y360407D01*
X753699D01*
Y360302D01*
X753805D01*
Y360407D01*
X753699D01*
Y360512D01*
X753805D01*
Y360828D01*
X753910D01*
Y360933D01*
X753805D01*
Y361038D01*
X753910D01*
Y360933D01*
X754015D01*
Y361038D01*
X753910D01*
Y361143D01*
X754015D01*
Y361670D01*
X754120D01*
Y361775D01*
X754015D01*
Y361880D01*
X754120D01*
Y361985D01*
X754225D01*
Y362090D01*
X754120D01*
Y362196D01*
X754225D01*
Y362511D01*
X754331D01*
Y362617D01*
X754225D01*
Y362722D01*
X754331D01*
Y362827D01*
X754225D01*
Y362932D01*
X754331D01*
Y362827D01*
X754436D01*
Y362932D01*
X754331D01*
Y363038D01*
X754436D01*
Y363143D01*
X754331D01*
Y363248D01*
X754436D01*
Y363985D01*
X754541D01*
Y364090D01*
X754436D01*
Y364195D01*
X754541D01*
Y364300D01*
X754436D01*
Y364405D01*
X754541D01*
Y364511D01*
X754436D01*
Y364616D01*
X754541D01*
Y364511D01*
X754646D01*
Y364616D01*
X754541D01*
Y364721D01*
X754436D01*
Y364826D01*
X754541D01*
Y364932D01*
X754436D01*
Y365037D01*
X754541D01*
Y364932D01*
X754646D01*
Y365037D01*
X754541D01*
Y365142D01*
X754436D01*
Y365247D01*
X754541D01*
Y365142D01*
X754646D01*
Y365247D01*
X754541D01*
Y365353D01*
X754646D01*
Y365458D01*
X754541D01*
Y365563D01*
X754436D01*
Y365668D01*
X754541D01*
Y365563D01*
X754646D01*
Y365668D01*
X754541D01*
Y365774D01*
X754646D01*
Y365879D01*
X754541D01*
Y365984D01*
X754436D01*
Y366089D01*
X754541D01*
Y365984D01*
X754646D01*
Y366089D01*
X754541D01*
Y366195D01*
X754436D01*
Y366300D01*
X754541D01*
Y366195D01*
X754646D01*
Y366300D01*
X754541D01*
Y366405D01*
X754436D01*
Y366510D01*
X754541D01*
Y366615D01*
X754436D01*
Y366721D01*
X754541D01*
Y366615D01*
X754646D01*
Y366721D01*
X754541D01*
Y366826D01*
X754436D01*
Y366931D01*
X754541D01*
Y367036D01*
X754436D01*
Y367773D01*
X754331D01*
Y367878D01*
X754225D01*
Y367983D01*
X754331D01*
Y368089D01*
X754225D01*
Y368404D01*
X754120D01*
Y368510D01*
X754015D01*
Y368615D01*
X754120D01*
Y368510D01*
X754225D01*
Y368615D01*
X754120D01*
Y368720D01*
X754015D01*
Y369036D01*
X753910D01*
Y369141D01*
X753805D01*
Y369246D01*
X753910D01*
Y369351D01*
X753805D01*
Y369457D01*
X753699D01*
Y369562D01*
X753805D01*
Y369667D01*
X753699D01*
Y369772D01*
X753594D01*
Y369878D01*
X753489D01*
Y369983D01*
X753384D01*
Y370088D01*
X753489D01*
Y369983D01*
X753594D01*
Y370088D01*
X753489D01*
Y370193D01*
X753384D01*
Y370298D01*
X753278D01*
Y370404D01*
X753173D01*
Y370719D01*
X752963D01*
Y370930D01*
X752857D01*
Y371035D01*
X752752D01*
Y371140D01*
X752647D01*
Y371246D01*
X752542D01*
Y371351D01*
X752437D01*
Y371456D01*
X752331D01*
Y371561D01*
X752226D01*
Y371666D01*
X752121D01*
Y371772D01*
X751910D01*
Y371982D01*
X751805D01*
Y371877D01*
X751700D01*
Y371982D01*
X751595D01*
Y372087D01*
X751489D01*
Y372193D01*
X751384D01*
Y372298D01*
X751069D01*
Y372403D01*
X750963D01*
Y372508D01*
X750858D01*
Y372614D01*
X750753D01*
Y372508D01*
X750648D01*
Y372614D01*
X750542D01*
Y372719D01*
X750437D01*
Y372824D01*
X750542D01*
Y372719D01*
X750648D01*
Y372824D01*
X750753D01*
Y372719D01*
D02*
G37*
G36*
X748227Y372298D02*
X748438D01*
Y372193D01*
X748648D01*
Y372087D01*
X748753D01*
Y371982D01*
X748859D01*
Y371877D01*
X748964D01*
Y371772D01*
X749069D01*
Y371456D01*
X749174D01*
Y371351D01*
X749280D01*
Y370825D01*
X749385D01*
Y370719D01*
X749490D01*
Y370614D01*
X749385D01*
Y370719D01*
X749280D01*
Y370614D01*
X749385D01*
Y370298D01*
X749490D01*
Y370193D01*
X749385D01*
Y369878D01*
X749490D01*
Y369772D01*
X749385D01*
Y369878D01*
X749280D01*
Y369772D01*
X749385D01*
Y369667D01*
X749280D01*
Y369351D01*
X749174D01*
Y369246D01*
X749280D01*
Y369141D01*
X749174D01*
Y369036D01*
X749069D01*
Y368720D01*
X748964D01*
Y368615D01*
X749069D01*
Y368510D01*
X748964D01*
Y368615D01*
X748859D01*
Y368510D01*
X748753D01*
Y368404D01*
X748648D01*
Y368299D01*
X748543D01*
Y368194D01*
X748438D01*
Y368089D01*
X748333D01*
Y367983D01*
X748227D01*
Y367878D01*
X748122D01*
Y367773D01*
X747807D01*
Y367668D01*
X747701D01*
Y367773D01*
X747596D01*
Y367668D01*
X747491D01*
Y367562D01*
X747386D01*
Y367457D01*
X747280D01*
Y367562D01*
X747175D01*
Y367457D01*
X747070D01*
Y367562D01*
X746965D01*
Y367457D01*
X746439D01*
Y367352D01*
X746544D01*
Y367247D01*
X746439D01*
Y367352D01*
X746123D01*
Y367247D01*
X746018D01*
Y367352D01*
X745912D01*
Y367247D01*
X745386D01*
Y367142D01*
X745071D01*
Y367036D01*
X744965D01*
Y367142D01*
X744860D01*
Y367036D01*
X744544D01*
Y366931D01*
X744018D01*
Y366826D01*
X743913D01*
Y366931D01*
X743808D01*
Y366826D01*
X743492D01*
Y366931D01*
X743387D01*
Y366826D01*
X743492D01*
Y366721D01*
X743387D01*
Y366826D01*
X743282D01*
Y366721D01*
X743176D01*
Y366615D01*
X743071D01*
Y366721D01*
X742966D01*
Y366615D01*
X742861D01*
Y366721D01*
X742756D01*
Y366826D01*
X742650D01*
Y366931D01*
X742756D01*
Y367036D01*
X742861D01*
Y367142D01*
X742756D01*
Y367247D01*
X742650D01*
Y367352D01*
X742756D01*
Y367457D01*
X742861D01*
Y367562D01*
X742756D01*
Y367668D01*
X742650D01*
Y367773D01*
X742756D01*
Y367878D01*
X742861D01*
Y367983D01*
X742756D01*
Y368089D01*
X742650D01*
Y368194D01*
X742756D01*
Y368299D01*
X742861D01*
Y368404D01*
X742966D01*
Y368299D01*
X743071D01*
Y368404D01*
X743176D01*
Y368510D01*
X743282D01*
Y368404D01*
X743387D01*
Y368510D01*
X743703D01*
Y368615D01*
X743808D01*
Y368510D01*
X743913D01*
Y368615D01*
X744018D01*
Y368510D01*
X744123D01*
Y368615D01*
X744229D01*
Y368510D01*
X744334D01*
Y368615D01*
X744439D01*
Y368720D01*
X744544D01*
Y368825D01*
X744650D01*
Y368720D01*
X744755D01*
Y368825D01*
X744860D01*
Y368720D01*
X744965D01*
Y368825D01*
X745071D01*
Y368720D01*
X745176D01*
Y368825D01*
X745281D01*
Y368720D01*
X745386D01*
Y368825D01*
X745281D01*
Y368930D01*
X745386D01*
Y368825D01*
X745491D01*
Y368930D01*
X745597D01*
Y369036D01*
X745702D01*
Y368930D01*
X745807D01*
Y369036D01*
X745912D01*
Y368930D01*
X746018D01*
Y369036D01*
X746123D01*
Y368930D01*
X746228D01*
Y369036D01*
X746333D01*
Y368930D01*
X746439D01*
Y369036D01*
X746544D01*
Y369141D01*
X746649D01*
Y369246D01*
X746754D01*
Y369141D01*
X746859D01*
Y369246D01*
X746965D01*
Y369141D01*
X747070D01*
Y369246D01*
X747175D01*
Y369141D01*
X747280D01*
Y369246D01*
X747386D01*
Y369351D01*
X747701D01*
Y369457D01*
X747807D01*
Y369562D01*
X747912D01*
Y369667D01*
X748017D01*
Y369772D01*
X747912D01*
Y369878D01*
X748017D01*
Y369772D01*
X748122D01*
Y369878D01*
X748017D01*
Y369983D01*
X748122D01*
Y370088D01*
X748017D01*
Y370193D01*
X748122D01*
Y370298D01*
X748017D01*
Y370404D01*
X747912D01*
Y370509D01*
X748017D01*
Y370404D01*
X748122D01*
Y370509D01*
X748017D01*
Y370614D01*
X747912D01*
Y370930D01*
X747807D01*
Y370825D01*
X747701D01*
Y370930D01*
X747596D01*
Y371035D01*
X747491D01*
Y371140D01*
X747386D01*
Y371246D01*
X747491D01*
Y371351D01*
X747596D01*
Y371456D01*
X747701D01*
Y371561D01*
X747596D01*
Y371666D01*
X747701D01*
Y371772D01*
X747807D01*
Y371877D01*
X747701D01*
Y371982D01*
X747807D01*
Y371877D01*
X747912D01*
Y372193D01*
X748017D01*
Y372298D01*
X748122D01*
Y372403D01*
X748227D01*
Y372298D01*
D02*
G37*
G36*
X748333Y366931D02*
X748438D01*
Y366826D01*
X748543D01*
Y366931D01*
X748648D01*
Y366826D01*
X748859D01*
Y366721D01*
X749069D01*
Y366615D01*
X749174D01*
Y366510D01*
X749280D01*
Y366405D01*
X749385D01*
Y366510D01*
X749490D01*
Y366195D01*
X749595D01*
Y366089D01*
X749701D01*
Y365984D01*
X749806D01*
Y365879D01*
X749911D01*
Y365563D01*
X750016D01*
Y365458D01*
X750121D01*
Y365353D01*
X750016D01*
Y365458D01*
X749911D01*
Y365353D01*
X750016D01*
Y365247D01*
X750121D01*
Y364932D01*
X750227D01*
Y364826D01*
X750332D01*
Y364721D01*
X750227D01*
Y364826D01*
X750121D01*
Y364721D01*
X750227D01*
Y364616D01*
X750332D01*
Y364511D01*
X750227D01*
Y364616D01*
X750121D01*
Y364511D01*
X750227D01*
Y364405D01*
X750332D01*
Y364300D01*
X750227D01*
Y364195D01*
X750332D01*
Y364090D01*
X750227D01*
Y363985D01*
X750332D01*
Y363248D01*
X750227D01*
Y363143D01*
X750332D01*
Y362827D01*
X750227D01*
Y362722D01*
X750332D01*
Y362617D01*
X750227D01*
Y362511D01*
X750332D01*
Y362406D01*
X750227D01*
Y362301D01*
X750332D01*
Y362196D01*
X750227D01*
Y362301D01*
X750121D01*
Y362196D01*
X750227D01*
Y362090D01*
X750121D01*
Y361985D01*
X750227D01*
Y361880D01*
X750121D01*
Y361775D01*
X750016D01*
Y361670D01*
X750121D01*
Y361564D01*
X750016D01*
Y361459D01*
X749911D01*
Y361354D01*
X750016D01*
Y361249D01*
X749911D01*
Y361143D01*
X749806D01*
Y361038D01*
X749911D01*
Y360933D01*
X749806D01*
Y361038D01*
X749701D01*
Y360933D01*
X749806D01*
Y360828D01*
X749701D01*
Y360617D01*
X749595D01*
Y360407D01*
X749490D01*
Y360302D01*
X749385D01*
Y360196D01*
X749280D01*
Y360091D01*
X749174D01*
Y359986D01*
X749280D01*
Y359881D01*
X749174D01*
Y359986D01*
X749069D01*
Y359881D01*
X748964D01*
Y359775D01*
X749069D01*
Y359670D01*
X748964D01*
Y359775D01*
X748859D01*
Y359670D01*
X748753D01*
Y360617D01*
X748859D01*
Y360512D01*
X748964D01*
Y360617D01*
X748859D01*
Y360722D01*
X748964D01*
Y360828D01*
X749069D01*
Y360933D01*
X748964D01*
Y361038D01*
X749069D01*
Y360933D01*
X749174D01*
Y361249D01*
X749280D01*
Y361354D01*
X749385D01*
Y361459D01*
X749280D01*
Y361564D01*
X749385D01*
Y361880D01*
X749490D01*
Y361985D01*
X749595D01*
Y362090D01*
X749490D01*
Y362196D01*
X749595D01*
Y362932D01*
X749701D01*
Y363038D01*
X749595D01*
Y363143D01*
X749701D01*
Y363248D01*
X749595D01*
Y363353D01*
X749701D01*
Y363458D01*
X749595D01*
Y363564D01*
X749701D01*
Y363669D01*
X749595D01*
Y363774D01*
X749701D01*
Y363879D01*
X749595D01*
Y364405D01*
X749490D01*
Y364511D01*
X749595D01*
Y364616D01*
X749490D01*
Y364721D01*
X749385D01*
Y364826D01*
X749490D01*
Y364932D01*
X749385D01*
Y365247D01*
X749280D01*
Y365353D01*
X749174D01*
Y365458D01*
X749069D01*
Y365563D01*
X748964D01*
Y365879D01*
X748859D01*
Y365774D01*
X748753D01*
Y365984D01*
X748543D01*
Y366089D01*
X748438D01*
Y366195D01*
X748122D01*
Y366300D01*
X748017D01*
Y366195D01*
X747912D01*
Y366300D01*
X747807D01*
Y366195D01*
X747701D01*
Y366300D01*
X747596D01*
Y366195D01*
X747491D01*
Y366300D01*
X747386D01*
Y366195D01*
X747280D01*
Y366300D01*
X747175D01*
Y366195D01*
X747070D01*
Y366300D01*
X746965D01*
Y366195D01*
X746754D01*
Y366089D01*
X746544D01*
Y365984D01*
X746439D01*
Y366089D01*
X746333D01*
Y365984D01*
X746228D01*
Y365879D01*
X746123D01*
Y365774D01*
X745912D01*
Y365668D01*
X745702D01*
Y365563D01*
X745597D01*
Y365458D01*
X745491D01*
Y365353D01*
X745386D01*
Y365247D01*
X745281D01*
Y365142D01*
X745176D01*
Y365037D01*
X745071D01*
Y364932D01*
X744965D01*
Y364826D01*
X744860D01*
Y364511D01*
X744755D01*
Y364616D01*
X744650D01*
Y364511D01*
X744755D01*
Y364405D01*
X744650D01*
Y364300D01*
X744544D01*
Y364195D01*
X744650D01*
Y364090D01*
X744544D01*
Y364195D01*
X744439D01*
Y364090D01*
X744544D01*
Y363985D01*
X744439D01*
Y363669D01*
X744334D01*
Y363564D01*
X744439D01*
Y363458D01*
X744334D01*
Y363564D01*
X744229D01*
Y363458D01*
X744334D01*
Y363353D01*
X744229D01*
Y363248D01*
X744334D01*
Y363143D01*
X744229D01*
Y362617D01*
X744123D01*
Y362511D01*
X744229D01*
Y362406D01*
X744123D01*
Y362301D01*
X744229D01*
Y362196D01*
X744123D01*
Y362090D01*
X744229D01*
Y361354D01*
X744334D01*
Y361249D01*
X744439D01*
Y361143D01*
X744334D01*
Y361249D01*
X744229D01*
Y361143D01*
X744334D01*
Y361038D01*
X744439D01*
Y360933D01*
X744544D01*
Y360828D01*
X744439D01*
Y360722D01*
X744544D01*
Y360617D01*
X744650D01*
Y360512D01*
X744755D01*
Y360407D01*
X744860D01*
Y360302D01*
X744965D01*
Y360196D01*
X745071D01*
Y360091D01*
X745176D01*
Y360196D01*
X745281D01*
Y360091D01*
X745386D01*
Y359986D01*
X745702D01*
Y359881D01*
X745807D01*
Y359986D01*
X746123D01*
Y360091D01*
X746228D01*
Y359986D01*
X746333D01*
Y360091D01*
X746439D01*
Y360196D01*
X746544D01*
Y360091D01*
X746649D01*
Y360196D01*
X746754D01*
Y360302D01*
X746859D01*
Y360407D01*
X746965D01*
Y360302D01*
X747070D01*
Y360407D01*
X747175D01*
Y360512D01*
X747280D01*
Y360617D01*
X747386D01*
Y360722D01*
X747491D01*
Y360828D01*
X747596D01*
Y360933D01*
X747701D01*
Y361038D01*
X747807D01*
Y361143D01*
X747701D01*
Y361249D01*
X747807D01*
Y361143D01*
X747912D01*
Y361249D01*
X747807D01*
Y361354D01*
X747912D01*
Y361459D01*
X748017D01*
Y361564D01*
X747912D01*
Y361670D01*
X748017D01*
Y361564D01*
X748122D01*
Y361670D01*
X748017D01*
Y361775D01*
X748122D01*
Y361880D01*
X747807D01*
Y361775D01*
X747701D01*
Y361880D01*
X747596D01*
Y361775D01*
X747491D01*
Y361670D01*
X747175D01*
Y361564D01*
X746859D01*
Y361459D01*
X746754D01*
Y361354D01*
X746439D01*
Y361249D01*
X746333D01*
Y361143D01*
X746228D01*
Y361249D01*
X746123D01*
Y361143D01*
X746018D01*
Y361038D01*
X745912D01*
Y360933D01*
X745807D01*
Y361038D01*
X745702D01*
Y360933D01*
X745597D01*
Y361038D01*
X745491D01*
Y360933D01*
X745386D01*
Y360828D01*
X745491D01*
Y360722D01*
X745386D01*
Y360828D01*
X745281D01*
Y360722D01*
X744965D01*
Y360828D01*
X745071D01*
Y360933D01*
X744965D01*
Y361038D01*
X745071D01*
Y361143D01*
X744965D01*
Y361249D01*
X745071D01*
Y361354D01*
X744965D01*
Y361459D01*
X745071D01*
Y361354D01*
X745176D01*
Y361459D01*
X745071D01*
Y361564D01*
X744965D01*
Y361670D01*
X745071D01*
Y361775D01*
X745176D01*
Y361880D01*
X745281D01*
Y361775D01*
X745386D01*
Y361880D01*
X745281D01*
Y361985D01*
X745176D01*
Y362301D01*
X745071D01*
Y362406D01*
X744965D01*
Y363353D01*
X745071D01*
Y363458D01*
X744965D01*
Y363564D01*
X745071D01*
Y363669D01*
X745176D01*
Y363985D01*
X745281D01*
Y364090D01*
X745386D01*
Y364195D01*
X745491D01*
Y364300D01*
X745597D01*
Y364616D01*
X745702D01*
Y364511D01*
X745807D01*
Y364616D01*
X745702D01*
Y364721D01*
X745807D01*
Y364826D01*
X745912D01*
Y364721D01*
X746018D01*
Y364932D01*
X746228D01*
Y365037D01*
X746333D01*
Y365142D01*
X746439D01*
Y365247D01*
X746649D01*
Y365353D01*
X746859D01*
Y365458D01*
X746965D01*
Y365353D01*
X747070D01*
Y365458D01*
X747386D01*
Y365563D01*
X747280D01*
Y365668D01*
X747386D01*
Y365563D01*
X747491D01*
Y365458D01*
X747596D01*
Y365563D01*
X747701D01*
Y365668D01*
X747807D01*
Y365563D01*
X747912D01*
Y365458D01*
X748227D01*
Y365353D01*
X748333D01*
Y365247D01*
X748438D01*
Y365142D01*
X748543D01*
Y365037D01*
X748648D01*
Y364721D01*
X748753D01*
Y364616D01*
X748859D01*
Y364511D01*
X748753D01*
Y364616D01*
X748648D01*
Y364511D01*
X748753D01*
Y364405D01*
X748859D01*
Y364300D01*
X748753D01*
Y364195D01*
X748859D01*
Y364090D01*
X748753D01*
Y363985D01*
X748859D01*
Y363879D01*
X748753D01*
Y363774D01*
X748648D01*
Y363458D01*
X748543D01*
Y363353D01*
X748438D01*
Y363038D01*
X748543D01*
Y363143D01*
X748648D01*
Y362827D01*
X748753D01*
Y362722D01*
X748859D01*
Y362617D01*
X748753D01*
Y362511D01*
X748859D01*
Y362406D01*
X748753D01*
Y362301D01*
X748859D01*
Y362196D01*
X748753D01*
Y362090D01*
X748859D01*
Y361985D01*
X748753D01*
Y362090D01*
X748648D01*
Y361985D01*
X748753D01*
Y361880D01*
X748648D01*
Y361775D01*
X748753D01*
Y361670D01*
X748648D01*
Y361354D01*
X748543D01*
Y361249D01*
X748438D01*
Y361143D01*
X748543D01*
Y361038D01*
X748438D01*
Y360933D01*
X748333D01*
Y360828D01*
X748227D01*
Y360512D01*
X748122D01*
Y360617D01*
X748017D01*
Y360302D01*
X747912D01*
Y360196D01*
X747807D01*
Y360091D01*
X747701D01*
Y359986D01*
X747596D01*
Y359881D01*
X747491D01*
Y359775D01*
X747386D01*
Y359670D01*
X747280D01*
Y359775D01*
X747175D01*
Y359670D01*
X747070D01*
Y359565D01*
X746965D01*
Y359460D01*
X746859D01*
Y359565D01*
X746754D01*
Y359460D01*
X746649D01*
Y359354D01*
X746544D01*
Y359249D01*
X746439D01*
Y359354D01*
X746333D01*
Y359249D01*
X746228D01*
Y359354D01*
X746123D01*
Y359249D01*
X746018D01*
Y359354D01*
X745912D01*
Y359249D01*
X745597D01*
Y359354D01*
X745491D01*
Y359249D01*
X745386D01*
Y359354D01*
X745281D01*
Y359249D01*
X745176D01*
Y359354D01*
X744860D01*
Y359460D01*
X744755D01*
Y359565D01*
X744650D01*
Y359460D01*
X744544D01*
Y359565D01*
X744439D01*
Y359670D01*
X744334D01*
Y359775D01*
X744229D01*
Y359881D01*
X744123D01*
Y359986D01*
X744018D01*
Y360091D01*
X743913D01*
Y360196D01*
X744018D01*
Y360302D01*
X743913D01*
Y360407D01*
X743808D01*
Y360512D01*
X743913D01*
Y360617D01*
X743808D01*
Y360722D01*
X743703D01*
Y361038D01*
X743597D01*
Y361143D01*
X743492D01*
Y361249D01*
X743597D01*
Y361143D01*
X743703D01*
Y361249D01*
X743597D01*
Y361354D01*
X743492D01*
Y361459D01*
X743597D01*
Y361564D01*
X743492D01*
Y361880D01*
X743597D01*
Y361985D01*
X743492D01*
Y362301D01*
X743597D01*
Y362406D01*
X743492D01*
Y362722D01*
X743597D01*
Y362827D01*
X743492D01*
Y362932D01*
X743597D01*
Y363038D01*
X743492D01*
Y363143D01*
X743597D01*
Y363248D01*
X743703D01*
Y363353D01*
X743597D01*
Y363458D01*
X743703D01*
Y363774D01*
X743808D01*
Y363879D01*
X743703D01*
Y363985D01*
X743808D01*
Y363879D01*
X743913D01*
Y363985D01*
X743808D01*
Y364090D01*
X743913D01*
Y364405D01*
X744018D01*
Y364511D01*
X744123D01*
Y364616D01*
X744018D01*
Y364721D01*
X744123D01*
Y364826D01*
X744229D01*
Y364932D01*
X744334D01*
Y365247D01*
X744439D01*
Y365353D01*
X744544D01*
Y365458D01*
X744650D01*
Y365563D01*
X744755D01*
Y365668D01*
X744860D01*
Y365774D01*
X744965D01*
Y365879D01*
X745071D01*
Y365984D01*
X745176D01*
Y366089D01*
X745281D01*
Y366195D01*
X745386D01*
Y366300D01*
X745597D01*
Y366510D01*
X745702D01*
Y366405D01*
X745807D01*
Y366510D01*
X745912D01*
Y366405D01*
X746018D01*
Y366510D01*
X745912D01*
Y366615D01*
X746018D01*
Y366721D01*
X746123D01*
Y366615D01*
X746228D01*
Y366721D01*
X746439D01*
Y366931D01*
X746544D01*
Y366826D01*
X746649D01*
Y366931D01*
X746754D01*
Y366826D01*
X746859D01*
Y366931D01*
X747175D01*
Y367036D01*
X748122D01*
Y366931D01*
X748227D01*
Y367036D01*
X748333D01*
Y366931D01*
D02*
G37*
G36*
X740651Y366826D02*
X740756D01*
Y366721D01*
X740651D01*
Y366826D01*
X740546D01*
Y366931D01*
X740651D01*
Y366826D01*
D02*
G37*
G36*
X740546Y366089D02*
X740651D01*
Y365984D01*
X740546D01*
Y366089D01*
X740440D01*
Y365774D01*
X740335D01*
Y365668D01*
X740440D01*
Y365563D01*
X740335D01*
Y365458D01*
X740230D01*
Y364932D01*
X740125D01*
Y364826D01*
X740230D01*
Y364721D01*
X740125D01*
Y364826D01*
X740020D01*
Y364721D01*
X740125D01*
Y364616D01*
X740020D01*
Y364300D01*
X739914D01*
Y364195D01*
X740020D01*
Y364090D01*
X739914D01*
Y363774D01*
X739809D01*
Y363248D01*
X739704D01*
Y363143D01*
X739809D01*
Y363038D01*
X739704D01*
Y362722D01*
X739599D01*
Y361985D01*
X739493D01*
Y361880D01*
X739599D01*
Y361775D01*
X739493D01*
Y361670D01*
X739599D01*
Y361564D01*
X739493D01*
Y360828D01*
X739388D01*
Y360722D01*
X739493D01*
Y360617D01*
X739388D01*
Y360512D01*
X739493D01*
Y360407D01*
X739388D01*
Y360302D01*
X739493D01*
Y360196D01*
X739388D01*
Y360091D01*
X739493D01*
Y359986D01*
X739388D01*
Y359881D01*
X739493D01*
Y359565D01*
X739599D01*
Y359460D01*
X739493D01*
Y359354D01*
X739599D01*
Y359249D01*
X739493D01*
Y359144D01*
X739599D01*
Y358618D01*
X739704D01*
Y358513D01*
X739599D01*
Y358407D01*
X739704D01*
Y358302D01*
X739809D01*
Y358197D01*
X739704D01*
Y358092D01*
X739809D01*
Y357776D01*
X739914D01*
Y357460D01*
X740020D01*
Y357145D01*
X740125D01*
Y357039D01*
X740230D01*
Y356724D01*
X740335D01*
Y356618D01*
X740440D01*
Y356303D01*
X740546D01*
Y356198D01*
X740651D01*
Y356092D01*
X740756D01*
Y355987D01*
X740861D01*
Y355882D01*
X740967D01*
Y355777D01*
X741072D01*
Y355566D01*
X741282D01*
Y355356D01*
X741493D01*
Y355251D01*
X741598D01*
Y355145D01*
X741703D01*
Y355040D01*
X741808D01*
Y354935D01*
X741914D01*
Y354830D01*
X742019D01*
Y354935D01*
X742124D01*
Y354409D01*
X742229D01*
Y354304D01*
X742124D01*
Y353567D01*
X742229D01*
Y353462D01*
X742124D01*
Y352725D01*
X742229D01*
Y352620D01*
X742124D01*
Y351883D01*
X742229D01*
Y351778D01*
X742124D01*
Y351041D01*
X742229D01*
Y350936D01*
X742124D01*
Y350200D01*
X742229D01*
Y350094D01*
X742124D01*
Y349779D01*
X742019D01*
Y349884D01*
X741914D01*
Y349779D01*
X741808D01*
Y349884D01*
X741703D01*
Y349989D01*
X741598D01*
Y350094D01*
X741493D01*
Y350200D01*
X741388D01*
Y350305D01*
X741282D01*
Y350410D01*
X741177D01*
Y350515D01*
X741072D01*
Y350620D01*
X740967D01*
Y350726D01*
X740861D01*
Y350620D01*
X740756D01*
Y350936D01*
X740651D01*
Y350831D01*
X740546D01*
Y351147D01*
X740440D01*
Y351252D01*
X740335D01*
Y351357D01*
X740230D01*
Y351462D01*
X740125D01*
Y351568D01*
X740020D01*
Y351673D01*
X739914D01*
Y351988D01*
X739809D01*
Y351883D01*
X739704D01*
Y352199D01*
X739599D01*
Y352304D01*
X739493D01*
Y352620D01*
X739388D01*
Y352725D01*
X739283D01*
Y352830D01*
X739178D01*
Y352936D01*
X739283D01*
Y353041D01*
X739178D01*
Y353146D01*
X739072D01*
Y353251D01*
X738967D01*
Y353356D01*
X738862D01*
Y353462D01*
X738967D01*
Y353356D01*
X739072D01*
Y353462D01*
X738967D01*
Y353567D01*
X738862D01*
Y353883D01*
X738757D01*
Y353988D01*
X738652D01*
Y354093D01*
X738757D01*
Y354198D01*
X738652D01*
Y354514D01*
X738546D01*
Y354619D01*
X738441D01*
Y354724D01*
X738546D01*
Y354830D01*
X738441D01*
Y355145D01*
X738336D01*
Y355251D01*
X738441D01*
Y355356D01*
X738336D01*
Y355461D01*
X738231D01*
Y355566D01*
X738336D01*
Y355461D01*
X738441D01*
Y355566D01*
X738336D01*
Y355672D01*
X738231D01*
Y356198D01*
X738125D01*
Y356303D01*
X738231D01*
Y356408D01*
X738125D01*
Y356513D01*
X738231D01*
Y356618D01*
X738125D01*
Y356724D01*
X738020D01*
Y356829D01*
X738125D01*
Y356724D01*
X738231D01*
Y356829D01*
X738125D01*
Y356934D01*
X738231D01*
Y357039D01*
X738125D01*
Y357145D01*
X738020D01*
Y357250D01*
X738125D01*
Y357355D01*
X738020D01*
Y357460D01*
X738125D01*
Y357355D01*
X738231D01*
Y357460D01*
X738125D01*
Y357566D01*
X738020D01*
Y357671D01*
X738125D01*
Y357776D01*
X738020D01*
Y357881D01*
X738125D01*
Y357776D01*
X738231D01*
Y357881D01*
X738125D01*
Y357986D01*
X738020D01*
Y358092D01*
X738125D01*
Y358197D01*
X738020D01*
Y358302D01*
X738125D01*
Y358197D01*
X738231D01*
Y358302D01*
X738125D01*
Y358407D01*
X738020D01*
Y358513D01*
X738125D01*
Y358618D01*
X738231D01*
Y358723D01*
X738125D01*
Y358828D01*
X738231D01*
Y358934D01*
X738125D01*
Y359039D01*
X738231D01*
Y359144D01*
X738125D01*
Y359249D01*
X738231D01*
Y359986D01*
X738336D01*
Y360091D01*
X738231D01*
Y360196D01*
X738336D01*
Y360091D01*
X738441D01*
Y360196D01*
X738336D01*
Y360302D01*
X738441D01*
Y360407D01*
X738336D01*
Y360512D01*
X738441D01*
Y361038D01*
X738546D01*
Y361354D01*
X738652D01*
Y361880D01*
X738757D01*
Y361985D01*
X738652D01*
Y362090D01*
X738757D01*
Y362196D01*
X738862D01*
Y362722D01*
X738967D01*
Y362827D01*
X739072D01*
Y362932D01*
X738967D01*
Y363038D01*
X739072D01*
Y363353D01*
X739178D01*
Y363458D01*
X739283D01*
Y363564D01*
X739178D01*
Y363669D01*
X739283D01*
Y363985D01*
X739388D01*
Y364090D01*
X739493D01*
Y364405D01*
X739599D01*
Y364511D01*
X739704D01*
Y364826D01*
X739809D01*
Y364932D01*
X739704D01*
Y365037D01*
X739809D01*
Y365142D01*
X739704D01*
Y365247D01*
X739809D01*
Y365142D01*
X739914D01*
Y365458D01*
X740020D01*
Y365563D01*
X740125D01*
Y365879D01*
X740230D01*
Y365984D01*
X740335D01*
Y366300D01*
X740440D01*
Y366405D01*
X740546D01*
Y366089D01*
D02*
G37*
G36*
X749069Y358828D02*
X749174D01*
Y358723D01*
X749280D01*
Y354304D01*
X749069D01*
Y354198D01*
X748964D01*
Y354304D01*
X748859D01*
Y354198D01*
X748753D01*
Y354304D01*
X748648D01*
Y354198D01*
X748543D01*
Y354304D01*
X748438D01*
Y354198D01*
X748333D01*
Y354093D01*
X748122D01*
Y354304D01*
X748017D01*
Y354409D01*
X747912D01*
Y354514D01*
X748017D01*
Y354619D01*
X747912D01*
Y354724D01*
X748017D01*
Y354619D01*
X748122D01*
Y354724D01*
X748017D01*
Y354830D01*
X747912D01*
Y354935D01*
X748017D01*
Y355040D01*
X747912D01*
Y355145D01*
X748017D01*
Y355040D01*
X748122D01*
Y355145D01*
X748017D01*
Y355251D01*
X747912D01*
Y355356D01*
X748017D01*
Y355461D01*
X747912D01*
Y355566D01*
X748017D01*
Y355461D01*
X748122D01*
Y355566D01*
X748017D01*
Y355672D01*
X747912D01*
Y355777D01*
X748017D01*
Y355882D01*
X747912D01*
Y355987D01*
X748017D01*
Y355882D01*
X748122D01*
Y355987D01*
X748017D01*
Y356092D01*
X747912D01*
Y356198D01*
X748017D01*
Y356303D01*
X747912D01*
Y356408D01*
X748017D01*
Y356303D01*
X748122D01*
Y356408D01*
X748017D01*
Y356513D01*
X747912D01*
Y356618D01*
X748017D01*
Y356724D01*
X747912D01*
Y356829D01*
X748017D01*
Y356724D01*
X748122D01*
Y356829D01*
X748017D01*
Y356934D01*
X747701D01*
Y356829D01*
X747386D01*
Y356724D01*
X747280D01*
Y356829D01*
X747175D01*
Y356724D01*
X747070D01*
Y356829D01*
X746965D01*
Y356724D01*
X746859D01*
Y356829D01*
X746754D01*
Y356724D01*
X746649D01*
Y356618D01*
X746333D01*
Y356513D01*
X746228D01*
Y356618D01*
X746123D01*
Y356513D01*
X746018D01*
Y356618D01*
X745912D01*
Y356513D01*
X745807D01*
Y356618D01*
X745702D01*
Y356513D01*
X745597D01*
Y356408D01*
X745491D01*
Y356513D01*
X745386D01*
Y356408D01*
X745281D01*
Y356303D01*
X745176D01*
Y356408D01*
X745071D01*
Y356303D01*
X744965D01*
Y356408D01*
X744860D01*
Y356303D01*
X744755D01*
Y356408D01*
X744650D01*
Y356303D01*
X744544D01*
Y356198D01*
X744229D01*
Y356092D01*
X744123D01*
Y356198D01*
X744018D01*
Y356092D01*
X743913D01*
Y356198D01*
X743808D01*
Y356092D01*
X743703D01*
Y356198D01*
X743597D01*
Y356092D01*
X743492D01*
Y355987D01*
X743387D01*
Y356092D01*
X743282D01*
Y355987D01*
X743176D01*
Y355882D01*
X743071D01*
Y355987D01*
X742966D01*
Y355882D01*
X742861D01*
Y355987D01*
X742756D01*
Y356092D01*
X742861D01*
Y356198D01*
X742756D01*
Y356303D01*
X742650D01*
Y356408D01*
X742756D01*
Y356513D01*
X742861D01*
Y356618D01*
X742756D01*
Y356724D01*
X742650D01*
Y356829D01*
X742756D01*
Y356934D01*
X742861D01*
Y357039D01*
X742756D01*
Y357145D01*
X742650D01*
Y357250D01*
X742756D01*
Y357355D01*
X742861D01*
Y357460D01*
X742756D01*
Y357566D01*
X742861D01*
Y357671D01*
X742966D01*
Y357566D01*
X743071D01*
Y357671D01*
X743387D01*
Y357776D01*
X743492D01*
Y357671D01*
X743597D01*
Y357776D01*
X743703D01*
Y357881D01*
X743808D01*
Y357776D01*
X743913D01*
Y357881D01*
X744018D01*
Y357776D01*
X744123D01*
Y357881D01*
X744439D01*
Y357986D01*
X744544D01*
Y357881D01*
X744650D01*
Y357986D01*
X744755D01*
Y358092D01*
X744860D01*
Y357986D01*
X744965D01*
Y358092D01*
X745071D01*
Y357986D01*
X745176D01*
Y358092D01*
X745491D01*
Y358197D01*
X745807D01*
Y358302D01*
X745912D01*
Y358197D01*
X746018D01*
Y358302D01*
X746123D01*
Y358197D01*
X746228D01*
Y358302D01*
X746544D01*
Y358407D01*
X746859D01*
Y358513D01*
X746965D01*
Y358407D01*
X747070D01*
Y358513D01*
X747175D01*
Y358407D01*
X747280D01*
Y358513D01*
X747596D01*
Y358618D01*
X747701D01*
Y358513D01*
X747807D01*
Y358618D01*
X747912D01*
Y358723D01*
X748017D01*
Y358618D01*
X748122D01*
Y358723D01*
X748227D01*
Y358618D01*
X748333D01*
Y358723D01*
X748648D01*
Y358828D01*
X748753D01*
Y358723D01*
X748859D01*
Y358828D01*
X748964D01*
Y358934D01*
X749069D01*
Y358828D01*
D02*
G37*
G36*
X747386Y353356D02*
X747491D01*
Y353251D01*
X747596D01*
Y353146D01*
X747701D01*
Y353251D01*
X747807D01*
Y353146D01*
X747912D01*
Y353251D01*
X748017D01*
Y352936D01*
X748122D01*
Y353041D01*
X748227D01*
Y352936D01*
X748333D01*
Y352830D01*
X748438D01*
Y352725D01*
X748543D01*
Y352620D01*
X748648D01*
Y352515D01*
X748753D01*
Y352409D01*
X748859D01*
Y352304D01*
X748964D01*
Y352199D01*
X749069D01*
Y351883D01*
X749174D01*
Y351778D01*
X749280D01*
Y351673D01*
X749174D01*
Y351568D01*
X749280D01*
Y351252D01*
X749385D01*
Y351147D01*
X749280D01*
Y351041D01*
X749385D01*
Y350936D01*
X749490D01*
Y350831D01*
X749385D01*
Y350936D01*
X749280D01*
Y350831D01*
X749385D01*
Y350515D01*
X749490D01*
Y350410D01*
X749385D01*
Y350515D01*
X749280D01*
Y350410D01*
X749385D01*
Y350094D01*
X749490D01*
Y349989D01*
X749385D01*
Y350094D01*
X749280D01*
Y349989D01*
X749385D01*
Y349884D01*
X749280D01*
Y349568D01*
X749174D01*
Y349463D01*
X749280D01*
Y349358D01*
X749174D01*
Y349253D01*
X749069D01*
Y349147D01*
X749174D01*
Y349042D01*
X749069D01*
Y348937D01*
X748964D01*
Y348832D01*
X749069D01*
Y348726D01*
X748964D01*
Y348832D01*
X748859D01*
Y348726D01*
X748964D01*
Y348621D01*
X748859D01*
Y348516D01*
X748753D01*
Y348411D01*
X748648D01*
Y348095D01*
X748543D01*
Y347990D01*
X748438D01*
Y347884D01*
X748333D01*
Y347990D01*
X748227D01*
Y348095D01*
X748122D01*
Y348200D01*
X748017D01*
Y348305D01*
X747912D01*
Y348411D01*
X747807D01*
Y348305D01*
X747701D01*
Y348411D01*
X747596D01*
Y348516D01*
X747491D01*
Y348832D01*
X747596D01*
Y348937D01*
X747701D01*
Y349253D01*
X747807D01*
Y349358D01*
X747912D01*
Y349673D01*
X748017D01*
Y349779D01*
X747912D01*
Y349884D01*
X748017D01*
Y349779D01*
X748122D01*
Y349884D01*
X748017D01*
Y349989D01*
X748122D01*
Y350094D01*
X748017D01*
Y350200D01*
X748122D01*
Y350305D01*
X748017D01*
Y350410D01*
X748122D01*
Y350515D01*
X748017D01*
Y350620D01*
X747912D01*
Y350726D01*
X748017D01*
Y350620D01*
X748122D01*
Y350726D01*
X748017D01*
Y350831D01*
X747912D01*
Y351147D01*
X747807D01*
Y351252D01*
X747701D01*
Y351357D01*
X747491D01*
Y351462D01*
X747280D01*
Y351568D01*
X747175D01*
Y351462D01*
X747070D01*
Y351568D01*
X746754D01*
Y351673D01*
X746649D01*
Y351568D01*
X746544D01*
Y351673D01*
X746439D01*
Y351568D01*
X746333D01*
Y351673D01*
X746228D01*
Y351568D01*
X745912D01*
Y351462D01*
X745807D01*
Y351568D01*
X745702D01*
Y351462D01*
X745597D01*
Y351357D01*
X745281D01*
Y351252D01*
X745071D01*
Y351147D01*
X744860D01*
Y351041D01*
X744755D01*
Y350936D01*
X744860D01*
Y350831D01*
X744755D01*
Y350936D01*
X744650D01*
Y350831D01*
X744544D01*
Y350726D01*
X744439D01*
Y350620D01*
X744334D01*
Y350515D01*
X744439D01*
Y350410D01*
X744334D01*
Y350515D01*
X744229D01*
Y350200D01*
X744123D01*
Y350094D01*
X744018D01*
Y349989D01*
X744123D01*
Y349884D01*
X744018D01*
Y349358D01*
X743913D01*
Y349253D01*
X744018D01*
Y348726D01*
X744123D01*
Y348621D01*
X744229D01*
Y348516D01*
X744334D01*
Y348411D01*
X744439D01*
Y348305D01*
X744544D01*
Y348200D01*
X744439D01*
Y347884D01*
X744334D01*
Y347990D01*
X744229D01*
Y347674D01*
X744123D01*
Y347569D01*
X744018D01*
Y347464D01*
X743913D01*
Y347569D01*
X743808D01*
Y347464D01*
X743913D01*
Y347358D01*
X743808D01*
Y347253D01*
X743703D01*
Y347148D01*
X743597D01*
Y347043D01*
X743492D01*
Y347148D01*
X743387D01*
Y347253D01*
X743282D01*
Y347358D01*
X743176D01*
Y347464D01*
X743071D01*
Y347779D01*
X742966D01*
Y347884D01*
X742861D01*
Y348200D01*
X742756D01*
Y348305D01*
X742650D01*
Y348411D01*
X742756D01*
Y348516D01*
X742650D01*
Y349884D01*
X742756D01*
Y349989D01*
X742650D01*
Y350094D01*
X742756D01*
Y350200D01*
X742861D01*
Y350305D01*
X742756D01*
Y350410D01*
X742861D01*
Y350726D01*
X742966D01*
Y350831D01*
X743071D01*
Y351147D01*
X743176D01*
Y351252D01*
X743071D01*
Y351357D01*
X743176D01*
Y351252D01*
X743282D01*
Y351568D01*
X743387D01*
Y351673D01*
X743492D01*
Y351778D01*
X743597D01*
Y351883D01*
X743703D01*
Y351988D01*
X743808D01*
Y352094D01*
X743913D01*
Y352199D01*
X744018D01*
Y352304D01*
X744123D01*
Y352409D01*
X744229D01*
Y352515D01*
X744334D01*
Y352620D01*
X744544D01*
Y352830D01*
X744650D01*
Y352725D01*
X744755D01*
Y352830D01*
X744860D01*
Y352936D01*
X744965D01*
Y353041D01*
X745071D01*
Y352936D01*
X745176D01*
Y353041D01*
X745491D01*
Y353146D01*
X745597D01*
Y353251D01*
X745702D01*
Y353146D01*
X745807D01*
Y353251D01*
X746123D01*
Y353356D01*
X746228D01*
Y353251D01*
X746333D01*
Y353356D01*
X746439D01*
Y353462D01*
X746544D01*
Y353356D01*
X746859D01*
Y353462D01*
X746965D01*
Y353356D01*
X747070D01*
Y353251D01*
X747175D01*
Y353356D01*
X747280D01*
Y353251D01*
X747386D01*
Y353356D01*
X747280D01*
Y353462D01*
X747386D01*
Y353356D01*
D02*
G37*
G36*
X393979Y361492D02*
X394036Y361484D01*
X394106Y361470D01*
X394184Y361449D01*
X394263Y361422D01*
X394342Y361387D01*
X394346D01*
X394350Y361383D01*
X394377Y361370D01*
X394416Y361344D01*
X394460Y361313D01*
X394512Y361269D01*
X394565Y361221D01*
X394617Y361164D01*
X394661Y361099D01*
X394665Y361090D01*
X394678Y361068D01*
X394696Y361029D01*
X394718Y360981D01*
X394739Y360924D01*
X394757Y360859D01*
X394770Y360784D01*
X394774Y360710D01*
Y360701D01*
Y360675D01*
X394770Y360640D01*
X394761Y360592D01*
X394748Y360535D01*
X394726Y360474D01*
X394700Y360413D01*
X394665Y360352D01*
X394661Y360343D01*
X394648Y360325D01*
X394621Y360295D01*
X394586Y360260D01*
X394543Y360221D01*
X394490Y360177D01*
X394429Y360138D01*
X394355Y360098D01*
X394359D01*
X394368Y360094D01*
X394381Y360089D01*
X394398Y360085D01*
X394447Y360068D01*
X394508Y360041D01*
X394578Y360006D01*
X394648Y359963D01*
X394713Y359906D01*
X394774Y359840D01*
X394779Y359832D01*
X394796Y359805D01*
X394822Y359762D01*
X394849Y359705D01*
X394875Y359635D01*
X394901Y359552D01*
X394918Y359456D01*
X394923Y359351D01*
Y359347D01*
Y359333D01*
Y359312D01*
X394918Y359285D01*
X394914Y359250D01*
X394905Y359211D01*
X394897Y359167D01*
X394888Y359119D01*
X394853Y359014D01*
X394827Y358958D01*
X394800Y358905D01*
X394766Y358848D01*
X394726Y358792D01*
X394683Y358735D01*
X394630Y358682D01*
X394626Y358678D01*
X394617Y358669D01*
X394600Y358656D01*
X394578Y358639D01*
X394551Y358617D01*
X394516Y358595D01*
X394477Y358569D01*
X394429Y358547D01*
X394381Y358521D01*
X394324Y358494D01*
X394267Y358472D01*
X394202Y358451D01*
X394132Y358433D01*
X394058Y358420D01*
X393983Y358411D01*
X393900Y358407D01*
X393861D01*
X393835Y358411D01*
X393800Y358416D01*
X393760Y358420D01*
X393717Y358429D01*
X393669Y358438D01*
X393564Y358464D01*
X393455Y358507D01*
X393398Y358534D01*
X393345Y358564D01*
X393293Y358604D01*
X393240Y358643D01*
X393236Y358647D01*
X393227Y358656D01*
X393214Y358669D01*
X393201Y358687D01*
X393179Y358709D01*
X393157Y358739D01*
X393131Y358770D01*
X393105Y358809D01*
X393079Y358853D01*
X393053Y358896D01*
X393004Y359001D01*
X392965Y359124D01*
X392952Y359189D01*
X392943Y359259D01*
X393315Y359307D01*
Y359303D01*
X393319Y359294D01*
X393323Y359277D01*
X393328Y359255D01*
X393332Y359228D01*
X393341Y359198D01*
X393363Y359132D01*
X393393Y359054D01*
X393433Y358980D01*
X393476Y358910D01*
X393529Y358848D01*
X393538Y358844D01*
X393555Y358826D01*
X393590Y358805D01*
X393634Y358783D01*
X393686Y358757D01*
X393752Y358735D01*
X393826Y358717D01*
X393905Y358713D01*
X393931D01*
X393948Y358717D01*
X393997Y358722D01*
X394058Y358735D01*
X394128Y358757D01*
X394202Y358787D01*
X394276Y358831D01*
X394346Y358892D01*
X394355Y358901D01*
X394377Y358927D01*
X394403Y358966D01*
X394438Y359019D01*
X394473Y359084D01*
X394499Y359159D01*
X394521Y359246D01*
X394530Y359342D01*
Y359347D01*
Y359355D01*
Y359368D01*
X394525Y359386D01*
X394521Y359434D01*
X394508Y359491D01*
X394490Y359561D01*
X394460Y359631D01*
X394416Y359700D01*
X394359Y359766D01*
X394350Y359775D01*
X394329Y359792D01*
X394294Y359819D01*
X394246Y359849D01*
X394184Y359880D01*
X394110Y359906D01*
X394027Y359923D01*
X393935Y359932D01*
X393896D01*
X393865Y359928D01*
X393826Y359923D01*
X393782Y359915D01*
X393730Y359906D01*
X393673Y359893D01*
X393717Y360221D01*
X393739D01*
X393756Y360216D01*
X393813D01*
X393861Y360225D01*
X393918Y360234D01*
X393983Y360247D01*
X394058Y360269D01*
X394128Y360299D01*
X394202Y360338D01*
X394206D01*
X394211Y360343D01*
X394232Y360360D01*
X394263Y360391D01*
X394298Y360430D01*
X394333Y360487D01*
X394363Y360553D01*
X394385Y360627D01*
X394394Y360671D01*
Y360719D01*
Y360723D01*
Y360728D01*
Y360754D01*
X394385Y360789D01*
X394377Y360837D01*
X394359Y360889D01*
X394337Y360946D01*
X394302Y361003D01*
X394254Y361055D01*
X394250Y361060D01*
X394228Y361077D01*
X394198Y361099D01*
X394158Y361125D01*
X394106Y361147D01*
X394044Y361169D01*
X393975Y361186D01*
X393896Y361191D01*
X393861D01*
X393822Y361182D01*
X393769Y361173D01*
X393712Y361156D01*
X393656Y361134D01*
X393594Y361099D01*
X393538Y361055D01*
X393533Y361051D01*
X393516Y361029D01*
X393490Y360998D01*
X393459Y360955D01*
X393428Y360898D01*
X393398Y360828D01*
X393372Y360745D01*
X393354Y360649D01*
X392983Y360714D01*
Y360719D01*
X392987Y360732D01*
X392991Y360749D01*
X392996Y360775D01*
X393004Y360806D01*
X393018Y360841D01*
X393044Y360924D01*
X393088Y361020D01*
X393140Y361116D01*
X393205Y361208D01*
X393288Y361291D01*
X393293Y361296D01*
X393302Y361300D01*
X393315Y361309D01*
X393332Y361322D01*
X393354Y361339D01*
X393385Y361357D01*
X393415Y361374D01*
X393455Y361396D01*
X393542Y361431D01*
X393642Y361466D01*
X393760Y361488D01*
X393822Y361497D01*
X393931D01*
X393979Y361492D01*
D02*
G37*
G36*
X391663D02*
X391698Y361488D01*
X391741Y361484D01*
X391790Y361475D01*
X391838Y361466D01*
X391951Y361435D01*
X392065Y361392D01*
X392122Y361366D01*
X392179Y361335D01*
X392231Y361296D01*
X392279Y361252D01*
X392283Y361247D01*
X392292Y361243D01*
X392301Y361226D01*
X392318Y361208D01*
X392340Y361186D01*
X392362Y361156D01*
X392384Y361125D01*
X392410Y361086D01*
X392454Y361003D01*
X392498Y360898D01*
X392515Y360845D01*
X392524Y360784D01*
X392532Y360723D01*
X392537Y360658D01*
Y360649D01*
Y360627D01*
X392532Y360592D01*
X392528Y360544D01*
X392519Y360491D01*
X392502Y360430D01*
X392484Y360365D01*
X392458Y360299D01*
X392454Y360291D01*
X392445Y360269D01*
X392428Y360234D01*
X392401Y360186D01*
X392366Y360133D01*
X392323Y360068D01*
X392270Y360002D01*
X392209Y359928D01*
X392200Y359919D01*
X392179Y359893D01*
X392157Y359871D01*
X392135Y359849D01*
X392109Y359823D01*
X392074Y359788D01*
X392039Y359753D01*
X391995Y359714D01*
X391951Y359670D01*
X391899Y359622D01*
X391842Y359574D01*
X391781Y359517D01*
X391711Y359460D01*
X391641Y359399D01*
X391637Y359395D01*
X391628Y359386D01*
X391610Y359373D01*
X391589Y359355D01*
X391562Y359329D01*
X391532Y359303D01*
X391462Y359246D01*
X391388Y359180D01*
X391318Y359115D01*
X391256Y359058D01*
X391230Y359036D01*
X391208Y359014D01*
X391204Y359010D01*
X391191Y358997D01*
X391173Y358980D01*
X391152Y358953D01*
X391130Y358923D01*
X391104Y358892D01*
X391051Y358818D01*
X392541D01*
Y358459D01*
X390535D01*
Y358464D01*
Y358481D01*
Y358507D01*
X390540Y358542D01*
X390544Y358582D01*
X390553Y358626D01*
X390562Y358669D01*
X390579Y358717D01*
Y358722D01*
X390583Y358726D01*
X390592Y358752D01*
X390610Y358792D01*
X390636Y358844D01*
X390671Y358905D01*
X390715Y358975D01*
X390763Y359045D01*
X390824Y359119D01*
Y359124D01*
X390833Y359128D01*
X390854Y359154D01*
X390894Y359194D01*
X390951Y359250D01*
X391016Y359316D01*
X391099Y359395D01*
X391200Y359482D01*
X391309Y359574D01*
X391313Y359578D01*
X391331Y359591D01*
X391357Y359613D01*
X391388Y359639D01*
X391427Y359674D01*
X391475Y359714D01*
X391523Y359757D01*
X391580Y359805D01*
X391689Y359910D01*
X391798Y360015D01*
X391851Y360068D01*
X391899Y360120D01*
X391943Y360168D01*
X391978Y360216D01*
Y360221D01*
X391986Y360225D01*
X391995Y360238D01*
X392004Y360256D01*
X392034Y360304D01*
X392069Y360360D01*
X392100Y360430D01*
X392130Y360505D01*
X392148Y360588D01*
X392157Y360666D01*
Y360671D01*
Y360675D01*
X392152Y360701D01*
X392148Y360745D01*
X392135Y360793D01*
X392117Y360854D01*
X392087Y360915D01*
X392047Y360977D01*
X391995Y361038D01*
X391986Y361047D01*
X391964Y361064D01*
X391934Y361086D01*
X391886Y361116D01*
X391825Y361143D01*
X391755Y361169D01*
X391672Y361186D01*
X391580Y361191D01*
X391554D01*
X391536Y361186D01*
X391484Y361182D01*
X391423Y361169D01*
X391357Y361151D01*
X391283Y361121D01*
X391213Y361081D01*
X391147Y361029D01*
X391139Y361020D01*
X391121Y360998D01*
X391095Y360963D01*
X391069Y360911D01*
X391038Y360850D01*
X391012Y360771D01*
X390994Y360684D01*
X390985Y360583D01*
X390605Y360623D01*
Y360627D01*
X390610Y360640D01*
Y360662D01*
X390614Y360693D01*
X390623Y360728D01*
X390632Y360767D01*
X390645Y360815D01*
X390658Y360863D01*
X390693Y360968D01*
X390745Y361073D01*
X390776Y361125D01*
X390815Y361178D01*
X390854Y361226D01*
X390898Y361269D01*
X390902Y361274D01*
X390911Y361278D01*
X390924Y361291D01*
X390946Y361304D01*
X390972Y361322D01*
X391003Y361339D01*
X391038Y361361D01*
X391082Y361383D01*
X391130Y361405D01*
X391182Y361427D01*
X391239Y361444D01*
X391300Y361462D01*
X391366Y361475D01*
X391436Y361488D01*
X391510Y361492D01*
X391589Y361497D01*
X391632D01*
X391663Y361492D01*
D02*
G37*
G36*
X388932Y361479D02*
X389019Y361475D01*
X389106Y361466D01*
X389194Y361453D01*
X389268Y361440D01*
X389272D01*
X389281Y361435D01*
X389294D01*
X389312Y361427D01*
X389360Y361414D01*
X389421Y361392D01*
X389491Y361361D01*
X389565Y361322D01*
X389640Y361278D01*
X389709Y361221D01*
X389714Y361217D01*
X389718Y361212D01*
X389731Y361199D01*
X389749Y361186D01*
X389792Y361143D01*
X389845Y361081D01*
X389902Y361007D01*
X389963Y360920D01*
X390020Y360819D01*
X390068Y360706D01*
Y360701D01*
X390072Y360693D01*
X390081Y360675D01*
X390085Y360649D01*
X390098Y360618D01*
X390107Y360583D01*
X390116Y360544D01*
X390129Y360496D01*
X390142Y360448D01*
X390151Y360391D01*
X390173Y360269D01*
X390186Y360133D01*
X390190Y359985D01*
Y359980D01*
Y359971D01*
Y359950D01*
Y359928D01*
X390186Y359897D01*
Y359862D01*
X390181Y359779D01*
X390168Y359683D01*
X390155Y359582D01*
X390133Y359478D01*
X390107Y359373D01*
Y359368D01*
X390103Y359360D01*
X390098Y359347D01*
X390094Y359329D01*
X390077Y359281D01*
X390050Y359220D01*
X390024Y359150D01*
X389989Y359080D01*
X389946Y359006D01*
X389902Y358936D01*
X389897Y358927D01*
X389880Y358905D01*
X389854Y358875D01*
X389819Y358835D01*
X389779Y358792D01*
X389731Y358748D01*
X389683Y358700D01*
X389627Y358660D01*
X389618Y358656D01*
X389600Y358643D01*
X389570Y358626D01*
X389526Y358604D01*
X389474Y358577D01*
X389412Y358556D01*
X389342Y358529D01*
X389264Y358507D01*
X389255D01*
X389242Y358503D01*
X389229Y358499D01*
X389185Y358494D01*
X389124Y358486D01*
X389054Y358477D01*
X388971Y358468D01*
X388879Y358464D01*
X388779Y358459D01*
X387690D01*
Y361484D01*
X388853D01*
X388932Y361479D01*
D02*
G37*
%LPC*%
G36*
X744334Y339571D02*
X744229D01*
Y339466D01*
X744334D01*
Y339571D01*
D02*
G37*
G36*
Y339150D02*
X744229D01*
Y339045D01*
X744334D01*
Y339150D01*
D02*
G37*
G36*
X750016Y331153D02*
X749911D01*
Y331048D01*
X750016D01*
Y331153D01*
D02*
G37*
G36*
X744334Y316842D02*
X744229D01*
Y316737D01*
X744334D01*
Y316842D01*
D02*
G37*
G36*
X746859Y309265D02*
X746754D01*
Y309160D01*
X746859D01*
Y309265D01*
D02*
G37*
G36*
X746754Y309160D02*
X746649D01*
Y309055D01*
X746333D01*
Y308949D01*
X746228D01*
Y309055D01*
X746123D01*
Y308949D01*
X746018D01*
Y309055D01*
X745912D01*
Y308949D01*
X745807D01*
Y308844D01*
X745702D01*
Y308949D01*
X745597D01*
Y308844D01*
X745702D01*
Y308739D01*
X745597D01*
Y308844D01*
X745491D01*
Y308739D01*
X745386D01*
Y308844D01*
X745281D01*
Y308739D01*
X745176D01*
Y308844D01*
X745071D01*
Y308739D01*
X744965D01*
Y308634D01*
X744650D01*
Y308528D01*
X744544D01*
Y308634D01*
X744439D01*
Y306845D01*
X744544D01*
Y306740D01*
X744439D01*
Y306634D01*
X744544D01*
Y306529D01*
X744650D01*
Y306213D01*
X744755D01*
Y306319D01*
X744860D01*
Y306213D01*
X744965D01*
Y306108D01*
X745071D01*
Y306003D01*
X745176D01*
Y306108D01*
X745281D01*
Y306003D01*
X745386D01*
Y306108D01*
X745491D01*
Y306003D01*
X745597D01*
Y306108D01*
X745702D01*
Y306213D01*
X745807D01*
Y306108D01*
X745912D01*
Y306213D01*
X746018D01*
Y306319D01*
X746123D01*
Y306424D01*
X746228D01*
Y306529D01*
X746333D01*
Y306634D01*
X746439D01*
Y306950D01*
X746544D01*
Y307055D01*
X746439D01*
Y307161D01*
X746544D01*
Y307055D01*
X746649D01*
Y307371D01*
X746754D01*
Y307476D01*
X746649D01*
Y307581D01*
X746754D01*
Y307476D01*
X746859D01*
Y307581D01*
X746754D01*
Y307687D01*
X746649D01*
Y307792D01*
X746754D01*
Y307687D01*
X746859D01*
Y307792D01*
X746754D01*
Y307897D01*
X746859D01*
Y308002D01*
X746754D01*
Y308108D01*
X746859D01*
Y308213D01*
X746754D01*
Y308318D01*
X746859D01*
Y308423D01*
X746754D01*
Y308528D01*
X746859D01*
Y308634D01*
X746754D01*
Y308739D01*
X746859D01*
Y308844D01*
X746754D01*
Y308949D01*
X746859D01*
Y309055D01*
X746754D01*
Y309160D01*
D02*
G37*
G36*
X742650Y304214D02*
X742545D01*
Y304109D01*
X742650D01*
Y304214D01*
D02*
G37*
G36*
X751069Y301268D02*
X750963D01*
Y301163D01*
X751069D01*
Y301268D01*
D02*
G37*
G36*
X751489Y300847D02*
X751384D01*
Y300742D01*
X751489D01*
Y300847D01*
D02*
G37*
G36*
X752121Y299795D02*
X752016D01*
Y299689D01*
X752121D01*
Y299795D01*
D02*
G37*
G36*
X744755Y293270D02*
X744650D01*
Y293165D01*
X744755D01*
Y293270D01*
D02*
G37*
G36*
X742650Y291587D02*
X742545D01*
Y291481D01*
X742650D01*
Y291587D01*
D02*
G37*
G36*
X750016Y287377D02*
X749911D01*
Y287272D01*
X749806D01*
Y287377D01*
X749701D01*
Y287272D01*
X749595D01*
Y287167D01*
X749490D01*
Y287272D01*
X749385D01*
Y287167D01*
X749280D01*
Y287062D01*
X749174D01*
Y287167D01*
X749069D01*
Y287062D01*
X748964D01*
Y287167D01*
X748859D01*
Y287062D01*
X748543D01*
Y286957D01*
X748227D01*
Y286851D01*
X748122D01*
Y286957D01*
X748017D01*
Y286851D01*
X748122D01*
Y286746D01*
X748227D01*
Y286641D01*
X748122D01*
Y286746D01*
X748017D01*
Y286641D01*
X748122D01*
Y286536D01*
X748227D01*
Y286430D01*
X748122D01*
Y286536D01*
X748017D01*
Y286430D01*
X748122D01*
Y286325D01*
X748227D01*
Y286220D01*
X748122D01*
Y286325D01*
X748017D01*
Y286220D01*
X748122D01*
Y286115D01*
X748227D01*
Y286009D01*
X748122D01*
Y286115D01*
X748017D01*
Y286009D01*
X748122D01*
Y285904D01*
X748227D01*
Y285799D01*
X748122D01*
Y285904D01*
X748017D01*
Y285799D01*
X748122D01*
Y285694D01*
X748227D01*
Y285589D01*
X748122D01*
Y285694D01*
X748017D01*
Y285589D01*
X748122D01*
Y285483D01*
X748227D01*
Y285378D01*
X748122D01*
Y285483D01*
X748017D01*
Y285378D01*
X748122D01*
Y285273D01*
X748227D01*
Y285168D01*
X748122D01*
Y285273D01*
X748017D01*
Y285168D01*
X748122D01*
Y285062D01*
X748227D01*
Y284957D01*
X748122D01*
Y284852D01*
X748227D01*
Y284326D01*
X748333D01*
Y284221D01*
X748438D01*
Y284115D01*
X748543D01*
Y284010D01*
X748859D01*
Y283905D01*
X748964D01*
Y284010D01*
X749280D01*
Y284115D01*
X749174D01*
Y284221D01*
X749280D01*
Y284115D01*
X749385D01*
Y284221D01*
X749490D01*
Y284326D01*
X749595D01*
Y284431D01*
X749701D01*
Y284536D01*
X749806D01*
Y284852D01*
X749911D01*
Y284957D01*
X749806D01*
Y285062D01*
X749911D01*
Y285168D01*
X749806D01*
Y285273D01*
X749911D01*
Y285168D01*
X750016D01*
Y285273D01*
X749911D01*
Y285378D01*
X750016D01*
Y285483D01*
X749911D01*
Y285589D01*
X750016D01*
Y286325D01*
X750121D01*
Y286430D01*
X750016D01*
Y287167D01*
X750121D01*
Y287272D01*
X750016D01*
Y287377D01*
D02*
G37*
G36*
X745807Y286325D02*
X745702D01*
Y286220D01*
X745597D01*
Y286325D01*
X745491D01*
Y286220D01*
X745386D01*
Y286115D01*
X745281D01*
Y286220D01*
X745176D01*
Y286115D01*
X745281D01*
Y286009D01*
X745176D01*
Y286115D01*
X745071D01*
Y286009D01*
X744965D01*
Y286115D01*
X744860D01*
Y286009D01*
X744755D01*
Y286115D01*
X744650D01*
Y286009D01*
X744544D01*
Y285904D01*
X744439D01*
Y285799D01*
X744334D01*
Y285694D01*
X744439D01*
Y285378D01*
X744334D01*
Y285273D01*
X744439D01*
Y285168D01*
X744334D01*
Y285273D01*
X744229D01*
Y285168D01*
X744334D01*
Y285062D01*
X744439D01*
Y284957D01*
X744334D01*
Y284852D01*
X744439D01*
Y284747D01*
X744334D01*
Y284852D01*
X744229D01*
Y284747D01*
X744334D01*
Y284641D01*
X744439D01*
Y284536D01*
X744334D01*
Y284431D01*
X744439D01*
Y284115D01*
X744544D01*
Y284010D01*
X744439D01*
Y283905D01*
X744544D01*
Y283800D01*
X744650D01*
Y283694D01*
X745176D01*
Y283800D01*
X745281D01*
Y283694D01*
X745386D01*
Y283800D01*
X745491D01*
Y283905D01*
X745597D01*
Y284010D01*
X745702D01*
Y284115D01*
X745597D01*
Y284221D01*
X745702D01*
Y284115D01*
X745807D01*
Y284221D01*
X745702D01*
Y284326D01*
X745807D01*
Y284641D01*
X745912D01*
Y284747D01*
X745807D01*
Y284852D01*
X745912D01*
Y284747D01*
X746018D01*
Y284852D01*
X745912D01*
Y284957D01*
X745807D01*
Y285062D01*
X745912D01*
Y285168D01*
X745807D01*
Y285273D01*
X745912D01*
Y285168D01*
X746018D01*
Y285273D01*
X745912D01*
Y285378D01*
X745807D01*
Y285483D01*
X745912D01*
Y285378D01*
X746018D01*
Y285483D01*
X745912D01*
Y285589D01*
X745807D01*
Y285694D01*
X745912D01*
Y285589D01*
X746018D01*
Y285694D01*
X745912D01*
Y285799D01*
X745807D01*
Y285904D01*
X745912D01*
Y286009D01*
X745807D01*
Y286115D01*
X745912D01*
Y286009D01*
X746018D01*
Y286115D01*
X745912D01*
Y286220D01*
X745807D01*
Y286325D01*
D02*
G37*
G36*
X744334Y285694D02*
X744229D01*
Y285589D01*
X744334D01*
Y285694D01*
D02*
G37*
G36*
X742861Y281274D02*
X742756D01*
Y281169D01*
X742861D01*
Y281274D01*
D02*
G37*
G36*
X743071Y281064D02*
X742966D01*
Y280958D01*
X743071D01*
Y281064D01*
D02*
G37*
G36*
X749174Y365668D02*
X749069D01*
Y365563D01*
X749174D01*
Y365668D01*
D02*
G37*
G36*
X748122Y364405D02*
X748017D01*
Y364300D01*
X748122D01*
Y364405D01*
D02*
G37*
G36*
X747491Y364616D02*
X747386D01*
Y364511D01*
X747280D01*
Y364405D01*
X746965D01*
Y364300D01*
X746859D01*
Y364405D01*
X746754D01*
Y364300D01*
X746649D01*
Y364195D01*
X746544D01*
Y364090D01*
X746439D01*
Y364195D01*
X746333D01*
Y364090D01*
X746228D01*
Y363985D01*
X746123D01*
Y363879D01*
X746018D01*
Y363774D01*
X745912D01*
Y363669D01*
X745807D01*
Y363564D01*
X745702D01*
Y363458D01*
X745807D01*
Y363353D01*
X745702D01*
Y363248D01*
X745597D01*
Y363143D01*
X745702D01*
Y363038D01*
X745597D01*
Y363143D01*
X745491D01*
Y363038D01*
X745597D01*
Y362932D01*
X745702D01*
Y362827D01*
X745597D01*
Y362932D01*
X745491D01*
Y362827D01*
X745597D01*
Y362722D01*
X745702D01*
Y362406D01*
X745807D01*
Y362511D01*
X745912D01*
Y362406D01*
X746018D01*
Y362301D01*
X746544D01*
Y362406D01*
X746649D01*
Y362511D01*
X746754D01*
Y362406D01*
X746859D01*
Y362511D01*
X746965D01*
Y362617D01*
X747280D01*
Y362722D01*
X747386D01*
Y362827D01*
X747491D01*
Y362932D01*
X747701D01*
Y363143D01*
X747807D01*
Y363248D01*
X747912D01*
Y363353D01*
X748017D01*
Y363458D01*
X748122D01*
Y363564D01*
X748017D01*
Y363669D01*
X748122D01*
Y364195D01*
X748017D01*
Y364300D01*
X747912D01*
Y364405D01*
X747807D01*
Y364511D01*
X747701D01*
Y364405D01*
X747596D01*
Y364511D01*
X747491D01*
Y364616D01*
D02*
G37*
G36*
X745597Y362722D02*
X745491D01*
Y362617D01*
X745597D01*
Y362722D01*
D02*
G37*
G36*
X745386Y362090D02*
X745281D01*
Y361985D01*
X745386D01*
Y362090D01*
D02*
G37*
G36*
X748964Y352199D02*
X748859D01*
Y352094D01*
X748964D01*
Y352199D01*
D02*
G37*
G36*
X748122Y350936D02*
X748017D01*
Y350831D01*
X748122D01*
Y350936D01*
D02*
G37*
G36*
X744334Y348411D02*
X744229D01*
Y348305D01*
X744334D01*
Y348411D01*
D02*
G37*
G36*
X388792Y361125D02*
X388093D01*
Y358818D01*
X388809D01*
X388840Y358822D01*
X388905Y358826D01*
X388980Y358831D01*
X389058Y358840D01*
X389137Y358853D01*
X389203Y358870D01*
X389211Y358875D01*
X389233Y358879D01*
X389264Y358892D01*
X389303Y358910D01*
X389347Y358936D01*
X389390Y358962D01*
X389434Y358993D01*
X389478Y359028D01*
X389482Y359036D01*
X389500Y359054D01*
X389526Y359084D01*
X389557Y359128D01*
X389592Y359185D01*
X389631Y359250D01*
X389666Y359325D01*
X389696Y359408D01*
Y359412D01*
X389701Y359421D01*
X389705Y359434D01*
X389709Y359451D01*
X389714Y359473D01*
X389723Y359504D01*
X389731Y359535D01*
X389740Y359569D01*
X389753Y359657D01*
X389766Y359757D01*
X389775Y359871D01*
X389779Y359993D01*
Y359998D01*
Y360015D01*
Y360037D01*
X389775Y360072D01*
Y360111D01*
X389771Y360155D01*
X389766Y360207D01*
X389762Y360260D01*
X389740Y360378D01*
X389714Y360500D01*
X389674Y360614D01*
X389648Y360671D01*
X389622Y360719D01*
Y360723D01*
X389613Y360732D01*
X389605Y360745D01*
X389596Y360762D01*
X389561Y360806D01*
X389517Y360859D01*
X389460Y360915D01*
X389395Y360972D01*
X389321Y361020D01*
X389242Y361060D01*
X389233Y361064D01*
X389211Y361068D01*
X389172Y361081D01*
X389115Y361094D01*
X389045Y361103D01*
X388958Y361116D01*
X388905Y361121D01*
X388849D01*
X388792Y361125D01*
D02*
G37*
%LPD*%
D11*
X376083Y353628D02*
G03*
X376083Y353628I-492J0D01*
G01*
Y400745D02*
G03*
X376083Y400745I-492J0D01*
G01*
Y385039D02*
G03*
X376083Y385039I-492J0D01*
G01*
Y369334D02*
G03*
X376083Y369334I-492J0D01*
G01*
D15*
X636425Y409118D02*
X639575D01*
X636425Y398882D02*
X639575D01*
X638976Y362008D02*
X642126D01*
X638976Y372244D02*
X642126D01*
X529055Y332972D02*
Y343406D01*
X541811Y332972D02*
Y343406D01*
X526378Y332972D02*
Y343406D01*
X513622Y332972D02*
Y343406D01*
X497622Y332784D02*
Y343216D01*
X510378Y332784D02*
Y343216D01*
X571063Y387008D02*
X574213D01*
X571063Y376772D02*
X574213D01*
X575197Y434252D02*
X578346D01*
X575197Y424016D02*
X578346D01*
X378878Y355360D02*
X382087D01*
Y357959D01*
X378878Y366856D02*
X382087D01*
Y364258D02*
Y366856D01*
X619095Y537008D02*
X619488D01*
X619095Y533465D02*
X619488D01*
X378878Y402477D02*
X382087D01*
Y405076D01*
X378878Y413973D02*
X382087D01*
Y411375D02*
Y413973D01*
X378878Y386772D02*
X382087D01*
Y389370D01*
X378878Y398268D02*
X382087D01*
Y395669D02*
Y398268D01*
X378878Y371066D02*
X382087D01*
Y373664D01*
X378878Y382562D02*
X382087D01*
Y379964D02*
Y382562D01*
X545866Y389764D02*
Y393701D01*
X552559Y389764D02*
Y393701D01*
D18*
X505808Y357550D02*
X507874D01*
Y356000D01*
X506841D01*
X507874D01*
Y354450D01*
X504775D02*
X503742D01*
X504258D01*
Y357550D01*
X504775Y357033D01*
X500126Y354450D02*
X502192D01*
X500126Y356517D01*
Y357033D01*
X500643Y357550D01*
X501676D01*
X502192Y357033D01*
X627943Y529385D02*
Y526287D01*
X625878D01*
X624846D02*
X623813D01*
X624330D01*
Y529385D01*
X624846Y528869D01*
X524335Y358097D02*
X526400D01*
Y356549D01*
X525367D01*
X526400D01*
Y355000D01*
X523303D02*
X522270D01*
X522786D01*
Y358097D01*
X523303Y357581D01*
X520721Y355000D02*
X519689D01*
X520205D01*
Y358097D01*
X520721Y357581D01*
X537935Y358097D02*
X540000D01*
Y356549D01*
X538968D01*
X540000D01*
Y355000D01*
X536903Y357581D02*
X536386Y358097D01*
X535354D01*
X534838Y357581D01*
Y357065D01*
X535354Y356549D01*
X534838Y356032D01*
Y355516D01*
X535354Y355000D01*
X536386D01*
X536903Y355516D01*
Y356032D01*
X536386Y356549D01*
X536903Y357065D01*
Y357581D01*
X536386Y356549D02*
X535354D01*
X764435Y287597D02*
X766500D01*
Y286049D01*
X765468D01*
X766500D01*
Y284500D01*
X761338D02*
X763403D01*
X761338Y286565D01*
Y287081D01*
X761854Y287597D01*
X762886D01*
X763403Y287081D01*
X773526Y277507D02*
X775591D01*
Y275958D01*
X774558D01*
X775591D01*
Y274410D01*
X772493D02*
X771461D01*
X771977D01*
Y277507D01*
X772493Y276991D01*
X554500Y405200D02*
Y408297D01*
X552951D01*
X552435Y407781D01*
Y406749D01*
X552951Y406233D01*
X554500D01*
X553468D02*
X552435Y405200D01*
X551403Y407781D02*
X550886Y408297D01*
X549854D01*
X549338Y407781D01*
Y407265D01*
X549854Y406749D01*
X549338Y406233D01*
Y405716D01*
X549854Y405200D01*
X550886D01*
X551403Y405716D01*
Y406233D01*
X550886Y406749D01*
X551403Y407265D01*
Y407781D01*
X550886Y406749D02*
X549854D01*
X387402Y375643D02*
Y378740D01*
X388950D01*
X389467Y378224D01*
Y376159D01*
X388950Y375643D01*
X387402D01*
X390499Y378740D02*
X391531D01*
X391015D01*
Y375643D01*
X390499Y376159D01*
X393080Y378740D02*
X394113D01*
X393596D01*
Y375643D01*
X393080Y376159D01*
X387402Y391391D02*
Y394488D01*
X388950D01*
X389467Y393972D01*
Y391907D01*
X388950Y391391D01*
X387402D01*
X390499Y394488D02*
X391531D01*
X391015D01*
Y391391D01*
X390499Y391907D01*
X393080D02*
X393596Y391391D01*
X394629D01*
X395145Y391907D01*
Y393972D01*
X394629Y394488D01*
X393596D01*
X393080Y393972D01*
Y391907D01*
X387402Y407139D02*
Y410236D01*
X388950D01*
X389467Y409720D01*
Y407655D01*
X388950Y407139D01*
X387402D01*
X390499Y409720D02*
X391015Y410236D01*
X392048D01*
X392564Y409720D01*
Y407655D01*
X392048Y407139D01*
X391015D01*
X390499Y407655D01*
Y408171D01*
X391015Y408687D01*
X392564D01*
X574510Y372660D02*
X575026Y373176D01*
X576059D01*
X576575Y372660D01*
Y370595D01*
X576059Y370079D01*
X575026D01*
X574510Y370595D01*
X573477Y370079D02*
X572445D01*
X572961D01*
Y373176D01*
X573477Y372660D01*
X570896D02*
X570380Y373176D01*
X569347D01*
X568831Y372660D01*
Y372144D01*
X569347Y371627D01*
X568831Y371111D01*
Y370595D01*
X569347Y370079D01*
X570380D01*
X570896Y370595D01*
Y371111D01*
X570380Y371627D01*
X570896Y372144D01*
Y372660D01*
X570380Y371627D02*
X569347D01*
X585435Y441881D02*
X585951Y442397D01*
X586984D01*
X587500Y441881D01*
Y439816D01*
X586984Y439300D01*
X585951D01*
X585435Y439816D01*
X584403Y439300D02*
X583370D01*
X583886D01*
Y442397D01*
X584403Y441881D01*
X581821Y442397D02*
X579756D01*
Y441881D01*
X581821Y439816D01*
Y439300D01*
X646635Y416781D02*
X647151Y417297D01*
X648184D01*
X648700Y416781D01*
Y414716D01*
X648184Y414200D01*
X647151D01*
X646635Y414716D01*
X645603Y414200D02*
X644570D01*
X645086D01*
Y417297D01*
X645603Y416781D01*
X641473Y414200D02*
Y417297D01*
X643021Y415749D01*
X640956D01*
X649235Y379881D02*
X649751Y380397D01*
X650784D01*
X651300Y379881D01*
Y377816D01*
X650784Y377300D01*
X649751D01*
X649235Y377816D01*
X648203Y377300D02*
X647170D01*
X647686D01*
Y380397D01*
X648203Y379881D01*
X645621D02*
X645105Y380397D01*
X644073D01*
X643556Y379881D01*
Y379365D01*
X644073Y378849D01*
X644589D01*
X644073D01*
X643556Y378332D01*
Y377816D01*
X644073Y377300D01*
X645105D01*
X645621Y377816D01*
X632581Y536259D02*
X633097Y536776D01*
X634129D01*
X634646Y536259D01*
Y534194D01*
X634129Y533678D01*
X633097D01*
X632581Y534194D01*
X629483Y536776D02*
X631548D01*
Y535227D01*
X630516Y535743D01*
X629999D01*
X629483Y535227D01*
Y534194D01*
X629999Y533678D01*
X631032D01*
X631548Y534194D01*
M02*
