G04*
G04 #@! TF.GenerationSoftware,Altium Limited,Altium Designer,23.2.1 (34)*
G04*
G04 Layer_Color=16711935*
%FSLAX25Y25*%
%MOIN*%
G70*
G04*
G04 #@! TF.SameCoordinates,91C23CEB-00FB-43FC-9C52-439D6A026708*
G04*
G04*
G04 #@! TF.FilePolarity,Negative*
G04*
G01*
G75*
%ADD72R,0.04931X0.04931*%
%ADD73R,0.04537X0.04143*%
%ADD79R,0.04143X0.03750*%
%ADD80R,0.06506X0.06506*%
%ADD81C,0.06506*%
G04:AMPARAMS|DCode=82|XSize=61.12mil|YSize=61.12mil|CornerRadius=16.78mil|HoleSize=0mil|Usage=FLASHONLY|Rotation=180.000|XOffset=0mil|YOffset=0mil|HoleType=Round|Shape=RoundedRectangle|*
%AMROUNDEDRECTD82*
21,1,0.06112,0.02756,0,0,180.0*
21,1,0.02756,0.06112,0,0,180.0*
1,1,0.03356,-0.01378,0.01378*
1,1,0.03356,0.01378,0.01378*
1,1,0.03356,0.01378,-0.01378*
1,1,0.03356,-0.01378,-0.01378*
%
%ADD82ROUNDEDRECTD82*%
%ADD83C,0.07900*%
%ADD84C,0.09261*%
%ADD85C,0.03700*%
%ADD86C,0.03900*%
%ADD87C,0.05600*%
%ADD88C,0.25600*%
%ADD89C,0.16348*%
%ADD90C,0.14379*%
%ADD112R,0.06506X0.11624*%
%ADD113R,0.13002X0.07608*%
%ADD114R,0.03356X0.03356*%
%ADD115R,0.08080X0.05915*%
G36*
X632000Y386873D02*
X632809Y386980D01*
X633563Y387292D01*
X634211Y387789D01*
X634708Y388437D01*
X635020Y389191D01*
X635127Y390000D01*
X635020Y390809D01*
X634708Y391563D01*
X634211Y392211D01*
X633563Y392708D01*
X632809Y393020D01*
X632000Y393127D01*
D01*
X631191Y393020D01*
X630437Y392708D01*
X629789Y392211D01*
X629292Y391563D01*
X628980Y390809D01*
X628873Y390000D01*
X628980Y389191D01*
X629292Y388437D01*
X629789Y387789D01*
X630437Y387292D01*
X631191Y386980D01*
X632000Y386873D01*
D01*
D02*
G37*
G36*
X642000D02*
X642809Y386980D01*
X643563Y387292D01*
X644211Y387789D01*
X644708Y388437D01*
X645020Y389191D01*
X645127Y390000D01*
X645020Y390809D01*
X644708Y391563D01*
X644211Y392211D01*
X643563Y392708D01*
X642809Y393020D01*
X642000Y393127D01*
D01*
X641191Y393020D01*
X640437Y392708D01*
X639789Y392211D01*
X639292Y391563D01*
X638980Y390809D01*
X638873Y390000D01*
X638980Y389191D01*
X639292Y388437D01*
X639789Y387789D01*
X640437Y387292D01*
X641191Y386980D01*
X642000Y386873D01*
D01*
D02*
G37*
G36*
X652000D02*
X652809Y386980D01*
X653563Y387292D01*
X654211Y387789D01*
X654708Y388437D01*
X655020Y389191D01*
X655127Y390000D01*
X655020Y390809D01*
X654708Y391563D01*
X654211Y392211D01*
X653563Y392708D01*
X652809Y393020D01*
X652000Y393127D01*
D01*
X651191Y393020D01*
X650437Y392708D01*
X649789Y392211D01*
X649292Y391563D01*
X648980Y390809D01*
X648873Y390000D01*
X648980Y389191D01*
X649292Y388437D01*
X649789Y387789D01*
X650437Y387292D01*
X651191Y386980D01*
X652000Y386873D01*
D01*
D02*
G37*
D72*
X622835Y535236D02*
D03*
X615748D02*
D03*
D73*
X760433Y276037D02*
D03*
X767126D02*
D03*
Y281181D02*
D03*
X760433D02*
D03*
D79*
X375590Y357368D02*
D03*
Y364848D02*
D03*
X383465Y361108D02*
D03*
X375590Y404485D02*
D03*
Y411966D02*
D03*
X383465Y408225D02*
D03*
X375590Y388779D02*
D03*
Y396260D02*
D03*
X383465Y392520D02*
D03*
X375590Y373074D02*
D03*
Y380554D02*
D03*
X383465Y376814D02*
D03*
D80*
X627716Y328740D02*
D03*
X553976Y514961D02*
D03*
X649803Y499409D02*
D03*
D81*
X617717Y328740D02*
D03*
X607717D02*
D03*
X597717D02*
D03*
X576772Y396732D02*
D03*
X566772D02*
D03*
X563976Y514961D02*
D03*
X659803Y499409D02*
D03*
X838500Y300000D02*
D03*
X803500Y286500D02*
D03*
D82*
X586772Y396732D02*
D03*
D83*
X508032Y459055D02*
D03*
X548032D02*
D03*
X578031D02*
D03*
Y489055D02*
D03*
X508032D02*
D03*
D84*
X488189Y257874D02*
D03*
Y273622D02*
D03*
Y289370D02*
D03*
X507874Y257874D02*
D03*
X527559D02*
D03*
Y273622D02*
D03*
Y289370D02*
D03*
X547244Y257874D02*
D03*
Y273622D02*
D03*
Y289370D02*
D03*
X566929Y257874D02*
D03*
Y273622D02*
D03*
Y289370D02*
D03*
X586614Y257874D02*
D03*
Y273622D02*
D03*
Y289370D02*
D03*
X610236Y257874D02*
D03*
Y273622D02*
D03*
Y289370D02*
D03*
X633858Y257874D02*
D03*
Y273622D02*
D03*
Y289370D02*
D03*
X653543Y257874D02*
D03*
Y273622D02*
D03*
Y289370D02*
D03*
X673228Y257874D02*
D03*
Y273622D02*
D03*
Y289370D02*
D03*
X692913Y257874D02*
D03*
Y273622D02*
D03*
Y289370D02*
D03*
X712598Y257874D02*
D03*
Y273622D02*
D03*
Y289370D02*
D03*
X732283Y257874D02*
D03*
Y273622D02*
D03*
Y289370D02*
D03*
X507874D02*
D03*
Y273622D02*
D03*
D85*
X382000Y498500D02*
D03*
X439500Y485500D02*
D03*
X435000Y490500D02*
D03*
X395500Y496500D02*
D03*
X412500Y503500D02*
D03*
X399000D02*
D03*
X385500D02*
D03*
X335500Y514000D02*
D03*
X363000Y473000D02*
D03*
X367000Y469000D02*
D03*
X372500Y464500D02*
D03*
X377500Y460500D02*
D03*
X742074Y520815D02*
D03*
X747830Y521059D02*
D03*
X752362Y520079D02*
D03*
X738000Y485000D02*
D03*
X490000Y532000D02*
D03*
X499500Y541500D02*
D03*
X392000Y517500D02*
D03*
Y509000D02*
D03*
X476000Y513000D02*
D03*
X488734Y514766D02*
D03*
X606000Y426000D02*
D03*
X602000Y430000D02*
D03*
X550750Y561206D02*
D03*
X550500Y557000D02*
D03*
X479500Y516500D02*
D03*
X488500Y510000D02*
D03*
X549500Y553000D02*
D03*
X546000Y549500D02*
D03*
X549500Y575500D02*
D03*
X531500Y538500D02*
D03*
X558000Y539500D02*
D03*
X530000Y575000D02*
D03*
X472253Y509861D02*
D03*
X685433Y403250D02*
D03*
X705118D02*
D03*
X336000Y579000D02*
D03*
X332500Y574500D02*
D03*
X341500Y580000D02*
D03*
X348500D02*
D03*
X472185Y485296D02*
D03*
X542500Y518500D02*
D03*
X366500Y580000D02*
D03*
X361000D02*
D03*
X606000Y385000D02*
D03*
X615500Y463500D02*
D03*
X602000Y389500D02*
D03*
X650000Y477000D02*
D03*
X698500Y478000D02*
D03*
X708268Y440158D02*
D03*
X698500Y521000D02*
D03*
X646500Y486500D02*
D03*
X649000Y491500D02*
D03*
X666500Y522000D02*
D03*
X741339Y527750D02*
D03*
X746850D02*
D03*
X752362D02*
D03*
X736221D02*
D03*
X731000D02*
D03*
Y520478D02*
D03*
X736221Y520472D02*
D03*
X570079Y462992D02*
D03*
X587008Y467717D02*
D03*
X764961Y376772D02*
D03*
X653543Y548819D02*
D03*
X397244Y395276D02*
D03*
X394488Y400787D02*
D03*
X409842Y445669D02*
D03*
X392126Y418504D02*
D03*
X394488Y408268D02*
D03*
X400000Y392126D02*
D03*
X405118Y377165D02*
D03*
X410630Y361417D02*
D03*
X402559Y449803D02*
D03*
X826378Y377165D02*
D03*
X870669Y422638D02*
D03*
X559055Y527165D02*
D03*
X638976Y517717D02*
D03*
X635827Y557087D02*
D03*
X598819Y559842D02*
D03*
X595276Y525197D02*
D03*
X608661Y517717D02*
D03*
X632283Y516929D02*
D03*
X635433Y520472D02*
D03*
X618504Y542520D02*
D03*
X493696Y485822D02*
D03*
X577756Y527953D02*
D03*
X805315Y467323D02*
D03*
Y458661D02*
D03*
X799803Y467323D02*
D03*
Y458661D02*
D03*
X794488Y467126D02*
D03*
X794685Y458858D02*
D03*
X789173Y467323D02*
D03*
Y459055D02*
D03*
X636811Y452362D02*
D03*
Y464764D02*
D03*
X771063Y465748D02*
D03*
X771260Y459252D02*
D03*
X839764Y457677D02*
D03*
X826968Y329724D02*
D03*
X793701Y327362D02*
D03*
Y376969D02*
D03*
X870079Y471457D02*
D03*
D86*
X452756Y488976D02*
D03*
X810433Y298819D02*
D03*
X792323Y280709D02*
D03*
X783268Y298819D02*
D03*
X774213D02*
D03*
X882874Y425591D02*
D03*
X878347Y416536D02*
D03*
X882874Y407480D02*
D03*
X878347Y398425D02*
D03*
X882874Y389370D02*
D03*
X878347Y380315D02*
D03*
X882874Y371260D02*
D03*
X878347Y362205D02*
D03*
X882874Y353150D02*
D03*
X873819Y461811D02*
D03*
X869291Y452756D02*
D03*
X873819Y443701D02*
D03*
Y407480D02*
D03*
Y389370D02*
D03*
X869291Y380315D02*
D03*
X873819Y371260D02*
D03*
X869291Y362205D02*
D03*
Y325984D02*
D03*
X864764Y371260D02*
D03*
Y353150D02*
D03*
X860236Y325984D02*
D03*
X864764Y316929D02*
D03*
X860236Y307874D02*
D03*
X851181Y470866D02*
D03*
Y452756D02*
D03*
Y434646D02*
D03*
Y416536D02*
D03*
Y380315D02*
D03*
X855709Y316929D02*
D03*
X851181Y307874D02*
D03*
X846654Y479921D02*
D03*
Y461811D02*
D03*
X842126Y434646D02*
D03*
X846654Y425591D02*
D03*
X842126Y416536D02*
D03*
X846654Y407480D02*
D03*
X842126Y380315D02*
D03*
Y325984D02*
D03*
Y307874D02*
D03*
X837599Y443701D02*
D03*
X833071Y434646D02*
D03*
X837599Y425591D02*
D03*
X824016Y452756D02*
D03*
X828543Y316929D02*
D03*
X814961Y470866D02*
D03*
Y452756D02*
D03*
X819488Y443701D02*
D03*
X814961Y416536D02*
D03*
Y398425D02*
D03*
X819488Y316929D02*
D03*
X814961Y271654D02*
D03*
X810433Y443701D02*
D03*
Y425591D02*
D03*
X805906Y362205D02*
D03*
X810433Y353150D02*
D03*
Y335039D02*
D03*
X805906Y271654D02*
D03*
X801378Y425591D02*
D03*
X796851Y271654D02*
D03*
X801378Y262598D02*
D03*
X796851Y253543D02*
D03*
X787795Y362205D02*
D03*
Y344095D02*
D03*
Y325984D02*
D03*
X792323Y316929D02*
D03*
Y298819D02*
D03*
X787795Y271654D02*
D03*
X778740Y452756D02*
D03*
X783268Y443701D02*
D03*
X778740Y434646D02*
D03*
X783268Y425591D02*
D03*
Y371260D02*
D03*
Y353150D02*
D03*
Y335039D02*
D03*
Y280709D02*
D03*
X778740Y271654D02*
D03*
Y253543D02*
D03*
X769685Y362205D02*
D03*
Y344095D02*
D03*
Y325984D02*
D03*
X774213Y280709D02*
D03*
Y262598D02*
D03*
X769685Y253543D02*
D03*
X760630Y452756D02*
D03*
X765158Y443701D02*
D03*
X760630Y434646D02*
D03*
X765158Y425591D02*
D03*
X760630Y416536D02*
D03*
X765158Y371260D02*
D03*
X760630Y362205D02*
D03*
X765158Y353150D02*
D03*
X760630Y344095D02*
D03*
X765158Y335039D02*
D03*
X760630Y325984D02*
D03*
X765158Y298819D02*
D03*
X751575Y488976D02*
D03*
Y452756D02*
D03*
X756103Y443701D02*
D03*
X751575Y380315D02*
D03*
X756103Y371260D02*
D03*
X751575Y362205D02*
D03*
X756103Y353150D02*
D03*
X751575Y344095D02*
D03*
X756103Y335039D02*
D03*
X751575Y325984D02*
D03*
X756103Y298819D02*
D03*
X751575Y271654D02*
D03*
X756103Y262598D02*
D03*
X747047Y498032D02*
D03*
X742520Y488976D02*
D03*
X747047Y425591D02*
D03*
Y407480D02*
D03*
Y371260D02*
D03*
Y353150D02*
D03*
Y335039D02*
D03*
X742520Y325984D02*
D03*
X747047Y298819D02*
D03*
X742520Y271654D02*
D03*
X747047Y262598D02*
D03*
X733465Y543307D02*
D03*
Y488976D02*
D03*
X737992Y335039D02*
D03*
X733465Y325984D02*
D03*
X737992Y298819D02*
D03*
Y262598D02*
D03*
X728937Y552362D02*
D03*
X724410Y543307D02*
D03*
X728937Y353150D02*
D03*
Y335039D02*
D03*
X724410Y325984D02*
D03*
X728937Y298819D02*
D03*
X724410Y271654D02*
D03*
X715354Y561417D02*
D03*
X719882Y552362D02*
D03*
X715354Y543307D02*
D03*
X719882Y443701D02*
D03*
Y425591D02*
D03*
Y407480D02*
D03*
Y335039D02*
D03*
X715354Y325984D02*
D03*
X719882Y298819D02*
D03*
Y262598D02*
D03*
X706299Y579528D02*
D03*
Y561417D02*
D03*
X710827Y552362D02*
D03*
Y389370D02*
D03*
Y371260D02*
D03*
Y353150D02*
D03*
X706299Y325984D02*
D03*
X710827Y298819D02*
D03*
Y280709D02*
D03*
X697244Y579528D02*
D03*
Y561417D02*
D03*
Y507087D02*
D03*
X701772Y353150D02*
D03*
X697244Y325984D02*
D03*
X688189Y579528D02*
D03*
Y561417D02*
D03*
X692717Y498032D02*
D03*
X688189Y488976D02*
D03*
X692717Y479921D02*
D03*
Y407480D02*
D03*
Y353150D02*
D03*
X688189Y325984D02*
D03*
X692717Y316929D02*
D03*
X679134Y561417D02*
D03*
Y488976D02*
D03*
X683662Y425591D02*
D03*
X679134Y416536D02*
D03*
X683662Y353150D02*
D03*
Y316929D02*
D03*
X679134Y307874D02*
D03*
X683662Y262598D02*
D03*
X670079Y561417D02*
D03*
Y488976D02*
D03*
X674606Y443701D02*
D03*
Y425591D02*
D03*
X670079Y416536D02*
D03*
Y380315D02*
D03*
Y362205D02*
D03*
Y344095D02*
D03*
X674606Y316929D02*
D03*
Y298819D02*
D03*
X665551Y606693D02*
D03*
X661024Y597638D02*
D03*
Y488976D02*
D03*
X665551Y443701D02*
D03*
Y425591D02*
D03*
X661024Y416536D02*
D03*
X665551Y407480D02*
D03*
Y389370D02*
D03*
X661024Y380315D02*
D03*
X665551Y371260D02*
D03*
Y353150D02*
D03*
X661024Y344095D02*
D03*
X656496Y606693D02*
D03*
Y443701D02*
D03*
Y425591D02*
D03*
X651969Y416536D02*
D03*
X656496Y407480D02*
D03*
X651969Y398425D02*
D03*
X656496Y353150D02*
D03*
X651969Y344095D02*
D03*
X656496Y335039D02*
D03*
X651969Y325984D02*
D03*
X642913Y597638D02*
D03*
X647441Y588583D02*
D03*
Y443701D02*
D03*
X642913Y434646D02*
D03*
Y380315D02*
D03*
X647441Y353150D02*
D03*
Y335039D02*
D03*
X642913Y289764D02*
D03*
X647441Y280709D02*
D03*
X642913Y271654D02*
D03*
Y253543D02*
D03*
X633858Y597638D02*
D03*
X638386Y588583D02*
D03*
Y443701D02*
D03*
X633858Y434646D02*
D03*
X638386Y425591D02*
D03*
Y407480D02*
D03*
X633858Y344095D02*
D03*
Y325984D02*
D03*
Y307874D02*
D03*
X624803Y597638D02*
D03*
X629331Y443701D02*
D03*
X624803Y434646D02*
D03*
X629331Y425591D02*
D03*
X624803Y416536D02*
D03*
X629331Y353150D02*
D03*
X624803Y344095D02*
D03*
X629331Y335039D02*
D03*
Y298819D02*
D03*
Y280709D02*
D03*
X620276Y443701D02*
D03*
X615748Y434646D02*
D03*
X620276Y425591D02*
D03*
X615748Y416536D02*
D03*
X620276Y389370D02*
D03*
X615748Y362205D02*
D03*
X620276Y353150D02*
D03*
X615748Y344095D02*
D03*
X620276Y335039D02*
D03*
Y262598D02*
D03*
X611221Y443701D02*
D03*
Y425591D02*
D03*
X606693Y362205D02*
D03*
X611221Y353150D02*
D03*
X606693Y344095D02*
D03*
X611221Y335039D02*
D03*
X606693Y307874D02*
D03*
X611221Y298819D02*
D03*
Y280709D02*
D03*
X597638Y452756D02*
D03*
Y416536D02*
D03*
Y398425D02*
D03*
X602166Y371260D02*
D03*
X597638Y362205D02*
D03*
X602166Y353150D02*
D03*
X597638Y344095D02*
D03*
X602166Y335039D02*
D03*
Y316929D02*
D03*
X597638Y307874D02*
D03*
X602166Y298819D02*
D03*
Y262598D02*
D03*
X593110Y461811D02*
D03*
X588583Y452756D02*
D03*
X593110Y443701D02*
D03*
Y407480D02*
D03*
Y371260D02*
D03*
Y353150D02*
D03*
X588583Y344095D02*
D03*
X593110Y335039D02*
D03*
X588583Y325984D02*
D03*
X593110Y316929D02*
D03*
X588583Y307874D02*
D03*
X584055Y479921D02*
D03*
Y335039D02*
D03*
X579528Y325984D02*
D03*
X584055Y316929D02*
D03*
Y280709D02*
D03*
X579528Y271654D02*
D03*
X575000Y498032D02*
D03*
X570473Y488976D02*
D03*
Y416536D02*
D03*
X575000Y407480D02*
D03*
Y371260D02*
D03*
Y353150D02*
D03*
Y335039D02*
D03*
X570473Y325984D02*
D03*
X575000Y280709D02*
D03*
X565945Y498032D02*
D03*
X561417Y488976D02*
D03*
X565945Y479921D02*
D03*
Y443701D02*
D03*
X561417Y416536D02*
D03*
X565945Y407480D02*
D03*
X556890Y606693D02*
D03*
X552362Y543307D02*
D03*
X556890Y498032D02*
D03*
X552362Y488976D02*
D03*
X556890Y479921D02*
D03*
X552362Y452756D02*
D03*
X556890Y407480D02*
D03*
Y389370D02*
D03*
X552362Y380315D02*
D03*
X556890Y371260D02*
D03*
Y353150D02*
D03*
X552362Y344095D02*
D03*
X547835Y606693D02*
D03*
X543307Y597638D02*
D03*
X547835Y516142D02*
D03*
Y498032D02*
D03*
X543307Y488976D02*
D03*
Y470866D02*
D03*
Y452756D02*
D03*
Y434646D02*
D03*
X547835Y371260D02*
D03*
X543307Y362205D02*
D03*
X547835Y353150D02*
D03*
X538780Y606693D02*
D03*
X534252Y597638D02*
D03*
X538780Y588583D02*
D03*
X534252Y579528D02*
D03*
X538780Y498032D02*
D03*
X534252Y470866D02*
D03*
Y452756D02*
D03*
Y434646D02*
D03*
X538780Y425591D02*
D03*
X534252Y380315D02*
D03*
Y362205D02*
D03*
X538780Y298819D02*
D03*
Y280709D02*
D03*
X529725Y606693D02*
D03*
X525197Y597638D02*
D03*
X529725Y588583D02*
D03*
X525197Y579528D02*
D03*
X529725Y516142D02*
D03*
Y498032D02*
D03*
Y479921D02*
D03*
X525197Y470866D02*
D03*
X529725Y461811D02*
D03*
X525197Y452756D02*
D03*
Y434646D02*
D03*
X529725Y425591D02*
D03*
Y407480D02*
D03*
X525197Y380315D02*
D03*
X529725Y371260D02*
D03*
X525197Y362205D02*
D03*
X529725Y298819D02*
D03*
Y280709D02*
D03*
X520669Y606693D02*
D03*
X516142Y597638D02*
D03*
X520669Y588583D02*
D03*
X516142Y579528D02*
D03*
X520669Y570473D02*
D03*
X516142Y561417D02*
D03*
X520669Y498032D02*
D03*
Y479921D02*
D03*
X516142Y470866D02*
D03*
X520669Y461811D02*
D03*
X516142Y416536D02*
D03*
X520669Y407480D02*
D03*
X516142Y398425D02*
D03*
X511614Y606693D02*
D03*
X507087Y579528D02*
D03*
X511614Y570473D02*
D03*
X507087Y561417D02*
D03*
X511614Y498032D02*
D03*
Y479921D02*
D03*
X507087Y470866D02*
D03*
Y380315D02*
D03*
X511614Y371260D02*
D03*
X507087Y362205D02*
D03*
X511614Y335039D02*
D03*
X498032Y579528D02*
D03*
X502559Y570473D02*
D03*
X498032Y561417D02*
D03*
X502559Y552362D02*
D03*
X498032Y434646D02*
D03*
Y416536D02*
D03*
Y398425D02*
D03*
Y380315D02*
D03*
Y362205D02*
D03*
X502559Y298819D02*
D03*
X498032Y271654D02*
D03*
X493504Y570473D02*
D03*
X488976Y561417D02*
D03*
X493504Y552362D02*
D03*
X488976Y543307D02*
D03*
X493504Y335039D02*
D03*
X488976Y325984D02*
D03*
X493504Y280709D02*
D03*
X484449Y606693D02*
D03*
X479921Y597638D02*
D03*
X484449Y588583D02*
D03*
Y570473D02*
D03*
X479921Y561417D02*
D03*
X484449Y552362D02*
D03*
X479921Y543307D02*
D03*
Y434646D02*
D03*
Y416536D02*
D03*
X484449Y407480D02*
D03*
X479921Y398425D02*
D03*
X484449Y389370D02*
D03*
X479921Y380315D02*
D03*
X484449Y371260D02*
D03*
X479921Y362205D02*
D03*
X484449Y353150D02*
D03*
X479921Y344095D02*
D03*
X484449Y335039D02*
D03*
X479921Y325984D02*
D03*
Y271654D02*
D03*
X475394Y606693D02*
D03*
X470866Y597638D02*
D03*
X475394Y588583D02*
D03*
Y570473D02*
D03*
X470866Y561417D02*
D03*
X475394Y552362D02*
D03*
X470866Y543307D02*
D03*
X475394Y498032D02*
D03*
X470866Y452756D02*
D03*
X475394Y425591D02*
D03*
Y407480D02*
D03*
Y389370D02*
D03*
Y371260D02*
D03*
X470866Y362205D02*
D03*
X475394Y353150D02*
D03*
X470866Y344095D02*
D03*
X475394Y335039D02*
D03*
X470866Y325984D02*
D03*
X475394Y298819D02*
D03*
Y280709D02*
D03*
X470866Y271654D02*
D03*
X466339Y606693D02*
D03*
X461811Y597638D02*
D03*
X466339Y588583D02*
D03*
Y552362D02*
D03*
X461811Y543307D02*
D03*
Y525197D02*
D03*
X466339Y498032D02*
D03*
X461811Y488976D02*
D03*
X466339Y425591D02*
D03*
X461811Y416536D02*
D03*
X466339Y389370D02*
D03*
X461811Y289764D02*
D03*
X466339Y280709D02*
D03*
X461811Y253543D02*
D03*
X457284Y606693D02*
D03*
X452756Y597638D02*
D03*
X457284Y588583D02*
D03*
Y570473D02*
D03*
Y552362D02*
D03*
X452756Y543307D02*
D03*
Y525197D02*
D03*
X457284Y479921D02*
D03*
X452756Y434646D02*
D03*
X457284Y389370D02*
D03*
X452756Y344095D02*
D03*
X457284Y298819D02*
D03*
X452756Y289764D02*
D03*
X457284Y262598D02*
D03*
X452756Y253543D02*
D03*
X448228Y606693D02*
D03*
X443701Y597638D02*
D03*
X448228Y588583D02*
D03*
Y570473D02*
D03*
Y552362D02*
D03*
X443701Y507087D02*
D03*
Y398425D02*
D03*
X448228Y389370D02*
D03*
X443701Y380315D02*
D03*
X448228Y371260D02*
D03*
X443701Y362205D02*
D03*
X448228Y353150D02*
D03*
X443701Y325984D02*
D03*
X448228Y298819D02*
D03*
X443701Y271654D02*
D03*
X448228Y262598D02*
D03*
X443701Y253543D02*
D03*
X439173Y606693D02*
D03*
X434646Y597638D02*
D03*
X439173Y588583D02*
D03*
X434646Y507087D02*
D03*
X439173Y479921D02*
D03*
X434646Y434646D02*
D03*
X439173Y425591D02*
D03*
Y389370D02*
D03*
Y371260D02*
D03*
X434646Y362205D02*
D03*
Y344095D02*
D03*
X439173Y335039D02*
D03*
X434646Y325984D02*
D03*
X439173Y280709D02*
D03*
X434646Y271654D02*
D03*
X430118Y606693D02*
D03*
Y588583D02*
D03*
X425591Y507087D02*
D03*
X430118Y389370D02*
D03*
X425591Y344095D02*
D03*
X430118Y335039D02*
D03*
X425591Y325984D02*
D03*
Y289764D02*
D03*
X430118Y280709D02*
D03*
X425591Y271654D02*
D03*
X416536Y434646D02*
D03*
X421063Y389370D02*
D03*
X416536Y362205D02*
D03*
X421063Y353150D02*
D03*
X416536Y344095D02*
D03*
X421063Y335039D02*
D03*
X416536Y325984D02*
D03*
X421063Y298819D02*
D03*
X416536Y289764D02*
D03*
X421063Y280709D02*
D03*
X416536Y271654D02*
D03*
X421063Y262598D02*
D03*
X416536Y253543D02*
D03*
X412008Y425591D02*
D03*
Y298819D02*
D03*
X407480Y289764D02*
D03*
X412008Y280709D02*
D03*
X407480Y271654D02*
D03*
X393898Y588583D02*
D03*
X389370Y452756D02*
D03*
Y398425D02*
D03*
Y380315D02*
D03*
Y344095D02*
D03*
Y307874D02*
D03*
X384843Y588583D02*
D03*
X380315Y579528D02*
D03*
Y452756D02*
D03*
Y434646D02*
D03*
X384843Y425591D02*
D03*
X380315Y416536D02*
D03*
Y398425D02*
D03*
X384843Y371260D02*
D03*
X380315Y307874D02*
D03*
X375787Y588583D02*
D03*
Y516142D02*
D03*
Y425591D02*
D03*
Y316929D02*
D03*
X371260Y307874D02*
D03*
X366732Y606693D02*
D03*
X362205Y597638D02*
D03*
X366732Y588583D02*
D03*
Y516142D02*
D03*
X362205Y507087D02*
D03*
Y488976D02*
D03*
X366732Y479921D02*
D03*
Y316929D02*
D03*
X362205Y307874D02*
D03*
X357677Y606693D02*
D03*
X353150Y597638D02*
D03*
X357677Y588583D02*
D03*
X353150Y507087D02*
D03*
X357677Y498032D02*
D03*
X353150Y488976D02*
D03*
X357677Y479921D02*
D03*
X353150Y434646D02*
D03*
Y416536D02*
D03*
Y398425D02*
D03*
Y380315D02*
D03*
Y362205D02*
D03*
X357677Y335039D02*
D03*
X353150Y325984D02*
D03*
X357677Y316929D02*
D03*
X348622Y606693D02*
D03*
X344095Y597638D02*
D03*
X348622Y588583D02*
D03*
X344095Y525197D02*
D03*
Y507087D02*
D03*
X348622Y498032D02*
D03*
X344095Y488976D02*
D03*
Y470866D02*
D03*
X348622Y425591D02*
D03*
X344095Y416536D02*
D03*
X348622Y407480D02*
D03*
X344095Y398425D02*
D03*
X348622Y389370D02*
D03*
X344095Y380315D02*
D03*
X348622Y371260D02*
D03*
X344095Y362205D02*
D03*
X348622Y353150D02*
D03*
Y316929D02*
D03*
X335039Y597638D02*
D03*
X339567Y588583D02*
D03*
Y498032D02*
D03*
X335039Y470866D02*
D03*
Y434646D02*
D03*
X339567Y425591D02*
D03*
X335039Y416536D02*
D03*
X339567Y407480D02*
D03*
X335039Y398425D02*
D03*
X339567Y389370D02*
D03*
X335039Y380315D02*
D03*
X339567Y371260D02*
D03*
X335039Y362205D02*
D03*
D87*
X369845Y455709D02*
D03*
X477165Y442520D02*
D03*
X735500Y502000D02*
D03*
X698500Y488000D02*
D03*
X535039Y319291D02*
D03*
X618504Y604724D02*
D03*
X447825Y441919D02*
D03*
X548228Y359252D02*
D03*
X713583Y432087D02*
D03*
X752953D02*
D03*
D88*
X342520Y448819D02*
D03*
X500500Y595000D02*
D03*
X342520Y338583D02*
D03*
X877953D02*
D03*
X681102Y594488D02*
D03*
D89*
X407480Y257874D02*
D03*
X812992D02*
D03*
D90*
X433071D02*
D03*
X787402D02*
D03*
D112*
X644102Y404000D02*
D03*
X631898D02*
D03*
X634449Y367126D02*
D03*
X646654D02*
D03*
X578740Y381890D02*
D03*
X566535D02*
D03*
X582874Y429134D02*
D03*
X570669D02*
D03*
D113*
X535433Y348484D02*
D03*
Y327894D02*
D03*
X520000D02*
D03*
Y348484D02*
D03*
X504000Y348295D02*
D03*
Y327705D02*
D03*
D114*
X630709Y521654D02*
D03*
X625197D02*
D03*
D115*
X549213Y397835D02*
D03*
Y385630D02*
D03*
M02*
