G04*
G04 #@! TF.GenerationSoftware,Altium Limited,Altium Designer,21.8.1 (53)*
G04*
G04 Layer_Color=16711935*
%FSLAX25Y25*%
%MOIN*%
G70*
G04*
G04 #@! TF.SameCoordinates,51FB6EBF-7DE9-4BFC-9D62-BDCD563EF873*
G04*
G04*
G04 #@! TF.FilePolarity,Negative*
G04*
G01*
G75*
%ADD62R,0.04931X0.04931*%
%ADD65R,0.04537X0.04143*%
%ADD75R,0.04143X0.03750*%
G04:AMPARAMS|DCode=81|XSize=61.12mil|YSize=61.12mil|CornerRadius=16.78mil|HoleSize=0mil|Usage=FLASHONLY|Rotation=180.000|XOffset=0mil|YOffset=0mil|HoleType=Round|Shape=RoundedRectangle|*
%AMROUNDEDRECTD81*
21,1,0.06112,0.02756,0,0,180.0*
21,1,0.02756,0.06112,0,0,180.0*
1,1,0.03356,-0.01378,0.01378*
1,1,0.03356,0.01378,0.01378*
1,1,0.03356,0.01378,-0.01378*
1,1,0.03356,-0.01378,-0.01378*
%
%ADD81ROUNDEDRECTD81*%
%ADD82C,0.06506*%
%ADD83C,0.07900*%
%ADD84R,0.06506X0.06506*%
%ADD85C,0.09261*%
%ADD86C,0.03600*%
%ADD87C,0.03700*%
%ADD88C,0.05600*%
%ADD89C,0.25600*%
%ADD90C,0.14379*%
%ADD91C,0.16348*%
%ADD113R,0.06506X0.11624*%
%ADD114R,0.03356X0.03356*%
%ADD115R,0.13002X0.07608*%
%ADD116R,0.08080X0.05915*%
D62*
X622835Y535236D02*
D03*
X615748D02*
D03*
D65*
X760433Y276037D02*
D03*
X767126D02*
D03*
Y281181D02*
D03*
X760433D02*
D03*
D75*
X375590Y357368D02*
D03*
Y364848D02*
D03*
X383465Y361108D02*
D03*
X375590Y404485D02*
D03*
Y411966D02*
D03*
X383465Y408225D02*
D03*
X375590Y388779D02*
D03*
Y396260D02*
D03*
X383465Y392520D02*
D03*
X375590Y373074D02*
D03*
Y380554D02*
D03*
X383465Y376814D02*
D03*
D81*
X650551Y386811D02*
D03*
X586772Y396732D02*
D03*
D82*
X640551Y386811D02*
D03*
X630551D02*
D03*
X597717Y328740D02*
D03*
X607717D02*
D03*
X617717D02*
D03*
X659803Y499409D02*
D03*
X566772Y396732D02*
D03*
X576772D02*
D03*
X563976Y514961D02*
D03*
X803543Y277953D02*
D03*
X814173D02*
D03*
D83*
X508032Y489055D02*
D03*
X578031D02*
D03*
Y459055D02*
D03*
X548032D02*
D03*
X508032D02*
D03*
D84*
X627716Y328740D02*
D03*
X649803Y499409D02*
D03*
X553976Y514961D02*
D03*
D85*
X507874Y273622D02*
D03*
Y289370D02*
D03*
X732283D02*
D03*
Y273622D02*
D03*
Y257874D02*
D03*
X712598Y289370D02*
D03*
Y273622D02*
D03*
Y257874D02*
D03*
X692913Y289370D02*
D03*
Y273622D02*
D03*
Y257874D02*
D03*
X673228Y289370D02*
D03*
Y273622D02*
D03*
Y257874D02*
D03*
X653543Y289370D02*
D03*
Y273622D02*
D03*
Y257874D02*
D03*
X633858Y289370D02*
D03*
Y273622D02*
D03*
Y257874D02*
D03*
X610236Y289370D02*
D03*
Y273622D02*
D03*
Y257874D02*
D03*
X586614Y289370D02*
D03*
Y273622D02*
D03*
Y257874D02*
D03*
X566929Y289370D02*
D03*
Y273622D02*
D03*
Y257874D02*
D03*
X547244Y289370D02*
D03*
Y273622D02*
D03*
Y257874D02*
D03*
X527559Y289370D02*
D03*
Y273622D02*
D03*
Y257874D02*
D03*
X507874D02*
D03*
X488189Y289370D02*
D03*
Y273622D02*
D03*
Y257874D02*
D03*
D86*
X885000Y472500D02*
D03*
Y457500D02*
D03*
Y442500D02*
D03*
Y427500D02*
D03*
Y412500D02*
D03*
Y397500D02*
D03*
Y382500D02*
D03*
Y367500D02*
D03*
Y352500D02*
D03*
X881250Y420000D02*
D03*
X877500Y412500D02*
D03*
X881250Y405000D02*
D03*
X877500Y397500D02*
D03*
X881250Y390000D02*
D03*
X877500Y382500D02*
D03*
X881250Y375000D02*
D03*
X877500Y367500D02*
D03*
X881250Y360000D02*
D03*
X877500Y322500D02*
D03*
X873750Y465000D02*
D03*
X870000Y457500D02*
D03*
X873750Y450000D02*
D03*
X870000Y442500D02*
D03*
X873750Y435000D02*
D03*
Y405000D02*
D03*
Y390000D02*
D03*
X870000Y382500D02*
D03*
X873750Y375000D02*
D03*
X870000Y367500D02*
D03*
X873750Y360000D02*
D03*
X870000Y352500D02*
D03*
Y322500D02*
D03*
X862500Y487500D02*
D03*
Y382500D02*
D03*
X866250Y375000D02*
D03*
X862500Y367500D02*
D03*
X866250Y360000D02*
D03*
X862500Y352500D02*
D03*
Y337500D02*
D03*
X866250Y330000D02*
D03*
X862500Y322500D02*
D03*
X866250Y315000D02*
D03*
X862500Y307500D02*
D03*
X855000Y487500D02*
D03*
Y322500D02*
D03*
X858750Y315000D02*
D03*
X855000Y307500D02*
D03*
X847500Y487500D02*
D03*
X851250Y480000D02*
D03*
X847500Y472500D02*
D03*
X851250Y465000D02*
D03*
X847500Y457500D02*
D03*
X851250Y450000D02*
D03*
Y435000D02*
D03*
X847500Y427500D02*
D03*
X851250Y420000D02*
D03*
X847500Y412500D02*
D03*
X851250Y390000D02*
D03*
Y375000D02*
D03*
Y315000D02*
D03*
X847500Y307500D02*
D03*
X843750Y480000D02*
D03*
Y465000D02*
D03*
X840000Y442500D02*
D03*
X843750Y435000D02*
D03*
X840000Y427500D02*
D03*
X843750Y420000D02*
D03*
X840000Y412500D02*
D03*
X843750Y405000D02*
D03*
X840000Y397500D02*
D03*
X843750Y375000D02*
D03*
Y330000D02*
D03*
X832500Y442500D02*
D03*
X836250Y435000D02*
D03*
X832500Y427500D02*
D03*
X836250Y420000D02*
D03*
X832500Y322500D02*
D03*
X825000Y352500D02*
D03*
Y337500D02*
D03*
Y322500D02*
D03*
X828750Y315000D02*
D03*
X821250Y480000D02*
D03*
X817500Y457500D02*
D03*
X821250Y450000D02*
D03*
X817500Y442500D02*
D03*
X821250Y435000D02*
D03*
Y360000D02*
D03*
Y345000D02*
D03*
X817500Y322500D02*
D03*
X821250Y315000D02*
D03*
X813750Y480000D02*
D03*
X810000Y457500D02*
D03*
X813750Y450000D02*
D03*
X810000Y442500D02*
D03*
Y427500D02*
D03*
X813750Y420000D02*
D03*
Y405000D02*
D03*
X810000Y352500D02*
D03*
Y337500D02*
D03*
X813750Y315000D02*
D03*
Y300000D02*
D03*
Y285000D02*
D03*
Y270000D02*
D03*
X802500Y427500D02*
D03*
X806250Y420000D02*
D03*
Y300000D02*
D03*
Y270000D02*
D03*
X802500Y262500D02*
D03*
Y247500D02*
D03*
X798750Y435000D02*
D03*
X795000Y382500D02*
D03*
Y322500D02*
D03*
X798750Y285000D02*
D03*
X795000Y277500D02*
D03*
X798750Y270000D02*
D03*
X795000Y262500D02*
D03*
X798750Y255000D02*
D03*
X795000Y247500D02*
D03*
X787500Y367500D02*
D03*
Y352500D02*
D03*
Y337500D02*
D03*
Y322500D02*
D03*
X791250Y300000D02*
D03*
Y285000D02*
D03*
X787500Y277500D02*
D03*
X791250Y270000D02*
D03*
X787500Y247500D02*
D03*
X780000Y472500D02*
D03*
Y457500D02*
D03*
X783750Y450000D02*
D03*
X780000Y442500D02*
D03*
X783750Y435000D02*
D03*
X780000Y427500D02*
D03*
X783750Y420000D02*
D03*
Y405000D02*
D03*
Y360000D02*
D03*
Y345000D02*
D03*
Y330000D02*
D03*
Y300000D02*
D03*
Y285000D02*
D03*
X780000Y277500D02*
D03*
X783750Y270000D02*
D03*
X780000Y247500D02*
D03*
X772500Y472500D02*
D03*
X776250Y450000D02*
D03*
Y435000D02*
D03*
X772500Y412500D02*
D03*
Y367500D02*
D03*
Y352500D02*
D03*
Y337500D02*
D03*
X776250Y300000D02*
D03*
Y285000D02*
D03*
X772500Y277500D02*
D03*
X776250Y270000D02*
D03*
X772500Y262500D02*
D03*
X776250Y255000D02*
D03*
X772500Y247500D02*
D03*
X765000Y487500D02*
D03*
Y472500D02*
D03*
Y457500D02*
D03*
Y442500D02*
D03*
Y427500D02*
D03*
Y382500D02*
D03*
Y367500D02*
D03*
X768750Y360000D02*
D03*
X765000Y352500D02*
D03*
X768750Y345000D02*
D03*
X765000Y337500D02*
D03*
X768750Y330000D02*
D03*
X765000Y322500D02*
D03*
X768750Y300000D02*
D03*
Y255000D02*
D03*
X765000Y247500D02*
D03*
X757500Y487500D02*
D03*
Y472500D02*
D03*
Y457500D02*
D03*
X761250Y450000D02*
D03*
X757500Y442500D02*
D03*
X761250Y435000D02*
D03*
X757500Y427500D02*
D03*
X761250Y420000D02*
D03*
X757500Y412500D02*
D03*
X761250Y405000D02*
D03*
X757500Y397500D02*
D03*
X761250Y375000D02*
D03*
X757500Y367500D02*
D03*
X761250Y360000D02*
D03*
X757500Y352500D02*
D03*
X761250Y345000D02*
D03*
X757500Y337500D02*
D03*
X761250Y330000D02*
D03*
X757500Y322500D02*
D03*
X761250Y300000D02*
D03*
Y270000D02*
D03*
X757500Y262500D02*
D03*
Y247500D02*
D03*
X750000Y502500D02*
D03*
X753750Y495000D02*
D03*
X750000Y487500D02*
D03*
Y472500D02*
D03*
Y367500D02*
D03*
X753750Y360000D02*
D03*
X750000Y352500D02*
D03*
X753750Y345000D02*
D03*
X750000Y337500D02*
D03*
X753750Y330000D02*
D03*
X750000Y322500D02*
D03*
X753750Y300000D02*
D03*
Y285000D02*
D03*
Y270000D02*
D03*
X750000Y262500D02*
D03*
X753750Y255000D02*
D03*
X750000Y247500D02*
D03*
X742500Y502500D02*
D03*
X746250Y495000D02*
D03*
X742500Y487500D02*
D03*
Y472500D02*
D03*
Y427500D02*
D03*
X746250Y405000D02*
D03*
X742500Y397500D02*
D03*
X746250Y360000D02*
D03*
Y345000D02*
D03*
X742500Y337500D02*
D03*
X746250Y330000D02*
D03*
X742500Y322500D02*
D03*
X746250Y300000D02*
D03*
Y285000D02*
D03*
Y270000D02*
D03*
X742500Y262500D02*
D03*
X746250Y255000D02*
D03*
X742500Y247500D02*
D03*
X735000Y547500D02*
D03*
X738750Y540000D02*
D03*
Y510000D02*
D03*
X735000Y502500D02*
D03*
X738750Y495000D02*
D03*
X735000Y487500D02*
D03*
Y472500D02*
D03*
Y352500D02*
D03*
Y337500D02*
D03*
X738750Y330000D02*
D03*
X735000Y322500D02*
D03*
X738750Y300000D02*
D03*
Y270000D02*
D03*
Y255000D02*
D03*
X735000Y247500D02*
D03*
X727500Y547500D02*
D03*
X731250Y540000D02*
D03*
X727500Y517500D02*
D03*
X731250Y510000D02*
D03*
X727500Y502500D02*
D03*
X731250Y495000D02*
D03*
X727500Y487500D02*
D03*
Y472500D02*
D03*
X731250Y405000D02*
D03*
X727500Y337500D02*
D03*
X731250Y330000D02*
D03*
X727500Y322500D02*
D03*
X731250Y300000D02*
D03*
X727500Y262500D02*
D03*
Y247500D02*
D03*
X720000Y562500D02*
D03*
X723750Y555000D02*
D03*
X720000Y547500D02*
D03*
X723750Y540000D02*
D03*
X720000Y517500D02*
D03*
X723750Y510000D02*
D03*
X720000Y472500D02*
D03*
Y442500D02*
D03*
Y427500D02*
D03*
Y412500D02*
D03*
Y397500D02*
D03*
Y337500D02*
D03*
X723750Y330000D02*
D03*
X720000Y322500D02*
D03*
X723750Y300000D02*
D03*
X720000Y292500D02*
D03*
X723750Y285000D02*
D03*
Y270000D02*
D03*
X720000Y262500D02*
D03*
X723750Y255000D02*
D03*
X720000Y247500D02*
D03*
X712500Y562500D02*
D03*
X716250Y555000D02*
D03*
X712500Y547500D02*
D03*
X716250Y540000D02*
D03*
X712500Y517500D02*
D03*
X716250Y510000D02*
D03*
X712500Y472500D02*
D03*
Y367500D02*
D03*
Y352500D02*
D03*
X716250Y330000D02*
D03*
X712500Y322500D02*
D03*
X716250Y300000D02*
D03*
X712500Y247500D02*
D03*
X705000Y577500D02*
D03*
Y562500D02*
D03*
X708750Y555000D02*
D03*
Y540000D02*
D03*
X705000Y517500D02*
D03*
X708750Y510000D02*
D03*
X705000Y472500D02*
D03*
Y427500D02*
D03*
X708750Y420000D02*
D03*
Y405000D02*
D03*
X705000Y397500D02*
D03*
X708750Y375000D02*
D03*
Y360000D02*
D03*
X705000Y352500D02*
D03*
X708750Y345000D02*
D03*
Y330000D02*
D03*
X705000Y322500D02*
D03*
X708750Y300000D02*
D03*
X705000Y292500D02*
D03*
Y277500D02*
D03*
Y262500D02*
D03*
Y247500D02*
D03*
X701250Y585000D02*
D03*
X697500Y577500D02*
D03*
Y562500D02*
D03*
Y517500D02*
D03*
X701250Y510000D02*
D03*
X697500Y502500D02*
D03*
Y472500D02*
D03*
Y397500D02*
D03*
Y352500D02*
D03*
X701250Y330000D02*
D03*
X697500Y322500D02*
D03*
X701250Y255000D02*
D03*
X697500Y247500D02*
D03*
X693750Y585000D02*
D03*
X690000Y577500D02*
D03*
Y562500D02*
D03*
Y517500D02*
D03*
X693750Y510000D02*
D03*
Y480000D02*
D03*
X690000Y472500D02*
D03*
X693750Y405000D02*
D03*
X690000Y352500D02*
D03*
X693750Y330000D02*
D03*
X690000Y322500D02*
D03*
X693750Y315000D02*
D03*
X690000Y247500D02*
D03*
X682500Y577500D02*
D03*
Y562500D02*
D03*
Y547500D02*
D03*
X686250Y540000D02*
D03*
Y510000D02*
D03*
X682500Y472500D02*
D03*
X686250Y450000D02*
D03*
X682500Y442500D02*
D03*
Y427500D02*
D03*
Y397500D02*
D03*
Y367500D02*
D03*
Y352500D02*
D03*
X686250Y330000D02*
D03*
X682500Y322500D02*
D03*
X686250Y315000D02*
D03*
X682500Y307500D02*
D03*
Y277500D02*
D03*
X686250Y270000D02*
D03*
X682500Y262500D02*
D03*
X686250Y255000D02*
D03*
X682500Y247500D02*
D03*
X675000Y562500D02*
D03*
X678750Y540000D02*
D03*
X675000Y517500D02*
D03*
Y502500D02*
D03*
X678750Y480000D02*
D03*
X675000Y472500D02*
D03*
Y457500D02*
D03*
Y442500D02*
D03*
Y427500D02*
D03*
X678750Y420000D02*
D03*
X675000Y412500D02*
D03*
X678750Y315000D02*
D03*
X675000Y307500D02*
D03*
X678750Y300000D02*
D03*
Y285000D02*
D03*
Y270000D02*
D03*
X675000Y247500D02*
D03*
X671250Y570000D02*
D03*
X667500Y562500D02*
D03*
X671250Y540000D02*
D03*
X667500Y502500D02*
D03*
Y487500D02*
D03*
X671250Y480000D02*
D03*
X667500Y472500D02*
D03*
X671250Y450000D02*
D03*
X667500Y442500D02*
D03*
Y427500D02*
D03*
X671250Y420000D02*
D03*
X667500Y412500D02*
D03*
X671250Y405000D02*
D03*
X667500Y397500D02*
D03*
Y382500D02*
D03*
X671250Y375000D02*
D03*
X667500Y367500D02*
D03*
X671250Y360000D02*
D03*
X667500Y352500D02*
D03*
X671250Y345000D02*
D03*
Y315000D02*
D03*
Y300000D02*
D03*
X667500Y277500D02*
D03*
Y262500D02*
D03*
Y247500D02*
D03*
X663750Y600000D02*
D03*
Y495000D02*
D03*
X660000Y487500D02*
D03*
X663750Y480000D02*
D03*
X660000Y472500D02*
D03*
X663750Y450000D02*
D03*
X660000Y442500D02*
D03*
Y427500D02*
D03*
X663750Y420000D02*
D03*
X660000Y412500D02*
D03*
X663750Y405000D02*
D03*
X660000Y397500D02*
D03*
Y382500D02*
D03*
X663750Y375000D02*
D03*
Y360000D02*
D03*
X660000Y352500D02*
D03*
X663750Y345000D02*
D03*
X660000Y337500D02*
D03*
Y307500D02*
D03*
X656250Y600000D02*
D03*
Y585000D02*
D03*
Y480000D02*
D03*
X652500Y472500D02*
D03*
X656250Y450000D02*
D03*
X652500Y442500D02*
D03*
X656250Y420000D02*
D03*
X652500Y412500D02*
D03*
X656250Y405000D02*
D03*
X652500Y397500D02*
D03*
X656250Y375000D02*
D03*
X652500Y352500D02*
D03*
X656250Y345000D02*
D03*
X652500Y337500D02*
D03*
X656250Y330000D02*
D03*
Y315000D02*
D03*
X652500Y307500D02*
D03*
X645000Y592500D02*
D03*
X648750Y585000D02*
D03*
Y480000D02*
D03*
Y450000D02*
D03*
X645000Y442500D02*
D03*
X648750Y435000D02*
D03*
Y420000D02*
D03*
X645000Y412500D02*
D03*
X648750Y405000D02*
D03*
X645000Y382500D02*
D03*
Y352500D02*
D03*
X648750Y345000D02*
D03*
X645000Y337500D02*
D03*
X648750Y330000D02*
D03*
X645000Y322500D02*
D03*
Y277500D02*
D03*
X641250Y600000D02*
D03*
X637500Y592500D02*
D03*
X641250Y585000D02*
D03*
Y450000D02*
D03*
X637500Y442500D02*
D03*
X641250Y435000D02*
D03*
X637500Y427500D02*
D03*
Y397500D02*
D03*
Y382500D02*
D03*
Y307500D02*
D03*
X641250Y270000D02*
D03*
Y255000D02*
D03*
X633750Y600000D02*
D03*
X630000Y592500D02*
D03*
X633750Y450000D02*
D03*
X630000Y442500D02*
D03*
X633750Y435000D02*
D03*
X630000Y427500D02*
D03*
X633750Y420000D02*
D03*
X630000Y352500D02*
D03*
X633750Y345000D02*
D03*
X630000Y337500D02*
D03*
X633750Y330000D02*
D03*
Y315000D02*
D03*
Y300000D02*
D03*
X626250Y600000D02*
D03*
Y450000D02*
D03*
X622500Y442500D02*
D03*
X626250Y435000D02*
D03*
X622500Y427500D02*
D03*
X626250Y420000D02*
D03*
X622500Y412500D02*
D03*
Y382500D02*
D03*
X626250Y375000D02*
D03*
X622500Y352500D02*
D03*
X626250Y345000D02*
D03*
X622500Y337500D02*
D03*
Y262500D02*
D03*
X626250Y255000D02*
D03*
X618750Y465000D02*
D03*
Y450000D02*
D03*
X615000Y442500D02*
D03*
X618750Y435000D02*
D03*
X615000Y427500D02*
D03*
X618750Y420000D02*
D03*
X615000Y412500D02*
D03*
X618750Y405000D02*
D03*
Y390000D02*
D03*
Y375000D02*
D03*
Y360000D02*
D03*
X615000Y352500D02*
D03*
X618750Y345000D02*
D03*
X615000Y337500D02*
D03*
Y262500D02*
D03*
X618750Y255000D02*
D03*
X611250Y585000D02*
D03*
Y450000D02*
D03*
X607500Y442500D02*
D03*
X611250Y435000D02*
D03*
X607500Y427500D02*
D03*
X611250Y420000D02*
D03*
X607500Y397500D02*
D03*
Y382500D02*
D03*
Y367500D02*
D03*
X611250Y360000D02*
D03*
X607500Y352500D02*
D03*
X611250Y345000D02*
D03*
X607500Y337500D02*
D03*
Y307500D02*
D03*
X611250Y300000D02*
D03*
X603750Y585000D02*
D03*
X600000Y457500D02*
D03*
X603750Y450000D02*
D03*
X600000Y442500D02*
D03*
X603750Y435000D02*
D03*
X600000Y412500D02*
D03*
X603750Y405000D02*
D03*
X600000Y397500D02*
D03*
X603750Y390000D02*
D03*
X600000Y367500D02*
D03*
X603750Y360000D02*
D03*
X600000Y352500D02*
D03*
X603750Y345000D02*
D03*
X600000Y337500D02*
D03*
X603750Y315000D02*
D03*
X600000Y307500D02*
D03*
X603750Y300000D02*
D03*
X600000Y292500D02*
D03*
X603750Y270000D02*
D03*
X600000Y262500D02*
D03*
X603750Y255000D02*
D03*
X592500Y457500D02*
D03*
X596250Y450000D02*
D03*
X592500Y442500D02*
D03*
X596250Y420000D02*
D03*
X592500Y412500D02*
D03*
X596250Y405000D02*
D03*
X592500Y397500D02*
D03*
Y382500D02*
D03*
X596250Y375000D02*
D03*
X592500Y367500D02*
D03*
X596250Y360000D02*
D03*
X592500Y352500D02*
D03*
X596250Y345000D02*
D03*
X592500Y337500D02*
D03*
Y322500D02*
D03*
X596250Y315000D02*
D03*
X592500Y307500D02*
D03*
X596250Y300000D02*
D03*
X592500Y292500D02*
D03*
X596250Y285000D02*
D03*
X592500Y277500D02*
D03*
X596250Y270000D02*
D03*
X592500Y262500D02*
D03*
X596250Y255000D02*
D03*
X585000Y487500D02*
D03*
Y472500D02*
D03*
Y457500D02*
D03*
X588750Y450000D02*
D03*
X585000Y382500D02*
D03*
X588750Y375000D02*
D03*
X585000Y367500D02*
D03*
X588750Y345000D02*
D03*
Y330000D02*
D03*
X585000Y322500D02*
D03*
X588750Y315000D02*
D03*
X585000Y307500D02*
D03*
X588750Y300000D02*
D03*
X581250Y585000D02*
D03*
Y495000D02*
D03*
Y480000D02*
D03*
X577500Y472500D02*
D03*
X581250Y450000D02*
D03*
X577500Y427500D02*
D03*
Y412500D02*
D03*
Y367500D02*
D03*
Y337500D02*
D03*
X581250Y330000D02*
D03*
X577500Y322500D02*
D03*
X581250Y315000D02*
D03*
X577500Y307500D02*
D03*
X581250Y285000D02*
D03*
X577500Y277500D02*
D03*
X581250Y270000D02*
D03*
X577500Y262500D02*
D03*
X573750Y585000D02*
D03*
X570000Y502500D02*
D03*
X573750Y495000D02*
D03*
X570000Y487500D02*
D03*
X573750Y480000D02*
D03*
X570000Y472500D02*
D03*
Y442500D02*
D03*
X573750Y420000D02*
D03*
X570000Y412500D02*
D03*
X573750Y405000D02*
D03*
Y390000D02*
D03*
Y375000D02*
D03*
Y360000D02*
D03*
Y330000D02*
D03*
X570000Y322500D02*
D03*
X573750Y315000D02*
D03*
Y285000D02*
D03*
Y270000D02*
D03*
Y255000D02*
D03*
X566250Y585000D02*
D03*
X562500Y577500D02*
D03*
X566250Y510000D02*
D03*
X562500Y502500D02*
D03*
X566250Y495000D02*
D03*
X562500Y487500D02*
D03*
X566250Y480000D02*
D03*
X562500Y472500D02*
D03*
X566250Y420000D02*
D03*
X562500Y412500D02*
D03*
X566250Y405000D02*
D03*
X562500Y367500D02*
D03*
Y337500D02*
D03*
Y322500D02*
D03*
X555000Y577500D02*
D03*
X558750Y570000D02*
D03*
X555000Y562500D02*
D03*
X558750Y510000D02*
D03*
X555000Y502500D02*
D03*
X558750Y495000D02*
D03*
X555000Y487500D02*
D03*
X558750Y480000D02*
D03*
X555000Y457500D02*
D03*
X558750Y450000D02*
D03*
Y420000D02*
D03*
X555000Y412500D02*
D03*
X558750Y405000D02*
D03*
Y390000D02*
D03*
X555000Y382500D02*
D03*
X558750Y375000D02*
D03*
X555000Y367500D02*
D03*
Y352500D02*
D03*
X558750Y345000D02*
D03*
X555000Y262500D02*
D03*
X558750Y255000D02*
D03*
X551250Y600000D02*
D03*
Y570000D02*
D03*
X547500Y562500D02*
D03*
X551250Y555000D02*
D03*
X547500Y517500D02*
D03*
Y502500D02*
D03*
X551250Y495000D02*
D03*
X547500Y487500D02*
D03*
X551250Y480000D02*
D03*
Y405000D02*
D03*
Y375000D02*
D03*
X547500Y367500D02*
D03*
Y352500D02*
D03*
X551250Y345000D02*
D03*
X543750Y600000D02*
D03*
X540000Y592500D02*
D03*
Y562500D02*
D03*
X543750Y555000D02*
D03*
Y510000D02*
D03*
X540000Y502500D02*
D03*
X543750Y495000D02*
D03*
X540000Y472500D02*
D03*
X543750Y450000D02*
D03*
Y435000D02*
D03*
X540000Y427500D02*
D03*
X543750Y420000D02*
D03*
X540000Y367500D02*
D03*
Y277500D02*
D03*
Y262500D02*
D03*
X536250Y600000D02*
D03*
X532500Y592500D02*
D03*
X536250Y585000D02*
D03*
Y510000D02*
D03*
X532500Y502500D02*
D03*
X536250Y495000D02*
D03*
Y480000D02*
D03*
X532500Y472500D02*
D03*
X536250Y465000D02*
D03*
X532500Y457500D02*
D03*
Y442500D02*
D03*
X536250Y435000D02*
D03*
X532500Y427500D02*
D03*
X536250Y420000D02*
D03*
Y390000D02*
D03*
X532500Y382500D02*
D03*
X536250Y375000D02*
D03*
X532500Y367500D02*
D03*
X536250Y360000D02*
D03*
X532500Y337500D02*
D03*
X536250Y285000D02*
D03*
Y270000D02*
D03*
X532500Y262500D02*
D03*
X536250Y255000D02*
D03*
X528750Y600000D02*
D03*
X525000Y592500D02*
D03*
X528750Y585000D02*
D03*
X525000Y577500D02*
D03*
Y547500D02*
D03*
X528750Y510000D02*
D03*
X525000Y502500D02*
D03*
X528750Y495000D02*
D03*
Y480000D02*
D03*
X525000Y472500D02*
D03*
X528750Y465000D02*
D03*
X525000Y457500D02*
D03*
X528750Y435000D02*
D03*
X525000Y427500D02*
D03*
Y412500D02*
D03*
X528750Y405000D02*
D03*
X525000Y382500D02*
D03*
X528750Y375000D02*
D03*
X525000Y367500D02*
D03*
X528750Y360000D02*
D03*
X525000Y337500D02*
D03*
X521250Y600000D02*
D03*
X517500Y592500D02*
D03*
X521250Y585000D02*
D03*
X517500Y577500D02*
D03*
X521250Y570000D02*
D03*
Y540000D02*
D03*
Y510000D02*
D03*
X517500Y502500D02*
D03*
X521250Y495000D02*
D03*
Y480000D02*
D03*
X517500Y472500D02*
D03*
X521250Y465000D02*
D03*
X517500Y457500D02*
D03*
X521250Y450000D02*
D03*
Y435000D02*
D03*
Y420000D02*
D03*
X517500Y412500D02*
D03*
X521250Y405000D02*
D03*
X517500Y397500D02*
D03*
X521250Y270000D02*
D03*
X517500Y262500D02*
D03*
X521250Y255000D02*
D03*
X513750Y600000D02*
D03*
X510000Y592500D02*
D03*
X513750Y585000D02*
D03*
X510000Y577500D02*
D03*
X513750Y570000D02*
D03*
X510000Y532500D02*
D03*
X513750Y495000D02*
D03*
Y480000D02*
D03*
X510000Y472500D02*
D03*
X513750Y465000D02*
D03*
X510000Y442500D02*
D03*
X513750Y390000D02*
D03*
X510000Y382500D02*
D03*
X513750Y375000D02*
D03*
X510000Y367500D02*
D03*
X513750Y360000D02*
D03*
X510000Y337500D02*
D03*
X513750Y270000D02*
D03*
Y255000D02*
D03*
X506250Y600000D02*
D03*
X502500Y592500D02*
D03*
X506250Y585000D02*
D03*
X502500Y577500D02*
D03*
X506250Y570000D02*
D03*
Y555000D02*
D03*
X502500Y547500D02*
D03*
X506250Y525000D02*
D03*
Y480000D02*
D03*
Y450000D02*
D03*
Y435000D02*
D03*
Y405000D02*
D03*
Y375000D02*
D03*
Y360000D02*
D03*
X502500Y307500D02*
D03*
Y277500D02*
D03*
Y262500D02*
D03*
X498750Y600000D02*
D03*
Y585000D02*
D03*
X495000Y577500D02*
D03*
X498750Y570000D02*
D03*
Y555000D02*
D03*
X495000Y547500D02*
D03*
Y517500D02*
D03*
Y472500D02*
D03*
Y457500D02*
D03*
X498750Y435000D02*
D03*
X495000Y427500D02*
D03*
Y397500D02*
D03*
X498750Y390000D02*
D03*
X495000Y382500D02*
D03*
X498750Y375000D02*
D03*
X495000Y367500D02*
D03*
X498750Y360000D02*
D03*
X495000Y337500D02*
D03*
Y307500D02*
D03*
Y277500D02*
D03*
X498750Y270000D02*
D03*
X495000Y262500D02*
D03*
X498750Y255000D02*
D03*
X487500Y577500D02*
D03*
X491250Y570000D02*
D03*
Y555000D02*
D03*
X487500Y547500D02*
D03*
X491250Y540000D02*
D03*
X487500Y532500D02*
D03*
X491250Y510000D02*
D03*
Y435000D02*
D03*
X487500Y427500D02*
D03*
X491250Y420000D02*
D03*
X487500Y412500D02*
D03*
X491250Y405000D02*
D03*
X487500Y397500D02*
D03*
X491250Y390000D02*
D03*
X487500Y382500D02*
D03*
X491250Y375000D02*
D03*
X487500Y367500D02*
D03*
X491250Y360000D02*
D03*
X487500Y337500D02*
D03*
X491250Y315000D02*
D03*
X480000Y577500D02*
D03*
X483750Y570000D02*
D03*
Y555000D02*
D03*
X480000Y547500D02*
D03*
X483750Y540000D02*
D03*
X480000Y532500D02*
D03*
Y502500D02*
D03*
X483750Y420000D02*
D03*
X480000Y412500D02*
D03*
X483750Y405000D02*
D03*
X480000Y397500D02*
D03*
X483750Y390000D02*
D03*
X480000Y382500D02*
D03*
X483750Y375000D02*
D03*
X480000Y367500D02*
D03*
X483750Y360000D02*
D03*
X480000Y337500D02*
D03*
X483750Y315000D02*
D03*
X480000Y277500D02*
D03*
Y262500D02*
D03*
X472500Y577500D02*
D03*
X476250Y570000D02*
D03*
Y555000D02*
D03*
X472500Y547500D02*
D03*
X476250Y540000D02*
D03*
X472500Y532500D02*
D03*
X476250Y525000D02*
D03*
X472500Y517500D02*
D03*
X476250Y495000D02*
D03*
X472500Y457500D02*
D03*
X476250Y435000D02*
D03*
X472500Y427500D02*
D03*
X476250Y405000D02*
D03*
X472500Y397500D02*
D03*
X476250Y390000D02*
D03*
X472500Y382500D02*
D03*
X476250Y375000D02*
D03*
X472500Y367500D02*
D03*
X476250Y360000D02*
D03*
X472500Y352500D02*
D03*
X476250Y345000D02*
D03*
X472500Y337500D02*
D03*
X476250Y330000D02*
D03*
X472500Y307500D02*
D03*
Y277500D02*
D03*
X476250Y270000D02*
D03*
X472500Y247500D02*
D03*
X468750Y600000D02*
D03*
X465000Y592500D02*
D03*
X468750Y585000D02*
D03*
X465000Y577500D02*
D03*
X468750Y570000D02*
D03*
Y555000D02*
D03*
X465000Y547500D02*
D03*
X468750Y540000D02*
D03*
X465000Y532500D02*
D03*
X468750Y525000D02*
D03*
X465000Y517500D02*
D03*
X468750Y450000D02*
D03*
Y420000D02*
D03*
X465000Y412500D02*
D03*
X468750Y390000D02*
D03*
X465000Y382500D02*
D03*
X468750Y360000D02*
D03*
Y315000D02*
D03*
Y285000D02*
D03*
X465000Y277500D02*
D03*
Y247500D02*
D03*
X457500Y592500D02*
D03*
X461250Y585000D02*
D03*
X457500Y577500D02*
D03*
X461250Y570000D02*
D03*
Y555000D02*
D03*
X457500Y547500D02*
D03*
X461250Y540000D02*
D03*
X457500Y532500D02*
D03*
X461250Y525000D02*
D03*
X457500Y517500D02*
D03*
Y502500D02*
D03*
Y472500D02*
D03*
X461250Y420000D02*
D03*
Y390000D02*
D03*
X457500Y382500D02*
D03*
Y337500D02*
D03*
X461250Y315000D02*
D03*
Y285000D02*
D03*
X457500Y262500D02*
D03*
X461250Y255000D02*
D03*
X457500Y247500D02*
D03*
X453750Y600000D02*
D03*
X450000Y592500D02*
D03*
X453750Y585000D02*
D03*
X450000Y577500D02*
D03*
X453750Y570000D02*
D03*
Y555000D02*
D03*
X450000Y547500D02*
D03*
X453750Y540000D02*
D03*
X450000Y532500D02*
D03*
X453750Y525000D02*
D03*
X450000Y517500D02*
D03*
Y502500D02*
D03*
X453750Y495000D02*
D03*
X450000Y487500D02*
D03*
X453750Y465000D02*
D03*
Y435000D02*
D03*
Y390000D02*
D03*
X450000Y382500D02*
D03*
Y367500D02*
D03*
Y352500D02*
D03*
X453750Y345000D02*
D03*
X450000Y322500D02*
D03*
Y307500D02*
D03*
Y262500D02*
D03*
X453750Y255000D02*
D03*
X450000Y247500D02*
D03*
X446250Y600000D02*
D03*
X442500Y592500D02*
D03*
X446250Y585000D02*
D03*
X442500Y577500D02*
D03*
X446250Y570000D02*
D03*
Y555000D02*
D03*
X442500Y547500D02*
D03*
X446250Y540000D02*
D03*
X442500Y532500D02*
D03*
X446250Y525000D02*
D03*
X442500Y517500D02*
D03*
Y487500D02*
D03*
X446250Y480000D02*
D03*
Y465000D02*
D03*
Y435000D02*
D03*
X442500Y427500D02*
D03*
Y412500D02*
D03*
X446250Y405000D02*
D03*
X442500Y397500D02*
D03*
X446250Y390000D02*
D03*
X442500Y382500D02*
D03*
X446250Y375000D02*
D03*
X442500Y367500D02*
D03*
X446250Y360000D02*
D03*
X442500Y352500D02*
D03*
Y337500D02*
D03*
X446250Y330000D02*
D03*
X442500Y322500D02*
D03*
X446250Y315000D02*
D03*
X442500Y307500D02*
D03*
Y277500D02*
D03*
X446250Y270000D02*
D03*
X442500Y262500D02*
D03*
X446250Y255000D02*
D03*
X442500Y247500D02*
D03*
X438750Y600000D02*
D03*
X435000Y592500D02*
D03*
X438750Y585000D02*
D03*
X435000Y577500D02*
D03*
X438750Y570000D02*
D03*
Y555000D02*
D03*
X435000Y547500D02*
D03*
X438750Y540000D02*
D03*
X435000Y532500D02*
D03*
X438750Y525000D02*
D03*
X435000Y517500D02*
D03*
Y487500D02*
D03*
X438750Y480000D02*
D03*
Y465000D02*
D03*
Y420000D02*
D03*
Y390000D02*
D03*
X435000Y382500D02*
D03*
X438750Y375000D02*
D03*
X435000Y367500D02*
D03*
X438750Y360000D02*
D03*
X435000Y337500D02*
D03*
X438750Y330000D02*
D03*
X435000Y322500D02*
D03*
X438750Y315000D02*
D03*
X435000Y307500D02*
D03*
Y277500D02*
D03*
X438750Y270000D02*
D03*
X435000Y247500D02*
D03*
X431250Y600000D02*
D03*
X427500Y592500D02*
D03*
X431250Y585000D02*
D03*
Y540000D02*
D03*
Y480000D02*
D03*
Y465000D02*
D03*
X427500Y427500D02*
D03*
X431250Y420000D02*
D03*
X427500Y412500D02*
D03*
X431250Y390000D02*
D03*
X427500Y382500D02*
D03*
X431250Y345000D02*
D03*
X427500Y337500D02*
D03*
X431250Y330000D02*
D03*
X427500Y322500D02*
D03*
X431250Y315000D02*
D03*
Y285000D02*
D03*
X427500Y277500D02*
D03*
X431250Y270000D02*
D03*
X427500Y247500D02*
D03*
X423750Y600000D02*
D03*
X420000Y592500D02*
D03*
X423750Y585000D02*
D03*
Y480000D02*
D03*
Y465000D02*
D03*
Y435000D02*
D03*
Y390000D02*
D03*
X420000Y382500D02*
D03*
Y352500D02*
D03*
X423750Y345000D02*
D03*
X420000Y337500D02*
D03*
X423750Y330000D02*
D03*
X420000Y322500D02*
D03*
X423750Y285000D02*
D03*
X420000Y277500D02*
D03*
X423750Y270000D02*
D03*
X420000Y262500D02*
D03*
X423750Y255000D02*
D03*
X420000Y247500D02*
D03*
X416250Y600000D02*
D03*
X412500Y592500D02*
D03*
X416250Y585000D02*
D03*
Y480000D02*
D03*
Y465000D02*
D03*
Y435000D02*
D03*
X412500Y427500D02*
D03*
X416250Y390000D02*
D03*
Y360000D02*
D03*
Y345000D02*
D03*
Y330000D02*
D03*
X412500Y307500D02*
D03*
X416250Y285000D02*
D03*
X412500Y277500D02*
D03*
X416250Y270000D02*
D03*
X408750Y600000D02*
D03*
Y585000D02*
D03*
X405000Y577500D02*
D03*
X408750Y480000D02*
D03*
Y465000D02*
D03*
Y435000D02*
D03*
Y420000D02*
D03*
X405000Y307500D02*
D03*
X408750Y285000D02*
D03*
X405000Y277500D02*
D03*
X408750Y270000D02*
D03*
X401250Y600000D02*
D03*
Y585000D02*
D03*
X397500Y577500D02*
D03*
X401250Y480000D02*
D03*
Y465000D02*
D03*
X397500Y457500D02*
D03*
Y322500D02*
D03*
X401250Y315000D02*
D03*
X393750Y600000D02*
D03*
Y585000D02*
D03*
Y480000D02*
D03*
Y465000D02*
D03*
X390000Y457500D02*
D03*
Y412500D02*
D03*
Y397500D02*
D03*
Y382500D02*
D03*
Y367500D02*
D03*
Y352500D02*
D03*
X393750Y345000D02*
D03*
X390000Y337500D02*
D03*
Y322500D02*
D03*
X386250Y480000D02*
D03*
Y465000D02*
D03*
X382500Y457500D02*
D03*
X386250Y450000D02*
D03*
Y435000D02*
D03*
X382500Y427500D02*
D03*
X386250Y420000D02*
D03*
X382500Y412500D02*
D03*
Y397500D02*
D03*
Y367500D02*
D03*
X386250Y345000D02*
D03*
X382500Y337500D02*
D03*
Y307500D02*
D03*
X378750Y480000D02*
D03*
Y465000D02*
D03*
X375000Y457500D02*
D03*
Y442500D02*
D03*
X378750Y435000D02*
D03*
X375000Y427500D02*
D03*
X378750Y420000D02*
D03*
X375000Y337500D02*
D03*
Y307500D02*
D03*
X371250Y480000D02*
D03*
Y465000D02*
D03*
X367500Y367500D02*
D03*
Y337500D02*
D03*
Y322500D02*
D03*
X371250Y315000D02*
D03*
X367500Y307500D02*
D03*
X360000Y487500D02*
D03*
X363750Y480000D02*
D03*
X360000Y457500D02*
D03*
X363750Y450000D02*
D03*
X360000Y442500D02*
D03*
X363750Y435000D02*
D03*
X360000Y427500D02*
D03*
X363750Y420000D02*
D03*
X360000Y412500D02*
D03*
X363750Y405000D02*
D03*
X360000Y397500D02*
D03*
X363750Y390000D02*
D03*
X360000Y382500D02*
D03*
X363750Y375000D02*
D03*
X360000Y367500D02*
D03*
Y352500D02*
D03*
Y337500D02*
D03*
Y322500D02*
D03*
X363750Y315000D02*
D03*
X360000Y307500D02*
D03*
X356250Y525000D02*
D03*
Y510000D02*
D03*
Y495000D02*
D03*
Y435000D02*
D03*
X352500Y427500D02*
D03*
X356250Y420000D02*
D03*
X352500Y412500D02*
D03*
X356250Y405000D02*
D03*
X352500Y397500D02*
D03*
X356250Y390000D02*
D03*
X352500Y382500D02*
D03*
X356250Y375000D02*
D03*
X352500Y367500D02*
D03*
X356250Y360000D02*
D03*
X352500Y352500D02*
D03*
X356250Y345000D02*
D03*
Y330000D02*
D03*
X352500Y322500D02*
D03*
X356250Y315000D02*
D03*
X345000Y472500D02*
D03*
X348750Y465000D02*
D03*
Y435000D02*
D03*
X345000Y427500D02*
D03*
X348750Y420000D02*
D03*
X345000Y412500D02*
D03*
X348750Y405000D02*
D03*
X345000Y397500D02*
D03*
X348750Y390000D02*
D03*
X345000Y382500D02*
D03*
X348750Y375000D02*
D03*
X345000Y367500D02*
D03*
X348750Y360000D02*
D03*
X345000Y322500D02*
D03*
X348750Y315000D02*
D03*
X337500Y532500D02*
D03*
Y517500D02*
D03*
Y502500D02*
D03*
Y487500D02*
D03*
X341250Y480000D02*
D03*
X337500Y472500D02*
D03*
X341250Y465000D02*
D03*
X337500Y427500D02*
D03*
X341250Y420000D02*
D03*
X337500Y412500D02*
D03*
X341250Y405000D02*
D03*
X337500Y397500D02*
D03*
X341250Y390000D02*
D03*
X337500Y382500D02*
D03*
X341250Y375000D02*
D03*
X337500Y367500D02*
D03*
X341250Y360000D02*
D03*
X337500Y352500D02*
D03*
D87*
X764961Y376772D02*
D03*
X678346Y504724D02*
D03*
X587008Y467717D02*
D03*
X653543Y548819D02*
D03*
X613779Y464567D02*
D03*
X381890Y570866D02*
D03*
X397244Y395276D02*
D03*
X394488Y400787D02*
D03*
X409842Y445669D02*
D03*
X392126Y418504D02*
D03*
X394488Y408268D02*
D03*
X400000Y392126D02*
D03*
X405118Y377165D02*
D03*
X410630Y361417D02*
D03*
X471654Y485827D02*
D03*
X402559Y449803D02*
D03*
X826378Y377165D02*
D03*
X870669Y422638D02*
D03*
X559055Y527165D02*
D03*
X638976Y517717D02*
D03*
X635827Y557087D02*
D03*
X598819Y559842D02*
D03*
X595276Y525197D02*
D03*
X608661Y517717D02*
D03*
X632283Y516929D02*
D03*
X635433Y520472D02*
D03*
X752362Y526378D02*
D03*
Y520079D02*
D03*
X746850Y526378D02*
D03*
Y520079D02*
D03*
X741339Y526378D02*
D03*
Y520079D02*
D03*
X736221Y526378D02*
D03*
Y520472D02*
D03*
X512598Y563779D02*
D03*
Y557480D02*
D03*
X472835Y511811D02*
D03*
X468898Y503150D02*
D03*
X618504Y542520D02*
D03*
X493696Y485822D02*
D03*
X540158Y537795D02*
D03*
X539961Y518898D02*
D03*
X577756Y527953D02*
D03*
X680905Y520472D02*
D03*
Y527165D02*
D03*
X805315Y467323D02*
D03*
Y458661D02*
D03*
X799803Y467323D02*
D03*
Y458661D02*
D03*
X794488Y467126D02*
D03*
X794685Y458858D02*
D03*
X789173Y467323D02*
D03*
Y459055D02*
D03*
X636811Y452362D02*
D03*
Y464764D02*
D03*
X771063Y465748D02*
D03*
X771260Y459252D02*
D03*
X839764Y457677D02*
D03*
X826968Y329724D02*
D03*
X793701Y327362D02*
D03*
Y376969D02*
D03*
X870079Y471457D02*
D03*
X364567Y570079D02*
D03*
X360630Y566929D02*
D03*
X357480Y563386D02*
D03*
X708268Y440158D02*
D03*
X685433Y401968D02*
D03*
X362205Y558661D02*
D03*
X705118Y401575D02*
D03*
X460630Y602362D02*
D03*
X452756Y606299D02*
D03*
X444882D02*
D03*
X437008D02*
D03*
X421260D02*
D03*
X429134D02*
D03*
X413386D02*
D03*
X405512D02*
D03*
X397638D02*
D03*
X390158D02*
D03*
Y598425D02*
D03*
Y586614D02*
D03*
Y578740D02*
D03*
X389764Y570866D02*
D03*
X377953Y566929D02*
D03*
X385827D02*
D03*
X393701D02*
D03*
X401575D02*
D03*
X409449D02*
D03*
X413386Y570866D02*
D03*
Y578740D02*
D03*
X421260D02*
D03*
X429134D02*
D03*
X349606Y554724D02*
D03*
X344488Y549213D02*
D03*
X340551Y545276D02*
D03*
X336614Y541339D02*
D03*
X332677Y537402D02*
D03*
X328740Y533465D02*
D03*
X362205Y546260D02*
D03*
X429134Y505905D02*
D03*
X362205Y552756D02*
D03*
Y539370D02*
D03*
Y531496D02*
D03*
Y523622D02*
D03*
Y515748D02*
D03*
Y507874D02*
D03*
Y500000D02*
D03*
Y492126D02*
D03*
X366142Y488189D02*
D03*
X374016D02*
D03*
X381890D02*
D03*
X389764D02*
D03*
X397638D02*
D03*
X405512D02*
D03*
X413386D02*
D03*
X421260D02*
D03*
X429134D02*
D03*
Y496063D02*
D03*
Y511811D02*
D03*
Y519685D02*
D03*
Y527559D02*
D03*
Y535433D02*
D03*
Y543307D02*
D03*
Y551181D02*
D03*
Y557087D02*
D03*
Y570866D02*
D03*
Y564961D02*
D03*
X441929Y501968D02*
D03*
D88*
X618504Y604724D02*
D03*
X477165Y442520D02*
D03*
X447825Y441919D02*
D03*
X390453Y311811D02*
D03*
X535039Y319291D02*
D03*
X369094Y455709D02*
D03*
X548228Y359252D02*
D03*
X713583Y432087D02*
D03*
X752953D02*
D03*
D89*
X484252Y594488D02*
D03*
X342520Y448819D02*
D03*
Y338583D02*
D03*
X877953D02*
D03*
X681102Y594488D02*
D03*
D90*
X787402Y257874D02*
D03*
X433071D02*
D03*
D91*
X812992D02*
D03*
X407480D02*
D03*
D113*
X630512Y400591D02*
D03*
X642717D02*
D03*
X646654Y367126D02*
D03*
X634449D02*
D03*
X566535Y381890D02*
D03*
X578740D02*
D03*
X570669Y429134D02*
D03*
X582874D02*
D03*
D114*
X630709Y521654D02*
D03*
X625197D02*
D03*
D115*
X535433Y327894D02*
D03*
Y348484D02*
D03*
X518898D02*
D03*
Y327894D02*
D03*
X502362Y348484D02*
D03*
Y327894D02*
D03*
X485827D02*
D03*
Y348484D02*
D03*
D116*
X549213Y397835D02*
D03*
Y385630D02*
D03*
M02*
