G04*
G04 #@! TF.GenerationSoftware,Altium Limited,Altium Designer,23.2.1 (34)*
G04*
G04 Layer_Color=8388736*
%FSLAX25Y25*%
%MOIN*%
G70*
G04*
G04 #@! TF.SameCoordinates,91C23CEB-00FB-43FC-9C52-439D6A026708*
G04*
G04*
G04 #@! TF.FilePolarity,Negative*
G04*
G01*
G75*
%ADD51R,0.05324X0.05324*%
%ADD52R,0.04143X0.03750*%
%ADD53R,0.02175X0.02490*%
%ADD54R,0.03750X0.04143*%
%ADD55R,0.03750X0.04143*%
%ADD56R,0.14379X0.10443*%
%ADD57R,0.04931X0.04931*%
%ADD58O,0.01584X0.06702*%
%ADD59R,0.05324X0.05324*%
%ADD60R,0.06500X0.03400*%
%ADD61R,0.03400X0.06500*%
%ADD62R,0.09104X0.11624*%
%ADD63R,0.04537X0.06112*%
%ADD64O,0.03356X0.10443*%
%ADD65R,0.02600X0.02002*%
%ADD66O,0.06702X0.01584*%
%ADD67R,0.04143X0.04537*%
%ADD68R,0.07293X0.07214*%
%ADD69R,0.03947X0.03947*%
%ADD70R,0.07214X0.07293*%
%ADD71R,0.03947X0.04340*%
%ADD72R,0.04931X0.04931*%
%ADD73R,0.04537X0.04143*%
%ADD74R,0.03435X0.07608*%
%ADD75R,0.05324X0.03356*%
%ADD76R,0.08474X0.10049*%
G04:AMPARAMS|DCode=77|XSize=31.59mil|YSize=70.96mil|CornerRadius=4.92mil|HoleSize=0mil|Usage=FLASHONLY|Rotation=0.000|XOffset=0mil|YOffset=0mil|HoleType=Round|Shape=RoundedRectangle|*
%AMROUNDEDRECTD77*
21,1,0.03159,0.06112,0,0,0.0*
21,1,0.02175,0.07096,0,0,0.0*
1,1,0.00984,0.01088,-0.03056*
1,1,0.00984,-0.01088,-0.03056*
1,1,0.00984,-0.01088,0.03056*
1,1,0.00984,0.01088,0.03056*
%
%ADD77ROUNDEDRECTD77*%
%ADD78R,0.05403X0.03041*%
%ADD79R,0.04143X0.03750*%
%ADD80R,0.06506X0.06506*%
%ADD81C,0.06506*%
G04:AMPARAMS|DCode=82|XSize=61.12mil|YSize=61.12mil|CornerRadius=16.78mil|HoleSize=0mil|Usage=FLASHONLY|Rotation=180.000|XOffset=0mil|YOffset=0mil|HoleType=Round|Shape=RoundedRectangle|*
%AMROUNDEDRECTD82*
21,1,0.06112,0.02756,0,0,180.0*
21,1,0.02756,0.06112,0,0,180.0*
1,1,0.03356,-0.01378,0.01378*
1,1,0.03356,0.01378,0.01378*
1,1,0.03356,0.01378,-0.01378*
1,1,0.03356,-0.01378,-0.01378*
%
%ADD82ROUNDEDRECTD82*%
%ADD83C,0.07900*%
%ADD84C,0.09261*%
%ADD85C,0.03700*%
%ADD86C,0.03900*%
%ADD87C,0.05600*%
%ADD88C,0.25600*%
%ADD89C,0.16348*%
%ADD90C,0.14379*%
G36*
X632000Y386873D02*
X632809Y386980D01*
X633563Y387292D01*
X634211Y387789D01*
X634708Y388437D01*
X635020Y389191D01*
X635127Y390000D01*
X635020Y390809D01*
X634708Y391563D01*
X634211Y392211D01*
X633563Y392708D01*
X632809Y393020D01*
X632000Y393127D01*
D01*
X631191Y393020D01*
X630437Y392708D01*
X629789Y392211D01*
X629292Y391563D01*
X628980Y390809D01*
X628873Y390000D01*
X628980Y389191D01*
X629292Y388437D01*
X629789Y387789D01*
X630437Y387292D01*
X631191Y386980D01*
X632000Y386873D01*
D01*
D02*
G37*
G36*
X642000D02*
X642809Y386980D01*
X643563Y387292D01*
X644211Y387789D01*
X644708Y388437D01*
X645020Y389191D01*
X645127Y390000D01*
X645020Y390809D01*
X644708Y391563D01*
X644211Y392211D01*
X643563Y392708D01*
X642809Y393020D01*
X642000Y393127D01*
D01*
X641191Y393020D01*
X640437Y392708D01*
X639789Y392211D01*
X639292Y391563D01*
X638980Y390809D01*
X638873Y390000D01*
X638980Y389191D01*
X639292Y388437D01*
X639789Y387789D01*
X640437Y387292D01*
X641191Y386980D01*
X642000Y386873D01*
D01*
D02*
G37*
G36*
X652000D02*
X652809Y386980D01*
X653563Y387292D01*
X654211Y387789D01*
X654708Y388437D01*
X655020Y389191D01*
X655127Y390000D01*
X655020Y390809D01*
X654708Y391563D01*
X654211Y392211D01*
X653563Y392708D01*
X652809Y393020D01*
X652000Y393127D01*
D01*
X651191Y393020D01*
X650437Y392708D01*
X649789Y392211D01*
X649292Y391563D01*
X648980Y390809D01*
X648873Y390000D01*
X648980Y389191D01*
X649292Y388437D01*
X649789Y387789D01*
X650437Y387292D01*
X651191Y386980D01*
X652000Y386873D01*
D01*
D02*
G37*
D51*
X341385Y556634D02*
D03*
Y548366D02*
D03*
X612992Y403855D02*
D03*
Y395588D02*
D03*
X341500Y541134D02*
D03*
Y532866D02*
D03*
X541142Y381755D02*
D03*
Y373487D02*
D03*
D52*
X398500Y483658D02*
D03*
Y478146D02*
D03*
X392500Y483658D02*
D03*
Y478146D02*
D03*
X379000Y483658D02*
D03*
Y478146D02*
D03*
X385000Y483658D02*
D03*
Y478146D02*
D03*
X777000Y478256D02*
D03*
Y472744D02*
D03*
X738000Y473244D02*
D03*
Y478756D02*
D03*
X732000Y478756D02*
D03*
Y473244D02*
D03*
X771000Y478256D02*
D03*
Y472744D02*
D03*
X354000Y555756D02*
D03*
Y550244D02*
D03*
X613796Y389567D02*
D03*
Y384055D02*
D03*
X406000Y478146D02*
D03*
Y483658D02*
D03*
X412000Y478146D02*
D03*
Y483658D02*
D03*
X425500Y478146D02*
D03*
Y483658D02*
D03*
X419500Y478146D02*
D03*
Y483658D02*
D03*
X354000Y539756D02*
D03*
Y534244D02*
D03*
X355000Y579756D02*
D03*
Y574244D02*
D03*
X468500Y577756D02*
D03*
Y572244D02*
D03*
X582103Y338779D02*
D03*
Y344291D02*
D03*
X541142Y396457D02*
D03*
Y390945D02*
D03*
X538189Y446457D02*
D03*
Y440945D02*
D03*
X527559Y446457D02*
D03*
Y440945D02*
D03*
D53*
X392000Y488303D02*
D03*
Y493500D02*
D03*
X399000D02*
D03*
Y488303D02*
D03*
X419000D02*
D03*
Y493500D02*
D03*
X378500Y488303D02*
D03*
Y493500D02*
D03*
X385500D02*
D03*
Y488303D02*
D03*
X405500D02*
D03*
Y493500D02*
D03*
X412500Y488303D02*
D03*
Y493500D02*
D03*
X426000Y488303D02*
D03*
Y493500D02*
D03*
D54*
X761000Y479937D02*
D03*
X764740Y472063D02*
D03*
X757260D02*
D03*
X676353Y515500D02*
D03*
X668873D02*
D03*
X672613Y507626D02*
D03*
X711740Y515437D02*
D03*
X704260D02*
D03*
X708000Y507563D02*
D03*
X422227Y361170D02*
D03*
X429708D02*
D03*
X457103Y361007D02*
D03*
X464584D02*
D03*
X425968Y353296D02*
D03*
X460844Y353133D02*
D03*
X686401Y445194D02*
D03*
X682660Y453068D02*
D03*
X690141D02*
D03*
X686401Y374328D02*
D03*
X682660Y382202D02*
D03*
X690141D02*
D03*
X725771Y375312D02*
D03*
X722030Y383186D02*
D03*
X729511D02*
D03*
X725771Y445194D02*
D03*
X722030Y453068D02*
D03*
X729511D02*
D03*
D55*
X750256Y476500D02*
D03*
X744744D02*
D03*
X456756Y537725D02*
D03*
X451244D02*
D03*
X684244Y519000D02*
D03*
X689756D02*
D03*
X689883Y513275D02*
D03*
X684371D02*
D03*
X689883Y507549D02*
D03*
X684371D02*
D03*
X710756Y521500D02*
D03*
X705244D02*
D03*
X719631Y519500D02*
D03*
X725143D02*
D03*
Y513500D02*
D03*
X719631D02*
D03*
X725143Y507595D02*
D03*
X719631D02*
D03*
X676756Y521500D02*
D03*
X671244D02*
D03*
X680709Y458268D02*
D03*
X686221D02*
D03*
X503150Y389617D02*
D03*
X508661D02*
D03*
Y416584D02*
D03*
X503150D02*
D03*
X508661Y395523D02*
D03*
X503150D02*
D03*
X508661Y430397D02*
D03*
X503150D02*
D03*
X836417Y415945D02*
D03*
X830906D02*
D03*
X836614Y401378D02*
D03*
X831102D02*
D03*
X836811Y382874D02*
D03*
X831299D02*
D03*
X836811Y376969D02*
D03*
X831299D02*
D03*
X837008Y368110D02*
D03*
X831496D02*
D03*
X831693Y354134D02*
D03*
X837205D02*
D03*
X804724Y416142D02*
D03*
X799213D02*
D03*
X805118Y401968D02*
D03*
X799606D02*
D03*
X805315Y383268D02*
D03*
X799803D02*
D03*
X805315Y376969D02*
D03*
X799803D02*
D03*
X805315Y367126D02*
D03*
X799803D02*
D03*
X804527Y353150D02*
D03*
X799016D02*
D03*
X776772Y417011D02*
D03*
X771260D02*
D03*
X837598Y335827D02*
D03*
X832087D02*
D03*
X837598Y329921D02*
D03*
X832087D02*
D03*
X804724Y333661D02*
D03*
X799213D02*
D03*
X804724Y327559D02*
D03*
X799213D02*
D03*
X703543Y458481D02*
D03*
X698032D02*
D03*
X698032Y452756D02*
D03*
X703543D02*
D03*
X698032Y446850D02*
D03*
X703543D02*
D03*
Y387615D02*
D03*
X698032D02*
D03*
X698032Y381890D02*
D03*
X703543D02*
D03*
X698032Y375984D02*
D03*
X703543D02*
D03*
X742913Y388599D02*
D03*
X737402D02*
D03*
X737402Y382874D02*
D03*
X742913D02*
D03*
X737402Y376969D02*
D03*
X742913D02*
D03*
Y456743D02*
D03*
X737402D02*
D03*
X737402Y451018D02*
D03*
X742913D02*
D03*
X737402Y445292D02*
D03*
X742913D02*
D03*
X839567Y481710D02*
D03*
X834055D02*
D03*
X839567Y463566D02*
D03*
X834055D02*
D03*
X857480Y395225D02*
D03*
X862992D02*
D03*
X862992Y400951D02*
D03*
X857480D02*
D03*
X857480Y406676D02*
D03*
X862992D02*
D03*
X857480Y428107D02*
D03*
X862992D02*
D03*
X857480Y433833D02*
D03*
X862992D02*
D03*
X857677Y444241D02*
D03*
X863189D02*
D03*
X863189Y449966D02*
D03*
X857677D02*
D03*
X857677Y455692D02*
D03*
X863189D02*
D03*
X857677Y477123D02*
D03*
X863189D02*
D03*
X857677Y482848D02*
D03*
X863189D02*
D03*
X456756Y532000D02*
D03*
X451244D02*
D03*
X729134Y458695D02*
D03*
X723622D02*
D03*
X729134Y388813D02*
D03*
X723622D02*
D03*
X689764Y389764D02*
D03*
X684252D02*
D03*
D56*
X653346Y361221D02*
D03*
X627756D02*
D03*
X589567Y429134D02*
D03*
X563976D02*
D03*
D57*
X659055Y519291D02*
D03*
Y512205D02*
D03*
X575787Y517520D02*
D03*
Y510433D02*
D03*
X658661Y561040D02*
D03*
Y568127D02*
D03*
D58*
X626181Y568602D02*
D03*
X624213D02*
D03*
X620276D02*
D03*
X618307D02*
D03*
X592717Y509350D02*
D03*
X594685D02*
D03*
X596654D02*
D03*
X598622D02*
D03*
X600591D02*
D03*
X602559D02*
D03*
X604528D02*
D03*
X606496D02*
D03*
X608465D02*
D03*
X610433D02*
D03*
X612402D02*
D03*
X614370D02*
D03*
X616339D02*
D03*
X618307D02*
D03*
X620276D02*
D03*
X622244D02*
D03*
X624213D02*
D03*
X626181D02*
D03*
X628150D02*
D03*
X630118D02*
D03*
X632087D02*
D03*
X634055D02*
D03*
X636024D02*
D03*
X637992D02*
D03*
X639961D02*
D03*
Y568602D02*
D03*
X637992D02*
D03*
X636024D02*
D03*
X634055D02*
D03*
X632087D02*
D03*
X630118D02*
D03*
X628150D02*
D03*
X622244D02*
D03*
X616339D02*
D03*
X614370D02*
D03*
X612402D02*
D03*
X610433D02*
D03*
X608465D02*
D03*
X606496D02*
D03*
X604528D02*
D03*
X602559D02*
D03*
X600591D02*
D03*
X598622D02*
D03*
X596654D02*
D03*
X594685D02*
D03*
X592717D02*
D03*
D59*
X453366Y565500D02*
D03*
X461634D02*
D03*
D60*
X418780Y531870D02*
D03*
Y536200D02*
D03*
X373500D02*
D03*
Y531870D02*
D03*
X418780Y544860D02*
D03*
Y540530D02*
D03*
X373500D02*
D03*
Y544860D02*
D03*
X418780Y553520D02*
D03*
Y549190D02*
D03*
X373500D02*
D03*
Y553520D02*
D03*
X418780Y562180D02*
D03*
Y557850D02*
D03*
X373500D02*
D03*
Y562180D02*
D03*
Y566510D02*
D03*
X418780D02*
D03*
X373500Y570840D02*
D03*
X418780D02*
D03*
X373500Y579500D02*
D03*
Y575170D02*
D03*
X418780Y608240D02*
D03*
Y603910D02*
D03*
X373500D02*
D03*
Y608240D02*
D03*
D61*
X409130Y525755D02*
D03*
X404800D02*
D03*
X400470D02*
D03*
X396140D02*
D03*
X391810D02*
D03*
X387480D02*
D03*
X383150D02*
D03*
D62*
X584547Y359252D02*
D03*
X567028D02*
D03*
D63*
X573622Y345866D02*
D03*
X569882Y337205D02*
D03*
X566142Y345866D02*
D03*
D64*
X673500Y477808D02*
D03*
X678500D02*
D03*
X683500D02*
D03*
X688500D02*
D03*
X673500Y497099D02*
D03*
X678500D02*
D03*
X683500D02*
D03*
X688500D02*
D03*
X708500Y477854D02*
D03*
X713500D02*
D03*
X718500D02*
D03*
X723500D02*
D03*
X708500Y497146D02*
D03*
X713500D02*
D03*
X718500D02*
D03*
X723500D02*
D03*
X702382Y434842D02*
D03*
X697382D02*
D03*
X692382D02*
D03*
X687382D02*
D03*
X702382Y415551D02*
D03*
X697382D02*
D03*
X692382D02*
D03*
X687382D02*
D03*
X702382Y363976D02*
D03*
X697382D02*
D03*
X692382D02*
D03*
X687382D02*
D03*
X702382Y344685D02*
D03*
X697382D02*
D03*
X692382D02*
D03*
X687382D02*
D03*
X741752Y364961D02*
D03*
X736752D02*
D03*
X731752D02*
D03*
X726752D02*
D03*
X741752Y345669D02*
D03*
X736752D02*
D03*
X731752D02*
D03*
X726752D02*
D03*
X741752Y434842D02*
D03*
X736752D02*
D03*
X731752D02*
D03*
X726752D02*
D03*
X741752Y415551D02*
D03*
X736752D02*
D03*
X731752D02*
D03*
X726752D02*
D03*
D65*
X520266Y442126D02*
D03*
Y446063D02*
D03*
X515167Y444095D02*
D03*
D66*
X645965Y515354D02*
D03*
Y517323D02*
D03*
Y519291D02*
D03*
Y521260D02*
D03*
Y523228D02*
D03*
Y525197D02*
D03*
Y527165D02*
D03*
Y529134D02*
D03*
Y531102D02*
D03*
Y533071D02*
D03*
Y535039D02*
D03*
Y537008D02*
D03*
Y538976D02*
D03*
Y540945D02*
D03*
Y542913D02*
D03*
Y544882D02*
D03*
Y546850D02*
D03*
Y548819D02*
D03*
Y550787D02*
D03*
Y552756D02*
D03*
Y554724D02*
D03*
Y556693D02*
D03*
Y558661D02*
D03*
Y560630D02*
D03*
Y562598D02*
D03*
X586713D02*
D03*
Y560630D02*
D03*
Y558661D02*
D03*
Y556693D02*
D03*
Y554724D02*
D03*
Y552756D02*
D03*
Y550787D02*
D03*
Y548819D02*
D03*
Y546850D02*
D03*
Y544882D02*
D03*
Y542913D02*
D03*
Y540945D02*
D03*
Y538976D02*
D03*
Y537008D02*
D03*
Y535039D02*
D03*
Y533071D02*
D03*
Y531102D02*
D03*
Y529134D02*
D03*
Y527165D02*
D03*
Y525197D02*
D03*
Y523228D02*
D03*
Y521260D02*
D03*
Y519291D02*
D03*
Y517323D02*
D03*
Y515354D02*
D03*
D67*
X566732Y527559D02*
D03*
X573032D02*
D03*
X410236Y336417D02*
D03*
Y329724D02*
D03*
X590158Y585663D02*
D03*
X596457D02*
D03*
X663583Y552756D02*
D03*
X657283D02*
D03*
X777756Y402509D02*
D03*
X771457D02*
D03*
X771654Y382874D02*
D03*
X777953D02*
D03*
X771654Y376378D02*
D03*
X777953D02*
D03*
X625591Y472835D02*
D03*
X619291D02*
D03*
X606283D02*
D03*
X612582D02*
D03*
X429117Y367486D02*
D03*
X422818D02*
D03*
X703346Y555545D02*
D03*
X697047D02*
D03*
Y548442D02*
D03*
X703346D02*
D03*
Y541339D02*
D03*
X697047D02*
D03*
X457694Y367323D02*
D03*
X463993D02*
D03*
X399606Y329724D02*
D03*
Y336417D02*
D03*
X404751Y329724D02*
D03*
Y336417D02*
D03*
X394462Y329724D02*
D03*
Y336417D02*
D03*
D68*
X512953Y407480D02*
D03*
X498858D02*
D03*
X840709Y392126D02*
D03*
X826614D02*
D03*
X841496Y344882D02*
D03*
X827402D02*
D03*
X809409Y392717D02*
D03*
X795315D02*
D03*
X808819Y343898D02*
D03*
X794724D02*
D03*
X781653Y392717D02*
D03*
X767559D02*
D03*
D69*
X499311Y423490D02*
D03*
X512500D02*
D03*
X827264Y408661D02*
D03*
X840453D02*
D03*
X827854Y361040D02*
D03*
X841043D02*
D03*
X795768Y408875D02*
D03*
X808957D02*
D03*
X796555Y360056D02*
D03*
X809744D02*
D03*
X768012Y410104D02*
D03*
X781201D02*
D03*
D70*
X494488Y464213D02*
D03*
Y478307D02*
D03*
D71*
X463501Y407514D02*
D03*
X458186D02*
D03*
X423310Y408465D02*
D03*
X428625D02*
D03*
D72*
X594291Y577379D02*
D03*
X587205D02*
D03*
X625591Y498228D02*
D03*
X632677D02*
D03*
X610827Y499803D02*
D03*
X603740D02*
D03*
X630315Y464550D02*
D03*
X623228D02*
D03*
D73*
X366339Y361946D02*
D03*
Y355647D02*
D03*
X639370Y483465D02*
D03*
Y489764D02*
D03*
X373443Y361946D02*
D03*
Y355647D02*
D03*
X435433Y414567D02*
D03*
Y408268D02*
D03*
X416502Y414567D02*
D03*
Y408268D02*
D03*
X452362D02*
D03*
Y414567D02*
D03*
X469325Y408268D02*
D03*
Y414567D02*
D03*
D74*
X381516Y347795D02*
D03*
X376516D02*
D03*
X371516D02*
D03*
X366516D02*
D03*
X381516Y329370D02*
D03*
X376516D02*
D03*
X371516D02*
D03*
X366516D02*
D03*
D75*
X675591Y548228D02*
D03*
Y544291D02*
D03*
Y552165D02*
D03*
X688189D02*
D03*
Y544291D02*
D03*
Y548228D02*
D03*
D76*
X623622Y484646D02*
D03*
X608268D02*
D03*
D77*
X418468Y376853D02*
D03*
X423467D02*
D03*
X428468D02*
D03*
X433467D02*
D03*
X418468Y399097D02*
D03*
X423467D02*
D03*
X428468D02*
D03*
X433467D02*
D03*
X468343Y398934D02*
D03*
X463343D02*
D03*
X458344D02*
D03*
X453343D02*
D03*
X468343Y376690D02*
D03*
X463343D02*
D03*
X458344D02*
D03*
X453343D02*
D03*
D78*
X842126Y476378D02*
D03*
Y472638D02*
D03*
Y468898D02*
D03*
X831811D02*
D03*
Y472638D02*
D03*
Y476378D02*
D03*
D79*
X856299Y418504D02*
D03*
X864173Y422244D02*
D03*
Y414764D02*
D03*
X856496Y467520D02*
D03*
X864370Y471260D02*
D03*
Y463779D02*
D03*
D80*
X627716Y328740D02*
D03*
X553976Y514961D02*
D03*
X649803Y499409D02*
D03*
D81*
X617717Y328740D02*
D03*
X607717D02*
D03*
X597717D02*
D03*
X576772Y396732D02*
D03*
X566772D02*
D03*
X563976Y514961D02*
D03*
X659803Y499409D02*
D03*
X838500Y300000D02*
D03*
X803500Y286500D02*
D03*
D82*
X586772Y396732D02*
D03*
D83*
X508032Y459055D02*
D03*
X548032D02*
D03*
X578031D02*
D03*
Y489055D02*
D03*
X508032D02*
D03*
D84*
X488189Y257874D02*
D03*
Y273622D02*
D03*
Y289370D02*
D03*
X507874Y257874D02*
D03*
X527559D02*
D03*
Y273622D02*
D03*
Y289370D02*
D03*
X547244Y257874D02*
D03*
Y273622D02*
D03*
Y289370D02*
D03*
X566929Y257874D02*
D03*
Y273622D02*
D03*
Y289370D02*
D03*
X586614Y257874D02*
D03*
Y273622D02*
D03*
Y289370D02*
D03*
X610236Y257874D02*
D03*
Y273622D02*
D03*
Y289370D02*
D03*
X633858Y257874D02*
D03*
Y273622D02*
D03*
Y289370D02*
D03*
X653543Y257874D02*
D03*
Y273622D02*
D03*
Y289370D02*
D03*
X673228Y257874D02*
D03*
Y273622D02*
D03*
Y289370D02*
D03*
X692913Y257874D02*
D03*
Y273622D02*
D03*
Y289370D02*
D03*
X712598Y257874D02*
D03*
Y273622D02*
D03*
Y289370D02*
D03*
X732283Y257874D02*
D03*
Y273622D02*
D03*
Y289370D02*
D03*
X507874D02*
D03*
Y273622D02*
D03*
D85*
X382000Y498500D02*
D03*
X439500Y485500D02*
D03*
X435000Y490500D02*
D03*
X395500Y496500D02*
D03*
X412500Y503500D02*
D03*
X399000D02*
D03*
X385500D02*
D03*
X335500Y514000D02*
D03*
X363000Y473000D02*
D03*
X367000Y469000D02*
D03*
X372500Y464500D02*
D03*
X377500Y460500D02*
D03*
X742074Y520815D02*
D03*
X747830Y521059D02*
D03*
X752362Y520079D02*
D03*
X738000Y485000D02*
D03*
X490000Y532000D02*
D03*
X499500Y541500D02*
D03*
X392000Y517500D02*
D03*
Y509000D02*
D03*
X476000Y513000D02*
D03*
X488734Y514766D02*
D03*
X606000Y426000D02*
D03*
X602000Y430000D02*
D03*
X550750Y561206D02*
D03*
X550500Y557000D02*
D03*
X479500Y516500D02*
D03*
X488500Y510000D02*
D03*
X549500Y553000D02*
D03*
X546000Y549500D02*
D03*
X549500Y575500D02*
D03*
X531500Y538500D02*
D03*
X558000Y539500D02*
D03*
X530000Y575000D02*
D03*
X472253Y509861D02*
D03*
X685433Y403250D02*
D03*
X705118D02*
D03*
X336000Y579000D02*
D03*
X332500Y574500D02*
D03*
X341500Y580000D02*
D03*
X348500D02*
D03*
X472185Y485296D02*
D03*
X542500Y518500D02*
D03*
X366500Y580000D02*
D03*
X361000D02*
D03*
X606000Y385000D02*
D03*
X615500Y463500D02*
D03*
X602000Y389500D02*
D03*
X650000Y477000D02*
D03*
X698500Y478000D02*
D03*
X708268Y440158D02*
D03*
X698500Y521000D02*
D03*
X646500Y486500D02*
D03*
X649000Y491500D02*
D03*
X666500Y522000D02*
D03*
X741339Y527750D02*
D03*
X746850D02*
D03*
X752362D02*
D03*
X736221D02*
D03*
X731000D02*
D03*
Y520478D02*
D03*
X736221Y520472D02*
D03*
X570079Y462992D02*
D03*
X587008Y467717D02*
D03*
X764961Y376772D02*
D03*
X653543Y548819D02*
D03*
X397244Y395276D02*
D03*
X394488Y400787D02*
D03*
X409842Y445669D02*
D03*
X392126Y418504D02*
D03*
X394488Y408268D02*
D03*
X400000Y392126D02*
D03*
X405118Y377165D02*
D03*
X410630Y361417D02*
D03*
X402559Y449803D02*
D03*
X826378Y377165D02*
D03*
X870669Y422638D02*
D03*
X559055Y527165D02*
D03*
X638976Y517717D02*
D03*
X635827Y557087D02*
D03*
X598819Y559842D02*
D03*
X595276Y525197D02*
D03*
X608661Y517717D02*
D03*
X632283Y516929D02*
D03*
X635433Y520472D02*
D03*
X618504Y542520D02*
D03*
X493696Y485822D02*
D03*
X577756Y527953D02*
D03*
X805315Y467323D02*
D03*
Y458661D02*
D03*
X799803Y467323D02*
D03*
Y458661D02*
D03*
X794488Y467126D02*
D03*
X794685Y458858D02*
D03*
X789173Y467323D02*
D03*
Y459055D02*
D03*
X636811Y452362D02*
D03*
Y464764D02*
D03*
X771063Y465748D02*
D03*
X771260Y459252D02*
D03*
X839764Y457677D02*
D03*
X826968Y329724D02*
D03*
X793701Y327362D02*
D03*
Y376969D02*
D03*
X870079Y471457D02*
D03*
D86*
X452756Y488976D02*
D03*
X810433Y298819D02*
D03*
X792323Y280709D02*
D03*
X783268Y298819D02*
D03*
X774213D02*
D03*
X882874Y425591D02*
D03*
X878347Y416536D02*
D03*
X882874Y407480D02*
D03*
X878347Y398425D02*
D03*
X882874Y389370D02*
D03*
X878347Y380315D02*
D03*
X882874Y371260D02*
D03*
X878347Y362205D02*
D03*
X882874Y353150D02*
D03*
X873819Y461811D02*
D03*
X869291Y452756D02*
D03*
X873819Y443701D02*
D03*
Y407480D02*
D03*
Y389370D02*
D03*
X869291Y380315D02*
D03*
X873819Y371260D02*
D03*
X869291Y362205D02*
D03*
Y325984D02*
D03*
X864764Y371260D02*
D03*
Y353150D02*
D03*
X860236Y325984D02*
D03*
X864764Y316929D02*
D03*
X860236Y307874D02*
D03*
X851181Y470866D02*
D03*
Y452756D02*
D03*
Y434646D02*
D03*
Y416536D02*
D03*
Y380315D02*
D03*
X855709Y316929D02*
D03*
X851181Y307874D02*
D03*
X846654Y479921D02*
D03*
Y461811D02*
D03*
X842126Y434646D02*
D03*
X846654Y425591D02*
D03*
X842126Y416536D02*
D03*
X846654Y407480D02*
D03*
X842126Y380315D02*
D03*
Y325984D02*
D03*
Y307874D02*
D03*
X837599Y443701D02*
D03*
X833071Y434646D02*
D03*
X837599Y425591D02*
D03*
X824016Y452756D02*
D03*
X828543Y316929D02*
D03*
X814961Y470866D02*
D03*
Y452756D02*
D03*
X819488Y443701D02*
D03*
X814961Y416536D02*
D03*
Y398425D02*
D03*
X819488Y316929D02*
D03*
X814961Y271654D02*
D03*
X810433Y443701D02*
D03*
Y425591D02*
D03*
X805906Y362205D02*
D03*
X810433Y353150D02*
D03*
Y335039D02*
D03*
X805906Y271654D02*
D03*
X801378Y425591D02*
D03*
X796851Y271654D02*
D03*
X801378Y262598D02*
D03*
X796851Y253543D02*
D03*
X787795Y362205D02*
D03*
Y344095D02*
D03*
Y325984D02*
D03*
X792323Y316929D02*
D03*
Y298819D02*
D03*
X787795Y271654D02*
D03*
X778740Y452756D02*
D03*
X783268Y443701D02*
D03*
X778740Y434646D02*
D03*
X783268Y425591D02*
D03*
Y371260D02*
D03*
Y353150D02*
D03*
Y335039D02*
D03*
Y280709D02*
D03*
X778740Y271654D02*
D03*
Y253543D02*
D03*
X769685Y362205D02*
D03*
Y344095D02*
D03*
Y325984D02*
D03*
X774213Y280709D02*
D03*
Y262598D02*
D03*
X769685Y253543D02*
D03*
X760630Y452756D02*
D03*
X765158Y443701D02*
D03*
X760630Y434646D02*
D03*
X765158Y425591D02*
D03*
X760630Y416536D02*
D03*
X765158Y371260D02*
D03*
X760630Y362205D02*
D03*
X765158Y353150D02*
D03*
X760630Y344095D02*
D03*
X765158Y335039D02*
D03*
X760630Y325984D02*
D03*
X765158Y298819D02*
D03*
X751575Y488976D02*
D03*
Y452756D02*
D03*
X756103Y443701D02*
D03*
X751575Y380315D02*
D03*
X756103Y371260D02*
D03*
X751575Y362205D02*
D03*
X756103Y353150D02*
D03*
X751575Y344095D02*
D03*
X756103Y335039D02*
D03*
X751575Y325984D02*
D03*
X756103Y298819D02*
D03*
X751575Y271654D02*
D03*
X756103Y262598D02*
D03*
X747047Y498032D02*
D03*
X742520Y488976D02*
D03*
X747047Y425591D02*
D03*
Y407480D02*
D03*
Y371260D02*
D03*
Y353150D02*
D03*
Y335039D02*
D03*
X742520Y325984D02*
D03*
X747047Y298819D02*
D03*
X742520Y271654D02*
D03*
X747047Y262598D02*
D03*
X733465Y543307D02*
D03*
Y488976D02*
D03*
X737992Y335039D02*
D03*
X733465Y325984D02*
D03*
X737992Y298819D02*
D03*
Y262598D02*
D03*
X728937Y552362D02*
D03*
X724410Y543307D02*
D03*
X728937Y353150D02*
D03*
Y335039D02*
D03*
X724410Y325984D02*
D03*
X728937Y298819D02*
D03*
X724410Y271654D02*
D03*
X715354Y561417D02*
D03*
X719882Y552362D02*
D03*
X715354Y543307D02*
D03*
X719882Y443701D02*
D03*
Y425591D02*
D03*
Y407480D02*
D03*
Y335039D02*
D03*
X715354Y325984D02*
D03*
X719882Y298819D02*
D03*
Y262598D02*
D03*
X706299Y579528D02*
D03*
Y561417D02*
D03*
X710827Y552362D02*
D03*
Y389370D02*
D03*
Y371260D02*
D03*
Y353150D02*
D03*
X706299Y325984D02*
D03*
X710827Y298819D02*
D03*
Y280709D02*
D03*
X697244Y579528D02*
D03*
Y561417D02*
D03*
Y507087D02*
D03*
X701772Y353150D02*
D03*
X697244Y325984D02*
D03*
X688189Y579528D02*
D03*
Y561417D02*
D03*
X692717Y498032D02*
D03*
X688189Y488976D02*
D03*
X692717Y479921D02*
D03*
Y407480D02*
D03*
Y353150D02*
D03*
X688189Y325984D02*
D03*
X692717Y316929D02*
D03*
X679134Y561417D02*
D03*
Y488976D02*
D03*
X683662Y425591D02*
D03*
X679134Y416536D02*
D03*
X683662Y353150D02*
D03*
Y316929D02*
D03*
X679134Y307874D02*
D03*
X683662Y262598D02*
D03*
X670079Y561417D02*
D03*
Y488976D02*
D03*
X674606Y443701D02*
D03*
Y425591D02*
D03*
X670079Y416536D02*
D03*
Y380315D02*
D03*
Y362205D02*
D03*
Y344095D02*
D03*
X674606Y316929D02*
D03*
Y298819D02*
D03*
X665551Y606693D02*
D03*
X661024Y597638D02*
D03*
Y488976D02*
D03*
X665551Y443701D02*
D03*
Y425591D02*
D03*
X661024Y416536D02*
D03*
X665551Y407480D02*
D03*
Y389370D02*
D03*
X661024Y380315D02*
D03*
X665551Y371260D02*
D03*
Y353150D02*
D03*
X661024Y344095D02*
D03*
X656496Y606693D02*
D03*
Y443701D02*
D03*
Y425591D02*
D03*
X651969Y416536D02*
D03*
X656496Y407480D02*
D03*
X651969Y398425D02*
D03*
X656496Y353150D02*
D03*
X651969Y344095D02*
D03*
X656496Y335039D02*
D03*
X651969Y325984D02*
D03*
X642913Y597638D02*
D03*
X647441Y588583D02*
D03*
Y443701D02*
D03*
X642913Y434646D02*
D03*
Y380315D02*
D03*
X647441Y353150D02*
D03*
Y335039D02*
D03*
X642913Y289764D02*
D03*
X647441Y280709D02*
D03*
X642913Y271654D02*
D03*
Y253543D02*
D03*
X633858Y597638D02*
D03*
X638386Y588583D02*
D03*
Y443701D02*
D03*
X633858Y434646D02*
D03*
X638386Y425591D02*
D03*
Y407480D02*
D03*
X633858Y344095D02*
D03*
Y325984D02*
D03*
Y307874D02*
D03*
X624803Y597638D02*
D03*
X629331Y443701D02*
D03*
X624803Y434646D02*
D03*
X629331Y425591D02*
D03*
X624803Y416536D02*
D03*
X629331Y353150D02*
D03*
X624803Y344095D02*
D03*
X629331Y335039D02*
D03*
Y298819D02*
D03*
Y280709D02*
D03*
X620276Y443701D02*
D03*
X615748Y434646D02*
D03*
X620276Y425591D02*
D03*
X615748Y416536D02*
D03*
X620276Y389370D02*
D03*
X615748Y362205D02*
D03*
X620276Y353150D02*
D03*
X615748Y344095D02*
D03*
X620276Y335039D02*
D03*
Y262598D02*
D03*
X611221Y443701D02*
D03*
Y425591D02*
D03*
X606693Y362205D02*
D03*
X611221Y353150D02*
D03*
X606693Y344095D02*
D03*
X611221Y335039D02*
D03*
X606693Y307874D02*
D03*
X611221Y298819D02*
D03*
Y280709D02*
D03*
X597638Y452756D02*
D03*
Y416536D02*
D03*
Y398425D02*
D03*
X602166Y371260D02*
D03*
X597638Y362205D02*
D03*
X602166Y353150D02*
D03*
X597638Y344095D02*
D03*
X602166Y335039D02*
D03*
Y316929D02*
D03*
X597638Y307874D02*
D03*
X602166Y298819D02*
D03*
Y262598D02*
D03*
X593110Y461811D02*
D03*
X588583Y452756D02*
D03*
X593110Y443701D02*
D03*
Y407480D02*
D03*
Y371260D02*
D03*
Y353150D02*
D03*
X588583Y344095D02*
D03*
X593110Y335039D02*
D03*
X588583Y325984D02*
D03*
X593110Y316929D02*
D03*
X588583Y307874D02*
D03*
X584055Y479921D02*
D03*
Y335039D02*
D03*
X579528Y325984D02*
D03*
X584055Y316929D02*
D03*
Y280709D02*
D03*
X579528Y271654D02*
D03*
X575000Y498032D02*
D03*
X570473Y488976D02*
D03*
Y416536D02*
D03*
X575000Y407480D02*
D03*
Y371260D02*
D03*
Y353150D02*
D03*
Y335039D02*
D03*
X570473Y325984D02*
D03*
X575000Y280709D02*
D03*
X565945Y498032D02*
D03*
X561417Y488976D02*
D03*
X565945Y479921D02*
D03*
Y443701D02*
D03*
X561417Y416536D02*
D03*
X565945Y407480D02*
D03*
X556890Y606693D02*
D03*
X552362Y543307D02*
D03*
X556890Y498032D02*
D03*
X552362Y488976D02*
D03*
X556890Y479921D02*
D03*
X552362Y452756D02*
D03*
X556890Y407480D02*
D03*
Y389370D02*
D03*
X552362Y380315D02*
D03*
X556890Y371260D02*
D03*
Y353150D02*
D03*
X552362Y344095D02*
D03*
X547835Y606693D02*
D03*
X543307Y597638D02*
D03*
X547835Y516142D02*
D03*
Y498032D02*
D03*
X543307Y488976D02*
D03*
Y470866D02*
D03*
Y452756D02*
D03*
Y434646D02*
D03*
X547835Y371260D02*
D03*
X543307Y362205D02*
D03*
X547835Y353150D02*
D03*
X538780Y606693D02*
D03*
X534252Y597638D02*
D03*
X538780Y588583D02*
D03*
X534252Y579528D02*
D03*
X538780Y498032D02*
D03*
X534252Y470866D02*
D03*
Y452756D02*
D03*
Y434646D02*
D03*
X538780Y425591D02*
D03*
X534252Y380315D02*
D03*
Y362205D02*
D03*
X538780Y298819D02*
D03*
Y280709D02*
D03*
X529725Y606693D02*
D03*
X525197Y597638D02*
D03*
X529725Y588583D02*
D03*
X525197Y579528D02*
D03*
X529725Y516142D02*
D03*
Y498032D02*
D03*
Y479921D02*
D03*
X525197Y470866D02*
D03*
X529725Y461811D02*
D03*
X525197Y452756D02*
D03*
Y434646D02*
D03*
X529725Y425591D02*
D03*
Y407480D02*
D03*
X525197Y380315D02*
D03*
X529725Y371260D02*
D03*
X525197Y362205D02*
D03*
X529725Y298819D02*
D03*
Y280709D02*
D03*
X520669Y606693D02*
D03*
X516142Y597638D02*
D03*
X520669Y588583D02*
D03*
X516142Y579528D02*
D03*
X520669Y570473D02*
D03*
X516142Y561417D02*
D03*
X520669Y498032D02*
D03*
Y479921D02*
D03*
X516142Y470866D02*
D03*
X520669Y461811D02*
D03*
X516142Y416536D02*
D03*
X520669Y407480D02*
D03*
X516142Y398425D02*
D03*
X511614Y606693D02*
D03*
X507087Y579528D02*
D03*
X511614Y570473D02*
D03*
X507087Y561417D02*
D03*
X511614Y498032D02*
D03*
Y479921D02*
D03*
X507087Y470866D02*
D03*
Y380315D02*
D03*
X511614Y371260D02*
D03*
X507087Y362205D02*
D03*
X511614Y335039D02*
D03*
X498032Y579528D02*
D03*
X502559Y570473D02*
D03*
X498032Y561417D02*
D03*
X502559Y552362D02*
D03*
X498032Y434646D02*
D03*
Y416536D02*
D03*
Y398425D02*
D03*
Y380315D02*
D03*
Y362205D02*
D03*
X502559Y298819D02*
D03*
X498032Y271654D02*
D03*
X493504Y570473D02*
D03*
X488976Y561417D02*
D03*
X493504Y552362D02*
D03*
X488976Y543307D02*
D03*
X493504Y335039D02*
D03*
X488976Y325984D02*
D03*
X493504Y280709D02*
D03*
X484449Y606693D02*
D03*
X479921Y597638D02*
D03*
X484449Y588583D02*
D03*
Y570473D02*
D03*
X479921Y561417D02*
D03*
X484449Y552362D02*
D03*
X479921Y543307D02*
D03*
Y434646D02*
D03*
Y416536D02*
D03*
X484449Y407480D02*
D03*
X479921Y398425D02*
D03*
X484449Y389370D02*
D03*
X479921Y380315D02*
D03*
X484449Y371260D02*
D03*
X479921Y362205D02*
D03*
X484449Y353150D02*
D03*
X479921Y344095D02*
D03*
X484449Y335039D02*
D03*
X479921Y325984D02*
D03*
Y271654D02*
D03*
X475394Y606693D02*
D03*
X470866Y597638D02*
D03*
X475394Y588583D02*
D03*
Y570473D02*
D03*
X470866Y561417D02*
D03*
X475394Y552362D02*
D03*
X470866Y543307D02*
D03*
X475394Y498032D02*
D03*
X470866Y452756D02*
D03*
X475394Y425591D02*
D03*
Y407480D02*
D03*
Y389370D02*
D03*
Y371260D02*
D03*
X470866Y362205D02*
D03*
X475394Y353150D02*
D03*
X470866Y344095D02*
D03*
X475394Y335039D02*
D03*
X470866Y325984D02*
D03*
X475394Y298819D02*
D03*
Y280709D02*
D03*
X470866Y271654D02*
D03*
X466339Y606693D02*
D03*
X461811Y597638D02*
D03*
X466339Y588583D02*
D03*
Y552362D02*
D03*
X461811Y543307D02*
D03*
Y525197D02*
D03*
X466339Y498032D02*
D03*
X461811Y488976D02*
D03*
X466339Y425591D02*
D03*
X461811Y416536D02*
D03*
X466339Y389370D02*
D03*
X461811Y289764D02*
D03*
X466339Y280709D02*
D03*
X461811Y253543D02*
D03*
X457284Y606693D02*
D03*
X452756Y597638D02*
D03*
X457284Y588583D02*
D03*
Y570473D02*
D03*
Y552362D02*
D03*
X452756Y543307D02*
D03*
Y525197D02*
D03*
X457284Y479921D02*
D03*
X452756Y434646D02*
D03*
X457284Y389370D02*
D03*
X452756Y344095D02*
D03*
X457284Y298819D02*
D03*
X452756Y289764D02*
D03*
X457284Y262598D02*
D03*
X452756Y253543D02*
D03*
X448228Y606693D02*
D03*
X443701Y597638D02*
D03*
X448228Y588583D02*
D03*
Y570473D02*
D03*
Y552362D02*
D03*
X443701Y507087D02*
D03*
Y398425D02*
D03*
X448228Y389370D02*
D03*
X443701Y380315D02*
D03*
X448228Y371260D02*
D03*
X443701Y362205D02*
D03*
X448228Y353150D02*
D03*
X443701Y325984D02*
D03*
X448228Y298819D02*
D03*
X443701Y271654D02*
D03*
X448228Y262598D02*
D03*
X443701Y253543D02*
D03*
X439173Y606693D02*
D03*
X434646Y597638D02*
D03*
X439173Y588583D02*
D03*
X434646Y507087D02*
D03*
X439173Y479921D02*
D03*
X434646Y434646D02*
D03*
X439173Y425591D02*
D03*
Y389370D02*
D03*
Y371260D02*
D03*
X434646Y362205D02*
D03*
Y344095D02*
D03*
X439173Y335039D02*
D03*
X434646Y325984D02*
D03*
X439173Y280709D02*
D03*
X434646Y271654D02*
D03*
X430118Y606693D02*
D03*
Y588583D02*
D03*
X425591Y507087D02*
D03*
X430118Y389370D02*
D03*
X425591Y344095D02*
D03*
X430118Y335039D02*
D03*
X425591Y325984D02*
D03*
Y289764D02*
D03*
X430118Y280709D02*
D03*
X425591Y271654D02*
D03*
X416536Y434646D02*
D03*
X421063Y389370D02*
D03*
X416536Y362205D02*
D03*
X421063Y353150D02*
D03*
X416536Y344095D02*
D03*
X421063Y335039D02*
D03*
X416536Y325984D02*
D03*
X421063Y298819D02*
D03*
X416536Y289764D02*
D03*
X421063Y280709D02*
D03*
X416536Y271654D02*
D03*
X421063Y262598D02*
D03*
X416536Y253543D02*
D03*
X412008Y425591D02*
D03*
Y298819D02*
D03*
X407480Y289764D02*
D03*
X412008Y280709D02*
D03*
X407480Y271654D02*
D03*
X393898Y588583D02*
D03*
X389370Y452756D02*
D03*
Y398425D02*
D03*
Y380315D02*
D03*
Y344095D02*
D03*
Y307874D02*
D03*
X384843Y588583D02*
D03*
X380315Y579528D02*
D03*
Y452756D02*
D03*
Y434646D02*
D03*
X384843Y425591D02*
D03*
X380315Y416536D02*
D03*
Y398425D02*
D03*
X384843Y371260D02*
D03*
X380315Y307874D02*
D03*
X375787Y588583D02*
D03*
Y516142D02*
D03*
Y425591D02*
D03*
Y316929D02*
D03*
X371260Y307874D02*
D03*
X366732Y606693D02*
D03*
X362205Y597638D02*
D03*
X366732Y588583D02*
D03*
Y516142D02*
D03*
X362205Y507087D02*
D03*
Y488976D02*
D03*
X366732Y479921D02*
D03*
Y316929D02*
D03*
X362205Y307874D02*
D03*
X357677Y606693D02*
D03*
X353150Y597638D02*
D03*
X357677Y588583D02*
D03*
X353150Y507087D02*
D03*
X357677Y498032D02*
D03*
X353150Y488976D02*
D03*
X357677Y479921D02*
D03*
X353150Y434646D02*
D03*
Y416536D02*
D03*
Y398425D02*
D03*
Y380315D02*
D03*
Y362205D02*
D03*
X357677Y335039D02*
D03*
X353150Y325984D02*
D03*
X357677Y316929D02*
D03*
X348622Y606693D02*
D03*
X344095Y597638D02*
D03*
X348622Y588583D02*
D03*
X344095Y525197D02*
D03*
Y507087D02*
D03*
X348622Y498032D02*
D03*
X344095Y488976D02*
D03*
Y470866D02*
D03*
X348622Y425591D02*
D03*
X344095Y416536D02*
D03*
X348622Y407480D02*
D03*
X344095Y398425D02*
D03*
X348622Y389370D02*
D03*
X344095Y380315D02*
D03*
X348622Y371260D02*
D03*
X344095Y362205D02*
D03*
X348622Y353150D02*
D03*
Y316929D02*
D03*
X335039Y597638D02*
D03*
X339567Y588583D02*
D03*
Y498032D02*
D03*
X335039Y470866D02*
D03*
Y434646D02*
D03*
X339567Y425591D02*
D03*
X335039Y416536D02*
D03*
X339567Y407480D02*
D03*
X335039Y398425D02*
D03*
X339567Y389370D02*
D03*
X335039Y380315D02*
D03*
X339567Y371260D02*
D03*
X335039Y362205D02*
D03*
D87*
X369845Y455709D02*
D03*
X477165Y442520D02*
D03*
X735500Y502000D02*
D03*
X698500Y488000D02*
D03*
X535039Y319291D02*
D03*
X618504Y604724D02*
D03*
X447825Y441919D02*
D03*
X548228Y359252D02*
D03*
X713583Y432087D02*
D03*
X752953D02*
D03*
D88*
X342520Y448819D02*
D03*
X500500Y595000D02*
D03*
X342520Y338583D02*
D03*
X877953D02*
D03*
X681102Y594488D02*
D03*
D89*
X407480Y257874D02*
D03*
X812992D02*
D03*
D90*
X433071D02*
D03*
X787402D02*
D03*
M02*
