M48
;Layer_Color=9474304
;FILE_FORMAT=2:3
INCH,LZ
;TYPE=PLATED
T1F00S00C0.017
T2F00S00C0.028
T3F00S00C0.035
T4F00S00C0.039
T5F00S00C0.042
T6F00S00C0.051
T7F00S00C0.059
T8F00S00C0.118
T9F00S00C0.137
T10F00S00C0.138
%
T01
X07969Y02535
X08014Y02626
X08059Y02717
X0815
X07969
X07878
X07923Y02807
X07833
Y02988
X07923
X08104
X08421Y03079
X08512
X08602
X07742Y02988
X07652
X07561
X0747
X0738
X07289
X07199
X07108
Y02807
X07244Y02717
X07199Y02626
X0738
X0747
X07561
X07516Y02717
X07425
X07787
X07742Y02807
Y02626
X07787Y02535
X07697
X06837Y02626
X06746Y02988
X06791Y03079
X06339
X06293Y02988
Y02807
X06474
X06429Y02898
Y02717
Y02535
X06203Y02626
X06022
X06112Y02807
Y02988
X06022
X06067Y03079
X05976
X05886
X05841Y02807
X0575
X05795Y02717
X05388Y02807
X05297
Y02988
X05388
X05026
X04935Y02807
X0498Y02717
X04799
X04709
X04754Y02807
Y02988
X04573
X04482
X04528Y02898
X04618
X04663Y02807
X04573Y02626
X04482
X04528Y02535
X04618
X04437
Y02717
X04346
X04256
X04165
X04075
X0412Y02807
X04211
X04301
X04392
X04256Y02898
X04165
X04075
X0412Y02988
X04211
Y02626
X04165Y02535
X03894Y03079
X03803
X03713
X03622
X03667Y03169
X03758
X03577
X03486
X03531Y0326
X03577Y0335
X03486Y03531
X03531Y03622
X03441
X0335
X03396Y03713
X03486
X03531Y03803
X03441
X0335
X03396Y03894
X03486
X03531Y03984
X03441
X0335
X03396Y04075
X03486
X03531Y04165
X03441
X0335
X03396Y04256
X03486
X03531Y04346
X0335
X03803
X03848Y04256
X03758
X03803Y04165
X03921Y04185
X03945Y04083
Y04008
X03894Y03984
X03803
X03972Y03953
X04Y03921
X04051Y03772
X03894Y03803
X03848Y03713
X03894Y03441
X04165
X04256
X04346
X04392Y0335
X04301
X04211
X04256Y0326
X04346
X04437
X04528Y03441
X04482Y03531
X04437Y03622
X04346
X04392Y03713
X04482
X04437Y03803
X04482Y03894
X04573
X04663
X04392
X04301
X04211
X04437Y03984
X04392Y04256
X04346Y04346
X04528
X04663Y04256
X04618Y04165
X0412Y04256
X04165Y04346
X04098Y04457
X04026Y04498
X03894Y04528
X03803
X03775Y04605
X03725Y04645
X04106Y03614
X04165Y03622
X04211Y03531
X04165Y0326
X04709
X04799
X0489
X04935Y0335
X04844
X04754
X04799Y03441
X04709
X04754Y03531
X04844
X04799Y03622
X04709
X04754Y03713
X04844
X04799Y03803
X04844Y03894
X04754
X04799Y03984
X04844Y04075
X04754
X04799Y04165
X04754Y04256
X04799Y04346
X0498
Y04165
X05161
X05207Y04075
X05297
Y04256
X05388
X05433Y04346
X05343
X05252
Y04528
X05343
X05433
X05524
X05659Y04437
X05701Y0463
X0587Y04677
X05931Y04618
X05976Y04528
X05886
X05931Y04437
X06112
X06203
X06248Y04346
X06157
X06203Y04256
X06112
X0606Y0426
X0602Y043
X05976Y04165
X05931Y04075
X05976Y03984
X0602Y03895
X0606Y0385
X06022Y03713
X05931
X05976Y03622
X06067
X06157
X06203Y03531
X06112
X06022
X05931
X05976Y03441
X06067
X06157
X06248
X06203Y0335
X06112
X06022
X05931
X05841
X0575
X05795Y0326
X05886
X05931Y03169
X06022
X05841
X05705Y0326
X0575Y03531
Y03713
X05569
X05478
X05524Y03803
X05569Y03894
Y04075
X05659
X0575
X05705Y04165
X05614
X06157
X06248
X06203Y03894
X05886Y03441
X05524
X05569Y03531
X05478
X05433Y03622
X05343
X05252
X05297Y03713
X05343Y03803
X05252
X05071
X0498
Y03984
X05161
X05116Y03713
X05071Y03622
X0498
X05116Y0335
X05207Y04618
X05297
X04709Y04528
X06155Y04635
X06368Y04648
Y04524
X06384Y04437
X06474
X06565
X06656
X06746
Y04256
X06837
X06791Y04165
X06701
X0661
X0652
X06565Y04256
X06656
Y04075
X06565
X0652Y03984
X06656Y03894
X06701Y03803
X0661
X06656Y03713
X06701Y03622
X06656Y03531
X06565
X06474
X0652Y03441
X0661
X06701
X06837Y03531
X06927
X07018
X07108
X07289
X0747
X07561
X07652
X07697Y03622
X07606
X07516
X07561Y03713
X07652
X0765Y03768
X07516Y03803
X0747Y03713
X07516Y03441
X07606
X07697
X07652Y0335
X07561
X0747
X0738
X07289
X07199
X07244Y0326
X07335
X07425
X07516
X07606
X07697
X07154
X07063
X06972
X06882
X06927Y03169
X06837
X06746
X0652Y0326
X06565Y0335
X06474
X06293
X06339Y03441
X06293Y03531
X06339Y0326
X06429Y03803
X06384Y04075
Y04256
X06293
X06339Y04346
X06429
X06293Y04437
X07083Y04402
X07199Y04437
Y04256
Y04075
X07051Y04032
X06927Y04075
X06854Y04032
X07108Y03894
Y03713
X0747Y04075
Y04256
X07652
X07606Y04346
X07652Y04437
X07561
X07606Y04528
X07516
X07713Y04593
X07711Y04657
X07787Y04528
Y04346
X07606Y04165
X07833Y04256
X08014
X08104
X0815Y04165
Y03984
X08264Y03772
X08421Y03803
X08512
X08693
X08783
X08829Y03894
X08738
X08783Y03984
X08829Y04075
X08738
X08783Y04165
X08829Y04256
X08707Y04226
X08738Y04437
X08693Y04528
X08738Y04618
X08467
X08398Y04577
X08376Y04437
X08421Y04346
X08512
X08467Y04256
X08376
X08421Y04165
X08512
X08467Y04075
X08331Y04346
X08195Y04437
X08104
X0815Y04528
X0824
X08053Y04587
X07998
X07947Y04589
X07892Y04591
Y04673
X07945Y04671
X07998Y04673
X08053
X07833Y04437
Y03713
X07878Y03622
X07833Y03531
X07878Y03441
X07833Y0335
X07878Y0326
X07937Y03274
X07923Y03169
X08195
X08285
X0827Y03297
X08421Y0326
X08602
X08693
X08648Y03169
X08557
X08648Y03531
X08693Y03622
X08783
X08829Y03713
X08738
X08648
X08829Y03531
X08104
X08059Y03622
X07937Y0377
X08104Y0335
X08512Y04528
Y04709
X08467Y04799
X08701Y04715
X0815Y04709
X07516Y0489
X07425
X0738Y0485
X07335Y0489
X0747Y0498
X07478Y05211
X07524Y05201
Y05278
X07469
X07413
X07362
X0731
Y05205
X07362Y05205
X07421Y05208
X07335Y05433
X07244
X07154
X07199Y05524
X07289
X07108
X07154Y05614
X07063
X06972
X06882
X06791
X06701
X06535Y05488
X06358Y05571
X06384Y05886
X06474
X06429Y05976
X06339
X0661
X06656Y06067
X06565
X06882Y05795
X06972
X07063
X06985Y0521
X06972Y05071
X06927Y0498
X06882Y0489
X06791
X06701
X0661
X0649Y04915
X06465Y04865
X065Y0477
X06927Y04799
X06985Y0478
X06665Y0522
X0639Y05177
X06354Y05205
X06323Y05169
X06087Y05177
X05953Y05252
X05778Y0528
X05591Y05272
X0558Y05395
X05524Y05433
X05495Y0553
X05505Y0557
X05508Y05612
X05495Y05755
X05343Y05795
X053Y0575
X05252Y05795
X05161
X05071
X0498
X05026Y05705
X05116
X05207
X05161Y05614
X05071
X0498
X0489
X04799
X04709
X04754Y05705
X04844
X04935
Y05524
X05026
X04995Y05415
X0489Y05433
X04799
X04709
X04754Y05524
X04844
X049Y0532
X04887Y05148
X04885Y051
X0476Y0513
X04723Y05099
X04795Y05165
X04754Y0498
X04722Y04853
X04937Y04858
X05116Y04799
X05207
X05297
X05343Y04709
X05433
Y0489
X05524
X05614
X05705
X0575Y0498
X05659
X05569
X05478
X05388
X05297
X05207
X05116
X05161Y04709
X05252
X05071
X05569Y04799
X05659
X05841
X05478Y05161
X05425Y05185
X05297Y05161
X05315Y05385
X0546Y05495
X05388Y05886
X05297
X05207
X05252Y05976
X05343
X05433
X05478Y06067
X05569
X05388
X05297
X05207
X05116
X05161Y05976
X04799
X04709
X04754Y06067
X04844
Y05886
X04754
X05988Y05598
X06185Y05425
X06248Y05976
X04618
X04528
X04437
X04346
X04392Y06067
X04482
X04573
X04663
Y05886
X04573
X04482
X04392
X04301
Y06067
X04482Y05705
X04573
Y05524
X04663
X04618Y05433
X04528
X04482Y05524
X04528Y05252
X04618
X04663Y0498
X04618Y0489
X04528
X04573Y04799
X04392
X04395Y04855
X0435Y04905
X04346Y05071
X04437
X04256
X04125Y05035
X0399
X03955Y04965
X0382Y04985
X03855Y05035
X0392Y0509
Y05175
X03758Y05161
X03667
X03622Y05071
X03531
X03441
X03486Y0498
X03577
X03622Y0489
X03531
X03441
X03396Y0498
X03355Y0514
X03441Y05252
Y04709
X0335
X0363Y0473
X0367Y0469
X03667Y04799
X03577
X0361Y058
X03665
X03667Y05886
X03758
X03848
X03939
X03803Y05795
X03577Y05886
X03486
X03485Y058
X03415
X0336Y0579
X03325Y05745
X03396Y05886
X03441Y05976
X03531
X03622
X03667Y06067
X03577
X03486
X0335Y05976
T02
X03698Y04557
X04478Y04419
X04772Y04425
X05482Y03593
X0535Y03193
X07136Y04321
X0753
X07355Y0502
X06985Y0488
X06185Y06047
T03
X05977Y03287
X06077
X06177
X05868Y03967
X05768
X05668
X06277Y03287
X06498Y04994
X06598
X0564Y0515
X0554
T04
X08035Y02865
X08385Y03
T05
X0632Y039
X0642
X0652
T06
X0508Y04591
X0548
X0578
Y04891
X0508
T07
X06339Y02579
Y02736
Y02894
X06535
Y02736
Y02579
X06732
Y02736
Y02894
X06929
Y02736
Y02579
X07126
Y02736
Y02894
X07323
Y02736
Y02579
X06102
Y02736
Y02894
X05866
Y02736
Y02579
X05669
Y02736
Y02894
X05472
Y02736
Y02579
X05276
Y02736
Y02894
X05079
Y02736
Y02579
X04882
Y02736
Y02894
T08
X07874Y02579
X04331
T09
X03425Y03386
Y04488
X0878Y03386
X06811Y05945
X05005Y0595
T10
X0813Y02579
X04075
M30
