G04*
G04 #@! TF.GenerationSoftware,Altium Limited,Altium Designer,25.0.2 (28)*
G04*
G04 Layer_Physical_Order=2*
G04 Layer_Color=16711680*
%FSLAX44Y44*%
%MOMM*%
G71*
G04*
G04 #@! TF.SameCoordinates,1489D581-9A80-4730-A308-F2CAF4F028AF*
G04*
G04*
G04 #@! TF.FilePolarity,Positive*
G04*
G01*
G75*
%ADD12C,0.2540*%
%ADD32R,1.0000X0.9000*%
%ADD35R,0.9000X0.8000*%
%ADD45R,1.1000X1.1000*%
%ADD76C,2.0066*%
%ADD85C,0.5080*%
%ADD86C,0.7620*%
%ADD87C,0.3810*%
%ADD89C,1.0160*%
%ADD90C,2.0320*%
%ADD91C,0.6350*%
%ADD92C,2.2000*%
%ADD93C,1.5000*%
G04:AMPARAMS|DCode=94|XSize=1.4mm|YSize=1.4mm|CornerRadius=0.35mm|HoleSize=0mm|Usage=FLASHONLY|Rotation=180.000|XOffset=0mm|YOffset=0mm|HoleType=Round|Shape=RoundedRectangle|*
%AMROUNDEDRECTD94*
21,1,1.4000,0.7000,0,0,180.0*
21,1,0.7000,1.4000,0,0,180.0*
1,1,0.7000,-0.3500,0.3500*
1,1,0.7000,0.3500,0.3500*
1,1,0.7000,0.3500,-0.3500*
1,1,0.7000,-0.3500,-0.3500*
%
%ADD94ROUNDEDRECTD94*%
%ADD95C,1.5748*%
%ADD96R,1.5000X1.5000*%
%ADD97C,4.0000*%
%ADD98C,3.5000*%
%ADD99C,0.7874*%
%ADD100C,1.2700*%
%ADD101C,6.3500*%
%ADD102R,3.1500X1.7800*%
%ADD103R,1.9000X1.3500*%
%ADD104R,1.5000X2.8000*%
%ADD105R,0.7000X0.7000*%
G36*
X939800Y1560000D02*
Y1513840D01*
X1032510D01*
Y1484630D01*
X1073150D01*
Y1513840D01*
Y1560000D01*
X1760000Y1560000D01*
X2040000Y1280000D01*
X2220000D01*
X2280000Y1220000D01*
Y820000D01*
X2190000Y730000D01*
X2100000D01*
Y640000D01*
X2060000Y600000D01*
X1040000Y600000D01*
X1000000Y640000D01*
X1000000Y730000D01*
X910000D01*
X820000Y820000D01*
Y1504530D01*
X875470Y1560000D01*
X939800D01*
D02*
G37*
%LPC*%
G36*
X1417320Y1376157D02*
X1415090Y1375713D01*
X1413200Y1374450D01*
X1411937Y1372560D01*
X1411493Y1370330D01*
X1411563Y1369979D01*
X1411539Y1369717D01*
X1411500Y1369473D01*
X1411446Y1369251D01*
X1411379Y1369048D01*
X1411299Y1368860D01*
X1411206Y1368685D01*
X1411099Y1368519D01*
X1411048Y1368453D01*
X1375117Y1332522D01*
X1374444Y1331514D01*
X1374207Y1330325D01*
Y1322434D01*
X1374199Y1322359D01*
X1374159Y1322136D01*
X1374100Y1321908D01*
X1374024Y1321674D01*
X1373927Y1321433D01*
X1373820Y1321207D01*
X1373490Y1320644D01*
X1373290Y1320357D01*
X1373220Y1320197D01*
X1372567Y1319220D01*
X1372123Y1316990D01*
X1372567Y1314760D01*
X1373830Y1312870D01*
X1375720Y1311607D01*
X1377950Y1311163D01*
X1380180Y1311607D01*
X1382070Y1312870D01*
X1383333Y1314760D01*
X1383777Y1316990D01*
X1383333Y1319220D01*
X1382070Y1321110D01*
X1381395Y1321562D01*
X1381317Y1321649D01*
X1381068Y1321840D01*
X1380908Y1321985D01*
X1380778Y1322126D01*
X1380674Y1322264D01*
X1380591Y1322401D01*
X1380525Y1322541D01*
X1380473Y1322689D01*
X1380434Y1322852D01*
X1380423Y1322932D01*
Y1329038D01*
X1415443Y1364058D01*
X1415509Y1364109D01*
X1415675Y1364216D01*
X1415850Y1364309D01*
X1416038Y1364389D01*
X1416241Y1364456D01*
X1416463Y1364510D01*
X1416707Y1364549D01*
X1416969Y1364573D01*
X1417320Y1364503D01*
X1419550Y1364947D01*
X1421440Y1366210D01*
X1422703Y1368100D01*
X1423147Y1370330D01*
X1422703Y1372560D01*
X1421440Y1374450D01*
X1419550Y1375713D01*
X1417320Y1376157D01*
D02*
G37*
G36*
X1467500Y1346827D02*
X1465270Y1346383D01*
X1463380Y1345120D01*
X1462117Y1343230D01*
X1461908Y1342179D01*
X1461841Y1342019D01*
X1461769Y1341648D01*
X1461692Y1341342D01*
X1461605Y1341059D01*
X1461508Y1340796D01*
X1461402Y1340554D01*
X1461287Y1340331D01*
X1461164Y1340127D01*
X1461032Y1339938D01*
X1460986Y1339881D01*
X1439082Y1317977D01*
X1439058Y1317956D01*
X1438768Y1317770D01*
X1438403Y1317596D01*
X1437954Y1317441D01*
X1437419Y1317313D01*
X1436796Y1317219D01*
X1436113Y1317165D01*
X1434399Y1317185D01*
X1433433Y1317266D01*
X1433309Y1317252D01*
X1432500Y1317358D01*
X1430078Y1317039D01*
X1427821Y1316104D01*
X1425883Y1314617D01*
X1424396Y1312679D01*
X1423461Y1310422D01*
X1423142Y1308000D01*
X1423461Y1305578D01*
X1424396Y1303321D01*
X1425883Y1301383D01*
X1427821Y1299896D01*
X1430078Y1298961D01*
X1432500Y1298642D01*
X1434922Y1298961D01*
X1437179Y1299896D01*
X1439117Y1301383D01*
X1440604Y1303321D01*
X1441539Y1305578D01*
X1441731Y1307038D01*
X1441777Y1307189D01*
X1441855Y1307980D01*
X1441858Y1308000D01*
X1441858Y1308003D01*
X1441885Y1308281D01*
X1442010Y1309239D01*
X1442334Y1310957D01*
X1442513Y1311635D01*
X1442710Y1312234D01*
X1442915Y1312732D01*
X1443119Y1313126D01*
X1443308Y1313413D01*
X1464987Y1335092D01*
X1465051Y1335141D01*
X1465191Y1335226D01*
X1465328Y1335291D01*
X1465469Y1335340D01*
X1465618Y1335375D01*
X1465782Y1335396D01*
X1465967Y1335402D01*
X1466176Y1335388D01*
X1466483Y1335342D01*
X1466619Y1335348D01*
X1467500Y1335173D01*
X1469730Y1335617D01*
X1471620Y1336880D01*
X1472883Y1338770D01*
X1473327Y1341000D01*
X1472883Y1343230D01*
X1471620Y1345120D01*
X1469730Y1346383D01*
X1467500Y1346827D01*
D02*
G37*
G36*
X1911000Y1346312D02*
X1908770Y1345868D01*
X1906880Y1344605D01*
X1905617Y1342715D01*
X1905173Y1340485D01*
X1905617Y1338255D01*
X1906880Y1336365D01*
X1907177Y1336166D01*
X1907346Y1335964D01*
X1907490Y1335764D01*
X1907609Y1335569D01*
X1907706Y1335377D01*
X1907782Y1335188D01*
X1907840Y1334999D01*
X1907882Y1334805D01*
X1907892Y1334722D01*
Y1326763D01*
X1907882Y1326680D01*
X1907840Y1326486D01*
X1907782Y1326297D01*
X1907706Y1326108D01*
X1907609Y1325916D01*
X1907490Y1325721D01*
X1907346Y1325521D01*
X1907177Y1325319D01*
X1906880Y1325120D01*
X1906423Y1324436D01*
X1905074Y1324704D01*
X1904872Y1325719D01*
X1903609Y1327609D01*
X1901719Y1328873D01*
X1900201Y1329174D01*
X1900132Y1329200D01*
X1900115Y1329203D01*
X1900108Y1329259D01*
Y1334722D01*
X1900118Y1334805D01*
X1900160Y1334999D01*
X1900218Y1335188D01*
X1900294Y1335377D01*
X1900391Y1335569D01*
X1900510Y1335764D01*
X1900654Y1335964D01*
X1900823Y1336166D01*
X1901120Y1336365D01*
X1902383Y1338255D01*
X1902827Y1340485D01*
X1902383Y1342715D01*
X1901120Y1344605D01*
X1899230Y1345868D01*
X1897000Y1346312D01*
X1894770Y1345868D01*
X1892880Y1344605D01*
X1891617Y1342715D01*
X1891173Y1340485D01*
X1891617Y1338255D01*
X1892880Y1336365D01*
X1893177Y1336166D01*
X1893346Y1335964D01*
X1893490Y1335764D01*
X1893609Y1335569D01*
X1893706Y1335377D01*
X1893782Y1335188D01*
X1893840Y1334999D01*
X1893882Y1334805D01*
X1893892Y1334722D01*
Y1325188D01*
X1893867Y1324712D01*
X1893863Y1324679D01*
X1893856Y1324633D01*
X1893856Y1324621D01*
X1893852Y1324610D01*
X1893858Y1324473D01*
X1893662Y1323489D01*
X1894106Y1321259D01*
X1895369Y1319369D01*
X1897259Y1318106D01*
X1899489Y1317662D01*
X1901719Y1318106D01*
X1903609Y1319369D01*
X1904066Y1320053D01*
X1905415Y1319785D01*
X1905617Y1318770D01*
X1906880Y1316880D01*
X1908770Y1315617D01*
X1911000Y1315173D01*
X1913230Y1315617D01*
X1915120Y1316880D01*
X1916383Y1318770D01*
X1916827Y1321000D01*
X1916383Y1323230D01*
X1915120Y1325120D01*
X1914823Y1325319D01*
X1914654Y1325521D01*
X1914510Y1325721D01*
X1914391Y1325916D01*
X1914294Y1326108D01*
X1914218Y1326297D01*
X1914160Y1326486D01*
X1914118Y1326680D01*
X1914108Y1326763D01*
Y1334722D01*
X1914118Y1334805D01*
X1914160Y1334999D01*
X1914218Y1335188D01*
X1914294Y1335377D01*
X1914391Y1335569D01*
X1914510Y1335764D01*
X1914654Y1335964D01*
X1914823Y1336166D01*
X1915120Y1336365D01*
X1916383Y1338255D01*
X1916827Y1340485D01*
X1916383Y1342715D01*
X1915120Y1344605D01*
X1913230Y1345868D01*
X1911000Y1346312D01*
D02*
G37*
G36*
X1660000Y1399827D02*
X1657770Y1399383D01*
X1655880Y1398120D01*
X1654617Y1396230D01*
X1654173Y1394000D01*
X1654617Y1391770D01*
X1655880Y1389880D01*
X1656177Y1389681D01*
X1656346Y1389479D01*
X1656490Y1389279D01*
X1656609Y1389084D01*
X1656706Y1388892D01*
X1656782Y1388703D01*
X1656840Y1388514D01*
X1656882Y1388320D01*
X1656892Y1388237D01*
Y1308287D01*
X1539713Y1191108D01*
X1496763D01*
X1496680Y1191118D01*
X1496486Y1191160D01*
X1496297Y1191218D01*
X1496108Y1191294D01*
X1495916Y1191391D01*
X1495721Y1191510D01*
X1495521Y1191654D01*
X1495319Y1191823D01*
X1495120Y1192120D01*
X1493230Y1193383D01*
X1491000Y1193827D01*
X1488770Y1193383D01*
X1486880Y1192120D01*
X1485617Y1190230D01*
X1485173Y1188000D01*
X1485617Y1185770D01*
X1486880Y1183880D01*
X1488770Y1182617D01*
X1491000Y1182173D01*
X1493230Y1182617D01*
X1495120Y1183880D01*
X1495319Y1184177D01*
X1495521Y1184346D01*
X1495721Y1184490D01*
X1495916Y1184609D01*
X1496108Y1184706D01*
X1496297Y1184782D01*
X1496486Y1184840D01*
X1496680Y1184882D01*
X1496763Y1184892D01*
X1538957D01*
X1539443Y1183719D01*
X1525967Y1170243D01*
X1525013Y1168815D01*
X1524677Y1167130D01*
Y1095930D01*
X1524674Y1095893D01*
X1523697Y1094430D01*
X1523253Y1092200D01*
X1523697Y1089970D01*
X1524481Y1088796D01*
X1523495Y1087986D01*
X1364390Y1247091D01*
X1362957Y1248191D01*
X1361289Y1248882D01*
X1359499Y1249117D01*
X1304449D01*
X1303106Y1249167D01*
X1302278Y1249253D01*
X1301520Y1249373D01*
X1300851Y1249521D01*
X1300274Y1249694D01*
X1299791Y1249885D01*
X1299398Y1250087D01*
X1299093Y1250292D01*
X1299047Y1250333D01*
X1298824Y1250624D01*
X1296357Y1252517D01*
X1293483Y1253707D01*
X1290400Y1254113D01*
X1287317Y1253707D01*
X1284444Y1252517D01*
X1281976Y1250624D01*
X1280083Y1248157D01*
X1278893Y1245283D01*
X1278487Y1242200D01*
X1278893Y1239117D01*
X1280083Y1236244D01*
X1281976Y1233776D01*
X1284444Y1231883D01*
X1287317Y1230693D01*
X1290400Y1230287D01*
X1293483Y1230693D01*
X1296357Y1231883D01*
X1298824Y1233776D01*
X1299047Y1234067D01*
X1299093Y1234108D01*
X1299398Y1234313D01*
X1299790Y1234515D01*
X1300274Y1234706D01*
X1300851Y1234879D01*
X1301520Y1235027D01*
X1302257Y1235144D01*
X1303999Y1235283D01*
X1356633D01*
X1484965Y1106951D01*
X1484479Y1105778D01*
X1471222D01*
Y1076052D01*
X1471218Y1076031D01*
X1471222Y1076009D01*
Y1074222D01*
X1472892D01*
X1473308Y1074176D01*
X1473505Y1074104D01*
X1473687Y1073978D01*
X1473900Y1073739D01*
X1474140Y1073330D01*
X1474377Y1072727D01*
X1474584Y1071926D01*
X1474743Y1070933D01*
X1474803Y1070231D01*
Y1017600D01*
X1475236Y1015420D01*
X1476471Y1013571D01*
X1479069Y1010974D01*
X1480644Y1009130D01*
X1481188Y1008394D01*
X1481519Y1007873D01*
Y1004200D01*
X1481928Y1002141D01*
X1483095Y1000395D01*
X1484841Y999228D01*
X1486900Y998819D01*
X1493900D01*
X1495959Y999228D01*
X1497705Y1000395D01*
X1498872Y1002141D01*
X1499281Y1004200D01*
Y1011200D01*
X1498872Y1013259D01*
X1497705Y1015005D01*
X1495959Y1016172D01*
X1493900Y1016581D01*
X1490227D01*
X1489760Y1016878D01*
X1486463Y1019695D01*
X1486198Y1019960D01*
Y1070231D01*
X1486257Y1070933D01*
X1486416Y1071926D01*
X1486623Y1072727D01*
X1486860Y1073330D01*
X1487100Y1073739D01*
X1487313Y1073978D01*
X1487495Y1074104D01*
X1487692Y1074176D01*
X1488108Y1074222D01*
X1489778D01*
Y1076009D01*
X1489782Y1076031D01*
X1489778Y1076052D01*
Y1100479D01*
X1490951Y1100965D01*
X1595336Y996581D01*
X1595566Y996341D01*
X1596373Y995410D01*
X1596630Y995073D01*
X1596664Y995022D01*
X1595876Y993120D01*
X1595545Y990600D01*
X1595876Y988080D01*
X1596849Y985732D01*
X1598396Y983716D01*
X1598658Y983516D01*
X1598981Y983178D01*
X1599405Y982670D01*
X1599772Y982160D01*
X1600084Y981648D01*
X1600344Y981133D01*
X1600554Y980612D01*
X1600717Y980085D01*
X1600794Y979723D01*
X1600877Y978467D01*
Y966327D01*
X1601212Y964642D01*
X1602167Y963214D01*
X1623097Y942283D01*
Y797500D01*
X1623432Y795815D01*
X1624387Y794387D01*
X1680597Y738176D01*
Y646694D01*
X1677172Y643268D01*
X1675440Y642923D01*
X1673972Y641943D01*
X1665186D01*
X1664933Y643213D01*
X1666444Y643838D01*
X1669113Y645887D01*
X1671162Y648556D01*
X1672449Y651664D01*
X1672888Y655000D01*
X1672449Y658336D01*
X1671162Y661444D01*
X1669113Y664113D01*
X1666444Y666162D01*
X1663336Y667449D01*
X1660000Y667888D01*
X1656664Y667449D01*
X1653556Y666162D01*
X1650887Y664113D01*
X1648838Y661444D01*
X1647551Y658336D01*
X1647112Y655000D01*
X1647551Y651664D01*
X1648838Y648556D01*
X1650887Y645887D01*
X1653556Y643838D01*
X1655067Y643213D01*
X1654814Y641943D01*
X1615186D01*
X1614933Y643213D01*
X1616444Y643838D01*
X1619113Y645887D01*
X1621162Y648556D01*
X1622449Y651664D01*
X1622888Y655000D01*
X1622449Y658336D01*
X1621162Y661444D01*
X1619113Y664113D01*
X1616444Y666162D01*
X1613336Y667449D01*
X1610000Y667888D01*
X1606664Y667449D01*
X1603556Y666162D01*
X1600887Y664113D01*
X1598838Y661444D01*
X1597551Y658336D01*
X1597112Y655000D01*
X1597551Y651664D01*
X1598838Y648556D01*
X1600887Y645887D01*
X1603556Y643838D01*
X1605067Y643213D01*
X1604814Y641943D01*
X1495186D01*
X1494933Y643213D01*
X1496444Y643838D01*
X1499113Y645887D01*
X1501162Y648556D01*
X1502449Y651664D01*
X1502888Y655000D01*
X1502818Y655536D01*
X1502829Y656447D01*
X1502904Y657675D01*
X1503036Y658809D01*
X1503223Y659847D01*
X1503461Y660792D01*
X1503748Y661641D01*
X1504080Y662398D01*
X1504453Y663065D01*
X1504840Y663614D01*
X1515289Y674063D01*
X1516243Y675491D01*
X1516579Y677176D01*
Y745423D01*
X1516243Y747107D01*
X1515289Y748536D01*
X1424771Y839054D01*
Y869096D01*
X1527902Y972227D01*
X1537214D01*
X1537839Y972352D01*
X1539240Y972073D01*
X1541470Y972517D01*
X1543360Y973780D01*
X1544623Y975670D01*
X1545067Y977900D01*
X1544623Y980130D01*
X1543360Y982020D01*
X1541470Y983283D01*
X1539240Y983727D01*
X1537010Y983283D01*
X1535120Y982020D01*
X1534478Y981060D01*
X1534122Y981033D01*
X1528668D01*
X1528182Y982206D01*
X1529555Y983579D01*
X1529584Y983603D01*
X1531310Y983947D01*
X1533200Y985210D01*
X1534463Y987100D01*
X1534907Y989330D01*
X1534463Y991560D01*
X1533200Y993450D01*
X1531310Y994713D01*
X1529080Y995157D01*
X1526850Y994713D01*
X1524960Y993450D01*
X1523697Y991560D01*
X1523362Y989879D01*
X1523031Y989507D01*
X1410397Y876873D01*
X1409442Y875445D01*
X1409107Y873760D01*
Y857764D01*
X1407837Y857512D01*
X1407428Y858501D01*
X1405514Y860994D01*
X1389267Y877242D01*
X1386262Y880384D01*
X1382310Y885030D01*
X1380793Y887056D01*
X1379563Y888902D01*
X1378632Y890543D01*
X1377996Y891959D01*
X1377646Y893123D01*
X1377528Y894160D01*
Y895828D01*
X1369747D01*
X1367446Y896781D01*
X1364330Y897191D01*
X1280160D01*
X1277044Y896781D01*
X1274139Y895578D01*
X1273840Y895348D01*
X1262632D01*
Y873992D01*
X1275902D01*
X1277044Y873519D01*
X1280160Y873109D01*
X1356420D01*
X1358240Y872077D01*
X1361291Y869987D01*
X1368176Y864231D01*
X1369366Y863086D01*
X1384959Y847493D01*
Y828000D01*
X1385369Y824883D01*
X1386572Y821980D01*
X1388486Y819486D01*
X1478430Y729541D01*
X1478838Y728556D01*
X1480887Y725887D01*
X1483556Y723838D01*
X1486664Y722551D01*
X1490000Y722112D01*
X1493336Y722551D01*
X1496444Y723838D01*
X1499113Y725887D01*
X1499713Y726668D01*
X1500915Y726260D01*
Y712142D01*
X1498613Y709840D01*
X1498065Y709453D01*
X1497398Y709080D01*
X1496642Y708748D01*
X1495792Y708461D01*
X1494848Y708223D01*
X1493834Y708041D01*
X1491423Y707829D01*
X1490536Y707818D01*
X1490000Y707888D01*
X1486664Y707449D01*
X1483556Y706162D01*
X1480887Y704113D01*
X1478838Y701444D01*
X1477551Y698336D01*
X1477112Y695000D01*
X1477551Y691664D01*
X1478838Y688556D01*
X1480887Y685887D01*
X1483556Y683838D01*
X1486664Y682551D01*
X1490000Y682112D01*
X1493336Y682551D01*
X1496444Y683838D01*
X1499113Y685887D01*
X1501162Y688556D01*
X1502449Y691664D01*
X1502888Y695000D01*
X1502818Y695536D01*
X1502829Y696447D01*
X1502904Y697675D01*
X1503036Y698809D01*
X1503223Y699847D01*
X1503461Y700792D01*
X1503748Y701641D01*
X1504080Y702398D01*
X1504453Y703065D01*
X1504840Y703614D01*
X1506600Y705374D01*
X1507773Y704888D01*
Y679000D01*
X1498613Y669840D01*
X1498065Y669453D01*
X1497398Y669080D01*
X1496642Y668748D01*
X1495792Y668461D01*
X1494848Y668223D01*
X1493834Y668041D01*
X1491423Y667829D01*
X1490536Y667818D01*
X1490000Y667888D01*
X1486664Y667449D01*
X1483556Y666162D01*
X1480887Y664113D01*
X1478838Y661444D01*
X1477551Y658336D01*
X1477112Y655000D01*
X1477551Y651664D01*
X1478838Y648556D01*
X1480887Y645887D01*
X1483556Y643838D01*
X1485067Y643213D01*
X1484814Y641943D01*
X1459284D01*
X1451604Y649623D01*
X1452449Y651664D01*
X1452888Y655000D01*
X1452449Y658336D01*
X1451162Y661444D01*
X1449113Y664113D01*
X1446444Y666162D01*
X1443336Y667449D01*
X1440000Y667888D01*
X1436664Y667449D01*
X1433556Y666162D01*
X1430887Y664113D01*
X1428838Y661444D01*
X1427551Y658336D01*
X1427112Y655000D01*
X1427551Y651664D01*
X1428838Y648556D01*
X1430887Y645887D01*
X1433556Y643838D01*
X1436664Y642551D01*
X1440000Y642112D01*
X1443336Y642551D01*
X1445377Y643397D01*
X1454347Y634427D01*
X1455775Y633473D01*
X1457460Y633137D01*
X1673972D01*
X1675440Y632157D01*
X1677670Y631713D01*
X1679900Y632157D01*
X1681368Y633137D01*
X1683449D01*
X1683755Y632933D01*
X1685440Y632597D01*
X1924500D01*
X1926185Y632933D01*
X1927613Y633887D01*
X1951613Y657887D01*
X1952567Y659315D01*
X1952903Y661000D01*
Y692774D01*
X1952938Y693193D01*
X1953035Y693805D01*
X1953157Y694276D01*
X1953284Y694601D01*
X1953389Y694781D01*
X1953438Y694836D01*
X1953609Y694855D01*
X1955278D01*
Y696642D01*
X1955282Y696664D01*
X1955278Y696685D01*
Y705581D01*
X1955282Y705603D01*
X1955278Y705624D01*
Y707411D01*
X1955278D01*
Y707922D01*
X1955278D01*
Y709708D01*
X1955282Y709730D01*
X1955278Y709752D01*
Y720478D01*
X1941722D01*
Y709752D01*
X1941718Y709730D01*
X1941722Y709708D01*
Y707922D01*
X1941722D01*
Y707411D01*
X1941722D01*
Y705624D01*
X1941718Y705603D01*
X1941722Y705581D01*
Y696685D01*
X1941718Y696664D01*
X1941722Y696642D01*
Y694855D01*
X1943392D01*
X1943562Y694836D01*
X1943611Y694781D01*
X1943716Y694601D01*
X1943843Y694276D01*
X1943965Y693805D01*
X1944062Y693193D01*
X1944097Y692774D01*
Y662824D01*
X1922676Y641403D01*
X1763882D01*
X1763629Y642673D01*
X1766444Y643838D01*
X1769113Y645887D01*
X1771162Y648556D01*
X1772449Y651664D01*
X1772888Y655000D01*
X1772449Y658336D01*
X1771162Y661444D01*
X1769113Y664113D01*
X1766444Y666162D01*
X1763336Y667449D01*
X1760000Y667888D01*
X1756664Y667449D01*
X1753556Y666162D01*
X1750887Y664113D01*
X1748838Y661444D01*
X1747551Y658336D01*
X1747112Y655000D01*
X1747551Y651664D01*
X1748838Y648556D01*
X1750887Y645887D01*
X1753556Y643838D01*
X1756371Y642673D01*
X1756118Y641403D01*
X1713882D01*
X1713629Y642673D01*
X1716444Y643838D01*
X1719113Y645887D01*
X1721162Y648556D01*
X1722449Y651664D01*
X1722888Y655000D01*
X1722449Y658336D01*
X1721162Y661444D01*
X1719113Y664113D01*
X1716444Y666162D01*
X1713336Y667449D01*
X1710000Y667888D01*
X1706664Y667449D01*
X1703556Y666162D01*
X1700887Y664113D01*
X1698838Y661444D01*
X1697551Y658336D01*
X1697112Y655000D01*
X1697551Y651664D01*
X1698838Y648556D01*
X1700887Y645887D01*
X1703556Y643838D01*
X1706371Y642673D01*
X1706118Y641403D01*
X1691922D01*
X1691615Y641608D01*
X1689930Y641943D01*
X1689753D01*
X1689030Y642983D01*
X1689073Y643213D01*
X1689403Y644870D01*
Y740000D01*
X1689068Y741685D01*
X1688113Y743113D01*
X1631903Y799324D01*
Y944107D01*
X1631568Y945791D01*
X1630613Y947220D01*
X1609683Y968150D01*
Y979050D01*
X1609689Y979240D01*
X1609728Y979545D01*
X1609843Y980084D01*
X1610006Y980613D01*
X1610216Y981133D01*
X1610476Y981648D01*
X1610788Y982160D01*
X1611155Y982670D01*
X1611579Y983178D01*
X1611902Y983515D01*
X1612164Y983716D01*
X1613711Y985732D01*
X1614684Y988080D01*
X1615015Y990600D01*
X1614684Y993120D01*
X1613711Y995468D01*
X1612250Y997371D01*
X1612067Y1000295D01*
Y1003942D01*
X1612240Y1007054D01*
X1612385Y1008263D01*
X1612565Y1009250D01*
X1612763Y1009979D01*
X1612929Y1010382D01*
X1614298D01*
Y1012169D01*
X1614302Y1012190D01*
X1614298Y1012212D01*
Y1028130D01*
X1614357Y1028580D01*
Y1034378D01*
X1614608Y1034814D01*
X1615698Y1036364D01*
X1618904Y1040126D01*
X1619950Y1041207D01*
X1669325Y1090583D01*
X1808163D01*
X1808401Y1090400D01*
X1810378Y1089581D01*
X1812500Y1089302D01*
X1814622Y1089581D01*
X1816599Y1090400D01*
X1816837Y1090583D01*
X1908163D01*
X1908401Y1090400D01*
X1910378Y1089581D01*
X1912500Y1089302D01*
X1914622Y1089581D01*
X1916599Y1090400D01*
X1918297Y1091703D01*
X1919600Y1093401D01*
X1920419Y1095378D01*
X1920698Y1097500D01*
X1920419Y1099622D01*
X1919600Y1101599D01*
X1918297Y1103297D01*
X1916599Y1104600D01*
X1914622Y1105419D01*
X1912500Y1105698D01*
X1910378Y1105419D01*
X1908401Y1104600D01*
X1908163Y1104417D01*
X1819417D01*
Y1201210D01*
X1819182Y1203000D01*
X1818490Y1204669D01*
X1817391Y1206101D01*
X1792063Y1231430D01*
X1792549Y1232603D01*
X1832610D01*
X1834400Y1232839D01*
X1836069Y1233530D01*
X1837501Y1234629D01*
X1869994Y1267122D01*
X1870292Y1267161D01*
X1872269Y1267980D01*
X1873967Y1269283D01*
X1875270Y1270981D01*
X1876089Y1272958D01*
X1876368Y1275080D01*
X1876089Y1277202D01*
X1875270Y1279179D01*
X1873967Y1280877D01*
X1872269Y1282180D01*
X1870292Y1282999D01*
X1868170Y1283278D01*
X1866048Y1282999D01*
X1864071Y1282180D01*
X1862373Y1280877D01*
X1861070Y1279179D01*
X1860251Y1277202D01*
X1860212Y1276904D01*
X1829745Y1246437D01*
X1778527D01*
X1778289Y1246620D01*
X1776312Y1247439D01*
X1774190Y1247718D01*
X1772068Y1247439D01*
X1770091Y1246620D01*
X1768393Y1245317D01*
X1767090Y1243619D01*
X1766271Y1241642D01*
X1765992Y1239520D01*
X1766271Y1237398D01*
X1767090Y1235421D01*
X1768393Y1233723D01*
X1770091Y1232420D01*
X1772068Y1231601D01*
X1772366Y1231562D01*
X1805583Y1198345D01*
Y1104417D01*
X1666460D01*
X1664670Y1104182D01*
X1663001Y1103491D01*
X1661569Y1102391D01*
X1610613Y1051435D01*
X1607412Y1048372D01*
X1603954Y1045425D01*
X1602461Y1044303D01*
X1601107Y1043396D01*
X1599917Y1042716D01*
X1598910Y1042261D01*
X1598115Y1042020D01*
X1597409Y1041938D01*
X1595742D01*
Y1017398D01*
X1594569Y1016912D01*
X1535026Y1076455D01*
X1535836Y1077441D01*
X1537010Y1076657D01*
X1539240Y1076213D01*
X1541470Y1076657D01*
X1543360Y1077920D01*
X1544623Y1079810D01*
X1545067Y1082040D01*
X1544623Y1084270D01*
X1543671Y1085695D01*
X1543643Y1086192D01*
Y1105408D01*
X1543307Y1107093D01*
X1542353Y1108521D01*
X1540341Y1110534D01*
Y1162466D01*
X1577432Y1199557D01*
X1629181D01*
X1629630Y1199258D01*
X1631315Y1198922D01*
X1763395D01*
X1765080Y1199258D01*
X1766508Y1200212D01*
X1774665Y1208369D01*
X1774694Y1208393D01*
X1776420Y1208737D01*
X1778310Y1210000D01*
X1779573Y1211890D01*
X1780017Y1214120D01*
X1779573Y1216350D01*
X1778310Y1218240D01*
X1776420Y1219503D01*
X1774190Y1219947D01*
X1771960Y1219503D01*
X1770070Y1218240D01*
X1768807Y1216350D01*
X1768472Y1214669D01*
X1768141Y1214297D01*
X1761571Y1207728D01*
X1656646D01*
X1656048Y1208848D01*
X1656383Y1209350D01*
X1656827Y1211580D01*
X1656383Y1213810D01*
X1655120Y1215700D01*
X1653230Y1216963D01*
X1651000Y1217407D01*
X1648770Y1216963D01*
X1647345Y1216011D01*
X1646848Y1215983D01*
X1575174D01*
X1574648Y1217253D01*
X1656879Y1299484D01*
X1658052Y1298998D01*
Y1277778D01*
X1641222D01*
Y1259222D01*
X1658052D01*
Y1255415D01*
X1654920Y1252283D01*
X1653818D01*
X1653747Y1252290D01*
X1653518Y1252330D01*
X1653283Y1252387D01*
X1653040Y1252463D01*
X1652790Y1252558D01*
X1652553Y1252664D01*
X1651969Y1252985D01*
X1651671Y1253179D01*
X1651516Y1253241D01*
X1650690Y1253793D01*
X1648460Y1254237D01*
X1646230Y1253793D01*
X1644340Y1252530D01*
X1643077Y1250640D01*
X1642633Y1248410D01*
X1643077Y1246180D01*
X1644340Y1244290D01*
X1644679Y1244063D01*
X1644804Y1242799D01*
X1643987Y1241982D01*
X1643921Y1241931D01*
X1643755Y1241824D01*
X1643580Y1241731D01*
X1643392Y1241651D01*
X1643189Y1241584D01*
X1642967Y1241530D01*
X1642723Y1241491D01*
X1642461Y1241467D01*
X1642110Y1241537D01*
X1639880Y1241093D01*
X1637990Y1239830D01*
X1636727Y1237940D01*
X1636283Y1235710D01*
X1636727Y1233480D01*
X1637990Y1231590D01*
X1639880Y1230327D01*
X1642110Y1229883D01*
X1644340Y1230327D01*
X1646230Y1231590D01*
X1647493Y1233480D01*
X1647937Y1235710D01*
X1647867Y1236061D01*
X1647891Y1236323D01*
X1647930Y1236567D01*
X1647984Y1236789D01*
X1648051Y1236992D01*
X1648131Y1237180D01*
X1648224Y1237355D01*
X1648331Y1237521D01*
X1648382Y1237587D01*
X1649112Y1238317D01*
X1655445D01*
X1656634Y1238554D01*
X1657643Y1239228D01*
X1667527Y1249112D01*
X1675130D01*
X1676319Y1249349D01*
X1677328Y1250023D01*
X1692567Y1265263D01*
X1693241Y1266271D01*
X1693478Y1267460D01*
Y1309353D01*
X1709437Y1325312D01*
X1767027D01*
X1767713Y1324626D01*
X1767762Y1324565D01*
X1767888Y1324381D01*
X1768005Y1324181D01*
X1768113Y1323965D01*
X1768211Y1323729D01*
X1768298Y1323474D01*
X1768375Y1323196D01*
X1768439Y1322896D01*
X1768498Y1322529D01*
X1768555Y1322377D01*
X1768807Y1321110D01*
X1770070Y1319220D01*
X1771960Y1317957D01*
X1774190Y1317513D01*
X1776420Y1317957D01*
X1778310Y1319220D01*
X1779573Y1321110D01*
X1780017Y1323340D01*
X1779573Y1325570D01*
X1778310Y1327460D01*
X1776420Y1328723D01*
X1774190Y1329167D01*
X1773472Y1329024D01*
X1773380Y1329032D01*
X1773065Y1328995D01*
X1772842Y1328988D01*
X1772644Y1328999D01*
X1772466Y1329026D01*
X1772305Y1329067D01*
X1772154Y1329122D01*
X1772008Y1329192D01*
X1771863Y1329282D01*
X1771798Y1329331D01*
X1770512Y1330618D01*
X1769503Y1331291D01*
X1768314Y1331528D01*
X1708150D01*
X1706961Y1331291D01*
X1705952Y1330618D01*
X1699738Y1324403D01*
X1698568Y1325029D01*
X1698737Y1325880D01*
X1698293Y1328110D01*
X1697030Y1330000D01*
X1695140Y1331263D01*
X1692910Y1331707D01*
X1690680Y1331263D01*
X1690419Y1331089D01*
X1690116Y1331291D01*
X1688927Y1331528D01*
X1667510D01*
X1666321Y1331291D01*
X1665312Y1330618D01*
X1664281Y1329586D01*
X1663108Y1330072D01*
Y1388237D01*
X1663118Y1388320D01*
X1663160Y1388514D01*
X1663218Y1388703D01*
X1663294Y1388892D01*
X1663391Y1389084D01*
X1663510Y1389279D01*
X1663654Y1389479D01*
X1663823Y1389681D01*
X1664120Y1389880D01*
X1665383Y1391770D01*
X1665827Y1394000D01*
X1665383Y1396230D01*
X1664120Y1398120D01*
X1662230Y1399383D01*
X1660000Y1399827D01*
D02*
G37*
G36*
X1883000Y1346312D02*
X1880770Y1345868D01*
X1878880Y1344605D01*
X1877617Y1342715D01*
X1877173Y1340485D01*
X1877617Y1338255D01*
X1878880Y1336365D01*
X1880770Y1335102D01*
X1881761Y1334904D01*
Y1328632D01*
X1881751Y1328549D01*
X1881709Y1328356D01*
X1881651Y1328166D01*
X1881575Y1327977D01*
X1881478Y1327786D01*
X1881359Y1327590D01*
X1881215Y1327390D01*
X1881046Y1327188D01*
X1880749Y1326989D01*
X1879486Y1325099D01*
X1879042Y1322869D01*
X1879486Y1320639D01*
X1880749Y1318749D01*
X1882639Y1317486D01*
X1884869Y1317042D01*
X1887099Y1317486D01*
X1888989Y1318749D01*
X1890253Y1320639D01*
X1890696Y1322869D01*
X1890253Y1325099D01*
X1888989Y1326989D01*
X1888692Y1327188D01*
X1888523Y1327390D01*
X1888379Y1327590D01*
X1888260Y1327786D01*
X1888163Y1327977D01*
X1888087Y1328166D01*
X1888029Y1328356D01*
X1887987Y1328549D01*
X1887977Y1328632D01*
Y1336271D01*
X1887766Y1337331D01*
X1888383Y1338255D01*
X1888827Y1340485D01*
X1888383Y1342715D01*
X1887120Y1344605D01*
X1885230Y1345868D01*
X1883000Y1346312D01*
D02*
G37*
G36*
X1856740D02*
X1854510Y1345868D01*
X1852620Y1344605D01*
X1851357Y1342715D01*
X1850913Y1340485D01*
X1851357Y1338255D01*
X1852620Y1336365D01*
X1852917Y1336166D01*
X1853086Y1335964D01*
X1853230Y1335764D01*
X1853349Y1335569D01*
X1853446Y1335377D01*
X1853522Y1335188D01*
X1853580Y1334999D01*
X1853622Y1334805D01*
X1853632Y1334722D01*
Y1327778D01*
X1853622Y1327695D01*
X1853580Y1327501D01*
X1853522Y1327312D01*
X1853446Y1327123D01*
X1853349Y1326931D01*
X1853230Y1326736D01*
X1853086Y1326536D01*
X1852917Y1326334D01*
X1852620Y1326135D01*
X1851357Y1324245D01*
X1850913Y1322015D01*
X1851357Y1319785D01*
X1852620Y1317895D01*
X1854510Y1316632D01*
X1856740Y1316188D01*
X1858970Y1316632D01*
X1860860Y1317895D01*
X1862123Y1319785D01*
X1862567Y1322015D01*
X1862123Y1324245D01*
X1860860Y1326135D01*
X1860563Y1326334D01*
X1860394Y1326536D01*
X1860250Y1326736D01*
X1860131Y1326931D01*
X1860034Y1327123D01*
X1859958Y1327312D01*
X1859900Y1327501D01*
X1859858Y1327695D01*
X1859848Y1327778D01*
Y1334722D01*
X1859858Y1334805D01*
X1859900Y1334999D01*
X1859958Y1335188D01*
X1860034Y1335377D01*
X1860131Y1335569D01*
X1860250Y1335764D01*
X1860394Y1335964D01*
X1860563Y1336166D01*
X1860860Y1336365D01*
X1862123Y1338255D01*
X1862567Y1340485D01*
X1862123Y1342715D01*
X1860860Y1344605D01*
X1858970Y1345868D01*
X1856740Y1346312D01*
D02*
G37*
G36*
X1870000D02*
X1867770Y1345868D01*
X1865880Y1344605D01*
X1864617Y1342715D01*
X1864173Y1340485D01*
X1864617Y1338255D01*
X1865880Y1336365D01*
X1866177Y1336166D01*
X1866346Y1335964D01*
X1866490Y1335764D01*
X1866609Y1335569D01*
X1866706Y1335377D01*
X1866782Y1335188D01*
X1866840Y1334999D01*
X1866882Y1334805D01*
X1866892Y1334722D01*
Y1327763D01*
X1866882Y1327680D01*
X1866840Y1327486D01*
X1866782Y1327297D01*
X1866706Y1327108D01*
X1866609Y1326917D01*
X1866490Y1326721D01*
X1866346Y1326521D01*
X1866177Y1326319D01*
X1865880Y1326120D01*
X1864617Y1324230D01*
X1864173Y1322000D01*
X1864617Y1319770D01*
X1865880Y1317880D01*
X1867770Y1316617D01*
X1870000Y1316173D01*
X1872230Y1316617D01*
X1874120Y1317880D01*
X1875383Y1319770D01*
X1875827Y1322000D01*
X1875383Y1324230D01*
X1874120Y1326120D01*
X1873823Y1326319D01*
X1873654Y1326521D01*
X1873510Y1326721D01*
X1873391Y1326917D01*
X1873294Y1327108D01*
X1873218Y1327297D01*
X1873160Y1327486D01*
X1873118Y1327680D01*
X1873108Y1327763D01*
Y1334722D01*
X1873118Y1334805D01*
X1873160Y1334999D01*
X1873218Y1335188D01*
X1873294Y1335377D01*
X1873391Y1335569D01*
X1873510Y1335764D01*
X1873654Y1335964D01*
X1873823Y1336166D01*
X1874120Y1336365D01*
X1875383Y1338255D01*
X1875827Y1340485D01*
X1875383Y1342715D01*
X1874120Y1344605D01*
X1872230Y1345868D01*
X1870000Y1346312D01*
D02*
G37*
G36*
X1607278Y1330278D02*
X1596722D01*
Y1319722D01*
X1602764D01*
X1603614Y1318991D01*
X1604572Y1318033D01*
X1605581Y1317359D01*
X1606770Y1317122D01*
X1609729D01*
X1609957Y1317101D01*
X1610558Y1317011D01*
X1610800Y1316961D01*
X1611579Y1316745D01*
X1611770Y1316617D01*
X1614000Y1316173D01*
X1616230Y1316617D01*
X1618120Y1317880D01*
X1619383Y1319770D01*
X1619827Y1322000D01*
X1619383Y1324230D01*
X1618120Y1326120D01*
X1616230Y1327383D01*
X1614000Y1327827D01*
X1611770Y1327383D01*
X1609880Y1326120D01*
X1609342Y1325315D01*
X1607669Y1324993D01*
X1607350Y1325215D01*
X1607278Y1325389D01*
Y1330278D01*
D02*
G37*
G36*
X1416378Y1317278D02*
X1397822D01*
Y1298722D01*
X1416378D01*
Y1317278D01*
D02*
G37*
G36*
X1253988Y1239816D02*
X1251759Y1239372D01*
X1249868Y1238109D01*
X1249395Y1237400D01*
X1249300Y1237316D01*
X1249113Y1237066D01*
X1248971Y1236908D01*
X1248833Y1236779D01*
X1248698Y1236676D01*
X1248564Y1236594D01*
X1248427Y1236529D01*
X1248281Y1236477D01*
X1248120Y1236438D01*
X1248041Y1236427D01*
X1204772D01*
X1204697Y1236435D01*
X1204473Y1236476D01*
X1204243Y1236534D01*
X1204007Y1236610D01*
X1203763Y1236707D01*
X1203535Y1236814D01*
X1202966Y1237141D01*
X1202676Y1237340D01*
X1202515Y1237409D01*
X1201579Y1238034D01*
X1199349Y1238478D01*
X1197119Y1238034D01*
X1195229Y1236771D01*
X1193966Y1234881D01*
X1193522Y1232651D01*
X1193966Y1230421D01*
X1195229Y1228531D01*
X1197119Y1227267D01*
X1199349Y1226824D01*
X1201579Y1227267D01*
X1203469Y1228531D01*
X1203943Y1229239D01*
X1204037Y1229324D01*
X1204225Y1229573D01*
X1204367Y1229732D01*
X1204505Y1229860D01*
X1204639Y1229963D01*
X1204773Y1230045D01*
X1204911Y1230110D01*
X1205056Y1230162D01*
X1205217Y1230201D01*
X1205297Y1230212D01*
X1248566D01*
X1248640Y1230204D01*
X1248865Y1230164D01*
X1249095Y1230106D01*
X1249331Y1230029D01*
X1249575Y1229933D01*
X1249803Y1229826D01*
X1250372Y1229498D01*
X1250662Y1229299D01*
X1250823Y1229230D01*
X1251759Y1228605D01*
X1253988Y1228162D01*
X1256218Y1228605D01*
X1258109Y1229868D01*
X1259372Y1231759D01*
X1259816Y1233988D01*
X1259372Y1236218D01*
X1258109Y1238109D01*
X1256218Y1239372D01*
X1253988Y1239816D01*
D02*
G37*
G36*
X1571000Y1544198D02*
X1568878Y1543919D01*
X1566901Y1543100D01*
X1565283Y1541859D01*
X1565102Y1541815D01*
X1564849Y1541771D01*
X1563768Y1541698D01*
X1434000D01*
X1431820Y1541264D01*
X1429971Y1540029D01*
X1404401Y1514459D01*
X1403166Y1512610D01*
X1402733Y1510430D01*
Y1462370D01*
X1401463Y1462245D01*
X1401411Y1462506D01*
X1401113Y1464000D01*
X1399850Y1465890D01*
X1397960Y1467153D01*
X1395730Y1467597D01*
X1393500Y1467153D01*
X1391610Y1465890D01*
X1391158Y1465215D01*
X1391071Y1465137D01*
X1390880Y1464888D01*
X1390735Y1464728D01*
X1390594Y1464598D01*
X1390456Y1464494D01*
X1390319Y1464411D01*
X1390179Y1464345D01*
X1390031Y1464293D01*
X1389868Y1464254D01*
X1389788Y1464243D01*
X1351644D01*
X1351569Y1464251D01*
X1351346Y1464291D01*
X1351118Y1464350D01*
X1350884Y1464426D01*
X1350643Y1464523D01*
X1350417Y1464630D01*
X1349854Y1464960D01*
X1349567Y1465160D01*
X1349408Y1465230D01*
X1348430Y1465883D01*
X1346200Y1466327D01*
X1343970Y1465883D01*
X1342080Y1464620D01*
X1340817Y1462730D01*
X1340373Y1460500D01*
X1340817Y1458270D01*
X1342080Y1456380D01*
X1343970Y1455117D01*
X1346200Y1454673D01*
X1348430Y1455117D01*
X1350320Y1456380D01*
X1350772Y1457056D01*
X1350859Y1457133D01*
X1351050Y1457382D01*
X1351195Y1457542D01*
X1351336Y1457672D01*
X1351474Y1457776D01*
X1351611Y1457859D01*
X1351751Y1457925D01*
X1351899Y1457977D01*
X1352062Y1458016D01*
X1352142Y1458027D01*
X1390286D01*
X1390361Y1458019D01*
X1390584Y1457979D01*
X1390812Y1457921D01*
X1391046Y1457844D01*
X1391287Y1457747D01*
X1391512Y1457640D01*
X1392076Y1457310D01*
X1392363Y1457110D01*
X1392522Y1457040D01*
X1393500Y1456387D01*
X1395730Y1455943D01*
X1397960Y1456387D01*
X1399850Y1457650D01*
X1401113Y1459540D01*
X1401411Y1461034D01*
X1401463Y1461295D01*
X1402733Y1461170D01*
Y1424513D01*
X1401613Y1423914D01*
X1400910Y1424383D01*
X1398680Y1424827D01*
X1396450Y1424383D01*
X1394560Y1423120D01*
X1393883Y1422108D01*
X1323750D01*
X1322561Y1421871D01*
X1321552Y1421198D01*
X1275750Y1375395D01*
X1274459Y1375900D01*
X1274113Y1377640D01*
X1272850Y1379530D01*
X1270960Y1380793D01*
X1268730Y1381237D01*
X1266500Y1380793D01*
X1264610Y1379530D01*
X1263347Y1377640D01*
X1262903Y1375410D01*
X1262973Y1375059D01*
X1262949Y1374797D01*
X1262910Y1374553D01*
X1262856Y1374331D01*
X1262789Y1374128D01*
X1262709Y1373940D01*
X1262616Y1373765D01*
X1262509Y1373599D01*
X1262458Y1373533D01*
X1246478Y1357552D01*
X1246411Y1357501D01*
X1246245Y1357394D01*
X1246070Y1357301D01*
X1245882Y1357221D01*
X1245679Y1357154D01*
X1245457Y1357100D01*
X1245213Y1357061D01*
X1244951Y1357037D01*
X1244600Y1357107D01*
X1242370Y1356663D01*
X1240480Y1355400D01*
X1239217Y1353510D01*
X1238773Y1351280D01*
X1239217Y1349050D01*
X1240480Y1347160D01*
X1242370Y1345897D01*
X1244110Y1345551D01*
X1244615Y1344260D01*
X1229343Y1328988D01*
X1141730D01*
X1140541Y1328751D01*
X1139532Y1328078D01*
X1125203Y1313748D01*
X1032510D01*
X1031321Y1313511D01*
X1030312Y1312838D01*
X1003283Y1285808D01*
X996030D01*
X995905Y1287078D01*
X996637Y1287224D01*
X997910Y1287477D01*
X999800Y1288740D01*
X1001063Y1290630D01*
X1001507Y1292860D01*
X1001063Y1295090D01*
X999800Y1296980D01*
X999503Y1297179D01*
X999334Y1297381D01*
X999190Y1297581D01*
X999071Y1297776D01*
X998974Y1297968D01*
X998898Y1298157D01*
X998840Y1298346D01*
X998798Y1298540D01*
X998788Y1298623D01*
Y1308687D01*
X998798Y1308770D01*
X998840Y1308964D01*
X998898Y1309153D01*
X998974Y1309342D01*
X999071Y1309534D01*
X999190Y1309729D01*
X999334Y1309929D01*
X999503Y1310131D01*
X999800Y1310330D01*
X1001063Y1312220D01*
X1001507Y1314450D01*
X1001063Y1316680D01*
X999800Y1318570D01*
X997910Y1319833D01*
X995680Y1320277D01*
X993450Y1319833D01*
X991560Y1318570D01*
X990297Y1316680D01*
X989853Y1314450D01*
X990297Y1312220D01*
X991560Y1310330D01*
X991857Y1310131D01*
X992026Y1309929D01*
X992170Y1309729D01*
X992289Y1309534D01*
X992386Y1309342D01*
X992462Y1309153D01*
X992520Y1308964D01*
X992562Y1308770D01*
X992572Y1308687D01*
Y1298623D01*
X992562Y1298540D01*
X992520Y1298346D01*
X992462Y1298157D01*
X992386Y1297968D01*
X992289Y1297776D01*
X992170Y1297581D01*
X992026Y1297381D01*
X991857Y1297179D01*
X991560Y1296980D01*
X990297Y1295090D01*
X989853Y1292860D01*
X990297Y1290630D01*
X991560Y1288740D01*
X993450Y1287477D01*
X994723Y1287224D01*
X995455Y1287078D01*
X995330Y1285808D01*
X942357D01*
X903538Y1324627D01*
Y1379116D01*
X905167Y1380746D01*
X905841Y1381754D01*
X906078Y1382943D01*
Y1407443D01*
X907090Y1408120D01*
X908050Y1409556D01*
X909320Y1409171D01*
Y1322070D01*
X1130300D01*
Y1443990D01*
X960120D01*
Y1466850D01*
X909320D01*
Y1415309D01*
X908050Y1414924D01*
X907090Y1416360D01*
X905200Y1417623D01*
X902970Y1418067D01*
X900740Y1417623D01*
X898850Y1416360D01*
X897587Y1414470D01*
X897143Y1412240D01*
X897587Y1410010D01*
X898850Y1408120D01*
X899862Y1407443D01*
Y1384230D01*
X898232Y1382601D01*
X897559Y1381593D01*
X897322Y1380403D01*
Y1323340D01*
X897559Y1322151D01*
X898232Y1321142D01*
X938873Y1280502D01*
X939881Y1279829D01*
X941070Y1279592D01*
X1004570D01*
X1004670Y1279612D01*
X1005353Y1278600D01*
X1005043Y1278188D01*
X922037D01*
X883218Y1317007D01*
Y1324893D01*
X884230Y1325570D01*
X885493Y1327460D01*
X885937Y1329690D01*
X885493Y1331920D01*
X884230Y1333810D01*
X882340Y1335073D01*
X880110Y1335517D01*
X877880Y1335073D01*
X875990Y1333810D01*
X874727Y1331920D01*
X874283Y1329690D01*
X874727Y1327460D01*
X875990Y1325570D01*
X877002Y1324893D01*
Y1315720D01*
X877239Y1314531D01*
X877913Y1313522D01*
X879183Y1312253D01*
X918552Y1272883D01*
X919561Y1272209D01*
X920750Y1271972D01*
X1007110D01*
X1008299Y1272209D01*
X1009307Y1272883D01*
X1035067Y1298642D01*
X1125220D01*
X1126409Y1298879D01*
X1127418Y1299552D01*
X1145557Y1317692D01*
X1214011D01*
X1214396Y1316422D01*
X1213810Y1316030D01*
X1212547Y1314140D01*
X1212103Y1311910D01*
X1212547Y1309680D01*
X1213274Y1308592D01*
X1212358Y1307676D01*
X1211270Y1308403D01*
X1209040Y1308847D01*
X1206810Y1308403D01*
X1204920Y1307140D01*
X1203657Y1305250D01*
X1203213Y1303020D01*
X1203657Y1300790D01*
X1203783Y1300600D01*
X1202868Y1299685D01*
X1201752Y1300430D01*
X1199522Y1300874D01*
X1197292Y1300430D01*
X1195402Y1299167D01*
X1194139Y1297277D01*
X1193696Y1295047D01*
X1194139Y1292817D01*
X1195402Y1290927D01*
X1197292Y1289663D01*
X1199522Y1289220D01*
X1201752Y1289663D01*
X1203643Y1290927D01*
X1203902Y1291314D01*
X1204034Y1291455D01*
X1204219Y1291624D01*
X1204399Y1291766D01*
X1204574Y1291882D01*
X1204748Y1291975D01*
X1204920Y1292049D01*
X1205096Y1292106D01*
X1205278Y1292146D01*
X1205361Y1292157D01*
X1235082D01*
X1235165Y1292147D01*
X1235365Y1292106D01*
X1235563Y1292047D01*
X1235761Y1291970D01*
X1235964Y1291872D01*
X1236171Y1291752D01*
X1236383Y1291607D01*
X1236526Y1291495D01*
X1236670Y1291280D01*
X1238560Y1290017D01*
X1240790Y1289573D01*
X1243020Y1290017D01*
X1244910Y1291280D01*
X1246173Y1293170D01*
X1246617Y1295400D01*
X1246173Y1297630D01*
X1244910Y1299520D01*
X1243105Y1300726D01*
X1243064Y1301081D01*
X1243206Y1302041D01*
X1243614Y1302122D01*
X1245504Y1303386D01*
X1246768Y1305276D01*
X1247211Y1307506D01*
X1246768Y1309736D01*
X1245694Y1311342D01*
X1246141Y1312612D01*
X1297940D01*
X1299129Y1312849D01*
X1300137Y1313522D01*
X1348816Y1362201D01*
X1350010Y1361963D01*
X1352240Y1362407D01*
X1354130Y1363670D01*
X1355393Y1365560D01*
X1355837Y1367790D01*
X1355393Y1370020D01*
X1354130Y1371910D01*
X1352240Y1373173D01*
X1350010Y1373617D01*
X1347780Y1373173D01*
X1345890Y1371910D01*
X1344627Y1370020D01*
X1344183Y1367790D01*
X1344421Y1366596D01*
X1296653Y1318828D01*
X1237252D01*
X1236766Y1320001D01*
X1318277Y1401512D01*
X1385853D01*
X1386530Y1400500D01*
X1388420Y1399237D01*
X1390650Y1398793D01*
X1392880Y1399237D01*
X1394770Y1400500D01*
X1396033Y1402390D01*
X1396477Y1404620D01*
X1396033Y1406850D01*
X1394770Y1408740D01*
X1392880Y1410003D01*
X1390650Y1410447D01*
X1388420Y1410003D01*
X1386530Y1408740D01*
X1385853Y1407728D01*
X1318669D01*
X1318143Y1408998D01*
X1325037Y1415892D01*
X1393883D01*
X1394560Y1414880D01*
X1396450Y1413617D01*
X1398680Y1413173D01*
X1400910Y1413617D01*
X1401613Y1414086D01*
X1402733Y1413487D01*
Y1404790D01*
X1264971Y1267029D01*
X1263736Y1265180D01*
X1263303Y1263000D01*
Y1136500D01*
X1263736Y1134320D01*
X1264971Y1132471D01*
X1266416Y1131026D01*
X1266333Y1130283D01*
X1265866Y1129697D01*
X1218851D01*
X1218182Y1129766D01*
X1217898Y1129815D01*
X1217717Y1129858D01*
X1216099Y1131100D01*
X1214122Y1131919D01*
X1212000Y1132198D01*
X1209878Y1131919D01*
X1207901Y1131100D01*
X1206203Y1129797D01*
X1205734Y1129186D01*
X1205697Y1129161D01*
X1205672Y1129150D01*
X1205498Y1129096D01*
X1205222Y1129034D01*
X1204892Y1128982D01*
X1204221Y1128935D01*
X1143141D01*
X1142573Y1128986D01*
X1142361Y1129019D01*
X1142273Y1129038D01*
X1141574Y1129575D01*
X1139597Y1130394D01*
X1137475Y1130673D01*
X1135353Y1130394D01*
X1133376Y1129575D01*
X1131758Y1128334D01*
X1131577Y1128290D01*
X1131324Y1128246D01*
X1130243Y1128173D01*
X1046663D01*
X1046064Y1129293D01*
X1046383Y1129770D01*
X1046827Y1132000D01*
X1046383Y1134230D01*
X1045120Y1136120D01*
X1043230Y1137383D01*
X1041000Y1137827D01*
X1040649Y1137757D01*
X1040387Y1137781D01*
X1040143Y1137820D01*
X1039921Y1137874D01*
X1039718Y1137941D01*
X1039530Y1138021D01*
X1039355Y1138114D01*
X1039189Y1138221D01*
X1039123Y1138272D01*
X1033475Y1143920D01*
X1032467Y1144594D01*
X1031278Y1144830D01*
X1028465D01*
X1028386Y1144841D01*
X1028231Y1144879D01*
X1028092Y1144929D01*
X1027964Y1144992D01*
X1027840Y1145070D01*
X1027715Y1145169D01*
X1027587Y1145293D01*
X1027455Y1145447D01*
X1027278Y1145696D01*
X1027168Y1145800D01*
X1026620Y1146620D01*
X1024730Y1147883D01*
X1022500Y1148327D01*
X1020270Y1147883D01*
X1018380Y1146620D01*
X1017117Y1144730D01*
X1016673Y1142500D01*
X1017117Y1140270D01*
X1018380Y1138380D01*
X1020270Y1137117D01*
X1022500Y1136673D01*
X1024730Y1137117D01*
X1025525Y1137648D01*
X1025659Y1137697D01*
X1026311Y1138097D01*
X1026559Y1138224D01*
X1026819Y1138340D01*
X1027070Y1138435D01*
X1027314Y1138511D01*
X1027550Y1138568D01*
X1027779Y1138607D01*
X1027849Y1138615D01*
X1029990D01*
X1034728Y1133877D01*
X1034779Y1133811D01*
X1034886Y1133645D01*
X1034979Y1133470D01*
X1035059Y1133282D01*
X1035126Y1133079D01*
X1035180Y1132857D01*
X1035219Y1132613D01*
X1035243Y1132351D01*
X1035173Y1132000D01*
X1035617Y1129770D01*
X1035936Y1129293D01*
X1035337Y1128173D01*
X974885D01*
X962350Y1140708D01*
X962029Y1142320D01*
X960794Y1144168D01*
X948278Y1156684D01*
X947853Y1157206D01*
X947687Y1157441D01*
X947590Y1157600D01*
X947324Y1159622D01*
X946505Y1161599D01*
X945202Y1163297D01*
X943504Y1164600D01*
X941527Y1165419D01*
X939405Y1165698D01*
X937283Y1165419D01*
X935306Y1164600D01*
X933608Y1163297D01*
X932305Y1161599D01*
X931486Y1159622D01*
X931207Y1157500D01*
X931486Y1155378D01*
X932305Y1153401D01*
X932385Y1153297D01*
X932401Y1153265D01*
X932559Y1152899D01*
X932700Y1152511D01*
X932818Y1152121D01*
X933023Y1151183D01*
X933087Y1150740D01*
X933133Y1150160D01*
Y1101858D01*
X933097Y1101678D01*
Y1049000D01*
Y1013000D01*
Y973500D01*
Y942215D01*
X933433Y940530D01*
X934387Y939102D01*
X935815Y938148D01*
X935848Y938141D01*
X945548Y928441D01*
X946432Y927488D01*
X947071Y926690D01*
X947565Y925979D01*
X947722Y925705D01*
Y923522D01*
X947718Y923500D01*
X947722Y923478D01*
Y920937D01*
X960278D01*
Y932493D01*
X956737D01*
X956715Y932497D01*
X956693Y932493D01*
X954510D01*
X954236Y932650D01*
X953546Y933130D01*
X952025Y934416D01*
X941903Y944538D01*
Y961667D01*
X943173Y962448D01*
X944392Y962205D01*
X946014D01*
X946166Y962200D01*
X946821Y962139D01*
X947362Y962057D01*
X947722Y961974D01*
Y960829D01*
X949509D01*
X949530Y960825D01*
X949552Y960829D01*
X960278D01*
Y972385D01*
X949552D01*
X949530Y972390D01*
X949509Y972385D01*
X947722D01*
Y971241D01*
X947362Y971158D01*
X946842Y971079D01*
X946192Y971034D01*
X944224Y973002D01*
X943799Y973534D01*
X943341Y974208D01*
X942946Y974902D01*
X942614Y975619D01*
X942343Y976360D01*
X942130Y977129D01*
X941978Y977930D01*
X941903Y978606D01*
Y1001297D01*
X943173Y1002262D01*
X944000Y1002097D01*
X946014D01*
X946166Y1002093D01*
X946821Y1002031D01*
X947362Y1001949D01*
X947722Y1001866D01*
Y1000722D01*
X949509D01*
X949530Y1000718D01*
X949552Y1000722D01*
X960278D01*
Y1012278D01*
X949552D01*
X949530Y1012282D01*
X949509Y1012278D01*
X947722D01*
Y1011134D01*
X947362Y1011051D01*
X946842Y1010972D01*
X945856Y1010903D01*
X945824D01*
X944224Y1012502D01*
X943799Y1013034D01*
X943341Y1013708D01*
X942946Y1014402D01*
X942614Y1015118D01*
X942343Y1015860D01*
X942130Y1016629D01*
X941978Y1017430D01*
X941903Y1018107D01*
Y1041990D01*
X946014D01*
X946166Y1041985D01*
X946821Y1041924D01*
X947362Y1041842D01*
X947722Y1041759D01*
Y1040614D01*
X949509D01*
X949530Y1040610D01*
X949552Y1040614D01*
X960278D01*
Y1052170D01*
X949552D01*
X949530Y1052175D01*
X949509Y1052170D01*
X947722D01*
Y1051026D01*
X947362Y1050943D01*
X946842Y1050864D01*
X945856Y1050795D01*
X941931D01*
X941903Y1050824D01*
Y1101534D01*
X941938Y1101713D01*
Y1145250D01*
X943112Y1145736D01*
X951181Y1137667D01*
X951501Y1136055D01*
X952737Y1134206D01*
X968496Y1118446D01*
X970345Y1117211D01*
X972525Y1116777D01*
X1130624D01*
X1131293Y1116709D01*
X1131577Y1116660D01*
X1131758Y1116617D01*
X1133376Y1115375D01*
X1135353Y1114556D01*
X1137475Y1114277D01*
X1139597Y1114556D01*
X1141574Y1115375D01*
X1143272Y1116678D01*
X1143741Y1117289D01*
X1143778Y1117314D01*
X1143803Y1117325D01*
X1143977Y1117379D01*
X1144253Y1117441D01*
X1144583Y1117493D01*
X1145254Y1117540D01*
X1206334D01*
X1206902Y1117489D01*
X1207114Y1117456D01*
X1207202Y1117437D01*
X1207901Y1116900D01*
X1209878Y1116081D01*
X1212000Y1115802D01*
X1214122Y1116081D01*
X1216099Y1116900D01*
X1217717Y1118141D01*
X1217898Y1118185D01*
X1218151Y1118229D01*
X1219232Y1118303D01*
X1273891D01*
X1274990Y1118180D01*
X1276262Y1117938D01*
X1277487Y1117600D01*
X1278670Y1117167D01*
X1279812Y1116637D01*
X1280918Y1116009D01*
X1281988Y1115282D01*
X1282852Y1114591D01*
X1329707Y1067735D01*
Y1067345D01*
X1330141Y1065165D01*
X1331376Y1063316D01*
X1380221Y1014472D01*
X1381577Y1013012D01*
X1382579Y1011762D01*
X1383364Y1010637D01*
X1383722Y1010012D01*
Y1001972D01*
X1404452D01*
X1404474Y1001968D01*
X1404485Y1001970D01*
X1404496Y1001968D01*
X1404785Y1001972D01*
X1406278D01*
Y1001993D01*
X1406909Y1002002D01*
X1430278D01*
X1430672Y1001962D01*
X1431213Y1001877D01*
X1431683Y1001774D01*
X1432079Y1001656D01*
X1432400Y1001530D01*
X1432647Y1001403D01*
X1432825Y1001284D01*
X1432835Y1001275D01*
X1432983Y1001083D01*
X1433176Y1000935D01*
X1433184Y1000925D01*
X1433303Y1000747D01*
X1433430Y1000500D01*
X1433556Y1000179D01*
X1433674Y999783D01*
X1433777Y999313D01*
X1433859Y998793D01*
X1433902Y998240D01*
Y989801D01*
X1433838Y989066D01*
X1433673Y988075D01*
X1433459Y987276D01*
X1433214Y986674D01*
X1432964Y986264D01*
X1432736Y986018D01*
X1432530Y985879D01*
X1432297Y985797D01*
X1432125Y985778D01*
X1429722D01*
Y954222D01*
X1448278D01*
Y983951D01*
X1448282Y983973D01*
X1448278Y983995D01*
Y985778D01*
X1446621D01*
X1446380Y985809D01*
X1446330Y985832D01*
X1446233Y985912D01*
X1446065Y986138D01*
X1445858Y986560D01*
X1445651Y987188D01*
X1445479Y987986D01*
X1445298Y989794D01*
Y998378D01*
X1445338Y998772D01*
X1445423Y999313D01*
X1445526Y999783D01*
X1445644Y1000179D01*
X1445770Y1000500D01*
X1445897Y1000747D01*
X1446016Y1000925D01*
X1446024Y1000935D01*
X1446217Y1001083D01*
X1447704Y1003021D01*
X1448639Y1005278D01*
X1448958Y1007700D01*
X1448639Y1010122D01*
X1447704Y1012379D01*
X1446217Y1014317D01*
X1444279Y1015804D01*
X1442022Y1016739D01*
X1439600Y1017058D01*
X1437178Y1016739D01*
X1434921Y1015804D01*
X1432983Y1014317D01*
X1432835Y1014125D01*
X1432825Y1014116D01*
X1432647Y1013997D01*
X1432400Y1013870D01*
X1432079Y1013744D01*
X1431683Y1013626D01*
X1431213Y1013523D01*
X1430693Y1013441D01*
X1430140Y1013398D01*
X1410302D01*
X1409567Y1013462D01*
X1408576Y1013627D01*
X1407777Y1013841D01*
X1407175Y1014087D01*
X1406765Y1014336D01*
X1406518Y1014564D01*
X1406380Y1014771D01*
X1406297Y1015004D01*
X1406278Y1015176D01*
Y1019028D01*
X1392738D01*
X1392113Y1019386D01*
X1391008Y1020157D01*
X1388665Y1022142D01*
X1341102Y1069705D01*
Y1070095D01*
X1340669Y1072275D01*
X1339434Y1074124D01*
X1285529Y1128029D01*
X1274697Y1138860D01*
Y1260640D01*
X1412459Y1398401D01*
X1413694Y1400250D01*
X1414128Y1402430D01*
Y1508070D01*
X1436360Y1530303D01*
X1564149D01*
X1564819Y1530234D01*
X1565102Y1530185D01*
X1565283Y1530141D01*
X1565354Y1530087D01*
X1565363Y1530077D01*
X1565455Y1529942D01*
X1565556Y1529750D01*
X1565658Y1529497D01*
X1565755Y1529180D01*
X1565842Y1528801D01*
X1565910Y1528382D01*
X1565950Y1527898D01*
Y1380729D01*
X1565617Y1380230D01*
X1565397Y1379126D01*
X1562754Y1376483D01*
X1561659Y1374845D01*
X1561275Y1372913D01*
Y1369842D01*
X1561223Y1369254D01*
X1561090Y1368454D01*
X1560920Y1367820D01*
X1560732Y1367357D01*
X1560552Y1367061D01*
X1560406Y1366904D01*
X1560295Y1366828D01*
X1560170Y1366784D01*
X1560117Y1366778D01*
X1556722D01*
Y1352222D01*
X1560850D01*
X1560892Y1351572D01*
Y1349000D01*
X1561129Y1347811D01*
X1561803Y1346803D01*
X1581886Y1326719D01*
X1582295Y1326279D01*
X1582574Y1325930D01*
X1582722Y1325717D01*
Y1324899D01*
X1582718Y1324877D01*
X1582722Y1324856D01*
Y1319722D01*
X1593278D01*
Y1330278D01*
X1588144D01*
X1588123Y1330282D01*
X1588101Y1330278D01*
X1587283D01*
X1587091Y1330412D01*
X1586392Y1331003D01*
X1567108Y1350287D01*
Y1351752D01*
X1567126Y1352221D01*
X1567126Y1352222D01*
X1571278D01*
Y1361337D01*
X1571375Y1361825D01*
Y1370821D01*
X1573156Y1372602D01*
X1573230Y1372617D01*
X1575120Y1373880D01*
X1576383Y1375770D01*
X1576827Y1378000D01*
X1576383Y1380230D01*
X1576050Y1380729D01*
Y1528020D01*
X1576087Y1528361D01*
X1576158Y1528801D01*
X1576245Y1529180D01*
X1576342Y1529497D01*
X1576445Y1529750D01*
X1576545Y1529942D01*
X1576637Y1530077D01*
X1576646Y1530087D01*
X1576717Y1530141D01*
X1576898Y1530185D01*
X1577151Y1530229D01*
X1578232Y1530303D01*
X1631640D01*
X1714471Y1447471D01*
X1716320Y1446236D01*
X1718500Y1445802D01*
X1819140D01*
X2015971Y1248971D01*
X2017820Y1247736D01*
X2020000Y1247302D01*
X2196640D01*
X2226803Y1217140D01*
Y1201255D01*
X2215073D01*
X2214891Y1201276D01*
X2214663Y1201316D01*
X2214476Y1201362D01*
X2214329Y1201410D01*
X2214234Y1201451D01*
X2214120Y1201620D01*
X2212230Y1202883D01*
X2210000Y1203327D01*
X2207770Y1202883D01*
X2205880Y1201620D01*
X2204617Y1199730D01*
X2204173Y1197500D01*
X2204617Y1195270D01*
X2205880Y1193380D01*
X2207770Y1192117D01*
X2210000Y1191673D01*
X2212230Y1192117D01*
X2214120Y1193380D01*
X2214234Y1193549D01*
X2214329Y1193590D01*
X2214476Y1193638D01*
X2214663Y1193684D01*
X2214868Y1193720D01*
X2215148Y1193745D01*
X2226803D01*
Y1096860D01*
X2207932Y1077989D01*
X2207380Y1077620D01*
X2206117Y1075730D01*
X2205673Y1073500D01*
X2205681Y1073457D01*
X2202400Y1069710D01*
X2124345Y991655D01*
X2123531Y990437D01*
X2123245Y989000D01*
Y878409D01*
X2123531Y876972D01*
X2124345Y875754D01*
X2126035Y874064D01*
Y773248D01*
X2125975Y772876D01*
X2125853Y772415D01*
X2125676Y771935D01*
X2125440Y771434D01*
X2125141Y770913D01*
X2124776Y770372D01*
X2124344Y769814D01*
X2123842Y769239D01*
X2123427Y768813D01*
X2123173Y768617D01*
X2121686Y766679D01*
X2120751Y764422D01*
X2120432Y762000D01*
X2120751Y759578D01*
X2121686Y757321D01*
X2123173Y755383D01*
X2125111Y753896D01*
X2127368Y752961D01*
X2129790Y752642D01*
X2132212Y752961D01*
X2134469Y753896D01*
X2136407Y755383D01*
X2137894Y757321D01*
X2138829Y759578D01*
X2139148Y762000D01*
X2138829Y764422D01*
X2137894Y766679D01*
X2136407Y768617D01*
X2136152Y768813D01*
X2135738Y769239D01*
X2135236Y769814D01*
X2134804Y770372D01*
X2134439Y770913D01*
X2134140Y771434D01*
X2133904Y771935D01*
X2133727Y772415D01*
X2133605Y772876D01*
X2133545Y773248D01*
Y875619D01*
X2133259Y877056D01*
X2132445Y878274D01*
X2130755Y879964D01*
Y987445D01*
X2208024Y1064714D01*
X2209866Y1066433D01*
X2211051Y1067411D01*
X2211435Y1067686D01*
X2211500Y1067673D01*
X2213730Y1068117D01*
X2215620Y1069380D01*
X2215989Y1069932D01*
X2236529Y1090471D01*
X2237764Y1092320D01*
X2238197Y1094500D01*
Y1198500D01*
Y1219500D01*
X2237764Y1221680D01*
X2236529Y1223529D01*
X2203029Y1257029D01*
X2201180Y1258264D01*
X2199000Y1258698D01*
X2022360D01*
X1825529Y1455529D01*
X1823680Y1456764D01*
X1821500Y1457198D01*
X1720860D01*
X1638029Y1540029D01*
X1636180Y1541264D01*
X1634000Y1541698D01*
X1577851D01*
X1577182Y1541766D01*
X1576898Y1541815D01*
X1576717Y1541859D01*
X1575099Y1543100D01*
X1573122Y1543919D01*
X1571000Y1544198D01*
D02*
G37*
G36*
X1468200Y1254113D02*
X1465117Y1253707D01*
X1462244Y1252517D01*
X1459776Y1250624D01*
X1457883Y1248157D01*
X1456693Y1245283D01*
X1456287Y1242200D01*
X1456693Y1239117D01*
X1457883Y1236244D01*
X1459776Y1233776D01*
X1460263Y1233403D01*
X1460716Y1232953D01*
X1461129Y1232458D01*
X1461494Y1231925D01*
X1461812Y1231350D01*
X1462085Y1230730D01*
X1462312Y1230060D01*
X1462493Y1229337D01*
X1462594Y1228736D01*
X1444429Y1210571D01*
X1443334Y1208933D01*
X1442950Y1207000D01*
Y1178729D01*
X1442617Y1178230D01*
X1442173Y1176000D01*
X1442617Y1173770D01*
X1443880Y1171880D01*
X1445770Y1170617D01*
X1448000Y1170173D01*
X1450230Y1170617D01*
X1452120Y1171880D01*
X1453383Y1173770D01*
X1453827Y1176000D01*
X1453383Y1178230D01*
X1453050Y1178729D01*
Y1204908D01*
X1471291Y1223149D01*
X1472386Y1224788D01*
X1472771Y1226720D01*
Y1227866D01*
X1472822Y1228345D01*
X1472958Y1229065D01*
X1473145Y1229726D01*
X1473378Y1230331D01*
X1473658Y1230885D01*
X1473984Y1231394D01*
X1474359Y1231862D01*
X1474788Y1232295D01*
X1475342Y1232752D01*
X1475371Y1232786D01*
X1475409Y1232810D01*
X1475468Y1232890D01*
X1476624Y1233776D01*
X1478517Y1236244D01*
X1479707Y1239117D01*
X1480113Y1242200D01*
X1479707Y1245283D01*
X1478517Y1248157D01*
X1476624Y1250624D01*
X1474156Y1252517D01*
X1471283Y1253707D01*
X1468200Y1254113D01*
D02*
G37*
G36*
X1958500Y1188827D02*
X1956270Y1188383D01*
X1954380Y1187120D01*
X1953117Y1185230D01*
X1952673Y1183000D01*
X1953117Y1180770D01*
X1954380Y1178880D01*
X1954778Y1178614D01*
X1954943Y1178461D01*
X1955112Y1178280D01*
X1955253Y1178102D01*
X1955368Y1177930D01*
X1955461Y1177759D01*
X1955534Y1177589D01*
X1955591Y1177415D01*
X1955631Y1177234D01*
X1955642Y1177152D01*
Y1172156D01*
X1955632Y1172074D01*
X1955591Y1171869D01*
X1955532Y1171664D01*
X1955454Y1171456D01*
X1955356Y1171245D01*
X1955236Y1171028D01*
X1955091Y1170805D01*
X1955025Y1170718D01*
X1954880Y1170620D01*
X1953617Y1168730D01*
X1953173Y1166500D01*
X1953617Y1164270D01*
X1954880Y1162380D01*
X1956770Y1161117D01*
X1959000Y1160673D01*
X1961230Y1161117D01*
X1963120Y1162380D01*
X1964383Y1164270D01*
X1964827Y1166500D01*
X1964383Y1168730D01*
X1963120Y1170620D01*
X1962722Y1170886D01*
X1962557Y1171039D01*
X1962388Y1171220D01*
X1962247Y1171398D01*
X1962132Y1171570D01*
X1962039Y1171741D01*
X1961966Y1171911D01*
X1961909Y1172085D01*
X1961869Y1172266D01*
X1961858Y1172348D01*
Y1177344D01*
X1961868Y1177426D01*
X1961909Y1177631D01*
X1961968Y1177836D01*
X1962046Y1178044D01*
X1962144Y1178255D01*
X1962264Y1178472D01*
X1962409Y1178695D01*
X1962475Y1178782D01*
X1962620Y1178880D01*
X1963883Y1180770D01*
X1964327Y1183000D01*
X1963883Y1185230D01*
X1962620Y1187120D01*
X1960730Y1188383D01*
X1958500Y1188827D01*
D02*
G37*
G36*
X2004500Y1192827D02*
X2002270Y1192383D01*
X2000380Y1191120D01*
X1999117Y1189230D01*
X1998673Y1187000D01*
X1999117Y1184770D01*
X2000380Y1182880D01*
X2000677Y1182681D01*
X2000846Y1182479D01*
X2000990Y1182279D01*
X2001109Y1182084D01*
X2001206Y1181892D01*
X2001282Y1181703D01*
X2001340Y1181514D01*
X2001382Y1181320D01*
X2001392Y1181237D01*
Y1171763D01*
X2001382Y1171680D01*
X2001340Y1171486D01*
X2001282Y1171297D01*
X2001206Y1171108D01*
X2001109Y1170917D01*
X2000990Y1170721D01*
X2000846Y1170521D01*
X2000677Y1170319D01*
X2000380Y1170120D01*
X1999117Y1168230D01*
X1998673Y1166000D01*
X1999117Y1163770D01*
X2000380Y1161880D01*
X2002270Y1160617D01*
X2004500Y1160173D01*
X2006730Y1160617D01*
X2008620Y1161880D01*
X2009883Y1163770D01*
X2010327Y1166000D01*
X2009883Y1168230D01*
X2008620Y1170120D01*
X2008323Y1170319D01*
X2008154Y1170521D01*
X2008010Y1170721D01*
X2007891Y1170917D01*
X2007794Y1171108D01*
X2007718Y1171297D01*
X2007660Y1171486D01*
X2007618Y1171680D01*
X2007608Y1171763D01*
Y1181237D01*
X2007618Y1181320D01*
X2007660Y1181514D01*
X2007718Y1181703D01*
X2007794Y1181892D01*
X2007891Y1182084D01*
X2008010Y1182279D01*
X2008154Y1182479D01*
X2008323Y1182681D01*
X2008620Y1182880D01*
X2009883Y1184770D01*
X2010327Y1187000D01*
X2009883Y1189230D01*
X2008620Y1191120D01*
X2006730Y1192383D01*
X2004500Y1192827D01*
D02*
G37*
G36*
X2018000Y1192327D02*
X2015770Y1191883D01*
X2013880Y1190620D01*
X2012617Y1188730D01*
X2012173Y1186500D01*
X2012617Y1184270D01*
X2013880Y1182380D01*
X2014278Y1182114D01*
X2014443Y1181961D01*
X2014612Y1181780D01*
X2014753Y1181602D01*
X2014868Y1181430D01*
X2014960Y1181259D01*
X2015034Y1181089D01*
X2015090Y1180916D01*
X2015131Y1180734D01*
X2015142Y1180652D01*
Y1171156D01*
X2015132Y1171074D01*
X2015091Y1170869D01*
X2015032Y1170664D01*
X2014954Y1170456D01*
X2014856Y1170245D01*
X2014736Y1170028D01*
X2014591Y1169805D01*
X2014525Y1169718D01*
X2014380Y1169620D01*
X2013117Y1167730D01*
X2012673Y1165500D01*
X2013117Y1163270D01*
X2014380Y1161380D01*
X2016270Y1160117D01*
X2018500Y1159673D01*
X2020730Y1160117D01*
X2022620Y1161380D01*
X2023883Y1163270D01*
X2024327Y1165500D01*
X2023883Y1167730D01*
X2022620Y1169620D01*
X2022222Y1169886D01*
X2022057Y1170039D01*
X2021888Y1170220D01*
X2021747Y1170398D01*
X2021632Y1170570D01*
X2021539Y1170741D01*
X2021466Y1170911D01*
X2021409Y1171085D01*
X2021369Y1171266D01*
X2021358Y1171348D01*
Y1180844D01*
X2021368Y1180926D01*
X2021409Y1181131D01*
X2021468Y1181336D01*
X2021546Y1181544D01*
X2021644Y1181755D01*
X2021764Y1181972D01*
X2021909Y1182195D01*
X2021975Y1182282D01*
X2022120Y1182380D01*
X2023383Y1184270D01*
X2023827Y1186500D01*
X2023383Y1188730D01*
X2022120Y1190620D01*
X2020230Y1191883D01*
X2018000Y1192327D01*
D02*
G37*
G36*
X2045500Y1192827D02*
X2043270Y1192383D01*
X2041380Y1191120D01*
X2040117Y1189230D01*
X2039673Y1187000D01*
X2040117Y1184770D01*
X2041380Y1182880D01*
X2041677Y1182681D01*
X2041846Y1182479D01*
X2041990Y1182279D01*
X2042109Y1182084D01*
X2042206Y1181892D01*
X2042282Y1181703D01*
X2042340Y1181514D01*
X2042382Y1181320D01*
X2042392Y1181237D01*
Y1170763D01*
X2042382Y1170680D01*
X2042340Y1170486D01*
X2042282Y1170297D01*
X2042206Y1170108D01*
X2042109Y1169917D01*
X2041990Y1169721D01*
X2041846Y1169521D01*
X2041677Y1169319D01*
X2041380Y1169120D01*
X2040117Y1167230D01*
X2039673Y1165000D01*
X2040117Y1162770D01*
X2041380Y1160880D01*
X2043270Y1159617D01*
X2045500Y1159173D01*
X2047730Y1159617D01*
X2049620Y1160880D01*
X2050883Y1162770D01*
X2051327Y1165000D01*
X2050883Y1167230D01*
X2049620Y1169120D01*
X2049323Y1169319D01*
X2049154Y1169521D01*
X2049010Y1169721D01*
X2048891Y1169917D01*
X2048794Y1170108D01*
X2048718Y1170297D01*
X2048660Y1170486D01*
X2048618Y1170680D01*
X2048608Y1170763D01*
Y1181237D01*
X2048618Y1181320D01*
X2048660Y1181514D01*
X2048718Y1181703D01*
X2048794Y1181892D01*
X2048891Y1182084D01*
X2049010Y1182279D01*
X2049154Y1182479D01*
X2049323Y1182681D01*
X2049620Y1182880D01*
X2050883Y1184770D01*
X2051327Y1187000D01*
X2050883Y1189230D01*
X2049620Y1191120D01*
X2047730Y1192383D01*
X2045500Y1192827D01*
D02*
G37*
G36*
X2031500D02*
X2029270Y1192383D01*
X2027380Y1191120D01*
X2026117Y1189230D01*
X2025673Y1187000D01*
X2026117Y1184770D01*
X2027380Y1182880D01*
X2027677Y1182681D01*
X2027846Y1182479D01*
X2027990Y1182279D01*
X2028109Y1182084D01*
X2028206Y1181892D01*
X2028282Y1181703D01*
X2028340Y1181514D01*
X2028382Y1181320D01*
X2028392Y1181237D01*
Y1170763D01*
X2028382Y1170680D01*
X2028340Y1170486D01*
X2028282Y1170297D01*
X2028206Y1170108D01*
X2028109Y1169917D01*
X2027990Y1169721D01*
X2027846Y1169521D01*
X2027677Y1169319D01*
X2027380Y1169120D01*
X2026117Y1167230D01*
X2025673Y1165000D01*
X2026117Y1162770D01*
X2027380Y1160880D01*
X2029270Y1159617D01*
X2031500Y1159173D01*
X2033730Y1159617D01*
X2035620Y1160880D01*
X2036883Y1162770D01*
X2037327Y1165000D01*
X2036883Y1167230D01*
X2035620Y1169120D01*
X2035323Y1169319D01*
X2035154Y1169521D01*
X2035010Y1169721D01*
X2034891Y1169917D01*
X2034794Y1170108D01*
X2034718Y1170297D01*
X2034660Y1170486D01*
X2034618Y1170680D01*
X2034608Y1170763D01*
Y1181237D01*
X2034618Y1181320D01*
X2034660Y1181514D01*
X2034718Y1181703D01*
X2034794Y1181892D01*
X2034891Y1182084D01*
X2035010Y1182279D01*
X2035154Y1182479D01*
X2035323Y1182681D01*
X2035620Y1182880D01*
X2036883Y1184770D01*
X2037327Y1187000D01*
X2036883Y1189230D01*
X2035620Y1191120D01*
X2033730Y1192383D01*
X2031500Y1192827D01*
D02*
G37*
G36*
X1874520Y1237727D02*
X1872290Y1237283D01*
X1870400Y1236020D01*
X1869137Y1234130D01*
X1868693Y1231900D01*
X1869137Y1229670D01*
X1870400Y1227780D01*
X1872290Y1226517D01*
X1874520Y1226073D01*
X1876750Y1226517D01*
X1878640Y1227780D01*
X1878754Y1227949D01*
X1878849Y1227990D01*
X1878996Y1228038D01*
X1879183Y1228084D01*
X1879388Y1228120D01*
X1879668Y1228145D01*
X2075352D01*
X2087935Y1215562D01*
Y1179830D01*
X2088221Y1178393D01*
X2089035Y1177175D01*
X2106365Y1159845D01*
X2107583Y1159031D01*
X2109020Y1158745D01*
X2122275D01*
X2122761Y1157571D01*
X2096345Y1131155D01*
X2095531Y1129937D01*
X2095245Y1128500D01*
Y963073D01*
X2095224Y962891D01*
X2095184Y962663D01*
X2095138Y962476D01*
X2095090Y962329D01*
X2095049Y962234D01*
X2094962Y962175D01*
X2094591Y962153D01*
X2019324D01*
X2018230Y962883D01*
X2016549Y963218D01*
X2016178Y963549D01*
X1960613Y1019113D01*
X1959185Y1020068D01*
X1957500Y1020403D01*
X1711960Y1020403D01*
X1681480D01*
X1679795Y1020067D01*
X1678367Y1019113D01*
X1661134Y1001881D01*
X1660995Y1001750D01*
X1660752Y1001562D01*
X1660289Y1001263D01*
X1659801Y1001004D01*
X1659284Y1000784D01*
X1658736Y1000603D01*
X1658153Y1000462D01*
X1657533Y1000361D01*
X1656875Y1000303D01*
X1656407Y1000292D01*
X1656080Y1000335D01*
X1653560Y1000004D01*
X1651212Y999031D01*
X1649196Y997484D01*
X1647649Y995468D01*
X1646676Y993120D01*
X1646345Y990600D01*
X1646676Y988080D01*
X1647649Y985732D01*
X1649025Y983940D01*
X1649198Y981010D01*
Y948980D01*
X1648496Y948278D01*
X1633222D01*
Y916722D01*
X1651778D01*
Y927983D01*
X1651813Y928473D01*
X1651987Y929339D01*
X1652290Y930280D01*
X1652730Y931294D01*
X1653312Y932377D01*
X1654041Y933525D01*
X1654904Y934716D01*
X1657129Y937332D01*
X1657519Y937736D01*
X1661006Y941224D01*
X1662106Y942656D01*
X1662796Y944325D01*
X1663032Y946115D01*
Y981451D01*
X1663073Y982860D01*
X1663149Y983780D01*
X1663180Y983998D01*
X1664511Y985732D01*
X1665484Y988080D01*
X1665815Y990600D01*
X1665772Y990927D01*
X1665782Y991395D01*
X1665841Y992053D01*
X1665942Y992673D01*
X1666084Y993256D01*
X1666264Y993804D01*
X1666484Y994321D01*
X1666743Y994809D01*
X1666943Y995120D01*
X1667772Y996066D01*
X1683304Y1011597D01*
X1711960D01*
X1955676Y1011597D01*
X2010249Y957025D01*
X2010273Y956996D01*
X2010617Y955270D01*
X2011569Y953845D01*
X2011597Y953348D01*
Y835230D01*
X2011594Y835193D01*
X2010617Y833730D01*
X2010173Y831500D01*
X2010617Y829270D01*
X2011880Y827380D01*
X2013770Y826117D01*
X2016000Y825673D01*
X2018230Y826117D01*
X2019655Y827069D01*
X2020152Y827097D01*
X2093744D01*
X2095429Y827432D01*
X2096857Y828387D01*
X2100115Y831645D01*
X2100217Y831729D01*
X2100500Y831673D01*
X2102730Y832117D01*
X2104620Y833380D01*
X2105883Y835270D01*
X2106327Y837500D01*
X2105883Y839730D01*
X2104620Y841620D01*
X2102730Y842883D01*
X2100500Y843327D01*
X2098270Y842883D01*
X2096380Y841620D01*
X2095117Y839730D01*
X2094960Y838942D01*
X2091920Y835903D01*
X2020403D01*
Y953347D01*
X2020409Y953347D01*
X2095676D01*
X2096770Y952617D01*
X2099000Y952173D01*
X2101230Y952617D01*
X2103120Y953880D01*
X2104383Y955770D01*
X2104827Y958000D01*
X2104383Y960230D01*
X2103120Y962120D01*
X2102951Y962234D01*
X2102910Y962329D01*
X2102862Y962476D01*
X2102816Y962663D01*
X2102780Y962868D01*
X2102755Y963148D01*
Y1126945D01*
X2132068Y1156258D01*
X2132211Y1156371D01*
X2132401Y1156504D01*
X2132566Y1156604D01*
X2132704Y1156674D01*
X2132800Y1156713D01*
X2133000Y1156673D01*
X2135230Y1157117D01*
X2137120Y1158380D01*
X2138383Y1160270D01*
X2138827Y1162500D01*
X2138383Y1164730D01*
X2137120Y1166620D01*
X2135230Y1167883D01*
X2133000Y1168327D01*
X2130770Y1167883D01*
X2128880Y1166620D01*
X2128766Y1166451D01*
X2128671Y1166410D01*
X2128524Y1166362D01*
X2128337Y1166316D01*
X2128132Y1166280D01*
X2127852Y1166255D01*
X2110576D01*
X2095445Y1181385D01*
Y1217118D01*
X2095159Y1218555D01*
X2094345Y1219773D01*
X2079563Y1234555D01*
X2078345Y1235369D01*
X2076908Y1235655D01*
X1879593D01*
X1879411Y1235676D01*
X1879183Y1235716D01*
X1878996Y1235762D01*
X1878849Y1235810D01*
X1878754Y1235851D01*
X1878640Y1236020D01*
X1876750Y1237283D01*
X1874520Y1237727D01*
D02*
G37*
G36*
X1468200Y1177913D02*
X1465117Y1177507D01*
X1462244Y1176317D01*
X1459776Y1174424D01*
X1457883Y1171956D01*
X1456693Y1169083D01*
X1456287Y1166000D01*
X1456693Y1162917D01*
X1457883Y1160044D01*
X1459776Y1157576D01*
X1462244Y1155683D01*
X1465117Y1154493D01*
X1468200Y1154087D01*
X1471283Y1154493D01*
X1474156Y1155683D01*
X1476624Y1157576D01*
X1478517Y1160044D01*
X1479707Y1162917D01*
X1480113Y1166000D01*
X1479707Y1169083D01*
X1478517Y1171956D01*
X1476624Y1174424D01*
X1474156Y1176317D01*
X1471283Y1177507D01*
X1468200Y1177913D01*
D02*
G37*
G36*
X1392000D02*
X1388917Y1177507D01*
X1386044Y1176317D01*
X1383576Y1174424D01*
X1381683Y1171956D01*
X1380493Y1169083D01*
X1380087Y1166000D01*
X1380493Y1162917D01*
X1381683Y1160044D01*
X1383576Y1157576D01*
X1386044Y1155683D01*
X1388917Y1154493D01*
X1392000Y1154087D01*
X1395083Y1154493D01*
X1397957Y1155683D01*
X1400424Y1157576D01*
X1402317Y1160044D01*
X1403507Y1162917D01*
X1403913Y1166000D01*
X1403507Y1169083D01*
X1402317Y1171956D01*
X1400424Y1174424D01*
X1397957Y1176317D01*
X1395083Y1177507D01*
X1392000Y1177913D01*
D02*
G37*
G36*
X1290400D02*
X1287317Y1177507D01*
X1284444Y1176317D01*
X1281976Y1174424D01*
X1280083Y1171956D01*
X1278893Y1169083D01*
X1278487Y1166000D01*
X1278893Y1162917D01*
X1280083Y1160044D01*
X1281976Y1157576D01*
X1284444Y1155683D01*
X1287317Y1154493D01*
X1290400Y1154087D01*
X1293483Y1154493D01*
X1296357Y1155683D01*
X1298824Y1157576D01*
X1300717Y1160044D01*
X1301907Y1162917D01*
X1302313Y1166000D01*
X1301907Y1169083D01*
X1300717Y1171956D01*
X1298824Y1174424D01*
X1296357Y1176317D01*
X1293483Y1177507D01*
X1290400Y1177913D01*
D02*
G37*
G36*
X1617500Y1186327D02*
X1615270Y1185883D01*
X1613380Y1184620D01*
X1612117Y1182730D01*
X1611673Y1180500D01*
X1612117Y1178270D01*
X1613380Y1176380D01*
X1613677Y1176181D01*
X1613846Y1175979D01*
X1613990Y1175779D01*
X1614109Y1175583D01*
X1614206Y1175392D01*
X1614282Y1175203D01*
X1614340Y1175014D01*
X1614382Y1174820D01*
X1614392Y1174737D01*
Y1154763D01*
X1614382Y1154680D01*
X1614340Y1154486D01*
X1614282Y1154297D01*
X1614206Y1154108D01*
X1614109Y1153916D01*
X1613990Y1153721D01*
X1613846Y1153521D01*
X1613677Y1153319D01*
X1613380Y1153120D01*
X1612117Y1151230D01*
X1611673Y1149000D01*
X1612117Y1146770D01*
X1613380Y1144880D01*
X1615270Y1143617D01*
X1617500Y1143173D01*
X1619730Y1143617D01*
X1621620Y1144880D01*
X1622883Y1146770D01*
X1623327Y1149000D01*
X1622883Y1151230D01*
X1621620Y1153120D01*
X1621323Y1153319D01*
X1621154Y1153521D01*
X1621010Y1153721D01*
X1620891Y1153916D01*
X1620794Y1154108D01*
X1620718Y1154297D01*
X1620660Y1154486D01*
X1620618Y1154680D01*
X1620608Y1154763D01*
Y1174737D01*
X1620618Y1174820D01*
X1620660Y1175014D01*
X1620718Y1175203D01*
X1620794Y1175392D01*
X1620891Y1175583D01*
X1621010Y1175779D01*
X1621154Y1175979D01*
X1621323Y1176181D01*
X1621620Y1176380D01*
X1622883Y1178270D01*
X1623327Y1180500D01*
X1622883Y1182730D01*
X1621620Y1184620D01*
X1619730Y1185883D01*
X1617500Y1186327D01*
D02*
G37*
G36*
X1002000Y1042827D02*
X999770Y1042383D01*
X997880Y1041120D01*
X997737Y1040906D01*
X997729Y1040902D01*
X997627Y1040857D01*
X997484Y1040810D01*
X997299Y1040763D01*
X997098Y1040727D01*
X996813Y1040701D01*
X981420D01*
X981124Y1040727D01*
X980704Y1040797D01*
X980399Y1040878D01*
X980278Y1040927D01*
Y1042671D01*
X967722D01*
Y1031115D01*
X980278D01*
Y1032965D01*
X980398Y1033014D01*
X980704Y1033096D01*
X981124Y1033165D01*
X981420Y1033191D01*
X996966D01*
X997144Y1033171D01*
X997376Y1033131D01*
X997567Y1033085D01*
X997716Y1033037D01*
X997797Y1033004D01*
X997880Y1032880D01*
X999770Y1031617D01*
X1002000Y1031173D01*
X1004230Y1031617D01*
X1006120Y1032880D01*
X1007383Y1034770D01*
X1007827Y1037000D01*
X1007383Y1039230D01*
X1006120Y1041120D01*
X1004230Y1042383D01*
X1002000Y1042827D01*
D02*
G37*
G36*
Y1023827D02*
X999770Y1023383D01*
X997880Y1022120D01*
X996617Y1020230D01*
X996173Y1018000D01*
X996617Y1015770D01*
X997880Y1013880D01*
X998251Y1013631D01*
X998361Y1013527D01*
X998531Y1013338D01*
X998673Y1013154D01*
X998790Y1012974D01*
X998884Y1012797D01*
X998958Y1012621D01*
X999015Y1012443D01*
X999056Y1012259D01*
X999067Y1012175D01*
Y1010825D01*
X999304Y1009636D01*
X999977Y1008627D01*
X1002728Y1005877D01*
X1002779Y1005811D01*
X1002886Y1005645D01*
X1002979Y1005470D01*
X1003059Y1005282D01*
X1003126Y1005079D01*
X1003180Y1004857D01*
X1003219Y1004613D01*
X1003243Y1004351D01*
X1003173Y1004000D01*
X1003617Y1001770D01*
X1003979Y1001228D01*
X1003380Y1000108D01*
X980460D01*
X980310Y1000121D01*
X980278Y1000126D01*
Y1002778D01*
X967722D01*
Y991222D01*
X980278D01*
Y993874D01*
X980311Y993879D01*
X980460Y993892D01*
X1010011D01*
X1010087Y993882D01*
X1010232Y993845D01*
X1010356Y993799D01*
X1010466Y993743D01*
X1010569Y993674D01*
X1010673Y993586D01*
X1010780Y993473D01*
X1010891Y993329D01*
X1011047Y993082D01*
X1011146Y992977D01*
X1011880Y991880D01*
X1013770Y990617D01*
X1016000Y990173D01*
X1018230Y990617D01*
X1020120Y991880D01*
X1021383Y993770D01*
X1021827Y996000D01*
X1021383Y998230D01*
X1020120Y1000120D01*
X1018230Y1001383D01*
X1016000Y1001827D01*
X1015677Y1001763D01*
X1014597Y1002843D01*
X1014827Y1004000D01*
X1014383Y1006230D01*
X1013120Y1008120D01*
X1011230Y1009383D01*
X1009000Y1009827D01*
X1008649Y1009757D01*
X1008387Y1009781D01*
X1008143Y1009820D01*
X1007921Y1009874D01*
X1007718Y1009941D01*
X1007530Y1010021D01*
X1007355Y1010114D01*
X1007189Y1010221D01*
X1007123Y1010272D01*
X1005283Y1012112D01*
Y1012310D01*
X1005293Y1012393D01*
X1005334Y1012594D01*
X1005393Y1012794D01*
X1005471Y1012996D01*
X1005568Y1013202D01*
X1005689Y1013412D01*
X1005834Y1013628D01*
X1005930Y1013752D01*
X1006120Y1013880D01*
X1007383Y1015770D01*
X1007827Y1018000D01*
X1007383Y1020230D01*
X1006120Y1022120D01*
X1004230Y1023383D01*
X1002000Y1023827D01*
D02*
G37*
G36*
X1029000Y963827D02*
X1026770Y963383D01*
X1024880Y962120D01*
X1024541Y961614D01*
X1024506Y961586D01*
X1024298Y961337D01*
X1024135Y961172D01*
X1023976Y961036D01*
X1023821Y960926D01*
X1023667Y960837D01*
X1023512Y960767D01*
X1023352Y960713D01*
X1023180Y960673D01*
X1023099Y960661D01*
X980460D01*
X980310Y960675D01*
X980278Y960680D01*
Y962886D01*
X967722D01*
Y951329D01*
X980278D01*
Y954428D01*
X980311Y954433D01*
X980460Y954446D01*
X1023445D01*
X1023524Y954437D01*
X1023738Y954396D01*
X1023955Y954337D01*
X1024176Y954259D01*
X1024403Y954161D01*
X1024637Y954041D01*
X1024862Y953906D01*
X1024880Y953880D01*
X1025247Y953634D01*
X1025415Y953506D01*
X1025511Y953458D01*
X1026770Y952617D01*
X1029000Y952173D01*
X1031230Y952617D01*
X1033120Y953880D01*
X1034383Y955770D01*
X1034827Y958000D01*
X1034383Y960230D01*
X1033120Y962120D01*
X1031230Y963383D01*
X1029000Y963827D01*
D02*
G37*
G36*
X996000Y1068827D02*
X993770Y1068383D01*
X991880Y1067120D01*
X990617Y1065230D01*
X990173Y1063000D01*
X990617Y1060770D01*
X991880Y1058880D01*
X993770Y1057617D01*
X996000Y1057173D01*
X996351Y1057243D01*
X996613Y1057219D01*
X996857Y1057180D01*
X997079Y1057126D01*
X997282Y1057059D01*
X997470Y1056979D01*
X997645Y1056886D01*
X997811Y1056779D01*
X997877Y1056728D01*
X1039892Y1014713D01*
Y923763D01*
X1039882Y923680D01*
X1039840Y923486D01*
X1039782Y923297D01*
X1039706Y923108D01*
X1039609Y922916D01*
X1039490Y922721D01*
X1039346Y922521D01*
X1039177Y922319D01*
X1038880Y922120D01*
X1038571Y921659D01*
X1038555Y921646D01*
X1038341Y921398D01*
X1038173Y921232D01*
X1038010Y921095D01*
X1037850Y920983D01*
X1037691Y920893D01*
X1037532Y920822D01*
X1037368Y920767D01*
X1037194Y920726D01*
X1037112Y920715D01*
X980460D01*
X980310Y920728D01*
X980278Y920734D01*
Y922993D01*
X967722D01*
Y911437D01*
X980278D01*
Y914481D01*
X980311Y914487D01*
X980460Y914500D01*
X1037416D01*
X1037496Y914491D01*
X1037708Y914449D01*
X1037921Y914390D01*
X1038139Y914312D01*
X1038362Y914214D01*
X1038590Y914094D01*
X1038826Y913950D01*
X1038839Y913941D01*
X1038880Y913880D01*
X1039286Y913608D01*
X1039354Y913555D01*
X1039406Y913528D01*
X1040770Y912617D01*
X1043000Y912173D01*
X1045230Y912617D01*
X1047120Y913880D01*
X1048383Y915770D01*
X1048827Y918000D01*
X1048383Y920230D01*
X1047120Y922120D01*
X1046823Y922319D01*
X1046654Y922521D01*
X1046510Y922721D01*
X1046391Y922916D01*
X1046294Y923108D01*
X1046218Y923297D01*
X1046160Y923486D01*
X1046118Y923680D01*
X1046108Y923763D01*
Y1016000D01*
X1045871Y1017189D01*
X1045198Y1018197D01*
X1002272Y1061123D01*
X1002221Y1061189D01*
X1002114Y1061355D01*
X1002021Y1061530D01*
X1001941Y1061718D01*
X1001874Y1061921D01*
X1001820Y1062143D01*
X1001781Y1062387D01*
X1001757Y1062649D01*
X1001827Y1063000D01*
X1001383Y1065230D01*
X1000120Y1067120D01*
X998230Y1068383D01*
X996000Y1068827D01*
D02*
G37*
G36*
X1392500Y920698D02*
X1390378Y920419D01*
X1388401Y919600D01*
X1386703Y918297D01*
X1385400Y916599D01*
X1384581Y914622D01*
X1384302Y912500D01*
X1384581Y910378D01*
X1385400Y908401D01*
X1386703Y906703D01*
X1388401Y905400D01*
X1390378Y904581D01*
X1392500Y904302D01*
X1394622Y904581D01*
X1396599Y905400D01*
X1398297Y906703D01*
X1399600Y908401D01*
X1400419Y910378D01*
X1400698Y912500D01*
X1400419Y914622D01*
X1399600Y916599D01*
X1398297Y918297D01*
X1396599Y919600D01*
X1394622Y920419D01*
X1392500Y920698D01*
D02*
G37*
G36*
X1569000Y844358D02*
X1566578Y844039D01*
X1564321Y843104D01*
X1562383Y841617D01*
X1560896Y839679D01*
X1559961Y837422D01*
X1559642Y835000D01*
X1559961Y832578D01*
X1560896Y830321D01*
X1562383Y828383D01*
X1564321Y826896D01*
X1566578Y825961D01*
X1569000Y825642D01*
X1571422Y825961D01*
X1573679Y826896D01*
X1575617Y828383D01*
X1577104Y830321D01*
X1578039Y832578D01*
X1578358Y835000D01*
X1578039Y837422D01*
X1577104Y839679D01*
X1575617Y841617D01*
X1573679Y843104D01*
X1571422Y844039D01*
X1569000Y844358D01*
D02*
G37*
G36*
X1543600D02*
X1541178Y844039D01*
X1538921Y843104D01*
X1536983Y841617D01*
X1535496Y839679D01*
X1534561Y837422D01*
X1534242Y835000D01*
X1534561Y832578D01*
X1535496Y830321D01*
X1536983Y828383D01*
X1538921Y826896D01*
X1541178Y825961D01*
X1543600Y825642D01*
X1546022Y825961D01*
X1548279Y826896D01*
X1550217Y828383D01*
X1551704Y830321D01*
X1552639Y832578D01*
X1552958Y835000D01*
X1552639Y837422D01*
X1551704Y839679D01*
X1550217Y841617D01*
X1548279Y843104D01*
X1546022Y844039D01*
X1543600Y844358D01*
D02*
G37*
G36*
X1518200D02*
X1515778Y844039D01*
X1513521Y843104D01*
X1511583Y841617D01*
X1510096Y839679D01*
X1509161Y837422D01*
X1508842Y835000D01*
X1509161Y832578D01*
X1510096Y830321D01*
X1511583Y828383D01*
X1513521Y826896D01*
X1515778Y825961D01*
X1518200Y825642D01*
X1520622Y825961D01*
X1522879Y826896D01*
X1524817Y828383D01*
X1526304Y830321D01*
X1527239Y832578D01*
X1527558Y835000D01*
X1527239Y837422D01*
X1526304Y839679D01*
X1524817Y841617D01*
X1522879Y843104D01*
X1520622Y844039D01*
X1518200Y844358D01*
D02*
G37*
G36*
X1377528Y843528D02*
X1342472D01*
Y822172D01*
X1348992D01*
X1349402Y822129D01*
X1349850Y821970D01*
X1350246Y821706D01*
X1350638Y821282D01*
X1351026Y820644D01*
X1351386Y819763D01*
X1351689Y818633D01*
X1351917Y817261D01*
X1352059Y815653D01*
X1352067Y815317D01*
X1351900Y815099D01*
X1351081Y813122D01*
X1350802Y811000D01*
X1351081Y808878D01*
X1351900Y806901D01*
X1353203Y805203D01*
X1354901Y803900D01*
X1356878Y803081D01*
X1359000Y802802D01*
X1361122Y803081D01*
X1363099Y803900D01*
X1364797Y805203D01*
X1366100Y806901D01*
X1366919Y808878D01*
X1367198Y811000D01*
X1366919Y813122D01*
X1366100Y815099D01*
X1365933Y815317D01*
X1365941Y815653D01*
X1366083Y817260D01*
X1366311Y818633D01*
X1366614Y819763D01*
X1366974Y820644D01*
X1367362Y821282D01*
X1367754Y821706D01*
X1368150Y821970D01*
X1368598Y822129D01*
X1369008Y822172D01*
X1377528D01*
Y843528D01*
D02*
G37*
G36*
X1603678Y844278D02*
X1585122D01*
Y825722D01*
X1590410D01*
X1590469Y825578D01*
X1590550Y825278D01*
X1590619Y824863D01*
X1590645Y824572D01*
Y780956D01*
X1559356Y749666D01*
X1559281Y749602D01*
X1558759Y749260D01*
X1558115Y748938D01*
X1557345Y748645D01*
X1556449Y748389D01*
X1555427Y748174D01*
X1554303Y748010D01*
X1551610Y747824D01*
X1550551Y747816D01*
X1550000Y747888D01*
X1546664Y747449D01*
X1543556Y746162D01*
X1540887Y744113D01*
X1538838Y741444D01*
X1537551Y738336D01*
X1537112Y735000D01*
X1537551Y731664D01*
X1538838Y728556D01*
X1540887Y725887D01*
X1543556Y723838D01*
X1546664Y722551D01*
X1550000Y722112D01*
X1553336Y722551D01*
X1556444Y723838D01*
X1559113Y725887D01*
X1561162Y728556D01*
X1562449Y731664D01*
X1562888Y735000D01*
X1562823Y735494D01*
X1562891Y738034D01*
X1563007Y739282D01*
X1563174Y740427D01*
X1563389Y741449D01*
X1563645Y742345D01*
X1563938Y743115D01*
X1564260Y743759D01*
X1564602Y744282D01*
X1564666Y744356D01*
X1597055Y776745D01*
X1597869Y777963D01*
X1598155Y779400D01*
Y824572D01*
X1598181Y824863D01*
X1598250Y825278D01*
X1598331Y825578D01*
X1598390Y825722D01*
X1603678D01*
Y844278D01*
D02*
G37*
G36*
X1860000Y747888D02*
X1856664Y747449D01*
X1853556Y746162D01*
X1850887Y744113D01*
X1848838Y741444D01*
X1847551Y738336D01*
X1847112Y735000D01*
X1847551Y731664D01*
X1848838Y728556D01*
X1850887Y725887D01*
X1853556Y723838D01*
X1856664Y722551D01*
X1860000Y722112D01*
X1863336Y722551D01*
X1866444Y723838D01*
X1869113Y725887D01*
X1871162Y728556D01*
X1872449Y731664D01*
X1872888Y735000D01*
X1872449Y738336D01*
X1871162Y741444D01*
X1869113Y744113D01*
X1866444Y746162D01*
X1863336Y747449D01*
X1860000Y747888D01*
D02*
G37*
G36*
X1810000D02*
X1806664Y747449D01*
X1803556Y746162D01*
X1800887Y744113D01*
X1798838Y741444D01*
X1797551Y738336D01*
X1797112Y735000D01*
X1797551Y731664D01*
X1798838Y728556D01*
X1800887Y725887D01*
X1803556Y723838D01*
X1806664Y722551D01*
X1810000Y722112D01*
X1813336Y722551D01*
X1816444Y723838D01*
X1819113Y725887D01*
X1821162Y728556D01*
X1822449Y731664D01*
X1822888Y735000D01*
X1822449Y738336D01*
X1821162Y741444D01*
X1819113Y744113D01*
X1816444Y746162D01*
X1813336Y747449D01*
X1810000Y747888D01*
D02*
G37*
G36*
X1760000D02*
X1756664Y747449D01*
X1753556Y746162D01*
X1750887Y744113D01*
X1748838Y741444D01*
X1747551Y738336D01*
X1747112Y735000D01*
X1747551Y731664D01*
X1748838Y728556D01*
X1750887Y725887D01*
X1753556Y723838D01*
X1756664Y722551D01*
X1760000Y722112D01*
X1763336Y722551D01*
X1766444Y723838D01*
X1769113Y725887D01*
X1771162Y728556D01*
X1772449Y731664D01*
X1772888Y735000D01*
X1772449Y738336D01*
X1771162Y741444D01*
X1769113Y744113D01*
X1766444Y746162D01*
X1763336Y747449D01*
X1760000Y747888D01*
D02*
G37*
G36*
X1710000D02*
X1706664Y747449D01*
X1703556Y746162D01*
X1700887Y744113D01*
X1698838Y741444D01*
X1697551Y738336D01*
X1697112Y735000D01*
X1697551Y731664D01*
X1698838Y728556D01*
X1700887Y725887D01*
X1703556Y723838D01*
X1706664Y722551D01*
X1710000Y722112D01*
X1713336Y722551D01*
X1716444Y723838D01*
X1719113Y725887D01*
X1721162Y728556D01*
X1722449Y731664D01*
X1722888Y735000D01*
X1722449Y738336D01*
X1721162Y741444D01*
X1719113Y744113D01*
X1716444Y746162D01*
X1713336Y747449D01*
X1710000Y747888D01*
D02*
G37*
G36*
X1660000D02*
X1656664Y747449D01*
X1653556Y746162D01*
X1650887Y744113D01*
X1648838Y741444D01*
X1647551Y738336D01*
X1647112Y735000D01*
X1647551Y731664D01*
X1648838Y728556D01*
X1650887Y725887D01*
X1653556Y723838D01*
X1656664Y722551D01*
X1660000Y722112D01*
X1663336Y722551D01*
X1666444Y723838D01*
X1669113Y725887D01*
X1671162Y728556D01*
X1672449Y731664D01*
X1672888Y735000D01*
X1672449Y738336D01*
X1671162Y741444D01*
X1669113Y744113D01*
X1666444Y746162D01*
X1663336Y747449D01*
X1660000Y747888D01*
D02*
G37*
G36*
X1610000D02*
X1606664Y747449D01*
X1603556Y746162D01*
X1600887Y744113D01*
X1598838Y741444D01*
X1597551Y738336D01*
X1597112Y735000D01*
X1597551Y731664D01*
X1598838Y728556D01*
X1600887Y725887D01*
X1603556Y723838D01*
X1606664Y722551D01*
X1610000Y722112D01*
X1613336Y722551D01*
X1616444Y723838D01*
X1619113Y725887D01*
X1621162Y728556D01*
X1622449Y731664D01*
X1622888Y735000D01*
X1622449Y738336D01*
X1621162Y741444D01*
X1619113Y744113D01*
X1616444Y746162D01*
X1613336Y747449D01*
X1610000Y747888D01*
D02*
G37*
G36*
X1297688Y843048D02*
X1262632D01*
Y821692D01*
X1283403D01*
Y821292D01*
X1283638Y819501D01*
X1284330Y817833D01*
X1285429Y816400D01*
X1291380Y810449D01*
X1292813Y809350D01*
X1294481Y808659D01*
X1296272Y808423D01*
X1315395D01*
X1343849Y779969D01*
X1345281Y778869D01*
X1346950Y778178D01*
X1348740Y777943D01*
X1391595D01*
X1415225Y754313D01*
Y714251D01*
X1415461Y712461D01*
X1416151Y710792D01*
X1417251Y709360D01*
X1424595Y702016D01*
X1424666Y701941D01*
X1425302Y701195D01*
X1425842Y700475D01*
X1426290Y699784D01*
X1426647Y699123D01*
X1426918Y698494D01*
X1427107Y697899D01*
X1427222Y697334D01*
X1427267Y696796D01*
X1427243Y696163D01*
X1427255Y696088D01*
X1427112Y695000D01*
X1427551Y691664D01*
X1428838Y688556D01*
X1430887Y685887D01*
X1433556Y683838D01*
X1436664Y682551D01*
X1440000Y682112D01*
X1443336Y682551D01*
X1446444Y683838D01*
X1449113Y685887D01*
X1451162Y688556D01*
X1452449Y691664D01*
X1452888Y695000D01*
X1452449Y698336D01*
X1451162Y701444D01*
X1449113Y704113D01*
X1446444Y706162D01*
X1443336Y707449D01*
X1441214Y707729D01*
X1441116Y707762D01*
X1440491Y707846D01*
X1439934Y707979D01*
X1439346Y708179D01*
X1438725Y708450D01*
X1438073Y708797D01*
X1437392Y709222D01*
X1436702Y709714D01*
X1435203Y710973D01*
X1429059Y717116D01*
Y726293D01*
X1430262Y726701D01*
X1430887Y725887D01*
X1433556Y723838D01*
X1436664Y722551D01*
X1440000Y722112D01*
X1443336Y722551D01*
X1446444Y723838D01*
X1449113Y725887D01*
X1451162Y728556D01*
X1452449Y731664D01*
X1452888Y735000D01*
X1452449Y738336D01*
X1451162Y741444D01*
X1449113Y744113D01*
X1446444Y746162D01*
X1443336Y747449D01*
X1440000Y747888D01*
X1436664Y747449D01*
X1433556Y746162D01*
X1430887Y744113D01*
X1430262Y743299D01*
X1429059Y743707D01*
Y757178D01*
X1428824Y758968D01*
X1428132Y760637D01*
X1427033Y762069D01*
X1399351Y789751D01*
X1397919Y790851D01*
X1396250Y791542D01*
X1394460Y791777D01*
X1351605D01*
X1323151Y820231D01*
X1321719Y821330D01*
X1320050Y822021D01*
X1318260Y822257D01*
X1299137D01*
X1297688Y823706D01*
Y843048D01*
D02*
G37*
G36*
X1390000Y747888D02*
X1386664Y747449D01*
X1383556Y746162D01*
X1380887Y744113D01*
X1378838Y741444D01*
X1377551Y738336D01*
X1377112Y735000D01*
X1377551Y731664D01*
X1378838Y728556D01*
X1380887Y725887D01*
X1383556Y723838D01*
X1386664Y722551D01*
X1390000Y722112D01*
X1393336Y722551D01*
X1396444Y723838D01*
X1399113Y725887D01*
X1401162Y728556D01*
X1402449Y731664D01*
X1402888Y735000D01*
X1402449Y738336D01*
X1401162Y741444D01*
X1399113Y744113D01*
X1396444Y746162D01*
X1393336Y747449D01*
X1390000Y747888D01*
D02*
G37*
G36*
X1340000D02*
X1336664Y747449D01*
X1333556Y746162D01*
X1330887Y744113D01*
X1328838Y741444D01*
X1327551Y738336D01*
X1327112Y735000D01*
X1327551Y731664D01*
X1328838Y728556D01*
X1330887Y725887D01*
X1333556Y723838D01*
X1336664Y722551D01*
X1340000Y722112D01*
X1343336Y722551D01*
X1346444Y723838D01*
X1349113Y725887D01*
X1351162Y728556D01*
X1352449Y731664D01*
X1352888Y735000D01*
X1352449Y738336D01*
X1351162Y741444D01*
X1349113Y744113D01*
X1346444Y746162D01*
X1343336Y747449D01*
X1340000Y747888D01*
D02*
G37*
G36*
X1290000D02*
X1286664Y747449D01*
X1283556Y746162D01*
X1280887Y744113D01*
X1278838Y741444D01*
X1277551Y738336D01*
X1277112Y735000D01*
X1277551Y731664D01*
X1278838Y728556D01*
X1280887Y725887D01*
X1283556Y723838D01*
X1286664Y722551D01*
X1290000Y722112D01*
X1293336Y722551D01*
X1296444Y723838D01*
X1299113Y725887D01*
X1301162Y728556D01*
X1302449Y731664D01*
X1302888Y735000D01*
X1302449Y738336D01*
X1301162Y741444D01*
X1299113Y744113D01*
X1296444Y746162D01*
X1293336Y747449D01*
X1290000Y747888D01*
D02*
G37*
G36*
X1240000D02*
X1236664Y747449D01*
X1233556Y746162D01*
X1230887Y744113D01*
X1228838Y741444D01*
X1227551Y738336D01*
X1227112Y735000D01*
X1227551Y731664D01*
X1228838Y728556D01*
X1230887Y725887D01*
X1233556Y723838D01*
X1236664Y722551D01*
X1240000Y722112D01*
X1243336Y722551D01*
X1246444Y723838D01*
X1249113Y725887D01*
X1251162Y728556D01*
X1252449Y731664D01*
X1252888Y735000D01*
X1252449Y738336D01*
X1251162Y741444D01*
X1249113Y744113D01*
X1246444Y746162D01*
X1243336Y747449D01*
X1240000Y747888D01*
D02*
G37*
G36*
X1943000Y962827D02*
X1940770Y962383D01*
X1938880Y961120D01*
X1937617Y959230D01*
X1937173Y957000D01*
X1937617Y954770D01*
X1938880Y952880D01*
X1940770Y951617D01*
X1943000Y951173D01*
X1945230Y951617D01*
X1945796Y951995D01*
X1945857Y952013D01*
X1945950Y952061D01*
X1946001Y952082D01*
X1946079Y952106D01*
X1946475Y952189D01*
X1946661Y952214D01*
X1947142Y952245D01*
X1958445D01*
X1966245Y944445D01*
Y822076D01*
X1966531Y820639D01*
X1967345Y819421D01*
X2037245Y749521D01*
Y738987D01*
X2037185Y738614D01*
X2037062Y738156D01*
X2036885Y737681D01*
X2036648Y737187D01*
X2036348Y736674D01*
X2035982Y736142D01*
X2035548Y735594D01*
X2035043Y735031D01*
X2034561Y734548D01*
X2034273Y734327D01*
X2032786Y732389D01*
X2031851Y730132D01*
X2031532Y727710D01*
X2031851Y725288D01*
X2032786Y723031D01*
X2034273Y721093D01*
X2036211Y719606D01*
X2038468Y718671D01*
X2040890Y718352D01*
X2043312Y718671D01*
X2045569Y719606D01*
X2047507Y721093D01*
X2048994Y723031D01*
X2049929Y725288D01*
X2050248Y727710D01*
X2049929Y730132D01*
X2048994Y732389D01*
X2047507Y734327D01*
X2047289Y734494D01*
X2046938Y734866D01*
X2046439Y735452D01*
X2046009Y736021D01*
X2045646Y736571D01*
X2045348Y737100D01*
X2045112Y737607D01*
X2044935Y738092D01*
X2044814Y738556D01*
X2044755Y738928D01*
Y751076D01*
X2044469Y752513D01*
X2043655Y753732D01*
X1973755Y823632D01*
Y946000D01*
X1973469Y947437D01*
X1972655Y948655D01*
X1962655Y958655D01*
X1961437Y959469D01*
X1960000Y959755D01*
X1948549D01*
X1948361Y959783D01*
X1948182Y959823D01*
X1948056Y959864D01*
X1947979Y959897D01*
X1947961Y959908D01*
X1947918Y959971D01*
X1947831Y960057D01*
X1947120Y961120D01*
X1945230Y962383D01*
X1943000Y962827D01*
D02*
G37*
G36*
X1306830Y714138D02*
X1305393Y713852D01*
X1304175Y713038D01*
X1303361Y711820D01*
X1303075Y710383D01*
X1303361Y708946D01*
X1304175Y707728D01*
X1304628Y707275D01*
X1305846Y706461D01*
X1307283Y706175D01*
X1308720Y706461D01*
X1309938Y707275D01*
X1310752Y708493D01*
X1311038Y709930D01*
X1310752Y711367D01*
X1309938Y712585D01*
X1309485Y713038D01*
X1308267Y713852D01*
X1306830Y714138D01*
D02*
G37*
G36*
X1926530Y720482D02*
X1926509Y720478D01*
X1924722D01*
Y718971D01*
X1924607Y718917D01*
X1924250Y718806D01*
X1923773Y718709D01*
X1922651Y718602D01*
X1829200D01*
X1827515Y718267D01*
X1826086Y717313D01*
X1818613Y709840D01*
X1818065Y709453D01*
X1817398Y709080D01*
X1816642Y708748D01*
X1815792Y708461D01*
X1814848Y708223D01*
X1813834Y708041D01*
X1811423Y707829D01*
X1810536Y707818D01*
X1810000Y707888D01*
X1806664Y707449D01*
X1803556Y706162D01*
X1800887Y704113D01*
X1798838Y701444D01*
X1797551Y698336D01*
X1797112Y695000D01*
X1797551Y691664D01*
X1798838Y688556D01*
X1800887Y685887D01*
X1803556Y683838D01*
X1806664Y682551D01*
X1810000Y682112D01*
X1813336Y682551D01*
X1816444Y683838D01*
X1819113Y685887D01*
X1821162Y688556D01*
X1822449Y691664D01*
X1822888Y695000D01*
X1822818Y695536D01*
X1822829Y696447D01*
X1822904Y697675D01*
X1823036Y698809D01*
X1823223Y699847D01*
X1823461Y700792D01*
X1823748Y701641D01*
X1824080Y702398D01*
X1824453Y703065D01*
X1824840Y703614D01*
X1831023Y709797D01*
X1922809D01*
X1923105Y709777D01*
X1923746Y709696D01*
X1924250Y709593D01*
X1924607Y709482D01*
X1924722Y709428D01*
X1924722Y707922D01*
X1924722Y705904D01*
X1924607Y705851D01*
X1924250Y705740D01*
X1923773Y705642D01*
X1922651Y705536D01*
X1872397D01*
X1871948Y705558D01*
X1871212Y705638D01*
X1864734Y706988D01*
X1863893Y707218D01*
X1863336Y707449D01*
X1860000Y707888D01*
X1856664Y707449D01*
X1853556Y706162D01*
X1850887Y704113D01*
X1848838Y701444D01*
X1847551Y698336D01*
X1847112Y695000D01*
X1847551Y691664D01*
X1848838Y688556D01*
X1850887Y685887D01*
X1853556Y683838D01*
X1856664Y682551D01*
X1860000Y682112D01*
X1863336Y682551D01*
X1866444Y683838D01*
X1869113Y685887D01*
X1871162Y688556D01*
X1872449Y691664D01*
X1872565Y692542D01*
X1872579Y692574D01*
X1872807Y693547D01*
X1873071Y694305D01*
X1873380Y694932D01*
X1873724Y695439D01*
X1874102Y695843D01*
X1874522Y696165D01*
X1875002Y696419D01*
X1875565Y696610D01*
X1876211Y696730D01*
X1922809D01*
X1923105Y696711D01*
X1923746Y696629D01*
X1924250Y696526D01*
X1924607Y696415D01*
X1924722Y696362D01*
Y694855D01*
X1926509D01*
X1926530Y694851D01*
X1926552Y694855D01*
X1938278D01*
Y706652D01*
X1938278Y707411D01*
X1938278Y708681D01*
Y720478D01*
X1926552D01*
X1926530Y720482D01*
D02*
G37*
G36*
X1760000Y707888D02*
X1756664Y707449D01*
X1753556Y706162D01*
X1750887Y704113D01*
X1748838Y701444D01*
X1747551Y698336D01*
X1747112Y695000D01*
X1747551Y691664D01*
X1748838Y688556D01*
X1750887Y685887D01*
X1753556Y683838D01*
X1756664Y682551D01*
X1760000Y682112D01*
X1763336Y682551D01*
X1766444Y683838D01*
X1769113Y685887D01*
X1771162Y688556D01*
X1772449Y691664D01*
X1772888Y695000D01*
X1772449Y698336D01*
X1771162Y701444D01*
X1769113Y704113D01*
X1766444Y706162D01*
X1763336Y707449D01*
X1760000Y707888D01*
D02*
G37*
G36*
X1710000D02*
X1706664Y707449D01*
X1703556Y706162D01*
X1700887Y704113D01*
X1698838Y701444D01*
X1697551Y698336D01*
X1697112Y695000D01*
X1697551Y691664D01*
X1698838Y688556D01*
X1700887Y685887D01*
X1703556Y683838D01*
X1706664Y682551D01*
X1710000Y682112D01*
X1713336Y682551D01*
X1716444Y683838D01*
X1719113Y685887D01*
X1721162Y688556D01*
X1722449Y691664D01*
X1722888Y695000D01*
X1722449Y698336D01*
X1721162Y701444D01*
X1719113Y704113D01*
X1716444Y706162D01*
X1713336Y707449D01*
X1710000Y707888D01*
D02*
G37*
G36*
X1660000D02*
X1656664Y707449D01*
X1653556Y706162D01*
X1650887Y704113D01*
X1648838Y701444D01*
X1647551Y698336D01*
X1647112Y695000D01*
X1647551Y691664D01*
X1648838Y688556D01*
X1650887Y685887D01*
X1653556Y683838D01*
X1656664Y682551D01*
X1660000Y682112D01*
X1663336Y682551D01*
X1666444Y683838D01*
X1669113Y685887D01*
X1671162Y688556D01*
X1672449Y691664D01*
X1672888Y695000D01*
X1672449Y698336D01*
X1671162Y701444D01*
X1669113Y704113D01*
X1666444Y706162D01*
X1663336Y707449D01*
X1660000Y707888D01*
D02*
G37*
G36*
X1610000D02*
X1606664Y707449D01*
X1603556Y706162D01*
X1600887Y704113D01*
X1598838Y701444D01*
X1597551Y698336D01*
X1597112Y695000D01*
X1597551Y691664D01*
X1598838Y688556D01*
X1600887Y685887D01*
X1603556Y683838D01*
X1606664Y682551D01*
X1610000Y682112D01*
X1613336Y682551D01*
X1616444Y683838D01*
X1619113Y685887D01*
X1621162Y688556D01*
X1622449Y691664D01*
X1622888Y695000D01*
X1622449Y698336D01*
X1621162Y701444D01*
X1619113Y704113D01*
X1616444Y706162D01*
X1613336Y707449D01*
X1610000Y707888D01*
D02*
G37*
G36*
X1550000D02*
X1546664Y707449D01*
X1543556Y706162D01*
X1540887Y704113D01*
X1538838Y701444D01*
X1537551Y698336D01*
X1537112Y695000D01*
X1537551Y691664D01*
X1538838Y688556D01*
X1540887Y685887D01*
X1543556Y683838D01*
X1546664Y682551D01*
X1550000Y682112D01*
X1553336Y682551D01*
X1556444Y683838D01*
X1559113Y685887D01*
X1561162Y688556D01*
X1562449Y691664D01*
X1562888Y695000D01*
X1562449Y698336D01*
X1561162Y701444D01*
X1559113Y704113D01*
X1556444Y706162D01*
X1553336Y707449D01*
X1550000Y707888D01*
D02*
G37*
G36*
X1390000D02*
X1386664Y707449D01*
X1383556Y706162D01*
X1380887Y704113D01*
X1378838Y701444D01*
X1377551Y698336D01*
X1377112Y695000D01*
X1377551Y691664D01*
X1378838Y688556D01*
X1380887Y685887D01*
X1383556Y683838D01*
X1386664Y682551D01*
X1390000Y682112D01*
X1393336Y682551D01*
X1396444Y683838D01*
X1399113Y685887D01*
X1401162Y688556D01*
X1402449Y691664D01*
X1402888Y695000D01*
X1402449Y698336D01*
X1401162Y701444D01*
X1399113Y704113D01*
X1396444Y706162D01*
X1393336Y707449D01*
X1390000Y707888D01*
D02*
G37*
G36*
X1340000D02*
X1336664Y707449D01*
X1333556Y706162D01*
X1330887Y704113D01*
X1328838Y701444D01*
X1327551Y698336D01*
X1327112Y695000D01*
X1327551Y691664D01*
X1328838Y688556D01*
X1330887Y685887D01*
X1333556Y683838D01*
X1336664Y682551D01*
X1340000Y682112D01*
X1343336Y682551D01*
X1346444Y683838D01*
X1349113Y685887D01*
X1351162Y688556D01*
X1352449Y691664D01*
X1352888Y695000D01*
X1352449Y698336D01*
X1351162Y701444D01*
X1349113Y704113D01*
X1346444Y706162D01*
X1343336Y707449D01*
X1340000Y707888D01*
D02*
G37*
G36*
X1290000D02*
X1286664Y707449D01*
X1283556Y706162D01*
X1280887Y704113D01*
X1278838Y701444D01*
X1277551Y698336D01*
X1277112Y695000D01*
X1277551Y691664D01*
X1278838Y688556D01*
X1280887Y685887D01*
X1283556Y683838D01*
X1286664Y682551D01*
X1290000Y682112D01*
X1293336Y682551D01*
X1296444Y683838D01*
X1299113Y685887D01*
X1301162Y688556D01*
X1302449Y691664D01*
X1302888Y695000D01*
X1302449Y698336D01*
X1301162Y701444D01*
X1299113Y704113D01*
X1296444Y706162D01*
X1293336Y707449D01*
X1290000Y707888D01*
D02*
G37*
G36*
X1240000D02*
X1236664Y707449D01*
X1233556Y706162D01*
X1230887Y704113D01*
X1228838Y701444D01*
X1227551Y698336D01*
X1227112Y695000D01*
X1227551Y691664D01*
X1228838Y688556D01*
X1230887Y685887D01*
X1233556Y683838D01*
X1236664Y682551D01*
X1240000Y682112D01*
X1243336Y682551D01*
X1246444Y683838D01*
X1249113Y685887D01*
X1251162Y688556D01*
X1252449Y691664D01*
X1252888Y695000D01*
X1252449Y698336D01*
X1251162Y701444D01*
X1249113Y704113D01*
X1246444Y706162D01*
X1243336Y707449D01*
X1240000Y707888D01*
D02*
G37*
G36*
X1390000Y667888D02*
X1386664Y667449D01*
X1383556Y666162D01*
X1380887Y664113D01*
X1378838Y661444D01*
X1377551Y658336D01*
X1377112Y655000D01*
X1377551Y651664D01*
X1378838Y648556D01*
X1380887Y645887D01*
X1383556Y643838D01*
X1386664Y642551D01*
X1390000Y642112D01*
X1393336Y642551D01*
X1396444Y643838D01*
X1399113Y645887D01*
X1401162Y648556D01*
X1402449Y651664D01*
X1402888Y655000D01*
X1402449Y658336D01*
X1401162Y661444D01*
X1399113Y664113D01*
X1396444Y666162D01*
X1393336Y667449D01*
X1390000Y667888D01*
D02*
G37*
G36*
X1340000D02*
X1336664Y667449D01*
X1333556Y666162D01*
X1330887Y664113D01*
X1328838Y661444D01*
X1327551Y658336D01*
X1327112Y655000D01*
X1327551Y651664D01*
X1328838Y648556D01*
X1330887Y645887D01*
X1333556Y643838D01*
X1336664Y642551D01*
X1340000Y642112D01*
X1343336Y642551D01*
X1346444Y643838D01*
X1349113Y645887D01*
X1351162Y648556D01*
X1352449Y651664D01*
X1352888Y655000D01*
X1352449Y658336D01*
X1351162Y661444D01*
X1349113Y664113D01*
X1346444Y666162D01*
X1343336Y667449D01*
X1340000Y667888D01*
D02*
G37*
%LPD*%
G36*
X1417281Y1366393D02*
X1416873Y1366384D01*
X1416480Y1366349D01*
X1416104Y1366288D01*
X1415743Y1366201D01*
X1415398Y1366087D01*
X1415069Y1365947D01*
X1414756Y1365781D01*
X1414459Y1365589D01*
X1414178Y1365371D01*
X1413913Y1365127D01*
X1412117Y1366923D01*
X1412361Y1367188D01*
X1412579Y1367469D01*
X1412771Y1367767D01*
X1412937Y1368080D01*
X1413077Y1368408D01*
X1413190Y1368753D01*
X1413278Y1369114D01*
X1413339Y1369490D01*
X1413374Y1369883D01*
X1413383Y1370291D01*
X1417281Y1366393D01*
D02*
G37*
G36*
X1378601Y1322869D02*
X1378650Y1322515D01*
X1378732Y1322175D01*
X1378846Y1321851D01*
X1378993Y1321541D01*
X1379172Y1321245D01*
X1379384Y1320964D01*
X1379629Y1320698D01*
X1379906Y1320446D01*
X1380216Y1320209D01*
X1374777Y1319320D01*
X1375018Y1319666D01*
X1375423Y1320359D01*
X1375588Y1320706D01*
X1375728Y1321053D01*
X1375842Y1321401D01*
X1375931Y1321750D01*
X1375994Y1322098D01*
X1376032Y1322448D01*
X1376045Y1322798D01*
X1378585Y1323238D01*
X1378601Y1322869D01*
D02*
G37*
G36*
X1466754Y1337134D02*
X1466371Y1337192D01*
X1466000Y1337216D01*
X1465641Y1337206D01*
X1465294Y1337161D01*
X1464960Y1337083D01*
X1464638Y1336970D01*
X1464328Y1336823D01*
X1464030Y1336642D01*
X1463745Y1336426D01*
X1463472Y1336176D01*
X1462024Y1338320D01*
X1462262Y1338575D01*
X1462482Y1338848D01*
X1462685Y1339139D01*
X1462871Y1339447D01*
X1463039Y1339773D01*
X1463190Y1340117D01*
X1463323Y1340478D01*
X1463440Y1340857D01*
X1463539Y1341254D01*
X1463620Y1341668D01*
X1466754Y1337134D01*
D02*
G37*
G36*
X1442196Y1314900D02*
X1441862Y1314513D01*
X1441553Y1314044D01*
X1441268Y1313495D01*
X1441009Y1312863D01*
X1440774Y1312151D01*
X1440565Y1311357D01*
X1440219Y1309525D01*
X1440084Y1308487D01*
X1439973Y1307368D01*
X1433282Y1315459D01*
X1434313Y1315373D01*
X1436174Y1315352D01*
X1437003Y1315417D01*
X1437766Y1315533D01*
X1438462Y1315699D01*
X1439090Y1315915D01*
X1439651Y1316183D01*
X1440145Y1316500D01*
X1440572Y1316868D01*
X1442196Y1314900D01*
D02*
G37*
G36*
X1913474Y1337379D02*
X1913221Y1337076D01*
X1912998Y1336767D01*
X1912805Y1336450D01*
X1912641Y1336126D01*
X1912508Y1335795D01*
X1912404Y1335456D01*
X1912329Y1335110D01*
X1912285Y1334757D01*
X1912270Y1334396D01*
X1909730D01*
X1909715Y1334757D01*
X1909671Y1335110D01*
X1909596Y1335456D01*
X1909492Y1335795D01*
X1909359Y1336126D01*
X1909195Y1336450D01*
X1909002Y1336767D01*
X1908779Y1337076D01*
X1908526Y1337379D01*
X1908244Y1337673D01*
X1913756D01*
X1913474Y1337379D01*
D02*
G37*
G36*
X1899474D02*
X1899221Y1337076D01*
X1898998Y1336767D01*
X1898805Y1336450D01*
X1898642Y1336126D01*
X1898508Y1335795D01*
X1898404Y1335456D01*
X1898329Y1335110D01*
X1898285Y1334757D01*
X1898270Y1334396D01*
X1895730D01*
X1895715Y1334757D01*
X1895671Y1335110D01*
X1895596Y1335456D01*
X1895492Y1335795D01*
X1895358Y1336126D01*
X1895195Y1336450D01*
X1895002Y1336767D01*
X1894779Y1337076D01*
X1894526Y1337379D01*
X1894244Y1337673D01*
X1899756D01*
X1899474Y1337379D01*
D02*
G37*
G36*
X1898286Y1329206D02*
X1898333Y1328854D01*
X1898412Y1328541D01*
X1898522Y1328266D01*
X1898664Y1328028D01*
X1898838Y1327829D01*
X1899043Y1327667D01*
X1899279Y1327543D01*
X1899547Y1327458D01*
X1899847Y1327410D01*
X1895644Y1324333D01*
X1895660Y1324431D01*
X1895675Y1324566D01*
X1895708Y1325202D01*
X1895730Y1327021D01*
X1898270Y1329595D01*
X1898286Y1329206D01*
D02*
G37*
G36*
X1912285Y1326728D02*
X1912329Y1326375D01*
X1912404Y1326029D01*
X1912508Y1325690D01*
X1912641Y1325359D01*
X1912805Y1325035D01*
X1912998Y1324718D01*
X1913221Y1324409D01*
X1913474Y1324106D01*
X1913756Y1323812D01*
X1908244D01*
X1908526Y1324106D01*
X1908779Y1324409D01*
X1909002Y1324718D01*
X1909195Y1325035D01*
X1909359Y1325359D01*
X1909492Y1325690D01*
X1909596Y1326029D01*
X1909671Y1326375D01*
X1909715Y1326728D01*
X1909730Y1327089D01*
X1912270D01*
X1912285Y1326728D01*
D02*
G37*
G36*
X1662474Y1390894D02*
X1662221Y1390591D01*
X1661998Y1390282D01*
X1661805Y1389965D01*
X1661642Y1389641D01*
X1661508Y1389310D01*
X1661404Y1388971D01*
X1661329Y1388625D01*
X1661285Y1388272D01*
X1661270Y1387911D01*
X1658730D01*
X1658715Y1388272D01*
X1658671Y1388625D01*
X1658596Y1388971D01*
X1658492Y1389310D01*
X1658358Y1389641D01*
X1658195Y1389965D01*
X1658002Y1390282D01*
X1657779Y1390591D01*
X1657526Y1390894D01*
X1657244Y1391188D01*
X1662756D01*
X1662474Y1390894D01*
D02*
G37*
G36*
X1770553Y1328000D02*
X1770837Y1327784D01*
X1771135Y1327601D01*
X1771446Y1327450D01*
X1771770Y1327332D01*
X1772108Y1327247D01*
X1772458Y1327194D01*
X1772822Y1327173D01*
X1773198Y1327186D01*
X1773588Y1327231D01*
X1770288Y1322816D01*
X1770222Y1323231D01*
X1770136Y1323629D01*
X1770031Y1324008D01*
X1769907Y1324371D01*
X1769764Y1324716D01*
X1769601Y1325043D01*
X1769420Y1325353D01*
X1769219Y1325646D01*
X1768999Y1325921D01*
X1768760Y1326178D01*
X1770281Y1328249D01*
X1770553Y1328000D01*
D02*
G37*
G36*
X1687527Y1323650D02*
X1688790Y1321760D01*
X1690680Y1320497D01*
X1692910Y1320053D01*
X1693761Y1320222D01*
X1694387Y1319052D01*
X1688172Y1312838D01*
X1687499Y1311829D01*
X1687262Y1310640D01*
Y1268747D01*
X1686389Y1267874D01*
X1685634Y1268246D01*
X1685253Y1268534D01*
X1684939Y1270922D01*
X1684004Y1273179D01*
X1682517Y1275117D01*
X1680579Y1276604D01*
X1678322Y1277539D01*
X1675900Y1277858D01*
X1673478Y1277539D01*
X1671221Y1276604D01*
X1669283Y1275117D01*
X1667796Y1273179D01*
X1666861Y1270922D01*
X1666542Y1268500D01*
X1666861Y1266078D01*
X1667796Y1263821D01*
X1669283Y1261883D01*
X1671221Y1260396D01*
X1673478Y1259461D01*
X1675865Y1259146D01*
X1676154Y1258766D01*
X1676526Y1258011D01*
X1673843Y1255328D01*
X1666240D01*
X1665538Y1255188D01*
X1664268Y1255979D01*
Y1300463D01*
X1667168Y1303362D01*
X1667841Y1304371D01*
X1668078Y1305560D01*
Y1324593D01*
X1668797Y1325312D01*
X1687196D01*
X1687527Y1323650D01*
D02*
G37*
G36*
X1651037Y1251429D02*
X1651744Y1251040D01*
X1652097Y1250882D01*
X1652448Y1250749D01*
X1652798Y1250639D01*
X1653148Y1250555D01*
X1653497Y1250494D01*
X1653845Y1250457D01*
X1654192Y1250445D01*
X1654727Y1247905D01*
X1654357Y1247889D01*
X1654003Y1247839D01*
X1653665Y1247757D01*
X1653343Y1247641D01*
X1653038Y1247492D01*
X1652749Y1247310D01*
X1652476Y1247096D01*
X1652219Y1246848D01*
X1651978Y1246567D01*
X1651754Y1246253D01*
X1650682Y1251660D01*
X1651037Y1251429D01*
D02*
G37*
G36*
X1647313Y1239117D02*
X1647069Y1238852D01*
X1646851Y1238571D01*
X1646659Y1238273D01*
X1646493Y1237961D01*
X1646353Y1237632D01*
X1646239Y1237287D01*
X1646152Y1236926D01*
X1646091Y1236550D01*
X1646056Y1236158D01*
X1646047Y1235749D01*
X1642149Y1239647D01*
X1642558Y1239656D01*
X1642950Y1239691D01*
X1643326Y1239752D01*
X1643687Y1239839D01*
X1644032Y1239953D01*
X1644361Y1240093D01*
X1644673Y1240259D01*
X1644971Y1240451D01*
X1645252Y1240669D01*
X1645517Y1240913D01*
X1647313Y1239117D01*
D02*
G37*
G36*
X1297983Y1248854D02*
X1298475Y1248524D01*
X1299041Y1248232D01*
X1299680Y1247980D01*
X1300394Y1247766D01*
X1301182Y1247591D01*
X1302043Y1247455D01*
X1302979Y1247358D01*
X1305072Y1247280D01*
Y1237120D01*
X1303988Y1237101D01*
X1302043Y1236945D01*
X1301182Y1236809D01*
X1300394Y1236634D01*
X1299680Y1236421D01*
X1299041Y1236168D01*
X1298475Y1235876D01*
X1297983Y1235546D01*
X1297565Y1235177D01*
Y1249223D01*
X1297983Y1248854D01*
D02*
G37*
G36*
X1648188Y1208824D02*
X1648125Y1208865D01*
X1648018Y1208902D01*
X1647869Y1208934D01*
X1647677Y1208962D01*
X1647166Y1209006D01*
X1646078Y1209038D01*
X1645630Y1209040D01*
Y1214120D01*
X1646078Y1214122D01*
X1647869Y1214226D01*
X1648018Y1214258D01*
X1648125Y1214295D01*
X1648188Y1214336D01*
Y1208824D01*
D02*
G37*
G36*
X1774151Y1210183D02*
X1774077Y1210167D01*
X1773975Y1210118D01*
X1773847Y1210035D01*
X1773692Y1209920D01*
X1773299Y1209588D01*
X1772507Y1208842D01*
X1772189Y1208527D01*
X1768597Y1212119D01*
X1768912Y1212437D01*
X1770105Y1213777D01*
X1770188Y1213905D01*
X1770237Y1214007D01*
X1770253Y1214081D01*
X1774151Y1210183D01*
D02*
G37*
G36*
X1494106Y1190474D02*
X1494409Y1190221D01*
X1494718Y1189998D01*
X1495035Y1189805D01*
X1495359Y1189641D01*
X1495690Y1189508D01*
X1496029Y1189404D01*
X1496375Y1189329D01*
X1496728Y1189285D01*
X1497089Y1189270D01*
Y1186730D01*
X1496728Y1186715D01*
X1496375Y1186671D01*
X1496029Y1186596D01*
X1495690Y1186492D01*
X1495359Y1186358D01*
X1495035Y1186195D01*
X1494718Y1186002D01*
X1494409Y1185779D01*
X1494106Y1185526D01*
X1493812Y1185244D01*
Y1190756D01*
X1494106Y1190474D01*
D02*
G37*
G36*
X1531622Y1097122D02*
X1531726Y1095331D01*
X1531758Y1095182D01*
X1531795Y1095075D01*
X1531836Y1095012D01*
X1526324D01*
X1526365Y1095075D01*
X1526402Y1095182D01*
X1526434Y1095331D01*
X1526462Y1095523D01*
X1526505Y1096034D01*
X1526538Y1097122D01*
X1526540Y1097570D01*
X1531620D01*
X1531622Y1097122D01*
D02*
G37*
G36*
X1541782Y1086962D02*
X1541886Y1085171D01*
X1541918Y1085022D01*
X1541955Y1084915D01*
X1541996Y1084852D01*
X1536484D01*
X1536525Y1084915D01*
X1536562Y1085022D01*
X1536594Y1085171D01*
X1536622Y1085362D01*
X1536665Y1085874D01*
X1536698Y1086962D01*
X1536700Y1087410D01*
X1541780D01*
X1541782Y1086962D01*
D02*
G37*
G36*
X1487274Y1075954D02*
X1486652Y1075726D01*
X1486103Y1075345D01*
X1485627Y1074811D01*
X1485225Y1074126D01*
X1484895Y1073287D01*
X1484639Y1072297D01*
X1484456Y1071154D01*
X1484347Y1069858D01*
X1484310Y1068410D01*
X1476690D01*
X1476653Y1069858D01*
X1476544Y1071154D01*
X1476361Y1072297D01*
X1476104Y1073287D01*
X1475775Y1074126D01*
X1475373Y1074811D01*
X1474897Y1075345D01*
X1474348Y1075726D01*
X1473726Y1075954D01*
X1473031Y1076031D01*
X1487970D01*
X1487274Y1075954D01*
D02*
G37*
G36*
X1619674Y1043530D02*
X1617561Y1041345D01*
X1614263Y1037475D01*
X1613078Y1035789D01*
X1612202Y1034269D01*
X1611635Y1032915D01*
X1611377Y1031728D01*
X1611429Y1030706D01*
X1611789Y1029851D01*
X1612459Y1029161D01*
X1597551Y1040129D01*
X1598486Y1040237D01*
X1599549Y1040561D01*
X1600741Y1041099D01*
X1602062Y1041854D01*
X1603511Y1042824D01*
X1605088Y1044009D01*
X1608628Y1047026D01*
X1612682Y1050906D01*
X1619674Y1043530D01*
D02*
G37*
G36*
X1484673Y1018839D02*
X1488681Y1015415D01*
X1489412Y1014952D01*
X1490034Y1014646D01*
X1490548Y1014497D01*
X1490954Y1014504D01*
X1491252Y1014669D01*
X1483431Y1006848D01*
X1483596Y1007146D01*
X1483604Y1007552D01*
X1483454Y1008066D01*
X1483148Y1008688D01*
X1482684Y1009419D01*
X1482064Y1010259D01*
X1480352Y1012262D01*
X1478012Y1014699D01*
X1483401Y1020088D01*
X1484673Y1018839D01*
D02*
G37*
G36*
X1612060Y1012089D02*
X1611676Y1011784D01*
X1611337Y1011276D01*
X1611043Y1010565D01*
X1610795Y1009650D01*
X1610591Y1008533D01*
X1610433Y1007212D01*
X1610253Y1003961D01*
X1610230Y1002030D01*
X1605872D01*
X1606332Y1001364D01*
X1610230Y1001448D01*
X1610235Y1000552D01*
X1610459Y996962D01*
X1610530Y996661D01*
X1610609Y996445D01*
X1610698Y996313D01*
X1603880Y996201D01*
X1598608Y994781D01*
X1598657Y994946D01*
X1598632Y995163D01*
X1598531Y995432D01*
X1598356Y995754D01*
X1598105Y996128D01*
X1597780Y996554D01*
X1596905Y997564D01*
X1595731Y998784D01*
X1600067Y1002272D01*
X1600045Y1003961D01*
X1599667Y1008533D01*
X1599440Y1009650D01*
X1599163Y1010565D01*
X1598835Y1011276D01*
X1598457Y1011784D01*
X1598029Y1012089D01*
X1597551Y1012190D01*
X1612489D01*
X1612060Y1012089D01*
D02*
G37*
G36*
X1529041Y985393D02*
X1528967Y985377D01*
X1528865Y985328D01*
X1528737Y985245D01*
X1528582Y985130D01*
X1528189Y984798D01*
X1527397Y984052D01*
X1527079Y983737D01*
X1523487Y987329D01*
X1523802Y987647D01*
X1524995Y988987D01*
X1525078Y989115D01*
X1525127Y989217D01*
X1525143Y989291D01*
X1529041Y985393D01*
D02*
G37*
G36*
X1608674Y986710D02*
X1608495Y986234D01*
X1608337Y985580D01*
X1608237Y984977D01*
X1610792D01*
X1610227Y984387D01*
X1609722Y983783D01*
X1609276Y983164D01*
X1608890Y982530D01*
X1608563Y981882D01*
X1608295Y981219D01*
X1608087Y980542D01*
X1607939Y979850D01*
X1607880Y979385D01*
X1607831Y977935D01*
X1607820Y976041D01*
X1602740D01*
X1602729Y977935D01*
X1602594Y979974D01*
X1602473Y980542D01*
X1602265Y981219D01*
X1601997Y981882D01*
X1601670Y982530D01*
X1601284Y983164D01*
X1600838Y983783D01*
X1600333Y984387D01*
X1599768Y984977D01*
X1602263D01*
X1602223Y985580D01*
X1602065Y986234D01*
X1601886Y986710D01*
X1601686Y987010D01*
X1608874D01*
X1608674Y986710D01*
D02*
G37*
G36*
X1537468Y974385D02*
X1533151Y974090D01*
Y979170D01*
X1533596Y979174D01*
X1534952Y979278D01*
X1535184Y979325D01*
X1535374Y979381D01*
X1535522Y979446D01*
X1535627Y979520D01*
X1535690Y979602D01*
X1537468Y974385D01*
D02*
G37*
G36*
X1375863Y892757D02*
X1376294Y891324D01*
X1377013Y889722D01*
X1378018Y887951D01*
X1379312Y886010D01*
X1380892Y883899D01*
X1384915Y879169D01*
X1390088Y873761D01*
X1373199Y861912D01*
X1369387Y865581D01*
X1362388Y871433D01*
X1359201Y873616D01*
X1356223Y875304D01*
X1353454Y876496D01*
X1350893Y877193D01*
X1348541Y877394D01*
X1346398Y877100D01*
X1344463Y876311D01*
X1375719Y894019D01*
X1375863Y892757D01*
D02*
G37*
G36*
X1951064Y709730D02*
X1953470D01*
X1953008Y709679D01*
X1952595Y709527D01*
X1952231Y709273D01*
X1951915Y708917D01*
X1951647Y708460D01*
X1951429Y707901D01*
X1951368Y707666D01*
X1951429Y707431D01*
X1951647Y706873D01*
X1951915Y706415D01*
X1952231Y706060D01*
X1952595Y705806D01*
X1953008Y705653D01*
X1953470Y705603D01*
X1951064D01*
X1951040Y704650D01*
X1945960D01*
X1945936Y705603D01*
X1943530D01*
X1943992Y705653D01*
X1944405Y705806D01*
X1944769Y706060D01*
X1945085Y706415D01*
X1945353Y706873D01*
X1945571Y707431D01*
X1945632Y707666D01*
X1945571Y707901D01*
X1945353Y708460D01*
X1945085Y708917D01*
X1944769Y709273D01*
X1944405Y709527D01*
X1943992Y709679D01*
X1943530Y709730D01*
X1945936D01*
X1945960Y710683D01*
X1951040D01*
X1951064Y709730D01*
D02*
G37*
G36*
X1504031Y705439D02*
X1503442Y704777D01*
X1502917Y704033D01*
X1502455Y703206D01*
X1502056Y702296D01*
X1501721Y701305D01*
X1501450Y700231D01*
X1501242Y699074D01*
X1501098Y697835D01*
X1501017Y696514D01*
X1500999Y695110D01*
X1490110Y706000D01*
X1491514Y706017D01*
X1494074Y706242D01*
X1495231Y706450D01*
X1496305Y706721D01*
X1497296Y707056D01*
X1498206Y707455D01*
X1499032Y707916D01*
X1499777Y708442D01*
X1500439Y709031D01*
X1504031Y705439D01*
D02*
G37*
G36*
X1953008Y696613D02*
X1952595Y696460D01*
X1952231Y696206D01*
X1951915Y695851D01*
X1951647Y695394D01*
X1951429Y694835D01*
X1951259Y694174D01*
X1951137Y693412D01*
X1951064Y692549D01*
X1951040Y691583D01*
X1945960D01*
X1945936Y692549D01*
X1945863Y693412D01*
X1945741Y694174D01*
X1945571Y694835D01*
X1945353Y695394D01*
X1945085Y695851D01*
X1944769Y696206D01*
X1944405Y696460D01*
X1943992Y696613D01*
X1943530Y696664D01*
X1953470D01*
X1953008Y696613D01*
D02*
G37*
G36*
X1504031Y665439D02*
X1503442Y664777D01*
X1502917Y664033D01*
X1502455Y663206D01*
X1502056Y662296D01*
X1501721Y661305D01*
X1501450Y660231D01*
X1501242Y659074D01*
X1501098Y657835D01*
X1501017Y656514D01*
X1500999Y655110D01*
X1490110Y666000D01*
X1491514Y666017D01*
X1494074Y666242D01*
X1495231Y666450D01*
X1496305Y666721D01*
X1497296Y667056D01*
X1498206Y667455D01*
X1499032Y667916D01*
X1499777Y668442D01*
X1500439Y669031D01*
X1504031Y665439D01*
D02*
G37*
G36*
X1886154Y1328597D02*
X1886199Y1328244D01*
X1886273Y1327898D01*
X1886377Y1327560D01*
X1886511Y1327228D01*
X1886674Y1326904D01*
X1886867Y1326587D01*
X1887090Y1326278D01*
X1887343Y1325976D01*
X1887625Y1325681D01*
X1882113D01*
X1882395Y1325976D01*
X1882648Y1326278D01*
X1882871Y1326587D01*
X1883064Y1326904D01*
X1883228Y1327228D01*
X1883361Y1327560D01*
X1883465Y1327898D01*
X1883540Y1328244D01*
X1883584Y1328597D01*
X1883599Y1328958D01*
X1886139D01*
X1886154Y1328597D01*
D02*
G37*
G36*
X1859214Y1337379D02*
X1858961Y1337076D01*
X1858738Y1336767D01*
X1858545Y1336450D01*
X1858382Y1336126D01*
X1858248Y1335795D01*
X1858144Y1335456D01*
X1858069Y1335110D01*
X1858025Y1334757D01*
X1858010Y1334396D01*
X1855470D01*
X1855455Y1334757D01*
X1855411Y1335110D01*
X1855336Y1335456D01*
X1855232Y1335795D01*
X1855099Y1336126D01*
X1854935Y1336450D01*
X1854742Y1336767D01*
X1854519Y1337076D01*
X1854266Y1337379D01*
X1853984Y1337673D01*
X1859496D01*
X1859214Y1337379D01*
D02*
G37*
G36*
X1858025Y1327743D02*
X1858069Y1327390D01*
X1858144Y1327044D01*
X1858248Y1326705D01*
X1858382Y1326374D01*
X1858545Y1326050D01*
X1858738Y1325733D01*
X1858961Y1325424D01*
X1859214Y1325121D01*
X1859496Y1324827D01*
X1853984D01*
X1854266Y1325121D01*
X1854519Y1325424D01*
X1854742Y1325733D01*
X1854935Y1326050D01*
X1855099Y1326374D01*
X1855232Y1326705D01*
X1855336Y1327044D01*
X1855411Y1327390D01*
X1855455Y1327743D01*
X1855470Y1328104D01*
X1858010D01*
X1858025Y1327743D01*
D02*
G37*
G36*
X1872474Y1337379D02*
X1872221Y1337076D01*
X1871998Y1336767D01*
X1871805Y1336450D01*
X1871642Y1336126D01*
X1871508Y1335795D01*
X1871404Y1335456D01*
X1871329Y1335110D01*
X1871285Y1334757D01*
X1871270Y1334396D01*
X1868730D01*
X1868715Y1334757D01*
X1868671Y1335110D01*
X1868596Y1335456D01*
X1868492Y1335795D01*
X1868358Y1336126D01*
X1868195Y1336450D01*
X1868002Y1336767D01*
X1867779Y1337076D01*
X1867526Y1337379D01*
X1867244Y1337673D01*
X1872756D01*
X1872474Y1337379D01*
D02*
G37*
G36*
X1871285Y1327728D02*
X1871329Y1327375D01*
X1871404Y1327029D01*
X1871508Y1326691D01*
X1871642Y1326359D01*
X1871805Y1326035D01*
X1871998Y1325718D01*
X1872221Y1325409D01*
X1872474Y1325107D01*
X1872756Y1324812D01*
X1867244D01*
X1867526Y1325107D01*
X1867779Y1325409D01*
X1868002Y1325718D01*
X1868195Y1326035D01*
X1868358Y1326359D01*
X1868492Y1326691D01*
X1868596Y1327029D01*
X1868671Y1327375D01*
X1868715Y1327728D01*
X1868730Y1328089D01*
X1871270D01*
X1871285Y1327728D01*
D02*
G37*
G36*
X1605388Y1324036D02*
X1605388Y1323904D01*
X1605441Y1323735D01*
X1605545Y1323529D01*
X1605702Y1323288D01*
X1605911Y1323009D01*
X1606484Y1322343D01*
X1607266Y1321530D01*
X1605470Y1319734D01*
X1605045Y1320151D01*
X1603712Y1321298D01*
X1603471Y1321455D01*
X1603265Y1321559D01*
X1603096Y1321612D01*
X1602964Y1321612D01*
X1602868Y1321561D01*
X1605439Y1324131D01*
X1605388Y1324036D01*
D02*
G37*
G36*
X1612640Y1318305D02*
X1612285Y1318430D01*
X1611226Y1318724D01*
X1610875Y1318796D01*
X1610176Y1318901D01*
X1609828Y1318934D01*
X1609136Y1318960D01*
X1607733Y1321500D01*
X1608113Y1321517D01*
X1608465Y1321568D01*
X1608789Y1321653D01*
X1609083Y1321772D01*
X1609349Y1321924D01*
X1609587Y1322111D01*
X1609795Y1322332D01*
X1609975Y1322587D01*
X1610127Y1322875D01*
X1610250Y1323198D01*
X1612640Y1318305D01*
D02*
G37*
G36*
X1251686Y1230795D02*
X1251338Y1231033D01*
X1250641Y1231435D01*
X1250293Y1231598D01*
X1249944Y1231736D01*
X1249596Y1231849D01*
X1249247Y1231937D01*
X1248898Y1232000D01*
X1248549Y1232037D01*
X1248200Y1232050D01*
X1247736Y1234590D01*
X1248105Y1234606D01*
X1248459Y1234655D01*
X1248798Y1234737D01*
X1249121Y1234852D01*
X1249430Y1234999D01*
X1249724Y1235179D01*
X1250003Y1235392D01*
X1250267Y1235637D01*
X1250516Y1235916D01*
X1250750Y1236227D01*
X1251686Y1230795D01*
D02*
G37*
G36*
X1202000Y1235606D02*
X1202696Y1235204D01*
X1203045Y1235041D01*
X1203393Y1234903D01*
X1203742Y1234790D01*
X1204091Y1234703D01*
X1204440Y1234640D01*
X1204789Y1234602D01*
X1205138Y1234590D01*
X1205602Y1232050D01*
X1205233Y1232033D01*
X1204879Y1231984D01*
X1204540Y1231902D01*
X1204216Y1231788D01*
X1203907Y1231640D01*
X1203613Y1231460D01*
X1203334Y1231247D01*
X1203071Y1231002D01*
X1202822Y1230724D01*
X1202588Y1230413D01*
X1201652Y1235844D01*
X1202000Y1235606D01*
D02*
G37*
G36*
X1575690Y1540324D02*
X1575908Y1540216D01*
X1576188Y1540121D01*
X1576530Y1540039D01*
X1576935Y1539969D01*
X1577930Y1539867D01*
X1579175Y1539816D01*
X1579890Y1539810D01*
Y1532190D01*
X1579175Y1532184D01*
X1576935Y1532031D01*
X1576530Y1531961D01*
X1576188Y1531879D01*
X1575908Y1531784D01*
X1575690Y1531676D01*
X1575535Y1531555D01*
Y1540445D01*
X1575690Y1540324D01*
D02*
G37*
G36*
X1566465Y1531555D02*
X1566310Y1531676D01*
X1566092Y1531784D01*
X1565812Y1531879D01*
X1565470Y1531961D01*
X1565065Y1532031D01*
X1564070Y1532133D01*
X1562825Y1532184D01*
X1562110Y1532190D01*
Y1539810D01*
X1562825Y1539816D01*
X1565065Y1539969D01*
X1565470Y1540039D01*
X1565812Y1540121D01*
X1566092Y1540216D01*
X1566310Y1540324D01*
X1566465Y1540445D01*
Y1531555D01*
D02*
G37*
G36*
X1575204Y1531193D02*
X1574988Y1530876D01*
X1574797Y1530513D01*
X1574632Y1530104D01*
X1574492Y1529649D01*
X1574378Y1529149D01*
X1574289Y1528603D01*
X1574226Y1528011D01*
X1574175Y1526691D01*
X1567825D01*
X1567812Y1527374D01*
X1567711Y1528603D01*
X1567622Y1529149D01*
X1567507Y1529649D01*
X1567368Y1530104D01*
X1567203Y1530513D01*
X1567012Y1530876D01*
X1566796Y1531193D01*
X1566555Y1531465D01*
X1575445D01*
X1575204Y1531193D01*
D02*
G37*
G36*
X1393400Y1458597D02*
X1393054Y1458838D01*
X1392361Y1459243D01*
X1392014Y1459408D01*
X1391667Y1459548D01*
X1391319Y1459662D01*
X1390970Y1459751D01*
X1390622Y1459814D01*
X1390272Y1459852D01*
X1389922Y1459865D01*
X1389482Y1462405D01*
X1389851Y1462421D01*
X1390205Y1462470D01*
X1390544Y1462552D01*
X1390869Y1462666D01*
X1391179Y1462813D01*
X1391475Y1462992D01*
X1391756Y1463204D01*
X1392022Y1463449D01*
X1392274Y1463726D01*
X1392511Y1464036D01*
X1393400Y1458597D01*
D02*
G37*
G36*
X1348876Y1463432D02*
X1349569Y1463026D01*
X1349916Y1462862D01*
X1350263Y1462722D01*
X1350611Y1462608D01*
X1350960Y1462519D01*
X1351308Y1462456D01*
X1351658Y1462418D01*
X1352008Y1462405D01*
X1352448Y1459865D01*
X1352079Y1459849D01*
X1351725Y1459800D01*
X1351385Y1459718D01*
X1351061Y1459604D01*
X1350751Y1459457D01*
X1350455Y1459278D01*
X1350174Y1459066D01*
X1349908Y1458821D01*
X1349656Y1458544D01*
X1349419Y1458234D01*
X1348530Y1463673D01*
X1348876Y1463432D01*
D02*
G37*
G36*
X1268691Y1371473D02*
X1268282Y1371464D01*
X1267890Y1371429D01*
X1267514Y1371368D01*
X1267153Y1371281D01*
X1266808Y1371167D01*
X1266479Y1371027D01*
X1266167Y1370861D01*
X1265869Y1370669D01*
X1265588Y1370451D01*
X1265323Y1370207D01*
X1263527Y1372003D01*
X1263771Y1372268D01*
X1263989Y1372549D01*
X1264181Y1372847D01*
X1264347Y1373159D01*
X1264487Y1373488D01*
X1264601Y1373833D01*
X1264688Y1374194D01*
X1264749Y1374570D01*
X1264784Y1374962D01*
X1264793Y1375371D01*
X1268691Y1371473D01*
D02*
G37*
G36*
X1569469Y1364969D02*
X1559975Y1364939D01*
X1560578Y1365005D01*
X1561118Y1365197D01*
X1561594Y1365518D01*
X1562007Y1365965D01*
X1562356Y1366539D01*
X1562642Y1367241D01*
X1562864Y1368070D01*
X1563023Y1369026D01*
X1563118Y1370109D01*
X1563150Y1371319D01*
X1569500D01*
X1569469Y1364969D01*
D02*
G37*
G36*
X1249803Y1354687D02*
X1249559Y1354422D01*
X1249341Y1354141D01*
X1249149Y1353844D01*
X1248983Y1353530D01*
X1248843Y1353202D01*
X1248729Y1352857D01*
X1248642Y1352496D01*
X1248581Y1352120D01*
X1248546Y1351727D01*
X1248537Y1351319D01*
X1244639Y1355217D01*
X1245048Y1355226D01*
X1245440Y1355261D01*
X1245816Y1355322D01*
X1246177Y1355410D01*
X1246522Y1355523D01*
X1246851Y1355663D01*
X1247163Y1355829D01*
X1247461Y1356021D01*
X1247742Y1356239D01*
X1248007Y1356483D01*
X1249803Y1354687D01*
D02*
G37*
G36*
X1566061Y1357010D02*
X1565895Y1356663D01*
X1565748Y1356214D01*
X1565621Y1355665D01*
X1565514Y1355013D01*
X1565421Y1354061D01*
X1566540D01*
X1566299Y1354035D01*
X1566083Y1353958D01*
X1565892Y1353830D01*
X1565727Y1353650D01*
X1565587Y1353418D01*
X1565473Y1353136D01*
X1565384Y1352802D01*
X1565321Y1352416D01*
X1565318Y1352386D01*
X1565280Y1351397D01*
X1565270Y1350240D01*
X1562730D01*
X1562720Y1351397D01*
X1562638Y1352666D01*
X1562616Y1352802D01*
X1562527Y1353136D01*
X1562413Y1353418D01*
X1562273Y1353650D01*
X1562108Y1353830D01*
X1561917Y1353958D01*
X1561701Y1354035D01*
X1561460Y1354061D01*
X1562548D01*
X1562486Y1355013D01*
X1562379Y1355665D01*
X1562251Y1356214D01*
X1562105Y1356663D01*
X1561939Y1357010D01*
X1561754Y1357256D01*
X1566246D01*
X1566061Y1357010D01*
D02*
G37*
G36*
X1585051Y1329763D02*
X1585985Y1328972D01*
X1586398Y1328685D01*
X1586776Y1328470D01*
X1587117Y1328326D01*
X1587422Y1328254D01*
X1587691D01*
X1587925Y1328326D01*
X1588123Y1328470D01*
X1584530Y1324877D01*
X1584674Y1325075D01*
X1584746Y1325308D01*
Y1325578D01*
X1584674Y1325883D01*
X1584530Y1326224D01*
X1584315Y1326602D01*
X1584028Y1327015D01*
X1583668Y1327464D01*
X1582734Y1328470D01*
X1584530Y1330266D01*
X1585051Y1329763D01*
D02*
G37*
G36*
X1223484Y1314225D02*
X1223251Y1313976D01*
X1223030Y1313708D01*
X1222823Y1313423D01*
X1222629Y1313120D01*
X1222448Y1312800D01*
X1222280Y1312461D01*
X1221985Y1311730D01*
X1221857Y1311338D01*
X1221742Y1310927D01*
X1218989Y1315702D01*
X1219356Y1315617D01*
X1219713Y1315569D01*
X1220060Y1315559D01*
X1220396Y1315586D01*
X1220723Y1315650D01*
X1221039Y1315753D01*
X1221345Y1315892D01*
X1221641Y1316069D01*
X1221927Y1316283D01*
X1222202Y1316535D01*
X1223484Y1314225D01*
D02*
G37*
G36*
X998154Y1311344D02*
X997901Y1311041D01*
X997678Y1310732D01*
X997485Y1310415D01*
X997321Y1310091D01*
X997188Y1309760D01*
X997084Y1309421D01*
X997009Y1309075D01*
X996965Y1308722D01*
X996950Y1308361D01*
X994410D01*
X994395Y1308722D01*
X994351Y1309075D01*
X994276Y1309421D01*
X994172Y1309760D01*
X994038Y1310091D01*
X993875Y1310415D01*
X993682Y1310732D01*
X993459Y1311041D01*
X993206Y1311344D01*
X992924Y1311638D01*
X998436D01*
X998154Y1311344D01*
D02*
G37*
G36*
X1125337Y1306262D02*
X1123933Y1304858D01*
X1033780D01*
X1032705Y1304644D01*
X1032633Y1304702D01*
X1032355Y1306090D01*
X1033797Y1307532D01*
X1124811D01*
X1125337Y1306262D01*
D02*
G37*
G36*
X1241291Y1303570D02*
X1240959Y1303563D01*
X1240631Y1303528D01*
X1240309Y1303463D01*
X1239993Y1303370D01*
X1239681Y1303247D01*
X1239375Y1303096D01*
X1239075Y1302915D01*
X1238779Y1302705D01*
X1238489Y1302467D01*
X1238205Y1302199D01*
X1236331Y1303918D01*
X1236593Y1304199D01*
X1236823Y1304484D01*
X1237019Y1304775D01*
X1237184Y1305070D01*
X1237316Y1305371D01*
X1237415Y1305676D01*
X1237482Y1305986D01*
X1237516Y1306301D01*
X1237518Y1306621D01*
X1237487Y1306947D01*
X1241291Y1303570D01*
D02*
G37*
G36*
X1212147Y1305494D02*
X1212449Y1305241D01*
X1212758Y1305018D01*
X1213075Y1304825D01*
X1213399Y1304662D01*
X1213730Y1304528D01*
X1214069Y1304424D01*
X1214415Y1304349D01*
X1214768Y1304305D01*
X1215129Y1304290D01*
Y1301750D01*
X1214768Y1301735D01*
X1214415Y1301691D01*
X1214069Y1301616D01*
X1213730Y1301512D01*
X1213399Y1301378D01*
X1213075Y1301215D01*
X1212758Y1301022D01*
X1212449Y1300799D01*
X1212147Y1300546D01*
X1211852Y1300264D01*
Y1305776D01*
X1212147Y1305494D01*
D02*
G37*
G36*
X996965Y1298588D02*
X997009Y1298235D01*
X997084Y1297889D01*
X997188Y1297551D01*
X997321Y1297219D01*
X997485Y1296895D01*
X997678Y1296578D01*
X997901Y1296269D01*
X998154Y1295966D01*
X998436Y1295672D01*
X992924D01*
X993206Y1295966D01*
X993459Y1296269D01*
X993682Y1296578D01*
X993875Y1296895D01*
X994038Y1297219D01*
X994172Y1297551D01*
X994276Y1297889D01*
X994351Y1298235D01*
X994395Y1298588D01*
X994410Y1298949D01*
X996950D01*
X996965Y1298588D01*
D02*
G37*
G36*
X1238074Y1292549D02*
X1237768Y1292824D01*
X1237456Y1293070D01*
X1237138Y1293287D01*
X1236814Y1293475D01*
X1236485Y1293634D01*
X1236149Y1293764D01*
X1235808Y1293865D01*
X1235461Y1293937D01*
X1235108Y1293981D01*
X1234750Y1293995D01*
X1234658Y1296535D01*
X1235020Y1296550D01*
X1235374Y1296596D01*
X1235719Y1296672D01*
X1236055Y1296779D01*
X1236382Y1296916D01*
X1236700Y1297083D01*
X1237010Y1297281D01*
X1237311Y1297510D01*
X1237602Y1297769D01*
X1237886Y1298058D01*
X1238074Y1292549D01*
D02*
G37*
G36*
X1202490Y1297685D02*
X1202808Y1297443D01*
X1203131Y1297231D01*
X1203459Y1297046D01*
X1203792Y1296890D01*
X1204130Y1296762D01*
X1204473Y1296663D01*
X1204820Y1296592D01*
X1205172Y1296549D01*
X1205529Y1296535D01*
X1205679Y1293995D01*
X1205315Y1293980D01*
X1204961Y1293933D01*
X1204617Y1293856D01*
X1204283Y1293748D01*
X1203959Y1293609D01*
X1203644Y1293439D01*
X1203339Y1293239D01*
X1203044Y1293007D01*
X1202758Y1292744D01*
X1202483Y1292451D01*
X1202177Y1297954D01*
X1202490Y1297685D01*
D02*
G37*
G36*
X2212992Y1200094D02*
X2213198Y1199950D01*
X2213432Y1199822D01*
X2213691Y1199711D01*
X2213978Y1199618D01*
X2214290Y1199541D01*
X2214630Y1199482D01*
X2214996Y1199439D01*
X2215808Y1199405D01*
Y1195595D01*
X2215388Y1195586D01*
X2214630Y1195518D01*
X2214290Y1195459D01*
X2213978Y1195382D01*
X2213691Y1195289D01*
X2213432Y1195178D01*
X2213198Y1195050D01*
X2212992Y1194906D01*
X2212812Y1194744D01*
Y1200256D01*
X2212992Y1200094D01*
D02*
G37*
G36*
X945779Y1157241D02*
X945857Y1157011D01*
X945988Y1156746D01*
X946171Y1156445D01*
X946408Y1156110D01*
X947040Y1155334D01*
X947884Y1154418D01*
X948385Y1153908D01*
X942997Y1148520D01*
X942487Y1149021D01*
X940820Y1150476D01*
X940636Y1150158D01*
X940434Y1149688D01*
X940278Y1149175D01*
X940165Y1148619D01*
X940098Y1148019D01*
X940076Y1147375D01*
X934996Y1149120D01*
X934984Y1149748D01*
X934890Y1150941D01*
X934808Y1151507D01*
X934573Y1152578D01*
X934421Y1153083D01*
X934245Y1153567D01*
X934045Y1154031D01*
X933822Y1154475D01*
X940680Y1152362D01*
X945755Y1157437D01*
X945779Y1157241D01*
D02*
G37*
G36*
X1026024Y1144332D02*
X1026263Y1144051D01*
X1026519Y1143803D01*
X1026792Y1143588D01*
X1027080Y1143406D01*
X1027385Y1143257D01*
X1027707Y1143141D01*
X1028044Y1143059D01*
X1028398Y1143009D01*
X1028768Y1142992D01*
X1028508Y1141774D01*
Y1140452D01*
X1027872Y1140440D01*
X1027530Y1140404D01*
X1027181Y1140344D01*
X1026831Y1140259D01*
X1026480Y1140150D01*
X1026129Y1140017D01*
X1025776Y1139860D01*
X1025422Y1139678D01*
X1024712Y1139243D01*
X1024941Y1140381D01*
X1024624Y1140375D01*
Y1143070D01*
X1024677Y1143055D01*
X1024804Y1143042D01*
X1025283Y1143020D01*
X1025473Y1143019D01*
X1025800Y1144646D01*
X1026024Y1144332D01*
D02*
G37*
G36*
X1037858Y1136959D02*
X1038139Y1136741D01*
X1038437Y1136549D01*
X1038749Y1136383D01*
X1039078Y1136243D01*
X1039423Y1136130D01*
X1039784Y1136042D01*
X1040160Y1135981D01*
X1040553Y1135946D01*
X1040961Y1135937D01*
X1037063Y1132039D01*
X1037054Y1132448D01*
X1037019Y1132840D01*
X1036958Y1133216D01*
X1036870Y1133577D01*
X1036757Y1133922D01*
X1036617Y1134250D01*
X1036451Y1134564D01*
X1036259Y1134861D01*
X1036041Y1135142D01*
X1035797Y1135407D01*
X1037593Y1137203D01*
X1037858Y1136959D01*
D02*
G37*
G36*
X1216690Y1128324D02*
X1216908Y1128216D01*
X1217188Y1128121D01*
X1217530Y1128039D01*
X1217935Y1127969D01*
X1218930Y1127867D01*
X1220174Y1127816D01*
X1220890Y1127810D01*
Y1120190D01*
X1220174Y1120184D01*
X1217935Y1120031D01*
X1217530Y1119961D01*
X1217188Y1119879D01*
X1216908Y1119784D01*
X1216690Y1119676D01*
X1216535Y1119555D01*
Y1128445D01*
X1216690Y1128324D01*
D02*
G37*
G36*
X1208032Y1119043D02*
X1207903Y1119116D01*
X1207708Y1119181D01*
X1207448Y1119239D01*
X1207121Y1119289D01*
X1206272Y1119366D01*
X1204504Y1119424D01*
X1203784Y1119427D01*
X1202619Y1127048D01*
X1203331Y1127056D01*
X1205097Y1127179D01*
X1205563Y1127253D01*
X1205966Y1127343D01*
X1206308Y1127450D01*
X1206589Y1127573D01*
X1206807Y1127712D01*
X1206964Y1127868D01*
X1208032Y1119043D01*
D02*
G37*
G36*
X1141572Y1127359D02*
X1141767Y1127294D01*
X1142028Y1127236D01*
X1142354Y1127186D01*
X1143203Y1127109D01*
X1144971Y1127051D01*
X1145691Y1127048D01*
X1146856Y1119427D01*
X1146144Y1119419D01*
X1144378Y1119296D01*
X1143912Y1119222D01*
X1143509Y1119132D01*
X1143167Y1119025D01*
X1142886Y1118902D01*
X1142668Y1118763D01*
X1142511Y1118607D01*
X1141443Y1127432D01*
X1141572Y1127359D01*
D02*
G37*
G36*
X1132940Y1118030D02*
X1132785Y1118151D01*
X1132567Y1118259D01*
X1132287Y1118354D01*
X1131945Y1118436D01*
X1131540Y1118506D01*
X1130545Y1118608D01*
X1129301Y1118659D01*
X1128585Y1118665D01*
Y1126285D01*
X1129301Y1126291D01*
X1131540Y1126444D01*
X1131945Y1126514D01*
X1132287Y1126596D01*
X1132567Y1126691D01*
X1132785Y1126799D01*
X1132940Y1126920D01*
Y1118030D01*
D02*
G37*
G36*
X1284194Y1126694D02*
X1285310Y1114802D01*
X1284210Y1115826D01*
X1283065Y1116742D01*
X1281876Y1117550D01*
X1280642Y1118250D01*
X1279364Y1118843D01*
X1278041Y1119328D01*
X1276673Y1119705D01*
X1275261Y1119975D01*
X1273803Y1120136D01*
X1272302Y1120190D01*
X1264682Y1127810D01*
X1266076Y1127864D01*
X1267209Y1128026D01*
X1268083Y1128295D01*
X1268697Y1128672D01*
X1269050Y1129157D01*
X1269143Y1129750D01*
X1268976Y1130450D01*
X1268549Y1131258D01*
X1267861Y1132174D01*
X1266914Y1133198D01*
X1284194Y1126694D01*
D02*
G37*
G36*
X2211502Y1069690D02*
X2211362Y1069662D01*
X2211461Y1069563D01*
X2211219Y1069550D01*
X2210971Y1069506D01*
X2210909Y1069488D01*
X2210889Y1069479D01*
X2210459Y1069217D01*
X2209945Y1068848D01*
X2208670Y1067797D01*
X2206136Y1065431D01*
X2205126Y1064432D01*
X2202432Y1067126D01*
X2203431Y1068136D01*
X2207216Y1072458D01*
X2207479Y1072889D01*
X2207488Y1072908D01*
X2207506Y1072971D01*
X2207550Y1073219D01*
X2207563Y1073461D01*
X2207662Y1073362D01*
X2207690Y1073502D01*
X2211502Y1069690D01*
D02*
G37*
G36*
X949530Y1042423D02*
X949480Y1042695D01*
X949327Y1042938D01*
X949073Y1043152D01*
X948718Y1043338D01*
X948260Y1043495D01*
X947702Y1043624D01*
X947041Y1043724D01*
X946279Y1043795D01*
X944451Y1043852D01*
Y1048932D01*
X945416Y1048947D01*
X947041Y1049061D01*
X947702Y1049161D01*
X948260Y1049290D01*
X948718Y1049447D01*
X949073Y1049633D01*
X949327Y1049847D01*
X949480Y1050090D01*
X949530Y1050362D01*
Y1042423D01*
D02*
G37*
G36*
X1387096Y1021096D02*
X1389901Y1018719D01*
X1391142Y1017854D01*
X1392273Y1017204D01*
X1393297Y1016770D01*
X1394212Y1016552D01*
X1395018Y1016549D01*
X1395717Y1016761D01*
X1396307Y1017189D01*
X1385561Y1006443D01*
X1385989Y1007033D01*
X1386201Y1007731D01*
X1386198Y1008538D01*
X1385980Y1009453D01*
X1385546Y1010477D01*
X1384896Y1011609D01*
X1384031Y1012849D01*
X1382950Y1014197D01*
X1380142Y1017219D01*
X1385531Y1022608D01*
X1387096Y1021096D01*
D02*
G37*
G36*
X940076Y1018131D02*
X940184Y1017160D01*
X940363Y1016218D01*
X940615Y1015306D01*
X940938Y1014424D01*
X941333Y1013572D01*
X941800Y1012749D01*
X942339Y1011956D01*
X942950Y1011193D01*
X943632Y1010460D01*
X942204Y1004704D01*
X941793Y1005064D01*
X941425Y1005280D01*
X941100Y1005350D01*
X940819Y1005276D01*
X940581Y1005057D01*
X940386Y1004693D01*
X940235Y1004184D01*
X940127Y1003530D01*
X940062Y1002731D01*
X940040Y1001788D01*
X934960Y1013000D01*
X940040Y1019132D01*
X940076Y1018131D01*
D02*
G37*
G36*
X1404517Y1014596D02*
X1404748Y1013948D01*
X1405132Y1013377D01*
X1405668Y1012882D01*
X1406357Y1012462D01*
X1407198Y1012120D01*
X1408192Y1011853D01*
X1409339Y1011662D01*
X1410638Y1011548D01*
X1412090Y1011510D01*
Y1003890D01*
X1404469Y1003781D01*
X1404439Y1015320D01*
X1404517Y1014596D01*
D02*
G37*
G36*
X949530Y1002531D02*
X949480Y1002802D01*
X949327Y1003045D01*
X949073Y1003260D01*
X948718Y1003445D01*
X948260Y1003603D01*
X947702Y1003731D01*
X947041Y1003831D01*
X946279Y1003903D01*
X944451Y1003960D01*
Y1009040D01*
X945416Y1009054D01*
X947041Y1009169D01*
X947702Y1009269D01*
X948260Y1009397D01*
X948718Y1009555D01*
X949073Y1009740D01*
X949327Y1009955D01*
X949480Y1010198D01*
X949530Y1010470D01*
Y1002531D01*
D02*
G37*
G36*
X1434244Y1002450D02*
X1433934Y1002724D01*
X1433568Y1002968D01*
X1433147Y1003184D01*
X1432670Y1003372D01*
X1432137Y1003530D01*
X1431549Y1003660D01*
X1430905Y1003760D01*
X1430206Y1003832D01*
X1428640Y1003890D01*
Y1011510D01*
X1429451Y1011524D01*
X1430905Y1011640D01*
X1431549Y1011740D01*
X1432137Y1011870D01*
X1432670Y1012028D01*
X1433147Y1012216D01*
X1433568Y1012432D01*
X1433934Y1012676D01*
X1434244Y1012950D01*
Y1002450D01*
D02*
G37*
G36*
X1444576Y1002034D02*
X1444332Y1001668D01*
X1444116Y1001247D01*
X1443928Y1000770D01*
X1443770Y1000237D01*
X1443640Y999649D01*
X1443540Y999005D01*
X1443468Y998306D01*
X1443410Y996740D01*
X1435790D01*
X1435776Y997551D01*
X1435660Y999005D01*
X1435560Y999649D01*
X1435430Y1000237D01*
X1435272Y1000770D01*
X1435084Y1001247D01*
X1434868Y1001668D01*
X1434624Y1002034D01*
X1434350Y1002344D01*
X1444850D01*
X1444576Y1002034D01*
D02*
G37*
G36*
X1443441Y990142D02*
X1443685Y987703D01*
X1443900Y986713D01*
X1444175Y985874D01*
X1444511Y985189D01*
X1444909Y984655D01*
X1445368Y984274D01*
X1445888Y984046D01*
X1446470Y983969D01*
X1431980Y983939D01*
X1432704Y984017D01*
X1433352Y984248D01*
X1433923Y984631D01*
X1434418Y985167D01*
X1434837Y985856D01*
X1435180Y986697D01*
X1435447Y987691D01*
X1435638Y988838D01*
X1435752Y990137D01*
X1435790Y991590D01*
X1443410D01*
X1443441Y990142D01*
D02*
G37*
G36*
X940076Y978631D02*
X940184Y977660D01*
X940363Y976718D01*
X940615Y975806D01*
X940938Y974924D01*
X941333Y974072D01*
X941800Y973249D01*
X942339Y972456D01*
X942950Y971693D01*
X943632Y970960D01*
X942596Y964811D01*
X942111Y965246D01*
X941676Y965528D01*
X941293Y965658D01*
X940960Y965635D01*
X940679Y965459D01*
X940449Y965130D01*
X940270Y964649D01*
X940142Y964014D01*
X940066Y963227D01*
X940040Y962288D01*
X934960Y973500D01*
X940040Y979632D01*
X940076Y978631D01*
D02*
G37*
G36*
X949530Y962638D02*
X949480Y962910D01*
X949327Y963153D01*
X949073Y963367D01*
X948718Y963553D01*
X948260Y963710D01*
X947702Y963839D01*
X947041Y963939D01*
X946279Y964010D01*
X944451Y964068D01*
Y969147D01*
X945416Y969162D01*
X947041Y969276D01*
X947702Y969376D01*
X948260Y969505D01*
X948718Y969662D01*
X949073Y969848D01*
X949327Y970062D01*
X949480Y970305D01*
X949530Y970577D01*
Y962638D01*
D02*
G37*
G36*
X950572Y933271D02*
X952440Y931690D01*
X953266Y931115D01*
X954021Y930684D01*
X954703Y930397D01*
X955314Y930253D01*
X955853D01*
X956320Y930397D01*
X956715Y930684D01*
X949530Y923500D01*
X949818Y923895D01*
X949961Y924362D01*
Y924901D01*
X949818Y925512D01*
X949530Y926194D01*
X949099Y926949D01*
X948525Y927775D01*
X947806Y928673D01*
X945938Y930684D01*
X949530Y934277D01*
X950572Y933271D01*
D02*
G37*
G36*
X2131729Y773129D02*
X2131829Y772500D01*
X2131996Y771868D01*
X2132230Y771233D01*
X2132531Y770595D01*
X2132899Y769954D01*
X2133334Y769309D01*
X2133836Y768661D01*
X2134404Y768010D01*
X2135040Y767356D01*
X2124540D01*
X2125176Y768010D01*
X2125744Y768661D01*
X2126246Y769309D01*
X2126681Y769954D01*
X2127049Y770595D01*
X2127350Y771233D01*
X2127584Y771868D01*
X2127751Y772500D01*
X2127852Y773129D01*
X2127885Y773754D01*
X2131695D01*
X2131729Y773129D01*
D02*
G37*
G36*
X1474190Y1234151D02*
X1473564Y1233636D01*
X1473004Y1233069D01*
X1472510Y1232453D01*
X1472081Y1231786D01*
X1471719Y1231068D01*
X1471422Y1230299D01*
X1471192Y1229480D01*
X1471027Y1228611D01*
X1470928Y1227691D01*
X1470895Y1226720D01*
X1464545Y1226836D01*
X1464515Y1227841D01*
X1464422Y1228798D01*
X1464268Y1229708D01*
X1464053Y1230572D01*
X1463776Y1231387D01*
X1463438Y1232156D01*
X1463038Y1232878D01*
X1462576Y1233552D01*
X1462054Y1234180D01*
X1461469Y1234760D01*
X1474190Y1234151D01*
D02*
G37*
G36*
X1961161Y1180053D02*
X1960922Y1179733D01*
X1960710Y1179408D01*
X1960527Y1179078D01*
X1960372Y1178744D01*
X1960245Y1178406D01*
X1960147Y1178062D01*
X1960076Y1177715D01*
X1960034Y1177363D01*
X1960020Y1177006D01*
X1957480Y1176835D01*
X1957464Y1177199D01*
X1957418Y1177553D01*
X1957340Y1177897D01*
X1957232Y1178230D01*
X1957092Y1178554D01*
X1956921Y1178867D01*
X1956720Y1179170D01*
X1956487Y1179463D01*
X1956223Y1179746D01*
X1955928Y1180019D01*
X1961429Y1180369D01*
X1961161Y1180053D01*
D02*
G37*
G36*
X1960036Y1172301D02*
X1960082Y1171947D01*
X1960160Y1171603D01*
X1960268Y1171270D01*
X1960408Y1170946D01*
X1960579Y1170633D01*
X1960780Y1170330D01*
X1961013Y1170037D01*
X1961277Y1169754D01*
X1961572Y1169481D01*
X1956071Y1169131D01*
X1956339Y1169447D01*
X1956578Y1169767D01*
X1956790Y1170092D01*
X1956973Y1170422D01*
X1957128Y1170756D01*
X1957255Y1171095D01*
X1957353Y1171438D01*
X1957424Y1171785D01*
X1957466Y1172137D01*
X1957480Y1172494D01*
X1960020Y1172665D01*
X1960036Y1172301D01*
D02*
G37*
G36*
X2006974Y1183894D02*
X2006721Y1183591D01*
X2006498Y1183282D01*
X2006305Y1182965D01*
X2006142Y1182641D01*
X2006008Y1182309D01*
X2005904Y1181971D01*
X2005829Y1181625D01*
X2005785Y1181272D01*
X2005770Y1180911D01*
X2003230D01*
X2003215Y1181272D01*
X2003171Y1181625D01*
X2003096Y1181971D01*
X2002992Y1182309D01*
X2002858Y1182641D01*
X2002695Y1182965D01*
X2002502Y1183282D01*
X2002279Y1183591D01*
X2002026Y1183894D01*
X2001744Y1184188D01*
X2007256D01*
X2006974Y1183894D01*
D02*
G37*
G36*
X2005785Y1171728D02*
X2005829Y1171375D01*
X2005904Y1171029D01*
X2006008Y1170691D01*
X2006142Y1170359D01*
X2006305Y1170035D01*
X2006498Y1169718D01*
X2006721Y1169409D01*
X2006974Y1169107D01*
X2007256Y1168812D01*
X2001744D01*
X2002026Y1169107D01*
X2002279Y1169409D01*
X2002502Y1169718D01*
X2002695Y1170035D01*
X2002858Y1170359D01*
X2002992Y1170691D01*
X2003096Y1171029D01*
X2003171Y1171375D01*
X2003215Y1171728D01*
X2003230Y1172089D01*
X2005770D01*
X2005785Y1171728D01*
D02*
G37*
G36*
X2020661Y1183553D02*
X2020422Y1183233D01*
X2020210Y1182908D01*
X2020027Y1182578D01*
X2019872Y1182244D01*
X2019745Y1181906D01*
X2019647Y1181562D01*
X2019576Y1181215D01*
X2019534Y1180863D01*
X2019520Y1180506D01*
X2016980Y1180335D01*
X2016965Y1180699D01*
X2016918Y1181053D01*
X2016840Y1181397D01*
X2016732Y1181730D01*
X2016592Y1182054D01*
X2016421Y1182367D01*
X2016220Y1182670D01*
X2015987Y1182963D01*
X2015723Y1183246D01*
X2015428Y1183519D01*
X2020929Y1183869D01*
X2020661Y1183553D01*
D02*
G37*
G36*
X2019536Y1171301D02*
X2019582Y1170947D01*
X2019660Y1170603D01*
X2019768Y1170270D01*
X2019908Y1169946D01*
X2020079Y1169633D01*
X2020280Y1169330D01*
X2020513Y1169037D01*
X2020777Y1168754D01*
X2021072Y1168481D01*
X2015571Y1168131D01*
X2015839Y1168447D01*
X2016078Y1168767D01*
X2016290Y1169092D01*
X2016473Y1169422D01*
X2016628Y1169756D01*
X2016755Y1170095D01*
X2016853Y1170437D01*
X2016924Y1170785D01*
X2016966Y1171137D01*
X2016980Y1171494D01*
X2019520Y1171665D01*
X2019536Y1171301D01*
D02*
G37*
G36*
X2047974Y1183894D02*
X2047721Y1183591D01*
X2047498Y1183282D01*
X2047305Y1182965D01*
X2047142Y1182641D01*
X2047008Y1182309D01*
X2046904Y1181971D01*
X2046829Y1181625D01*
X2046785Y1181272D01*
X2046770Y1180911D01*
X2044230D01*
X2044215Y1181272D01*
X2044171Y1181625D01*
X2044096Y1181971D01*
X2043992Y1182309D01*
X2043858Y1182641D01*
X2043695Y1182965D01*
X2043502Y1183282D01*
X2043279Y1183591D01*
X2043026Y1183894D01*
X2042744Y1184188D01*
X2048256D01*
X2047974Y1183894D01*
D02*
G37*
G36*
X2046785Y1170728D02*
X2046829Y1170375D01*
X2046904Y1170029D01*
X2047008Y1169690D01*
X2047142Y1169359D01*
X2047305Y1169035D01*
X2047498Y1168718D01*
X2047721Y1168409D01*
X2047974Y1168107D01*
X2048256Y1167812D01*
X2042744D01*
X2043026Y1168107D01*
X2043279Y1168409D01*
X2043502Y1168718D01*
X2043695Y1169035D01*
X2043858Y1169359D01*
X2043992Y1169690D01*
X2044096Y1170029D01*
X2044171Y1170375D01*
X2044215Y1170728D01*
X2044230Y1171089D01*
X2046770D01*
X2046785Y1170728D01*
D02*
G37*
G36*
X2033974Y1183894D02*
X2033721Y1183591D01*
X2033498Y1183282D01*
X2033305Y1182965D01*
X2033141Y1182641D01*
X2033008Y1182309D01*
X2032904Y1181971D01*
X2032829Y1181625D01*
X2032785Y1181272D01*
X2032770Y1180911D01*
X2030230D01*
X2030215Y1181272D01*
X2030171Y1181625D01*
X2030096Y1181971D01*
X2029992Y1182309D01*
X2029859Y1182641D01*
X2029695Y1182965D01*
X2029502Y1183282D01*
X2029279Y1183591D01*
X2029026Y1183894D01*
X2028744Y1184188D01*
X2034256D01*
X2033974Y1183894D01*
D02*
G37*
G36*
X2032785Y1170728D02*
X2032829Y1170375D01*
X2032904Y1170029D01*
X2033008Y1169690D01*
X2033141Y1169359D01*
X2033305Y1169035D01*
X2033498Y1168718D01*
X2033721Y1168409D01*
X2033974Y1168107D01*
X2034256Y1167812D01*
X2028744D01*
X2029026Y1168107D01*
X2029279Y1168409D01*
X2029502Y1168718D01*
X2029695Y1169035D01*
X2029859Y1169359D01*
X2029992Y1169690D01*
X2030096Y1170029D01*
X2030171Y1170375D01*
X2030215Y1170728D01*
X2030230Y1171089D01*
X2032770D01*
X2032785Y1170728D01*
D02*
G37*
G36*
X1877512Y1234494D02*
X1877718Y1234350D01*
X1877952Y1234222D01*
X1878211Y1234111D01*
X1878498Y1234018D01*
X1878810Y1233941D01*
X1879150Y1233882D01*
X1879516Y1233839D01*
X1880328Y1233805D01*
Y1229995D01*
X1879908Y1229986D01*
X1879150Y1229918D01*
X1878810Y1229859D01*
X1878498Y1229782D01*
X1878211Y1229689D01*
X1877952Y1229578D01*
X1877718Y1229450D01*
X1877512Y1229306D01*
X1877332Y1229144D01*
Y1234656D01*
X1877512Y1234494D01*
D02*
G37*
G36*
X2130188Y1161335D02*
X2132961Y1158563D01*
X2132719Y1158550D01*
X2132471Y1158506D01*
X2132215Y1158432D01*
X2131953Y1158326D01*
X2131685Y1158190D01*
X2131409Y1158023D01*
X2131127Y1157825D01*
X2130838Y1157596D01*
X2130240Y1157046D01*
X2127546Y1159740D01*
X2127837Y1160043D01*
X2128246Y1160533D01*
X2128004Y1160561D01*
X2127192Y1160595D01*
Y1164405D01*
X2127612Y1164414D01*
X2128370Y1164482D01*
X2128710Y1164541D01*
X2129022Y1164618D01*
X2129309Y1164711D01*
X2129568Y1164822D01*
X2129802Y1164950D01*
X2130008Y1165094D01*
X2130188Y1165256D01*
Y1161335D01*
D02*
G37*
G36*
X1668171Y999099D02*
X1666839Y997752D01*
X1665493Y996215D01*
X1665177Y995727D01*
X1664846Y995101D01*
X1664566Y994443D01*
X1664339Y993754D01*
X1664164Y993033D01*
X1664042Y992280D01*
X1663971Y991495D01*
X1663954Y990679D01*
X1662189Y992443D01*
X1661791Y991989D01*
X1661441Y991414D01*
X1661230Y990950D01*
X1661160Y990597D01*
X1656077Y995680D01*
X1656430Y995750D01*
X1656894Y995961D01*
X1657469Y996311D01*
X1657965Y996667D01*
X1656159Y998474D01*
X1656975Y998491D01*
X1657760Y998562D01*
X1658513Y998684D01*
X1659234Y998859D01*
X1659923Y999086D01*
X1660581Y999366D01*
X1661207Y999697D01*
X1661801Y1000081D01*
X1662172Y1000369D01*
X1663232Y1001359D01*
X1664579Y1002691D01*
X1668171Y999099D01*
D02*
G37*
G36*
X1661537Y984875D02*
X1661465Y984663D01*
X1661402Y984366D01*
X1661347Y983983D01*
X1661263Y982961D01*
X1661199Y980786D01*
X1661195Y979889D01*
X1651035Y979830D01*
X1651031Y980726D01*
X1650819Y984311D01*
X1650752Y984610D01*
X1650677Y984824D01*
X1650593Y984952D01*
X1661617Y985001D01*
X1661537Y984875D01*
D02*
G37*
G36*
X2100914Y963389D02*
X2100982Y962630D01*
X2101041Y962290D01*
X2101118Y961978D01*
X2101211Y961691D01*
X2101322Y961432D01*
X2101450Y961198D01*
X2101594Y960992D01*
X2101756Y960812D01*
X2096244D01*
X2096406Y960992D01*
X2096550Y961198D01*
X2096678Y961432D01*
X2096789Y961691D01*
X2096882Y961978D01*
X2096959Y962290D01*
X2097018Y962630D01*
X2097061Y962996D01*
X2097095Y963808D01*
X2100905D01*
X2100914Y963389D01*
D02*
G37*
G36*
X2014317Y962778D02*
X2015657Y961585D01*
X2015785Y961502D01*
X2015887Y961453D01*
X2015961Y961437D01*
X2012063Y957539D01*
X2012047Y957613D01*
X2011998Y957715D01*
X2011915Y957843D01*
X2011800Y957998D01*
X2011468Y958391D01*
X2010722Y959183D01*
X2010407Y959501D01*
X2013999Y963093D01*
X2014317Y962778D01*
D02*
G37*
G36*
X2096369Y955071D02*
X2096316Y955098D01*
X2096219Y955121D01*
X2096078Y955142D01*
X2095665Y955175D01*
X2094309Y955209D01*
X2093860Y955210D01*
X2093435Y960290D01*
X2093882Y960293D01*
X2095489Y960391D01*
X2095685Y960428D01*
X2095838Y960470D01*
X2095950Y960518D01*
X2096019Y960572D01*
X2096369Y955071D01*
D02*
G37*
G36*
X2018684Y960403D02*
X2018781Y960379D01*
X2018922Y960358D01*
X2019335Y960325D01*
X2020691Y960291D01*
X2021140Y960290D01*
X2021565Y955210D01*
X2021118Y955207D01*
X2019511Y955109D01*
X2019316Y955072D01*
X2019162Y955030D01*
X2019050Y954982D01*
X2018981Y954928D01*
X2018631Y960429D01*
X2018684Y960403D01*
D02*
G37*
G36*
X2018715Y954625D02*
X2018678Y954518D01*
X2018646Y954369D01*
X2018618Y954177D01*
X2018575Y953666D01*
X2018542Y952578D01*
X2018540Y952130D01*
X2013460D01*
X2013458Y952578D01*
X2013354Y954369D01*
X2013322Y954518D01*
X2013285Y954625D01*
X2013244Y954688D01*
X2018756D01*
X2018715Y954625D01*
D02*
G37*
G36*
X1657154Y939969D02*
X1655784Y938549D01*
X1653478Y935837D01*
X1652540Y934544D01*
X1651747Y933294D01*
X1651097Y932086D01*
X1650592Y930920D01*
X1650230Y929797D01*
X1650013Y928717D01*
X1649939Y927679D01*
X1649969Y946469D01*
X1649995Y946625D01*
X1650072Y946818D01*
X1650199Y947048D01*
X1650378Y947316D01*
X1650608Y947621D01*
X1651221Y948343D01*
X1652523Y949707D01*
X1657154Y939969D01*
D02*
G37*
G36*
X2018542Y836422D02*
X2018646Y834631D01*
X2018678Y834482D01*
X2018715Y834375D01*
X2018756Y834312D01*
X2013244D01*
X2013285Y834375D01*
X2013322Y834482D01*
X2013354Y834631D01*
X2013382Y834822D01*
X2013425Y835334D01*
X2013458Y836422D01*
X2013460Y836870D01*
X2018540D01*
X2018542Y836422D01*
D02*
G37*
G36*
X2099926Y833605D02*
X2099830Y833600D01*
X2099708Y833561D01*
X2099562Y833488D01*
X2099391Y833381D01*
X2099196Y833239D01*
X2098732Y832853D01*
X2098170Y832329D01*
X2097852Y832016D01*
X2094917Y836265D01*
X2096594Y837996D01*
X2099926Y833605D01*
D02*
G37*
G36*
X2018875Y834215D02*
X2018982Y834178D01*
X2019131Y834146D01*
X2019323Y834118D01*
X2019834Y834074D01*
X2020922Y834042D01*
X2021370Y834040D01*
Y828960D01*
X2020922Y828958D01*
X2019131Y828854D01*
X2018982Y828822D01*
X2018875Y828785D01*
X2018812Y828744D01*
Y834256D01*
X2018875Y834215D01*
D02*
G37*
G36*
X1619974Y1177393D02*
X1619721Y1177091D01*
X1619498Y1176782D01*
X1619305Y1176465D01*
X1619142Y1176141D01*
X1619008Y1175809D01*
X1618904Y1175471D01*
X1618829Y1175125D01*
X1618785Y1174772D01*
X1618770Y1174411D01*
X1616230D01*
X1616215Y1174772D01*
X1616171Y1175125D01*
X1616096Y1175471D01*
X1615992Y1175809D01*
X1615858Y1176141D01*
X1615695Y1176465D01*
X1615502Y1176782D01*
X1615279Y1177091D01*
X1615026Y1177393D01*
X1614744Y1177688D01*
X1620256D01*
X1619974Y1177393D01*
D02*
G37*
G36*
X1618785Y1154728D02*
X1618829Y1154375D01*
X1618904Y1154029D01*
X1619008Y1153690D01*
X1619142Y1153359D01*
X1619305Y1153035D01*
X1619498Y1152718D01*
X1619721Y1152409D01*
X1619974Y1152106D01*
X1620256Y1151812D01*
X1614744D01*
X1615026Y1152106D01*
X1615279Y1152409D01*
X1615502Y1152718D01*
X1615695Y1153035D01*
X1615858Y1153359D01*
X1615992Y1153690D01*
X1616096Y1154029D01*
X1616171Y1154375D01*
X1616215Y1154728D01*
X1616230Y1155089D01*
X1618770D01*
X1618785Y1154728D01*
D02*
G37*
G36*
X999226Y1034206D02*
X999045Y1034365D01*
X998837Y1034507D01*
X998603Y1034632D01*
X998342Y1034741D01*
X998055Y1034833D01*
X997741Y1034908D01*
X997401Y1034966D01*
X997035Y1035008D01*
X996223Y1035041D01*
X996163Y1038851D01*
X996582Y1038860D01*
X997340Y1038929D01*
X997679Y1038990D01*
X997991Y1039068D01*
X998277Y1039163D01*
X998535Y1039276D01*
X998767Y1039406D01*
X998972Y1039553D01*
X999151Y1039717D01*
X999226Y1034206D01*
D02*
G37*
G36*
X978477Y1040394D02*
X978593Y1040070D01*
X978785Y1039785D01*
X979053Y1039537D01*
X979399Y1039327D01*
X979822Y1039156D01*
X980321Y1039023D01*
X980897Y1038928D01*
X981550Y1038870D01*
X982280Y1038851D01*
Y1035041D01*
X981550Y1035022D01*
X980897Y1034965D01*
X980321Y1034870D01*
X979822Y1034736D01*
X979399Y1034565D01*
X979053Y1034355D01*
X978785Y1034108D01*
X978593Y1033822D01*
X978477Y1033498D01*
X978439Y1033136D01*
Y1040756D01*
X978477Y1040394D01*
D02*
G37*
G36*
X1003508Y1016426D02*
X1003495Y1016299D01*
X1003473Y1015820D01*
X1003468Y1015251D01*
X1004878Y1015314D01*
X1004606Y1015004D01*
X1004362Y1014689D01*
X1004147Y1014368D01*
X1003961Y1014043D01*
X1003803Y1013711D01*
X1003674Y1013375D01*
X1003574Y1013033D01*
X1003502Y1012686D01*
X1003459Y1012333D01*
X1003445Y1011975D01*
X1000905Y1011856D01*
X1000890Y1012219D01*
X1000844Y1012573D01*
X1000767Y1012917D01*
X1000660Y1013252D01*
X1000522Y1013578D01*
X1000353Y1013895D01*
X1000154Y1014202D01*
X999924Y1014500D01*
X999663Y1014789D01*
X999372Y1015069D01*
X1000854Y1015135D01*
X1000827Y1016479D01*
X1003523D01*
X1003508Y1016426D01*
D02*
G37*
G36*
X1005858Y1008959D02*
X1006139Y1008741D01*
X1006436Y1008549D01*
X1006749Y1008383D01*
X1007078Y1008243D01*
X1007423Y1008130D01*
X1007784Y1008042D01*
X1008160Y1007981D01*
X1008552Y1007946D01*
X1008961Y1007937D01*
X1005063Y1004039D01*
X1005054Y1004447D01*
X1005019Y1004840D01*
X1004958Y1005216D01*
X1004871Y1005577D01*
X1004757Y1005922D01*
X1004617Y1006251D01*
X1004451Y1006563D01*
X1004259Y1006861D01*
X1004041Y1007142D01*
X1003797Y1007407D01*
X1005593Y1009203D01*
X1005858Y1008959D01*
D02*
G37*
G36*
X1013654Y998135D02*
Y995652D01*
X1013601Y995667D01*
X1013474Y995680D01*
X1013015Y995701D01*
X1012581Y994049D01*
X1012379Y994368D01*
X1012159Y994654D01*
X1011919Y994906D01*
X1011661Y995125D01*
X1011383Y995310D01*
X1011087Y995461D01*
X1010771Y995579D01*
X1010436Y995663D01*
X1010083Y995713D01*
X1009710Y995730D01*
X1009770Y995944D01*
Y998270D01*
X1010879Y998292D01*
X1011108Y998314D01*
X1011457Y998370D01*
X1011808Y998448D01*
X1012162Y998547D01*
X1012520Y998670D01*
X1013244Y998980D01*
X1013611Y999169D01*
X1013981Y999380D01*
X1013654Y998135D01*
D02*
G37*
G36*
X978465Y999299D02*
X978542Y999083D01*
X978670Y998892D01*
X978850Y998727D01*
X979082Y998587D01*
X979364Y998473D01*
X979699Y998384D01*
X980084Y998321D01*
X980521Y998283D01*
X981010Y998270D01*
Y995730D01*
X980521Y995717D01*
X980084Y995679D01*
X979699Y995616D01*
X979364Y995527D01*
X979082Y995413D01*
X978850Y995273D01*
X978670Y995108D01*
X978542Y994917D01*
X978465Y994701D01*
X978439Y994460D01*
Y999540D01*
X978465Y999299D01*
D02*
G37*
G36*
Y959853D02*
X978542Y959637D01*
X978670Y959446D01*
X978850Y959281D01*
X979082Y959141D01*
X979364Y959027D01*
X979699Y958938D01*
X980084Y958875D01*
X980521Y958837D01*
X981010Y958824D01*
Y956284D01*
X980521Y956271D01*
X980084Y956233D01*
X979699Y956170D01*
X979364Y956081D01*
X979082Y955966D01*
X978850Y955827D01*
X978670Y955661D01*
X978542Y955471D01*
X978465Y955255D01*
X978439Y955014D01*
Y956259D01*
X975792Y956206D01*
Y958902D01*
X975845Y958887D01*
X975973Y958874D01*
X976451Y958852D01*
X978439Y958835D01*
Y960094D01*
X978465Y959853D01*
D02*
G37*
G36*
X1026070Y958879D02*
X1027208Y958902D01*
Y956206D01*
X1027155Y956221D01*
X1027027Y956234D01*
X1026549Y956256D01*
X1026369Y956257D01*
X1026519Y954943D01*
X1026187Y955198D01*
X1025853Y955426D01*
X1025517Y955627D01*
X1025178Y955801D01*
X1024837Y955949D01*
X1024493Y956069D01*
X1024147Y956163D01*
X1023799Y956230D01*
X1023448Y956270D01*
X1023095Y956284D01*
X1022788Y958824D01*
X1023154Y958840D01*
X1023508Y958888D01*
X1023850Y958967D01*
X1024179Y959079D01*
X1024496Y959223D01*
X1024800Y959398D01*
X1025092Y959606D01*
X1025372Y959845D01*
X1025639Y960116D01*
X1025894Y960419D01*
X1026070Y958879D01*
D02*
G37*
G36*
X999946Y1062552D02*
X999981Y1062160D01*
X1000042Y1061784D01*
X1000129Y1061423D01*
X1000243Y1061078D01*
X1000383Y1060750D01*
X1000549Y1060436D01*
X1000741Y1060139D01*
X1000959Y1059858D01*
X1001203Y1059593D01*
X999407Y1057797D01*
X999142Y1058041D01*
X998861Y1058259D01*
X998564Y1058451D01*
X998251Y1058617D01*
X997922Y1058757D01*
X997577Y1058870D01*
X997216Y1058958D01*
X996840Y1059019D01*
X996448Y1059054D01*
X996039Y1059063D01*
X999937Y1062961D01*
X999946Y1062552D01*
D02*
G37*
G36*
X1044285Y923728D02*
X1044329Y923375D01*
X1044404Y923029D01*
X1044508Y922691D01*
X1044641Y922359D01*
X1044805Y922035D01*
X1044998Y921718D01*
X1045221Y921409D01*
X1045474Y921106D01*
X1045756Y920812D01*
X1044318D01*
X1044348Y919346D01*
X1041652D01*
X1041667Y919399D01*
X1041680Y919527D01*
X1041702Y920005D01*
X1041709Y920812D01*
X1040244D01*
X1040526Y921106D01*
X1040779Y921409D01*
X1041002Y921718D01*
X1041195Y922035D01*
X1041358Y922359D01*
X1041492Y922691D01*
X1041596Y923029D01*
X1041671Y923375D01*
X1041715Y923728D01*
X1041730Y924089D01*
X1044270D01*
X1044285Y923728D01*
D02*
G37*
G36*
X978465Y919906D02*
X978542Y919690D01*
X978670Y919500D01*
X978850Y919335D01*
X979082Y919195D01*
X979364Y919081D01*
X979699Y918992D01*
X980084Y918928D01*
X980521Y918890D01*
X981010Y918877D01*
Y916338D01*
X980521Y916325D01*
X980084Y916287D01*
X979699Y916223D01*
X979364Y916134D01*
X979082Y916020D01*
X978850Y915880D01*
X978670Y915715D01*
X978542Y915525D01*
X978465Y915309D01*
X978439Y915068D01*
Y916314D01*
X975739Y916260D01*
Y918955D01*
X975792Y918941D01*
X975919Y918927D01*
X976398Y918905D01*
X978439Y918888D01*
Y920147D01*
X978465Y919906D01*
D02*
G37*
G36*
X1040081Y918932D02*
X1041261Y918955D01*
Y916260D01*
X1041208Y916274D01*
X1041081Y916288D01*
X1040602Y916309D01*
X1040343Y916312D01*
X1040477Y914977D01*
X1040150Y915236D01*
X1039819Y915467D01*
X1039486Y915671D01*
X1039150Y915848D01*
X1038811Y915997D01*
X1038468Y916120D01*
X1038123Y916215D01*
X1037775Y916283D01*
X1037423Y916324D01*
X1037069Y916338D01*
X1036800Y918877D01*
X1037166Y918893D01*
X1037520Y918941D01*
X1037862Y919020D01*
X1038192Y919131D01*
X1038511Y919274D01*
X1038818Y919448D01*
X1039113Y919654D01*
X1039396Y919892D01*
X1039668Y920161D01*
X1039928Y920462D01*
X1040081Y918932D01*
D02*
G37*
G36*
X1368195Y823909D02*
X1367331Y823603D01*
X1366569Y823094D01*
X1365909Y822381D01*
X1365350Y821463D01*
X1364893Y820342D01*
X1364537Y819018D01*
X1364283Y817489D01*
X1364131Y815757D01*
X1364080Y813820D01*
X1353920D01*
X1353869Y815757D01*
X1353717Y817489D01*
X1353463Y819018D01*
X1353107Y820342D01*
X1352650Y821463D01*
X1352091Y822381D01*
X1351431Y823094D01*
X1350669Y823603D01*
X1349805Y823909D01*
X1348840Y824011D01*
X1369160D01*
X1368195Y823909D01*
D02*
G37*
G36*
X1597848Y827492D02*
X1597524Y827378D01*
X1597238Y827188D01*
X1596991Y826921D01*
X1596781Y826578D01*
X1596610Y826159D01*
X1596476Y825664D01*
X1596381Y825092D01*
X1596324Y824444D01*
X1596305Y823720D01*
X1592495D01*
X1592476Y824444D01*
X1592419Y825092D01*
X1592324Y825664D01*
X1592190Y826159D01*
X1592019Y826578D01*
X1591809Y826921D01*
X1591562Y827188D01*
X1591276Y827378D01*
X1590952Y827492D01*
X1590590Y827531D01*
X1598210D01*
X1597848Y827492D01*
D02*
G37*
G36*
X1563675Y745981D02*
X1563152Y745376D01*
X1562686Y744664D01*
X1562276Y743845D01*
X1561924Y742918D01*
X1561628Y741885D01*
X1561389Y740744D01*
X1561206Y739496D01*
X1561080Y738141D01*
X1560999Y735110D01*
X1550110Y745999D01*
X1551679Y746012D01*
X1554496Y746206D01*
X1555744Y746388D01*
X1556885Y746628D01*
X1557918Y746924D01*
X1558844Y747276D01*
X1559664Y747686D01*
X1560376Y748152D01*
X1560981Y748675D01*
X1563675Y745981D01*
D02*
G37*
G36*
X1433965Y709644D02*
X1435592Y708279D01*
X1436386Y707714D01*
X1437166Y707227D01*
X1437934Y706818D01*
X1438689Y706487D01*
X1439431Y706235D01*
X1440160Y706061D01*
X1440875Y705965D01*
X1429055Y696095D01*
X1429083Y696838D01*
X1429019Y697591D01*
X1428864Y698355D01*
X1428618Y699129D01*
X1428280Y699914D01*
X1427851Y700708D01*
X1427330Y701514D01*
X1426718Y702329D01*
X1426014Y703155D01*
X1425218Y703990D01*
X1433133Y710445D01*
X1433965Y709644D01*
D02*
G37*
G36*
X1946555Y958753D02*
X1946721Y958575D01*
X1946920Y958418D01*
X1947150Y958282D01*
X1947412Y958167D01*
X1947705Y958072D01*
X1948030Y957999D01*
X1948386Y957947D01*
X1948774Y957915D01*
X1949194Y957905D01*
X1948020Y954095D01*
X1947592Y954090D01*
X1946481Y954019D01*
X1946167Y953976D01*
X1945623Y953862D01*
X1945394Y953791D01*
X1945192Y953710D01*
X1945019Y953620D01*
X1946419Y958951D01*
X1946555Y958753D01*
D02*
G37*
G36*
X2042905Y739434D02*
X2042938Y738811D01*
X2043038Y738184D01*
X2043203Y737551D01*
X2043435Y736914D01*
X2043733Y736272D01*
X2044098Y735625D01*
X2044528Y734973D01*
X2045025Y734316D01*
X2045589Y733655D01*
X2046218Y732989D01*
X2035719Y733142D01*
X2036360Y733784D01*
X2036934Y734425D01*
X2037441Y735064D01*
X2037880Y735701D01*
X2038251Y736337D01*
X2038555Y736971D01*
X2038791Y737603D01*
X2038960Y738234D01*
X2039061Y738864D01*
X2039095Y739492D01*
X2042905Y739434D01*
D02*
G37*
G36*
X1926530Y709730D02*
X1926480Y710097D01*
X1926327Y710425D01*
X1926073Y710714D01*
X1925718Y710965D01*
X1925260Y711177D01*
X1924702Y711351D01*
X1924041Y711486D01*
X1923279Y711582D01*
X1922416Y711640D01*
X1921451Y711660D01*
Y716740D01*
X1922416Y716759D01*
X1924041Y716913D01*
X1924702Y717048D01*
X1925260Y717222D01*
X1925718Y717434D01*
X1926073Y717685D01*
X1926327Y717974D01*
X1926480Y718303D01*
X1926530Y718669D01*
Y709730D01*
D02*
G37*
G36*
Y696664D02*
X1926480Y697030D01*
X1926327Y697358D01*
X1926073Y697648D01*
X1925718Y697898D01*
X1925260Y698111D01*
X1924702Y698284D01*
X1924041Y698419D01*
X1923279Y698516D01*
X1922416Y698574D01*
X1921451Y698593D01*
Y703673D01*
X1922416Y703692D01*
X1924041Y703847D01*
X1924702Y703982D01*
X1925260Y704155D01*
X1925718Y704368D01*
X1926073Y704619D01*
X1926327Y704908D01*
X1926480Y705236D01*
X1926530Y705603D01*
Y696664D01*
D02*
G37*
G36*
X1824031Y705439D02*
X1823442Y704777D01*
X1822917Y704033D01*
X1822455Y703206D01*
X1822056Y702296D01*
X1821721Y701305D01*
X1821450Y700231D01*
X1821242Y699074D01*
X1821098Y697835D01*
X1821017Y696514D01*
X1820999Y695110D01*
X1810110Y706000D01*
X1811514Y706017D01*
X1814074Y706242D01*
X1815231Y706450D01*
X1816305Y706721D01*
X1817296Y707056D01*
X1818206Y707455D01*
X1819032Y707916D01*
X1819777Y708442D01*
X1820439Y709031D01*
X1824031Y705439D01*
D02*
G37*
G36*
X1864309Y705225D02*
X1870928Y703846D01*
X1871805Y703750D01*
X1873366Y703673D01*
X1876997Y698593D01*
X1876010Y698537D01*
X1875105Y698369D01*
X1874282Y698089D01*
X1873541Y697696D01*
X1872881Y697192D01*
X1872304Y696575D01*
X1871809Y695846D01*
X1871395Y695006D01*
X1871064Y694053D01*
X1870814Y692988D01*
X1862980Y705589D01*
X1864309Y705225D01*
D02*
G37*
D12*
X1297940Y1315720D02*
X1350010Y1367790D01*
X1253490Y1315720D02*
X1297940D01*
X902970Y1382943D02*
Y1412240D01*
X900430Y1323340D02*
Y1380403D01*
X902970Y1382943D01*
X944880Y1275080D02*
X1007110D01*
X925830D02*
X944880D01*
X979170Y1282700D02*
X1004570D01*
X941070D02*
X979170D01*
X880110Y1315720D02*
X881380Y1314450D01*
X880110Y1315720D02*
Y1329690D01*
X881380Y1314450D02*
X920750Y1275080D01*
X925830D01*
X1007110D02*
X1033780Y1301750D01*
X1125220D01*
X1144270Y1320800D01*
X1233170D01*
X1316990Y1404620D01*
X1320800D01*
X900430Y1323340D02*
X941070Y1282700D01*
X1004570D02*
X1032510Y1310640D01*
X1126490D01*
X1141730Y1325880D01*
X1230630D01*
X1323750Y1419000D01*
X1326290D01*
X1398680D01*
X1320800Y1404620D02*
X1390650D01*
X1883000Y1338140D02*
X1884869Y1336271D01*
X1883000Y1338140D02*
Y1340485D01*
X1884869Y1322869D02*
Y1336271D01*
X1898938Y1324041D02*
X1899489Y1323489D01*
X1897000Y1324041D02*
Y1340485D01*
Y1324041D02*
X1898938D01*
X1911000Y1321000D02*
Y1340485D01*
X1244600Y1351280D02*
X1268730Y1375410D01*
X995680Y1292860D02*
Y1314450D01*
X1237229Y1303020D02*
X1241384Y1307175D01*
Y1307506D01*
X1209040Y1303020D02*
X1237229D01*
X1199522Y1295047D02*
X1199741Y1295265D01*
X1240655D01*
X1217930Y1311910D02*
X1219373D01*
X1223183Y1315720D02*
X1253490D01*
X1219373Y1311910D02*
X1223183Y1315720D01*
X1240655Y1295265D02*
X1240790Y1295400D01*
X1346200Y1460500D02*
X1346835Y1461135D01*
X1395095D02*
X1395730Y1461770D01*
X1346835Y1461135D02*
X1395095D01*
X1377315Y1330325D02*
X1417320Y1370330D01*
X1377315Y1317625D02*
Y1330325D01*
Y1317625D02*
X1377950Y1316990D01*
X1199349Y1232651D02*
X1200018Y1233320D01*
X1253320D01*
X1253988Y1233988D01*
X1491000Y1188000D02*
X1541000D01*
X1660000Y1307000D02*
Y1394000D01*
X1541000Y1188000D02*
X1660000Y1307000D01*
X1617500Y1149000D02*
Y1180500D01*
X1690370Y1310640D02*
X1708150Y1328420D01*
X1768314D01*
X1690370Y1267460D02*
Y1310640D01*
X1768314Y1328420D02*
X1773394Y1323340D01*
X1774190D01*
X1675130Y1252220D02*
X1690370Y1267460D01*
X1666240Y1252220D02*
X1675130D01*
X1661160Y1254128D02*
Y1301750D01*
X1656207Y1249175D02*
X1661160Y1254128D01*
X1655445Y1241425D02*
X1666240Y1252220D01*
X1661160Y1301750D02*
X1664970Y1305560D01*
X1642110Y1235710D02*
X1647825Y1241425D01*
X1655445D01*
X1648460Y1248410D02*
X1649225Y1249175D01*
X1656207D01*
X1691467Y1325880D02*
X1692910D01*
X1688927Y1328420D02*
X1691467Y1325880D01*
X1667510Y1328420D02*
X1688927D01*
X1664970Y1325880D02*
X1667510Y1328420D01*
X1664970Y1305560D02*
Y1325880D01*
X1870000Y1322000D02*
Y1340485D01*
X1856740Y1322015D02*
Y1340485D01*
X1002175Y1010825D02*
Y1017825D01*
Y1010825D02*
X1009000Y1004000D01*
X1023278Y1141722D02*
X1031278D01*
X1041000Y1132000D01*
X1043000Y918000D02*
Y1016000D01*
X996000Y1063000D02*
X1043000Y1016000D01*
X974000Y997000D02*
X1015000D01*
X974446Y957554D02*
X1028554D01*
X974392Y917607D02*
X1042607D01*
X1606770Y1320230D02*
X1612230D01*
X1614000Y1322000D01*
X1602000Y1325000D02*
X1606770Y1320230D01*
X1564000Y1349000D02*
Y1359500D01*
Y1349000D02*
X1588000Y1325000D01*
X1602000D02*
X1603000Y1326000D01*
X1466500Y1341000D02*
X1467500D01*
X2045500Y1165000D02*
Y1187000D01*
X2031500Y1165000D02*
Y1187000D01*
X2018000Y1186500D02*
X2018250Y1186250D01*
Y1165750D02*
Y1186250D01*
Y1165750D02*
X2018500Y1165500D01*
X2004500Y1166000D02*
Y1187000D01*
X1433500Y1308000D02*
X1466500Y1341000D01*
X1432500Y1308000D02*
X1433500D01*
X1958500Y1183000D02*
X1958750Y1182750D01*
Y1166750D02*
Y1182750D01*
Y1166750D02*
X1959000Y1166500D01*
D32*
X1931500Y714200D02*
D03*
X1948500D02*
D03*
Y701133D02*
D03*
X1931500D02*
D03*
D35*
X974000Y917215D02*
D03*
X954000Y926715D02*
D03*
Y907715D02*
D03*
X974000Y957107D02*
D03*
X954000Y966608D02*
D03*
Y947607D02*
D03*
X974000Y997000D02*
D03*
X954000Y1006500D02*
D03*
Y987500D02*
D03*
X974000Y1036892D02*
D03*
X954000Y1046393D02*
D03*
Y1027393D02*
D03*
D45*
X1582000Y1359500D02*
D03*
X1564000D02*
D03*
D76*
X1290400Y1242200D02*
D03*
X1468200D02*
D03*
Y1166000D02*
D03*
X1392000D02*
D03*
X1290400D02*
D03*
D85*
X1677670Y637540D02*
X1685000Y644870D01*
Y740000D01*
X1457460Y637540D02*
X1677670D01*
X1689930D01*
X1440000Y655000D02*
X1457460Y637540D01*
X1685440Y637000D02*
X1695500D01*
X1627500Y797500D02*
X1685000Y740000D01*
X1605280Y966327D02*
Y990600D01*
X1656080D02*
X1681480Y1016000D01*
X1711960D01*
X1539240Y1082040D02*
Y1105408D01*
X1529080Y1092200D02*
Y1167130D01*
X1711960Y1016000D02*
X1957500Y1016000D01*
X937500Y1049000D02*
Y1101678D01*
X937536Y1101713D02*
Y1155631D01*
X939405Y1157500D01*
X937500Y1101678D02*
X937536Y1101713D01*
X937500Y942215D02*
X938000D01*
X937500D02*
Y973500D01*
X938000Y942215D02*
X953500Y926715D01*
X1957500Y1016000D02*
X2016000Y957500D01*
Y831500D02*
Y957500D01*
X1605280Y966327D02*
X1627500Y944107D01*
X1490000Y655000D02*
X1512176Y677176D01*
Y745423D01*
X1420368Y837231D02*
X1512176Y745423D01*
X1420368Y837231D02*
Y870919D01*
X1413510Y873760D02*
X1529080Y989330D01*
X1420368Y870919D02*
X1526079Y976630D01*
X1538484Y977900D02*
X1539240D01*
X1537214Y976630D02*
X1538484Y977900D01*
X1526079Y976630D02*
X1537214D01*
X1490000Y695000D02*
X1505318Y710318D01*
Y742582D01*
X1413510Y834390D02*
X1505318Y742582D01*
X1413510Y834390D02*
Y873760D01*
X1535938Y1108710D02*
X1539240Y1105408D01*
X1535938Y1108710D02*
Y1164289D01*
X1575609Y1203960D01*
X1529080Y1167130D02*
X1573530Y1211580D01*
X1651000D01*
X1575609Y1203960D02*
X1630680D01*
X1631315Y1203325D02*
X1763395D01*
X1774190Y1214120D01*
X1630680Y1203960D02*
X1631315Y1203325D01*
X937500Y1013000D02*
Y1049000D01*
X940107Y1046393D02*
X954000D01*
X937500Y1049000D02*
X940107Y1046393D01*
X937500Y973500D02*
Y1013000D01*
X944000Y1006500D02*
X954000D01*
X937500Y1013000D02*
X944000Y1006500D01*
X937500Y973500D02*
X944392Y966608D01*
X954000D01*
X953500Y926715D02*
X954000D01*
X2098750Y957750D02*
X2099000Y958000D01*
X2099744Y837500D02*
X2100500D01*
X2093744Y831500D02*
X2099744Y837500D01*
X2016000Y831500D02*
X2093744D01*
X2016250Y957750D02*
X2098750D01*
X2016000Y957500D02*
X2016250Y957750D01*
X1810000Y695000D02*
X1829200Y714200D01*
X1931500D01*
X1948500Y661000D02*
Y701133D01*
X1924500Y637000D02*
X1948500Y661000D01*
X1695500Y637000D02*
X1924500D01*
X1860000Y695000D02*
X1866133Y701133D01*
X1931500D01*
X1627500Y797500D02*
Y944107D01*
X1948500Y701133D02*
Y714200D01*
D86*
X956765Y1138235D02*
Y1140140D01*
X939405Y1157500D02*
X956765Y1140140D01*
Y1138235D02*
X972525Y1122475D01*
X1137475D01*
X1408430Y1402430D02*
Y1510430D01*
X1434000Y1536000D01*
X1269000Y1263000D02*
X1408430Y1402430D01*
X1212000Y1124000D02*
X1281500D01*
X1138238Y1123238D02*
X1211237D01*
X1212000Y1124000D01*
X1269000Y1136500D02*
Y1263000D01*
Y1136500D02*
X1281500Y1124000D01*
X1571000Y1536000D02*
X1634000D01*
X1434000D02*
X1571000D01*
X1137475Y1122475D02*
X1138238Y1123238D01*
X1281500Y1124000D02*
X1335405Y1070095D01*
Y1067345D02*
Y1070095D01*
Y1067345D02*
X1392250Y1010500D01*
X1395000D01*
X2211500Y1073500D02*
X2232500Y1094500D01*
Y1198500D02*
Y1219500D01*
X2199000Y1253000D02*
X2232500Y1219500D01*
X2020000Y1253000D02*
X2199000D01*
X1718500Y1451500D02*
X1821500D01*
X1634000Y1536000D02*
X1718500Y1451500D01*
X1821500D02*
X2020000Y1253000D01*
X2232500Y1094500D02*
Y1198500D01*
X1439000Y970000D02*
X1439600Y970600D01*
Y1007700D01*
X1395000Y1010500D02*
X1397800Y1007700D01*
X1439600D01*
X1480500Y1017600D02*
Y1090000D01*
Y1017600D02*
X1490400Y1007700D01*
D87*
X1874520Y1231900D02*
X2076908D01*
X2091690Y1217118D01*
X2129790Y762000D02*
Y875619D01*
X2127000Y878409D02*
Y989000D01*
Y878409D02*
X2129790Y875619D01*
X2127000Y989000D02*
X2211500Y1073500D01*
X2041000Y727820D02*
Y751076D01*
X2040890Y727710D02*
X2041000Y727820D01*
X1970000Y822076D02*
X2041000Y751076D01*
X1970000Y822076D02*
Y946000D01*
X1306830Y710383D02*
X1307283Y709930D01*
X2091690Y1179830D02*
Y1217118D01*
X2109020Y1162500D02*
X2133000D01*
X2091690Y1179830D02*
X2109020Y1162500D01*
X1943000Y957000D02*
X1944000Y956000D01*
X1960000D01*
X1594400Y779400D02*
Y835000D01*
X1550000Y735000D02*
X1594400Y779400D01*
X1002000Y1018000D02*
X1002175Y1017825D01*
X1022500Y1142500D02*
X1023278Y1141722D01*
X1001946Y1036946D02*
X1002000Y1037000D01*
X974054Y1036946D02*
X1001946D01*
X974000Y1036892D02*
X974054Y1036946D01*
X1015000Y997000D02*
X1016000Y996000D01*
X1028554Y957554D02*
X1029000Y958000D01*
X974000Y957107D02*
X974446Y957554D01*
X1042607Y917607D02*
X1043000Y918000D01*
X974000Y917215D02*
X974392Y917607D01*
X1960000Y956000D02*
X1970000Y946000D01*
X2099000Y958000D02*
Y1128500D01*
X2133000Y1162500D01*
X2231500Y1197500D02*
X2232500Y1198500D01*
X2210000Y1197500D02*
X2231500D01*
D89*
X1656115Y946115D02*
Y990565D01*
X1656080Y990600D02*
X1656115Y990565D01*
X1605020Y1026160D02*
X1607440Y1028580D01*
Y1038480D02*
X1666460Y1097500D01*
X1605150Y990730D02*
Y1026030D01*
X1607440Y1028580D02*
Y1038480D01*
X1666460Y1097500D02*
X1812500D01*
X1605020Y1026160D02*
X1605150Y1026030D01*
Y990730D02*
X1605280Y990600D01*
X1359499Y1242200D02*
X1604211Y997488D01*
X1290400Y1242200D02*
X1359499D01*
X1296272Y815340D02*
X1318260D01*
X1280160Y832370D02*
X1286500D01*
X1290320Y821292D02*
Y828550D01*
Y821292D02*
X1296272Y815340D01*
X1318260D02*
X1348740Y784860D01*
X1286500Y832370D02*
X1290320Y828550D01*
X1357630Y835220D02*
X1360000Y832850D01*
X1642500Y932500D02*
X1656115Y946115D01*
X1832610Y1239520D02*
X1868170Y1275080D01*
X1774190Y1239520D02*
X1832610D01*
X1774190D02*
X1812500Y1201210D01*
Y1097500D02*
Y1201210D01*
X1440000Y695000D02*
Y696393D01*
X1422142Y714251D02*
X1440000Y696393D01*
X1422142Y714251D02*
Y757178D01*
X1394460Y784860D02*
X1422142Y757178D01*
X1348740Y784860D02*
X1394460D01*
X1359000Y831850D02*
X1360000Y832850D01*
X1359000Y811000D02*
Y831850D01*
X1812500Y1097500D02*
X1912500D01*
D90*
X1364330Y885150D02*
X1397000Y852480D01*
Y828000D02*
X1490000Y735000D01*
X1397000Y828000D02*
Y852480D01*
X1360000Y885150D02*
X1364330D01*
X1320800D02*
X1360000D01*
X1280160D02*
X1320800D01*
D91*
X1448000Y1207000D02*
X1467720Y1226720D01*
Y1241720D01*
X1448000Y1176000D02*
Y1207000D01*
X1467720Y1241720D02*
X1468200Y1242200D01*
X1571000Y1378000D02*
Y1536000D01*
Y1377588D02*
Y1378000D01*
X1566325Y1372913D02*
X1571000Y1377588D01*
X1566325Y1361825D02*
Y1372913D01*
X1564000Y1359500D02*
X1566325Y1361825D01*
D92*
X1240000Y655000D02*
D03*
Y695000D02*
D03*
Y735000D02*
D03*
X1290000Y655000D02*
D03*
X1340000D02*
D03*
Y695000D02*
D03*
Y735000D02*
D03*
X1390000Y655000D02*
D03*
Y695000D02*
D03*
Y735000D02*
D03*
X1440000Y655000D02*
D03*
Y695000D02*
D03*
Y735000D02*
D03*
X1490000Y655000D02*
D03*
Y695000D02*
D03*
Y735000D02*
D03*
X1550000Y655000D02*
D03*
Y695000D02*
D03*
Y735000D02*
D03*
X1610000Y655000D02*
D03*
Y695000D02*
D03*
Y735000D02*
D03*
X1660000Y655000D02*
D03*
Y695000D02*
D03*
Y735000D02*
D03*
X1710000Y655000D02*
D03*
Y695000D02*
D03*
Y735000D02*
D03*
X1760000Y655000D02*
D03*
Y695000D02*
D03*
Y735000D02*
D03*
X1810000Y655000D02*
D03*
Y695000D02*
D03*
Y735000D02*
D03*
X1860000Y655000D02*
D03*
Y695000D02*
D03*
Y735000D02*
D03*
X1290000D02*
D03*
Y695000D02*
D03*
D93*
X1439600Y1007700D02*
D03*
X1465000D02*
D03*
X1518200Y835000D02*
D03*
X1543600D02*
D03*
X1569000D02*
D03*
X1432500Y1308000D02*
D03*
X1675900Y1268500D02*
D03*
X2129790Y762000D02*
D03*
X2040890Y727710D02*
D03*
D94*
X1490400Y1007700D02*
D03*
D95*
X1656080Y990600D02*
D03*
X1630680D02*
D03*
X1605280D02*
D03*
D96*
X1594400Y835000D02*
D03*
X1407100Y1308000D02*
D03*
X1650500Y1268500D02*
D03*
D97*
X1035000Y655000D02*
D03*
X2065000D02*
D03*
D98*
X1100000D02*
D03*
X2000000D02*
D03*
D99*
X2260600Y1219200D02*
D03*
X2273300Y1193800D02*
D03*
X2260600Y1168400D02*
D03*
X2273300Y1143000D02*
D03*
X2260600Y1117600D02*
D03*
X2273300Y1092200D02*
D03*
X2260600Y1066800D02*
D03*
X2273300Y1041400D02*
D03*
X2260600Y1016000D02*
D03*
X2273300Y990600D02*
D03*
X2260600Y965200D02*
D03*
X2273300Y939800D02*
D03*
X2260600Y914400D02*
D03*
X2273300Y889000D02*
D03*
Y838200D02*
D03*
X2260600Y812800D02*
D03*
X2247900Y1244600D02*
D03*
Y1193800D02*
D03*
Y1143000D02*
D03*
Y1092200D02*
D03*
X2235200Y1066800D02*
D03*
X2247900Y1041400D02*
D03*
X2235200Y1016000D02*
D03*
X2247900Y990600D02*
D03*
X2235200Y965200D02*
D03*
X2247900Y939800D02*
D03*
X2235200Y914400D02*
D03*
Y812800D02*
D03*
X2209800Y1270000D02*
D03*
X2222500Y1244600D02*
D03*
X2209800Y1219200D02*
D03*
Y1168400D02*
D03*
X2222500Y1143000D02*
D03*
X2209800Y1117600D02*
D03*
X2222500Y1041400D02*
D03*
Y990600D02*
D03*
X2209800Y965200D02*
D03*
X2222500Y939800D02*
D03*
X2209800Y914400D02*
D03*
Y812800D02*
D03*
X2222500Y787400D02*
D03*
X2209800Y762000D02*
D03*
X2184400Y1270000D02*
D03*
X2197100Y939800D02*
D03*
Y889000D02*
D03*
Y838200D02*
D03*
X2184400Y812800D02*
D03*
X2197100Y787400D02*
D03*
X2184400Y762000D02*
D03*
X2159000Y1270000D02*
D03*
Y1219200D02*
D03*
Y1168400D02*
D03*
Y1066800D02*
D03*
Y965200D02*
D03*
X2171700Y787400D02*
D03*
X2159000Y762000D02*
D03*
X2171700Y736600D02*
D03*
X2133600Y1270000D02*
D03*
Y1117600D02*
D03*
X2146300Y1092200D02*
D03*
X2133600Y1066800D02*
D03*
X2146300Y1041400D02*
D03*
Y838200D02*
D03*
Y787400D02*
D03*
Y736600D02*
D03*
X2108200Y1270000D02*
D03*
Y1117600D02*
D03*
X2120900Y1092200D02*
D03*
Y1041400D02*
D03*
X2108200Y812800D02*
D03*
X2120900Y736600D02*
D03*
X2082800Y1270000D02*
D03*
X2095500Y1143000D02*
D03*
X2082800Y1117600D02*
D03*
Y812800D02*
D03*
Y762000D02*
D03*
X2095500Y736600D02*
D03*
X2082800Y711200D02*
D03*
X2095500Y685800D02*
D03*
X2057400Y1270000D02*
D03*
Y1219200D02*
D03*
X2070100Y1193800D02*
D03*
Y1143000D02*
D03*
X2057400Y1066800D02*
D03*
X2070100Y1041400D02*
D03*
X2057400Y1016000D02*
D03*
Y762000D02*
D03*
Y711200D02*
D03*
X2070100Y685800D02*
D03*
X2057400Y609600D02*
D03*
X2032000Y1270000D02*
D03*
Y1219200D02*
D03*
Y1117600D02*
D03*
X2044700Y1092200D02*
D03*
X2032000Y812800D02*
D03*
Y711200D02*
D03*
X2044700Y685800D02*
D03*
X2032000Y660400D02*
D03*
X2044700Y635000D02*
D03*
X2032000Y609600D02*
D03*
X2006600Y914400D02*
D03*
Y812800D02*
D03*
Y762000D02*
D03*
Y711200D02*
D03*
X2019300Y685800D02*
D03*
Y635000D02*
D03*
X2006600Y609600D02*
D03*
X1981200Y1320800D02*
D03*
X1993900Y1295400D02*
D03*
Y1193800D02*
D03*
Y1143000D02*
D03*
X1981200Y1117600D02*
D03*
X1993900Y1092200D02*
D03*
Y939800D02*
D03*
Y889000D02*
D03*
Y838200D02*
D03*
X1981200Y762000D02*
D03*
Y711200D02*
D03*
X1993900Y685800D02*
D03*
X1981200Y609600D02*
D03*
X1968500Y1143000D02*
D03*
Y1092200D02*
D03*
Y1041400D02*
D03*
Y990600D02*
D03*
X1955800Y914400D02*
D03*
Y863600D02*
D03*
Y762000D02*
D03*
X1968500Y685800D02*
D03*
Y635000D02*
D03*
X1955800Y609600D02*
D03*
X1930400Y1371600D02*
D03*
X1943100Y1346200D02*
D03*
Y1143000D02*
D03*
X1930400Y1117600D02*
D03*
X1943100Y1092200D02*
D03*
X1930400Y1066800D02*
D03*
X1943100Y939800D02*
D03*
X1930400Y914400D02*
D03*
X1943100Y889000D02*
D03*
X1930400Y863600D02*
D03*
X1943100Y838200D02*
D03*
X1930400Y812800D02*
D03*
Y762000D02*
D03*
Y660400D02*
D03*
X1943100Y635000D02*
D03*
X1930400Y609600D02*
D03*
X1905000Y1270000D02*
D03*
X1917700Y1244600D02*
D03*
Y1143000D02*
D03*
X1905000Y965200D02*
D03*
X1917700Y939800D02*
D03*
X1905000Y914400D02*
D03*
X1917700Y889000D02*
D03*
X1905000Y863600D02*
D03*
X1917700Y838200D02*
D03*
X1905000Y812800D02*
D03*
Y762000D02*
D03*
X1917700Y685800D02*
D03*
X1905000Y660400D02*
D03*
Y609600D02*
D03*
X1879600Y1422400D02*
D03*
X1892300Y1397000D02*
D03*
X1879600Y1371600D02*
D03*
Y1270000D02*
D03*
X1892300Y1244600D02*
D03*
Y838200D02*
D03*
X1879600Y812800D02*
D03*
Y762000D02*
D03*
X1892300Y685800D02*
D03*
X1879600Y660400D02*
D03*
Y609600D02*
D03*
X1854200Y1371600D02*
D03*
X1866900Y1295400D02*
D03*
Y1244600D02*
D03*
Y838200D02*
D03*
X1854200Y812800D02*
D03*
Y762000D02*
D03*
Y609600D02*
D03*
X1828800Y1473200D02*
D03*
X1841500Y1447800D02*
D03*
X1828800Y1422400D02*
D03*
X1841500Y1397000D02*
D03*
X1828800Y1371600D02*
D03*
Y1117600D02*
D03*
Y1066800D02*
D03*
Y863600D02*
D03*
X1841500Y838200D02*
D03*
X1828800Y812800D02*
D03*
Y762000D02*
D03*
X1841500Y685800D02*
D03*
X1828800Y660400D02*
D03*
Y609600D02*
D03*
X1803400Y1473200D02*
D03*
Y1422400D02*
D03*
X1816100Y1397000D02*
D03*
X1803400Y1371600D02*
D03*
Y1066800D02*
D03*
Y965200D02*
D03*
Y914400D02*
D03*
X1816100Y838200D02*
D03*
X1803400Y812800D02*
D03*
Y762000D02*
D03*
Y711200D02*
D03*
Y609600D02*
D03*
X1778000Y1524000D02*
D03*
X1790700Y1498600D02*
D03*
X1778000Y1473200D02*
D03*
Y1422400D02*
D03*
X1790700Y838200D02*
D03*
X1778000Y812800D02*
D03*
X1790700Y736600D02*
D03*
Y685800D02*
D03*
X1778000Y660400D02*
D03*
Y609600D02*
D03*
X1752600Y1473200D02*
D03*
Y1422400D02*
D03*
Y1371600D02*
D03*
X1765300Y1295400D02*
D03*
Y838200D02*
D03*
X1752600Y812800D02*
D03*
Y711200D02*
D03*
Y609600D02*
D03*
X1727200Y1422400D02*
D03*
Y1371600D02*
D03*
X1739900Y1244600D02*
D03*
X1727200Y1066800D02*
D03*
X1739900Y838200D02*
D03*
X1727200Y812800D02*
D03*
X1739900Y787400D02*
D03*
Y685800D02*
D03*
X1727200Y660400D02*
D03*
Y609600D02*
D03*
X1701800Y1422400D02*
D03*
Y1371600D02*
D03*
X1714500Y1244600D02*
D03*
X1701800Y1117600D02*
D03*
Y1066800D02*
D03*
X1714500Y1041400D02*
D03*
X1701800Y965200D02*
D03*
Y914400D02*
D03*
X1714500Y787400D02*
D03*
X1701800Y711200D02*
D03*
Y609600D02*
D03*
X1676400Y1524000D02*
D03*
X1689100Y1498600D02*
D03*
Y1244600D02*
D03*
Y1143000D02*
D03*
X1676400Y1117600D02*
D03*
Y1066800D02*
D03*
X1689100Y1041400D02*
D03*
Y990600D02*
D03*
X1676400Y965200D02*
D03*
X1689100Y939800D02*
D03*
Y889000D02*
D03*
X1676400Y863600D02*
D03*
Y660400D02*
D03*
Y609600D02*
D03*
X1663700Y1143000D02*
D03*
X1651000Y1117600D02*
D03*
X1663700Y1041400D02*
D03*
X1651000Y1016000D02*
D03*
X1663700Y889000D02*
D03*
X1651000Y863600D02*
D03*
X1663700Y838200D02*
D03*
Y787400D02*
D03*
X1651000Y711200D02*
D03*
Y609600D02*
D03*
X1625600Y1524000D02*
D03*
X1638300Y1498600D02*
D03*
Y1143000D02*
D03*
X1625600Y1117600D02*
D03*
X1638300Y1092200D02*
D03*
X1625600Y965200D02*
D03*
X1638300Y889000D02*
D03*
Y838200D02*
D03*
Y685800D02*
D03*
X1625600Y609600D02*
D03*
X1600200Y1524000D02*
D03*
X1612900Y1498600D02*
D03*
X1600200Y1117600D02*
D03*
X1612900Y1092200D02*
D03*
X1600200Y1066800D02*
D03*
X1612900Y889000D02*
D03*
X1600200Y863600D02*
D03*
X1612900Y838200D02*
D03*
Y787400D02*
D03*
X1600200Y762000D02*
D03*
Y711200D02*
D03*
Y609600D02*
D03*
X1587500Y1143000D02*
D03*
X1574800Y1117600D02*
D03*
X1587500Y1092200D02*
D03*
X1574800Y1066800D02*
D03*
X1587500Y1041400D02*
D03*
Y990600D02*
D03*
X1574800Y965200D02*
D03*
X1587500Y889000D02*
D03*
X1574800Y863600D02*
D03*
Y660400D02*
D03*
Y609600D02*
D03*
X1562100Y1143000D02*
D03*
X1549400Y1117600D02*
D03*
X1562100Y1092200D02*
D03*
X1549400Y965200D02*
D03*
Y914400D02*
D03*
X1562100Y889000D02*
D03*
X1549400Y863600D02*
D03*
Y762000D02*
D03*
Y609600D02*
D03*
X1536700Y939800D02*
D03*
X1524000Y914400D02*
D03*
X1536700Y889000D02*
D03*
X1524000Y863600D02*
D03*
Y812800D02*
D03*
X1536700Y787400D02*
D03*
X1524000Y762000D02*
D03*
Y660400D02*
D03*
Y609600D02*
D03*
X1498600Y1168400D02*
D03*
X1511300Y1143000D02*
D03*
Y1041400D02*
D03*
Y939800D02*
D03*
Y889000D02*
D03*
X1498600Y863600D02*
D03*
Y812800D02*
D03*
X1511300Y787400D02*
D03*
X1498600Y609600D02*
D03*
X1485900Y1244600D02*
D03*
X1473200Y1219200D02*
D03*
X1485900Y1143000D02*
D03*
Y889000D02*
D03*
Y838200D02*
D03*
X1473200Y812800D02*
D03*
X1485900Y787400D02*
D03*
X1473200Y711200D02*
D03*
Y660400D02*
D03*
Y609600D02*
D03*
X1447800Y1270000D02*
D03*
Y1117600D02*
D03*
Y1066800D02*
D03*
X1460500Y1041400D02*
D03*
Y939800D02*
D03*
Y838200D02*
D03*
Y736600D02*
D03*
X1447800Y711200D02*
D03*
X1460500Y685800D02*
D03*
X1447800Y609600D02*
D03*
X1435100Y1447800D02*
D03*
Y1397000D02*
D03*
X1422400Y1270000D02*
D03*
X1435100Y1244600D02*
D03*
X1422400Y1219200D02*
D03*
X1435100Y1143000D02*
D03*
X1422400Y1117600D02*
D03*
Y1066800D02*
D03*
X1435100Y1041400D02*
D03*
X1422400Y965200D02*
D03*
Y660400D02*
D03*
Y609600D02*
D03*
X1397000Y1524000D02*
D03*
Y1371600D02*
D03*
Y1270000D02*
D03*
X1409700Y1244600D02*
D03*
Y1041400D02*
D03*
Y990600D02*
D03*
X1397000Y965200D02*
D03*
X1409700Y939800D02*
D03*
Y889000D02*
D03*
Y787400D02*
D03*
Y736600D02*
D03*
X1397000Y711200D02*
D03*
X1409700Y685800D02*
D03*
X1397000Y609600D02*
D03*
X1371600Y1524000D02*
D03*
X1384300Y1498600D02*
D03*
Y1397000D02*
D03*
Y1295400D02*
D03*
X1371600Y1270000D02*
D03*
X1384300Y1244600D02*
D03*
Y1193800D02*
D03*
X1371600Y1066800D02*
D03*
Y914400D02*
D03*
X1384300Y889000D02*
D03*
X1371600Y762000D02*
D03*
Y711200D02*
D03*
Y660400D02*
D03*
Y609600D02*
D03*
X1346200Y1524000D02*
D03*
X1358900Y1498600D02*
D03*
X1346200Y1473200D02*
D03*
X1358900Y1295400D02*
D03*
X1346200Y1270000D02*
D03*
Y1219200D02*
D03*
X1358900Y1193800D02*
D03*
X1346200Y1168400D02*
D03*
X1358900Y1092200D02*
D03*
Y990600D02*
D03*
X1346200Y965200D02*
D03*
X1358900Y939800D02*
D03*
X1346200Y914400D02*
D03*
Y863600D02*
D03*
Y812800D02*
D03*
Y762000D02*
D03*
Y711200D02*
D03*
X1358900Y685800D02*
D03*
X1346200Y609600D02*
D03*
X1320800Y1524000D02*
D03*
X1333500Y1498600D02*
D03*
X1320800Y1473200D02*
D03*
X1333500Y1447800D02*
D03*
Y1295400D02*
D03*
X1320800Y1270000D02*
D03*
Y1219200D02*
D03*
X1333500Y1193800D02*
D03*
X1320800Y1168400D02*
D03*
X1333500Y1092200D02*
D03*
X1320800Y1066800D02*
D03*
X1333500Y1041400D02*
D03*
X1320800Y1016000D02*
D03*
X1333500Y939800D02*
D03*
Y838200D02*
D03*
X1320800Y711200D02*
D03*
Y660400D02*
D03*
Y609600D02*
D03*
X1308100Y1498600D02*
D03*
X1295400Y1473200D02*
D03*
X1308100Y1447800D02*
D03*
X1295400Y1422400D02*
D03*
Y1219200D02*
D03*
X1308100Y1193800D02*
D03*
Y990600D02*
D03*
X1295400Y965200D02*
D03*
Y914400D02*
D03*
Y863600D02*
D03*
X1308100Y787400D02*
D03*
X1295400Y762000D02*
D03*
X1308100Y736600D02*
D03*
Y685800D02*
D03*
X1295400Y609600D02*
D03*
X1282700Y1447800D02*
D03*
X1270000Y1422400D02*
D03*
X1282700Y1397000D02*
D03*
Y1193800D02*
D03*
Y1143000D02*
D03*
Y1041400D02*
D03*
X1270000Y1016000D02*
D03*
Y965200D02*
D03*
Y914400D02*
D03*
Y863600D02*
D03*
Y812800D02*
D03*
Y762000D02*
D03*
Y711200D02*
D03*
Y660400D02*
D03*
Y609600D02*
D03*
X1257300Y1447800D02*
D03*
X1244600Y1422400D02*
D03*
X1257300Y1397000D02*
D03*
Y1193800D02*
D03*
Y1092200D02*
D03*
X1244600Y1066800D02*
D03*
Y1016000D02*
D03*
X1257300Y990600D02*
D03*
X1244600Y965200D02*
D03*
X1257300Y939800D02*
D03*
X1244600Y914400D02*
D03*
X1257300Y889000D02*
D03*
X1244600Y863600D02*
D03*
X1257300Y838200D02*
D03*
X1244600Y812800D02*
D03*
X1257300Y787400D02*
D03*
Y685800D02*
D03*
X1244600Y609600D02*
D03*
X1219200Y1524000D02*
D03*
X1231900Y1498600D02*
D03*
Y1447800D02*
D03*
X1219200Y1422400D02*
D03*
X1231900Y1397000D02*
D03*
X1219200Y1066800D02*
D03*
X1231900Y1041400D02*
D03*
X1219200Y1016000D02*
D03*
X1231900Y990600D02*
D03*
X1219200Y965200D02*
D03*
X1231900Y939800D02*
D03*
X1219200Y914400D02*
D03*
X1231900Y889000D02*
D03*
X1219200Y863600D02*
D03*
X1231900Y838200D02*
D03*
X1219200Y812800D02*
D03*
Y762000D02*
D03*
Y711200D02*
D03*
Y660400D02*
D03*
Y609600D02*
D03*
X1193800Y1524000D02*
D03*
X1206500Y1498600D02*
D03*
Y1447800D02*
D03*
X1193800Y1422400D02*
D03*
X1206500Y1397000D02*
D03*
X1193800Y1270000D02*
D03*
X1206500Y1092200D02*
D03*
X1193800Y1066800D02*
D03*
X1206500Y1041400D02*
D03*
Y990600D02*
D03*
Y939800D02*
D03*
X1193800Y914400D02*
D03*
X1206500Y889000D02*
D03*
X1193800Y863600D02*
D03*
X1206500Y838200D02*
D03*
X1193800Y711200D02*
D03*
X1206500Y685800D02*
D03*
X1193800Y609600D02*
D03*
X1168400Y1524000D02*
D03*
X1181100Y1498600D02*
D03*
X1168400Y1422400D02*
D03*
X1181100Y1397000D02*
D03*
X1168400Y1270000D02*
D03*
X1181100Y1244600D02*
D03*
X1168400Y1219200D02*
D03*
X1181100Y1143000D02*
D03*
Y990600D02*
D03*
X1168400Y863600D02*
D03*
X1181100Y787400D02*
D03*
X1168400Y762000D02*
D03*
X1181100Y736600D02*
D03*
X1168400Y711200D02*
D03*
Y660400D02*
D03*
X1181100Y635000D02*
D03*
X1168400Y609600D02*
D03*
X1143000Y1524000D02*
D03*
X1155700Y1498600D02*
D03*
X1143000Y1473200D02*
D03*
Y1422400D02*
D03*
X1155700Y1397000D02*
D03*
X1143000Y1270000D02*
D03*
X1155700Y1244600D02*
D03*
X1143000Y1219200D02*
D03*
X1155700Y1193800D02*
D03*
X1143000Y1168400D02*
D03*
X1155700Y990600D02*
D03*
X1143000Y914400D02*
D03*
X1155700Y889000D02*
D03*
X1143000Y812800D02*
D03*
Y762000D02*
D03*
X1155700Y736600D02*
D03*
X1143000Y660400D02*
D03*
X1155700Y635000D02*
D03*
X1143000Y609600D02*
D03*
X1117600Y1524000D02*
D03*
X1130300Y1498600D02*
D03*
X1117600Y1473200D02*
D03*
Y1270000D02*
D03*
X1130300Y1244600D02*
D03*
X1117600Y1219200D02*
D03*
X1130300Y1193800D02*
D03*
X1117600Y1168400D02*
D03*
X1130300Y1092200D02*
D03*
X1117600Y1066800D02*
D03*
X1130300Y1041400D02*
D03*
X1117600Y1016000D02*
D03*
X1130300Y990600D02*
D03*
X1117600Y965200D02*
D03*
X1130300Y939800D02*
D03*
X1117600Y914400D02*
D03*
X1130300Y889000D02*
D03*
X1117600Y863600D02*
D03*
X1130300Y838200D02*
D03*
X1117600Y812800D02*
D03*
X1130300Y787400D02*
D03*
X1117600Y762000D02*
D03*
Y711200D02*
D03*
X1130300Y685800D02*
D03*
Y635000D02*
D03*
X1117600Y609600D02*
D03*
X1092200Y1524000D02*
D03*
X1104900Y1498600D02*
D03*
X1092200Y1473200D02*
D03*
Y1270000D02*
D03*
X1104900Y1244600D02*
D03*
X1092200Y1219200D02*
D03*
X1104900Y1193800D02*
D03*
X1092200Y1168400D02*
D03*
X1104900Y990600D02*
D03*
Y939800D02*
D03*
X1092200Y863600D02*
D03*
X1104900Y838200D02*
D03*
X1092200Y812800D02*
D03*
X1104900Y787400D02*
D03*
X1092200Y711200D02*
D03*
X1104900Y685800D02*
D03*
X1092200Y609600D02*
D03*
X1079500Y1498600D02*
D03*
X1066800Y1473200D02*
D03*
Y1270000D02*
D03*
X1079500Y1244600D02*
D03*
X1066800Y1219200D02*
D03*
X1079500Y1193800D02*
D03*
X1066800Y1168400D02*
D03*
Y1066800D02*
D03*
X1079500Y990600D02*
D03*
X1066800Y863600D02*
D03*
X1079500Y838200D02*
D03*
X1066800Y812800D02*
D03*
Y762000D02*
D03*
X1079500Y736600D02*
D03*
X1066800Y711200D02*
D03*
X1079500Y685800D02*
D03*
X1066800Y660400D02*
D03*
X1079500Y635000D02*
D03*
X1066800Y609600D02*
D03*
X1041400Y1473200D02*
D03*
Y1270000D02*
D03*
X1054100Y1244600D02*
D03*
X1041400Y1219200D02*
D03*
X1054100Y1193800D02*
D03*
X1041400Y1168400D02*
D03*
X1054100Y1092200D02*
D03*
X1041400Y1066800D02*
D03*
X1054100Y990600D02*
D03*
Y939800D02*
D03*
Y889000D02*
D03*
Y838200D02*
D03*
X1041400Y762000D02*
D03*
X1054100Y736600D02*
D03*
X1041400Y711200D02*
D03*
X1054100Y685800D02*
D03*
Y635000D02*
D03*
X1041400Y609600D02*
D03*
X1016000Y1473200D02*
D03*
Y1270000D02*
D03*
X1028700Y1244600D02*
D03*
X1016000Y1219200D02*
D03*
X1028700Y1193800D02*
D03*
X1016000Y1168400D02*
D03*
Y812800D02*
D03*
X1028700Y787400D02*
D03*
X1016000Y762000D02*
D03*
X1028700Y736600D02*
D03*
X1016000Y711200D02*
D03*
X1028700Y685800D02*
D03*
X1003300Y1498600D02*
D03*
X990600Y1473200D02*
D03*
X1003300Y1244600D02*
D03*
X990600Y1219200D02*
D03*
X1003300Y1193800D02*
D03*
X990600Y1168400D02*
D03*
Y1016000D02*
D03*
Y965200D02*
D03*
Y863600D02*
D03*
Y812800D02*
D03*
X1003300Y787400D02*
D03*
X990600Y762000D02*
D03*
X1003300Y736600D02*
D03*
X977900Y1498600D02*
D03*
X965200Y1473200D02*
D03*
X977900Y1295400D02*
D03*
X965200Y1219200D02*
D03*
X977900Y1193800D02*
D03*
X965200Y1168400D02*
D03*
X977900Y1143000D02*
D03*
Y1092200D02*
D03*
X965200Y1066800D02*
D03*
Y1016000D02*
D03*
X977900Y939800D02*
D03*
Y889000D02*
D03*
X965200Y863600D02*
D03*
Y812800D02*
D03*
X977900Y787400D02*
D03*
X965200Y762000D02*
D03*
X977900Y736600D02*
D03*
X952500Y1498600D02*
D03*
Y1295400D02*
D03*
Y1244600D02*
D03*
X939800Y1219200D02*
D03*
X952500Y1193800D02*
D03*
Y1092200D02*
D03*
X939800Y914400D02*
D03*
X952500Y889000D02*
D03*
X939800Y863600D02*
D03*
Y812800D02*
D03*
X952500Y787400D02*
D03*
X939800Y762000D02*
D03*
X952500Y736600D02*
D03*
X914400Y1524000D02*
D03*
X927100Y1498600D02*
D03*
X914400Y1270000D02*
D03*
Y1219200D02*
D03*
X927100Y1193800D02*
D03*
X914400Y1168400D02*
D03*
X927100Y1143000D02*
D03*
X914400Y1117600D02*
D03*
X927100Y1092200D02*
D03*
X914400Y1066800D02*
D03*
X927100Y1041400D02*
D03*
X914400Y1016000D02*
D03*
X927100Y990600D02*
D03*
X914400Y965200D02*
D03*
X927100Y939800D02*
D03*
X914400Y914400D02*
D03*
X927100Y889000D02*
D03*
X914400Y863600D02*
D03*
Y812800D02*
D03*
X927100Y787400D02*
D03*
X914400Y762000D02*
D03*
X927100Y736600D02*
D03*
X889000Y1524000D02*
D03*
X901700Y1498600D02*
D03*
Y1447800D02*
D03*
X889000Y1320800D02*
D03*
Y1270000D02*
D03*
X901700Y1244600D02*
D03*
X889000Y1219200D02*
D03*
X901700Y1092200D02*
D03*
X889000Y1066800D02*
D03*
X901700Y1041400D02*
D03*
X889000Y1016000D02*
D03*
X901700Y990600D02*
D03*
X889000Y965200D02*
D03*
X901700Y939800D02*
D03*
X889000Y914400D02*
D03*
X901700Y889000D02*
D03*
Y838200D02*
D03*
X889000Y812800D02*
D03*
X901700Y787400D02*
D03*
X889000Y762000D02*
D03*
X863600Y1524000D02*
D03*
X876300Y1498600D02*
D03*
Y1447800D02*
D03*
X863600Y1320800D02*
D03*
X876300Y1295400D02*
D03*
X863600Y1270000D02*
D03*
X876300Y1244600D02*
D03*
X863600Y1219200D02*
D03*
X876300Y1193800D02*
D03*
Y1092200D02*
D03*
X863600Y1066800D02*
D03*
X876300Y1041400D02*
D03*
X863600Y1016000D02*
D03*
X876300Y990600D02*
D03*
X863600Y965200D02*
D03*
X876300Y939800D02*
D03*
X863600Y914400D02*
D03*
Y812800D02*
D03*
X876300Y787400D02*
D03*
X850900Y1498600D02*
D03*
X838200Y1473200D02*
D03*
Y1422400D02*
D03*
Y1371600D02*
D03*
Y1320800D02*
D03*
Y1270000D02*
D03*
Y1219200D02*
D03*
X850900Y1193800D02*
D03*
X838200Y1168400D02*
D03*
Y1117600D02*
D03*
X850900Y1092200D02*
D03*
X838200Y1066800D02*
D03*
X850900Y1041400D02*
D03*
X838200Y1016000D02*
D03*
X850900Y990600D02*
D03*
X838200Y965200D02*
D03*
X850900Y939800D02*
D03*
X838200Y914400D02*
D03*
Y812800D02*
D03*
X902970Y1412240D02*
D03*
X1677670Y637540D02*
D03*
X880110Y1329690D02*
D03*
X1390650Y1404620D02*
D03*
X1398680Y1419000D02*
D03*
X1884869Y1322869D02*
D03*
X1899489Y1323489D02*
D03*
X1911000Y1321000D02*
D03*
X1874520Y1231900D02*
D03*
X1244600Y1351280D02*
D03*
X1268730Y1375410D02*
D03*
X995680Y1314450D02*
D03*
Y1292860D02*
D03*
X1209040Y1303020D02*
D03*
X1241384Y1307506D02*
D03*
X1539240Y1082040D02*
D03*
X1529080Y1092200D02*
D03*
X1217930Y1311910D02*
D03*
X1240790Y1295400D02*
D03*
X1395730Y1461770D02*
D03*
X1350010Y1367790D02*
D03*
X1417320Y1370330D02*
D03*
X1346200Y1460500D02*
D03*
X1199522Y1295047D02*
D03*
X1741000Y1024255D02*
D03*
X1791000D02*
D03*
X853440Y1470660D02*
D03*
X844550Y1459230D02*
D03*
X867410Y1473200D02*
D03*
X885190D02*
D03*
X1199349Y1232651D02*
D03*
X1377950Y1316990D02*
D03*
X930910Y1473200D02*
D03*
X916940D02*
D03*
X1539240Y977900D02*
D03*
X1563370Y1177290D02*
D03*
X1529080Y989330D02*
D03*
X1651000Y1211580D02*
D03*
X1774190Y1214120D02*
D03*
X1799000Y1118000D02*
D03*
X1774190Y1323340D02*
D03*
X1642110Y1235710D02*
D03*
X1648460Y1248410D02*
D03*
X1692910Y1325880D02*
D03*
X1883000Y1340485D02*
D03*
X1897000D02*
D03*
X1911000D02*
D03*
X1870000D02*
D03*
X1856740D02*
D03*
Y1322015D02*
D03*
X1870000Y1322000D02*
D03*
X1448000Y1176000D02*
D03*
X1491000Y1188000D02*
D03*
X1943000Y957000D02*
D03*
X1660000Y1394000D02*
D03*
X1009000Y1004000D02*
D03*
X1002000Y1018000D02*
D03*
X1041000Y1132000D02*
D03*
X996000Y1063000D02*
D03*
X1002000Y1037000D02*
D03*
X1016000Y996000D02*
D03*
X1029000Y958000D02*
D03*
X1043000Y918000D02*
D03*
X1022500Y1142500D02*
D03*
X2099000Y958000D02*
D03*
X2211500Y1073500D02*
D03*
X1420000Y1339000D02*
D03*
X1623000Y1315000D02*
D03*
X1615000Y1415000D02*
D03*
X1521000Y1422000D02*
D03*
X1512000Y1334000D02*
D03*
X1546000Y1315000D02*
D03*
X1606000Y1313000D02*
D03*
X1614000Y1322000D02*
D03*
X1571000Y1378000D02*
D03*
X1253988Y1233988D02*
D03*
X1467500Y1341000D02*
D03*
X2045500Y1187000D02*
D03*
Y1165000D02*
D03*
X2031500Y1187000D02*
D03*
Y1165000D02*
D03*
X2018000Y1186500D02*
D03*
X2018500Y1165500D02*
D03*
X2004500Y1187000D02*
D03*
Y1166000D02*
D03*
X1617500Y1149000D02*
D03*
Y1180500D02*
D03*
X1958500Y1183000D02*
D03*
X1959000Y1166500D02*
D03*
X2133000Y1162500D02*
D03*
X2100500Y837500D02*
D03*
X2016000Y831500D02*
D03*
Y957500D02*
D03*
X2210000Y1197500D02*
D03*
D100*
X939405Y1157500D02*
D03*
X1212000Y1124000D02*
D03*
X1868170Y1275080D02*
D03*
X1774190Y1239520D02*
D03*
X1359000Y811000D02*
D03*
X1571000Y1536000D02*
D03*
X1137475Y1122475D02*
D03*
X1392500Y912500D02*
D03*
X1812500Y1097500D02*
D03*
X1912500D02*
D03*
D101*
X870000Y1140000D02*
D03*
X1271270Y1511300D02*
D03*
X870000Y860000D02*
D03*
X2230000D02*
D03*
X1730000Y1510000D02*
D03*
D102*
X1280160Y832370D02*
D03*
Y884670D02*
D03*
X1360000Y832850D02*
D03*
Y885150D02*
D03*
D103*
X1395000Y979500D02*
D03*
Y1010500D02*
D03*
D104*
X1439000Y970000D02*
D03*
X1470000D02*
D03*
X1449500Y1090000D02*
D03*
X1480500D02*
D03*
X1605020Y1026160D02*
D03*
X1636020D02*
D03*
X1642500Y932500D02*
D03*
X1611500D02*
D03*
D105*
X1602000Y1325000D02*
D03*
X1588000D02*
D03*
M02*
