G04*
G04 #@! TF.GenerationSoftware,Altium Limited,Altium Designer,25.0.2 (28)*
G04*
G04 Layer_Color=128*
%FSLAX44Y44*%
%MOMM*%
G71*
G04*
G04 #@! TF.SameCoordinates,1489D581-9A80-4730-A308-F2CAF4F028AF*
G04*
G04*
G04 #@! TF.FilePolarity,Positive*
G04*
G01*
G75*
%ADD32R,1.0000X0.9000*%
%ADD35R,0.9000X0.8000*%
%ADD45R,1.1000X1.1000*%
%ADD102R,3.1500X1.7800*%
%ADD103R,1.9000X1.3500*%
%ADD104R,1.5000X2.8000*%
%ADD105R,0.7000X0.7000*%
D32*
X1931500Y714200D02*
D03*
X1948500D02*
D03*
Y701133D02*
D03*
X1931500D02*
D03*
D35*
X974000Y917215D02*
D03*
X954000Y926715D02*
D03*
Y907715D02*
D03*
X974000Y957107D02*
D03*
X954000Y966608D02*
D03*
Y947607D02*
D03*
X974000Y997000D02*
D03*
X954000Y1006500D02*
D03*
Y987500D02*
D03*
X974000Y1036892D02*
D03*
X954000Y1046393D02*
D03*
Y1027393D02*
D03*
D45*
X1582000Y1359500D02*
D03*
X1564000D02*
D03*
D102*
X1280160Y832370D02*
D03*
Y884670D02*
D03*
X1360000Y832850D02*
D03*
Y885150D02*
D03*
D103*
X1395000Y979500D02*
D03*
Y1010500D02*
D03*
D104*
X1439000Y970000D02*
D03*
X1470000D02*
D03*
X1449500Y1090000D02*
D03*
X1480500D02*
D03*
X1605020Y1026160D02*
D03*
X1636020D02*
D03*
X1642500Y932500D02*
D03*
X1611500D02*
D03*
D105*
X1602000Y1325000D02*
D03*
X1588000D02*
D03*
M02*
