G04*
G04 #@! TF.GenerationSoftware,Altium Limited,Altium Designer,25.0.2 (28)*
G04*
G04 Layer_Color=8388736*
%FSLAX44Y44*%
%MOMM*%
G71*
G04*
G04 #@! TF.SameCoordinates,1489D581-9A80-4730-A308-F2CAF4F028AF*
G04*
G04*
G04 #@! TF.FilePolarity,Negative*
G04*
G01*
G75*
%ADD48R,1.3524X1.3524*%
%ADD49R,1.0524X0.9524*%
%ADD50R,0.6604X0.5084*%
%ADD51R,1.8324X1.8524*%
%ADD52R,1.3724X0.7724*%
%ADD53R,2.3124X2.9524*%
%ADD54R,1.1524X1.5524*%
%ADD55R,3.6524X2.6524*%
%ADD56R,0.9524X1.0524*%
G04:AMPARAMS|DCode=57|XSize=0.8024mm|YSize=1.8024mm|CornerRadius=0.125mm|HoleSize=0mm|Usage=FLASHONLY|Rotation=0.000|XOffset=0mm|YOffset=0mm|HoleType=Round|Shape=RoundedRectangle|*
%AMROUNDEDRECTD57*
21,1,0.8024,1.5525,0,0,0.0*
21,1,0.5525,1.8024,0,0,0.0*
1,1,0.2499,0.2763,-0.7763*
1,1,0.2499,-0.2763,-0.7763*
1,1,0.2499,-0.2763,0.7763*
1,1,0.2499,0.2763,0.7763*
%
%ADD57ROUNDEDRECTD57*%
%ADD58R,1.0524X1.1524*%
%ADD59R,1.1524X1.0524*%
%ADD60R,0.9524X1.0524*%
%ADD61R,1.0024X1.1024*%
%ADD62R,1.0524X0.9524*%
%ADD63R,1.8524X1.8324*%
%ADD64R,1.0024X1.0024*%
%ADD65O,0.8524X2.6524*%
%ADD66O,1.7024X0.4024*%
%ADD67R,1.2524X1.2524*%
%ADD68O,0.4024X1.7024*%
%ADD69R,1.3524X1.3524*%
%ADD70R,1.6510X0.8636*%
%ADD71R,0.8636X1.6510*%
%ADD72R,1.2524X1.2524*%
%ADD73R,1.3524X0.8524*%
%ADD74R,2.1524X2.5524*%
%ADD75C,2.3524*%
%ADD76C,2.0066*%
%ADD77C,1.6524*%
G04:AMPARAMS|DCode=78|XSize=1.5524mm|YSize=1.5524mm|CornerRadius=0.4262mm|HoleSize=0mm|Usage=FLASHONLY|Rotation=180.000|XOffset=0mm|YOffset=0mm|HoleType=Round|Shape=RoundedRectangle|*
%AMROUNDEDRECTD78*
21,1,1.5524,0.7000,0,0,180.0*
21,1,0.7000,1.5524,0,0,180.0*
1,1,0.8524,-0.3500,0.3500*
1,1,0.8524,0.3500,0.3500*
1,1,0.8524,0.3500,-0.3500*
1,1,0.8524,-0.3500,-0.3500*
%
%ADD78ROUNDEDRECTD78*%
%ADD79R,1.6524X1.6524*%
%ADD80C,4.1524*%
%ADD81C,3.6524*%
%ADD82C,0.9398*%
%ADD83C,1.4224*%
%ADD84C,6.5024*%
G36*
X1605280Y982658D02*
X1607336Y982929D01*
X1609251Y983722D01*
X1610896Y984984D01*
X1612158Y986629D01*
X1612951Y988544D01*
X1613222Y990600D01*
X1612951Y992655D01*
X1612158Y994571D01*
X1610896Y996216D01*
X1609251Y997478D01*
X1607336Y998271D01*
X1605280Y998542D01*
D01*
X1603224Y998271D01*
X1601309Y997478D01*
X1599664Y996216D01*
X1598402Y994571D01*
X1597609Y992655D01*
X1597338Y990600D01*
X1597609Y988544D01*
X1598402Y986629D01*
X1599664Y984984D01*
X1601309Y983722D01*
X1603224Y982929D01*
X1605280Y982658D01*
D01*
D02*
G37*
G36*
X1630680D02*
X1632735Y982929D01*
X1634651Y983722D01*
X1636296Y984984D01*
X1637558Y986629D01*
X1638351Y988544D01*
X1638622Y990600D01*
X1638351Y992655D01*
X1637558Y994571D01*
X1636296Y996216D01*
X1634651Y997478D01*
X1632735Y998271D01*
X1630680Y998542D01*
D01*
X1628625Y998271D01*
X1626709Y997478D01*
X1625064Y996216D01*
X1623802Y994571D01*
X1623009Y992655D01*
X1622738Y990600D01*
X1623009Y988544D01*
X1623802Y986629D01*
X1625064Y984984D01*
X1626709Y983722D01*
X1628625Y982929D01*
X1630680Y982658D01*
D01*
D02*
G37*
G36*
X1656080D02*
X1658136Y982929D01*
X1660051Y983722D01*
X1661696Y984984D01*
X1662958Y986629D01*
X1663751Y988544D01*
X1664022Y990600D01*
X1663751Y992655D01*
X1662958Y994571D01*
X1661696Y996216D01*
X1660051Y997478D01*
X1658136Y998271D01*
X1656080Y998542D01*
D01*
X1654025Y998271D01*
X1652109Y997478D01*
X1650464Y996216D01*
X1649202Y994571D01*
X1648409Y992655D01*
X1648138Y990600D01*
X1648409Y988544D01*
X1649202Y986629D01*
X1650464Y984984D01*
X1652109Y983722D01*
X1654025Y982929D01*
X1656080Y982658D01*
D01*
D02*
G37*
D48*
X1557000Y1004792D02*
D03*
Y1025792D02*
D03*
X1374500Y948658D02*
D03*
Y969658D02*
D03*
X867410Y1353480D02*
D03*
X867117Y1413850D02*
D03*
Y1392850D02*
D03*
X867410Y1374480D02*
D03*
D49*
X1367000Y1120000D02*
D03*
Y1134000D02*
D03*
X1340000Y1120000D02*
D03*
Y1134000D02*
D03*
X1374500Y993000D02*
D03*
Y1007000D02*
D03*
X1559043Y975500D02*
D03*
Y989500D02*
D03*
X1478542Y874500D02*
D03*
Y860500D02*
D03*
X1859280Y1202040D02*
D03*
Y1216040D02*
D03*
X1958340Y1200770D02*
D03*
Y1214770D02*
D03*
X1874520Y1216040D02*
D03*
Y1202040D02*
D03*
X1973580Y1200770D02*
D03*
Y1214770D02*
D03*
X890270Y1356980D02*
D03*
X890270Y1412890D02*
D03*
Y1398890D02*
D03*
X890270Y1370980D02*
D03*
X901700Y1472580D02*
D03*
Y1458580D02*
D03*
X1189990Y1467500D02*
D03*
Y1453500D02*
D03*
D50*
X1308525Y1128000D02*
D03*
X1321475Y1133000D02*
D03*
Y1123000D02*
D03*
D51*
X1256000Y1214900D02*
D03*
Y1179100D02*
D03*
D52*
X2112800Y1210000D02*
D03*
Y1200500D02*
D03*
Y1191000D02*
D03*
X2139000D02*
D03*
Y1200500D02*
D03*
Y1210000D02*
D03*
D53*
X1440250Y912500D02*
D03*
X1484750D02*
D03*
D54*
X1438000Y878500D02*
D03*
X1447500Y856500D02*
D03*
X1457000Y878500D02*
D03*
D55*
X1432500Y1090000D02*
D03*
X1497500D02*
D03*
X1594500Y917500D02*
D03*
X1659500D02*
D03*
D56*
X2118500Y1177458D02*
D03*
X2132500D02*
D03*
X2118500Y1223543D02*
D03*
X2132500D02*
D03*
X2192000Y1087393D02*
D03*
X2178000D02*
D03*
X2192000Y1003872D02*
D03*
X2178000D02*
D03*
X2192000Y1032957D02*
D03*
X2178000D02*
D03*
X2178000Y1018415D02*
D03*
X2192000D02*
D03*
X2192500Y1211892D02*
D03*
X2178500D02*
D03*
X2192500Y1128372D02*
D03*
X2178500D02*
D03*
X2192500Y1157457D02*
D03*
X2178500D02*
D03*
X2178500Y1142915D02*
D03*
X2192500D02*
D03*
X2192000Y1101935D02*
D03*
X2178000D02*
D03*
X2192500Y1226435D02*
D03*
X2178500D02*
D03*
X1292000Y989627D02*
D03*
X1278000D02*
D03*
X1959000Y1059208D02*
D03*
X1973000D02*
D03*
X1891650Y1210310D02*
D03*
X1905650D02*
D03*
X1278000Y1058122D02*
D03*
X1292000D02*
D03*
X1278000Y1004627D02*
D03*
X1292000D02*
D03*
X1278000Y1093207D02*
D03*
X1292000D02*
D03*
X1704960Y1324610D02*
D03*
X1718960D02*
D03*
X1738302Y1303717D02*
D03*
X1752303D02*
D03*
X1738302Y1289175D02*
D03*
X1752303D02*
D03*
X1791320Y1324610D02*
D03*
X1805320D02*
D03*
X1827863Y1304290D02*
D03*
X1841863D02*
D03*
X1827863Y1289292D02*
D03*
X1841863D02*
D03*
X1751980Y1318260D02*
D03*
X1737980D02*
D03*
X1841863Y1319530D02*
D03*
X1827863D02*
D03*
X1738000Y990000D02*
D03*
X1752000D02*
D03*
X1787000Y970000D02*
D03*
X1773000D02*
D03*
X1787000Y955000D02*
D03*
X1773000D02*
D03*
X1743000Y1164000D02*
D03*
X1729000D02*
D03*
X1787000Y1150000D02*
D03*
X1773000D02*
D03*
X1787000Y1135000D02*
D03*
X1773000D02*
D03*
X1838000Y987585D02*
D03*
X1852000D02*
D03*
X1887000Y972500D02*
D03*
X1873000D02*
D03*
X1887000Y957500D02*
D03*
X1873000D02*
D03*
X1838000Y1165085D02*
D03*
X1852000D02*
D03*
X1887000Y1145585D02*
D03*
X1873000D02*
D03*
X1887000Y1131042D02*
D03*
X1873000D02*
D03*
X1773000Y984543D02*
D03*
X1787000D02*
D03*
X1773000Y1164543D02*
D03*
X1787000D02*
D03*
X1873000Y987043D02*
D03*
X1887000D02*
D03*
X1873000Y1160128D02*
D03*
X1887000D02*
D03*
X2029500Y897000D02*
D03*
X2043500D02*
D03*
X2030000Y847500D02*
D03*
X2044000D02*
D03*
X2030000Y832000D02*
D03*
X2044000D02*
D03*
X2111000Y1019500D02*
D03*
X2125000D02*
D03*
X2111500Y972500D02*
D03*
X2125500D02*
D03*
X2111500Y957500D02*
D03*
X2125500D02*
D03*
X2031000Y1021000D02*
D03*
X2045000D02*
D03*
X2031500Y973500D02*
D03*
X2045500D02*
D03*
X2031500Y957500D02*
D03*
X2045500D02*
D03*
X2126500Y899500D02*
D03*
X2112500D02*
D03*
X2113500Y853000D02*
D03*
X2127500D02*
D03*
X2113500Y838000D02*
D03*
X2127500D02*
D03*
X2031500Y932500D02*
D03*
X2045500D02*
D03*
X2110500Y1056500D02*
D03*
X2124500D02*
D03*
X2030000Y1057000D02*
D03*
X2044000D02*
D03*
X2112000Y935000D02*
D03*
X2126000D02*
D03*
X1160160Y1365823D02*
D03*
X1146160D02*
D03*
X1160160Y1351280D02*
D03*
X1146160D02*
D03*
D57*
X1101008Y1013708D02*
D03*
X1088307D02*
D03*
X1075608D02*
D03*
X1062907D02*
D03*
X1101008Y957207D02*
D03*
X1088307D02*
D03*
X1075608D02*
D03*
X1062907D02*
D03*
X1151492Y956793D02*
D03*
X1164193D02*
D03*
X1176892D02*
D03*
X1189593D02*
D03*
X1151492Y1013292D02*
D03*
X1164193D02*
D03*
X1176892D02*
D03*
X1189593D02*
D03*
D58*
X1073958Y933415D02*
D03*
X1089958D02*
D03*
X1178542Y933000D02*
D03*
X1162542D02*
D03*
X1042000Y837500D02*
D03*
Y854500D02*
D03*
X1028066D02*
D03*
Y837500D02*
D03*
X1015000Y854500D02*
D03*
Y837500D02*
D03*
X1001934Y854500D02*
D03*
Y837500D02*
D03*
X1959500Y1022373D02*
D03*
X1975500D02*
D03*
X1976000Y972500D02*
D03*
X1960000D02*
D03*
X1976000Y956000D02*
D03*
X1960000D02*
D03*
X1439500Y1340000D02*
D03*
X1455500D02*
D03*
X1499000Y1487585D02*
D03*
X1515000D02*
D03*
X1685500Y1404000D02*
D03*
X1669500D02*
D03*
X1589000Y1201000D02*
D03*
X1573000D02*
D03*
X1539957D02*
D03*
X1555957D02*
D03*
X1786500Y1411085D02*
D03*
X1770500D02*
D03*
Y1393042D02*
D03*
X1786500D02*
D03*
Y1375000D02*
D03*
X1770500D02*
D03*
D59*
X1106000Y1037000D02*
D03*
Y1053000D02*
D03*
X1057915Y1037000D02*
D03*
Y1053000D02*
D03*
X1192085D02*
D03*
Y1037000D02*
D03*
X1149000Y1053000D02*
D03*
Y1037000D02*
D03*
X1624000Y1228000D02*
D03*
Y1244000D02*
D03*
D60*
X1081957Y897372D02*
D03*
X1091458Y917373D02*
D03*
X1072458D02*
D03*
X1170543Y896957D02*
D03*
X1180042Y916957D02*
D03*
X1161042D02*
D03*
X1923440Y1199040D02*
D03*
X1942440D02*
D03*
X1932940Y1219040D02*
D03*
X1708438Y1289370D02*
D03*
X1698938Y1309370D02*
D03*
X1717937D02*
D03*
X1798320Y1289210D02*
D03*
X1788820Y1309210D02*
D03*
X1807820D02*
D03*
X1752957Y970792D02*
D03*
X1733957D02*
D03*
X1743457Y950792D02*
D03*
X1752957Y1150792D02*
D03*
X1733958D02*
D03*
X1743457Y1130792D02*
D03*
X1852957Y973292D02*
D03*
X1833958D02*
D03*
X1843457Y953292D02*
D03*
X1852957Y1150792D02*
D03*
X1833958D02*
D03*
X1843457Y1130792D02*
D03*
D61*
X1088708Y1037500D02*
D03*
X1075208D02*
D03*
X1163792Y1035085D02*
D03*
X1177292D02*
D03*
D62*
X2195000Y1053500D02*
D03*
Y1072500D02*
D03*
X2175000Y1063000D02*
D03*
X2195500Y1178000D02*
D03*
Y1197000D02*
D03*
X2175500Y1187500D02*
D03*
D63*
X1949600Y997500D02*
D03*
X1985400D02*
D03*
X1267100Y1035000D02*
D03*
X1302900D02*
D03*
X2018600Y873500D02*
D03*
X2054400D02*
D03*
X2099600Y996000D02*
D03*
X2135400D02*
D03*
X2020100Y997500D02*
D03*
X2055900D02*
D03*
X2101600Y876000D02*
D03*
X2137400D02*
D03*
D64*
X1984250Y1041665D02*
D03*
X1950750D02*
D03*
X1301750Y1075665D02*
D03*
X1268250D02*
D03*
X2056750Y914542D02*
D03*
X2023250D02*
D03*
X2134750Y1038000D02*
D03*
X2101250D02*
D03*
X2054750Y1038542D02*
D03*
X2021250D02*
D03*
X2136250Y917042D02*
D03*
X2102750D02*
D03*
D65*
X1748790Y1262632D02*
D03*
X1736090D02*
D03*
X1723390D02*
D03*
X1710690D02*
D03*
X1748790Y1213632D02*
D03*
X1736090D02*
D03*
X1723390D02*
D03*
X1710690D02*
D03*
X1837690Y1262750D02*
D03*
X1824990D02*
D03*
X1812290D02*
D03*
X1799590D02*
D03*
X1837690Y1213750D02*
D03*
X1824990D02*
D03*
X1812290D02*
D03*
X1799590D02*
D03*
X1745950Y875500D02*
D03*
X1758650D02*
D03*
X1771350D02*
D03*
X1784050D02*
D03*
X1745950Y924500D02*
D03*
X1758650D02*
D03*
X1771350D02*
D03*
X1784050D02*
D03*
X1745950Y1055500D02*
D03*
X1758650D02*
D03*
X1771350D02*
D03*
X1784050D02*
D03*
X1745950Y1104500D02*
D03*
X1758650D02*
D03*
X1771350D02*
D03*
X1784050D02*
D03*
X1845950Y878000D02*
D03*
X1858650D02*
D03*
X1871350D02*
D03*
X1884050D02*
D03*
X1845950Y927000D02*
D03*
X1858650D02*
D03*
X1871350D02*
D03*
X1884050D02*
D03*
X1845950Y1055500D02*
D03*
X1858650D02*
D03*
X1871350D02*
D03*
X1884050D02*
D03*
X1845950Y1104500D02*
D03*
X1858650D02*
D03*
X1871350D02*
D03*
X1884050D02*
D03*
D66*
X1490250Y1419000D02*
D03*
Y1414000D02*
D03*
X1640750Y1309000D02*
D03*
Y1314000D02*
D03*
Y1319000D02*
D03*
Y1324000D02*
D03*
Y1329000D02*
D03*
Y1334000D02*
D03*
Y1339000D02*
D03*
Y1344000D02*
D03*
Y1349000D02*
D03*
Y1354000D02*
D03*
Y1359000D02*
D03*
Y1364000D02*
D03*
Y1369000D02*
D03*
Y1374000D02*
D03*
Y1379000D02*
D03*
Y1384000D02*
D03*
Y1389000D02*
D03*
Y1394000D02*
D03*
Y1399000D02*
D03*
Y1404000D02*
D03*
Y1409000D02*
D03*
Y1414000D02*
D03*
Y1419000D02*
D03*
Y1424000D02*
D03*
Y1429000D02*
D03*
X1490250D02*
D03*
Y1424000D02*
D03*
Y1409000D02*
D03*
Y1404000D02*
D03*
Y1399000D02*
D03*
Y1394000D02*
D03*
Y1389000D02*
D03*
Y1384000D02*
D03*
Y1379000D02*
D03*
Y1374000D02*
D03*
Y1369000D02*
D03*
Y1364000D02*
D03*
Y1359000D02*
D03*
Y1354000D02*
D03*
Y1349000D02*
D03*
Y1344000D02*
D03*
Y1339000D02*
D03*
Y1334000D02*
D03*
Y1329000D02*
D03*
Y1324000D02*
D03*
Y1319000D02*
D03*
Y1314000D02*
D03*
Y1309000D02*
D03*
D67*
X1674000Y1319000D02*
D03*
Y1301000D02*
D03*
X1462500Y1314500D02*
D03*
Y1296500D02*
D03*
X1673000Y1425043D02*
D03*
Y1443042D02*
D03*
D68*
X1590500Y1444250D02*
D03*
X1585500D02*
D03*
X1575500D02*
D03*
X1570500D02*
D03*
X1505500Y1293750D02*
D03*
X1510500D02*
D03*
X1515500D02*
D03*
X1520500D02*
D03*
X1525500D02*
D03*
X1530500D02*
D03*
X1535500D02*
D03*
X1540500D02*
D03*
X1545500D02*
D03*
X1550500D02*
D03*
X1555500D02*
D03*
X1560500D02*
D03*
X1565500D02*
D03*
X1570500D02*
D03*
X1575500D02*
D03*
X1580500D02*
D03*
X1585500D02*
D03*
X1590500D02*
D03*
X1595500D02*
D03*
X1600500D02*
D03*
X1605500D02*
D03*
X1610500D02*
D03*
X1615500D02*
D03*
X1620500D02*
D03*
X1625500D02*
D03*
Y1444250D02*
D03*
X1620500D02*
D03*
X1615500D02*
D03*
X1610500D02*
D03*
X1605500D02*
D03*
X1600500D02*
D03*
X1595500D02*
D03*
X1580500D02*
D03*
X1565500D02*
D03*
X1560500D02*
D03*
X1555500D02*
D03*
X1550500D02*
D03*
X1545500D02*
D03*
X1540500D02*
D03*
X1535500D02*
D03*
X1530500D02*
D03*
X1525500D02*
D03*
X1520500D02*
D03*
X1515500D02*
D03*
X1510500D02*
D03*
X1505500D02*
D03*
D69*
X1151550Y1436370D02*
D03*
X1172550D02*
D03*
D70*
X1063701Y1350950D02*
D03*
Y1361948D02*
D03*
X948690D02*
D03*
Y1350950D02*
D03*
X1063701Y1383944D02*
D03*
Y1372946D02*
D03*
X948690D02*
D03*
Y1383944D02*
D03*
X1063701Y1405941D02*
D03*
Y1394943D02*
D03*
X948690D02*
D03*
Y1405941D02*
D03*
X1063701Y1427937D02*
D03*
Y1416939D02*
D03*
X948690D02*
D03*
Y1427937D02*
D03*
Y1438935D02*
D03*
X1063701D02*
D03*
X948690Y1449934D02*
D03*
X1063701D02*
D03*
X948690Y1471930D02*
D03*
Y1460932D02*
D03*
X1063701Y1544930D02*
D03*
Y1533931D02*
D03*
X948690D02*
D03*
Y1544930D02*
D03*
D71*
X1039190Y1335418D02*
D03*
X1028192D02*
D03*
X1017194D02*
D03*
X1006196D02*
D03*
X995197D02*
D03*
X984199D02*
D03*
X973201D02*
D03*
D72*
X1509500Y1466543D02*
D03*
X1491500D02*
D03*
X1589000Y1265500D02*
D03*
X1607000D02*
D03*
X1551500Y1269500D02*
D03*
X1533500D02*
D03*
X1601000Y1179958D02*
D03*
X1583000D02*
D03*
D73*
X1716000Y1392500D02*
D03*
Y1382500D02*
D03*
Y1402500D02*
D03*
X1748000D02*
D03*
Y1382500D02*
D03*
Y1392500D02*
D03*
D74*
X1584000Y1231000D02*
D03*
X1545000D02*
D03*
D75*
X1240000Y655000D02*
D03*
Y695000D02*
D03*
Y735000D02*
D03*
X1290000Y655000D02*
D03*
X1340000D02*
D03*
Y695000D02*
D03*
Y735000D02*
D03*
X1390000Y655000D02*
D03*
Y695000D02*
D03*
Y735000D02*
D03*
X1440000Y655000D02*
D03*
Y695000D02*
D03*
Y735000D02*
D03*
X1490000Y655000D02*
D03*
Y695000D02*
D03*
Y735000D02*
D03*
X1550000Y655000D02*
D03*
Y695000D02*
D03*
Y735000D02*
D03*
X1610000Y655000D02*
D03*
Y695000D02*
D03*
Y735000D02*
D03*
X1660000Y655000D02*
D03*
Y695000D02*
D03*
Y735000D02*
D03*
X1710000Y655000D02*
D03*
Y695000D02*
D03*
Y735000D02*
D03*
X1760000Y655000D02*
D03*
Y695000D02*
D03*
Y735000D02*
D03*
X1810000Y655000D02*
D03*
Y695000D02*
D03*
Y735000D02*
D03*
X1860000Y655000D02*
D03*
Y695000D02*
D03*
Y735000D02*
D03*
X1290000D02*
D03*
Y695000D02*
D03*
D76*
X1290400Y1242200D02*
D03*
X1468200D02*
D03*
Y1166000D02*
D03*
X1392000D02*
D03*
X1290400D02*
D03*
D77*
X1439600Y1007700D02*
D03*
X1465000D02*
D03*
X1518200Y835000D02*
D03*
X1543600D02*
D03*
X1569000D02*
D03*
X1432500Y1308000D02*
D03*
X1675900Y1268500D02*
D03*
X2129790Y762000D02*
D03*
X2040890Y727710D02*
D03*
D78*
X1490400Y1007700D02*
D03*
D79*
X1594400Y835000D02*
D03*
X1407100Y1308000D02*
D03*
X1650500Y1268500D02*
D03*
D80*
X1035000Y655000D02*
D03*
X2065000D02*
D03*
D81*
X1100000D02*
D03*
X2000000D02*
D03*
D82*
X2260600Y1219200D02*
D03*
X2273300Y1193800D02*
D03*
X2260600Y1168400D02*
D03*
X2273300Y1143000D02*
D03*
X2260600Y1117600D02*
D03*
X2273300Y1092200D02*
D03*
X2260600Y1066800D02*
D03*
X2273300Y1041400D02*
D03*
X2260600Y1016000D02*
D03*
X2273300Y990600D02*
D03*
X2260600Y965200D02*
D03*
X2273300Y939800D02*
D03*
X2260600Y914400D02*
D03*
X2273300Y889000D02*
D03*
Y838200D02*
D03*
X2260600Y812800D02*
D03*
X2247900Y1244600D02*
D03*
Y1193800D02*
D03*
Y1143000D02*
D03*
Y1092200D02*
D03*
X2235200Y1066800D02*
D03*
X2247900Y1041400D02*
D03*
X2235200Y1016000D02*
D03*
X2247900Y990600D02*
D03*
X2235200Y965200D02*
D03*
X2247900Y939800D02*
D03*
X2235200Y914400D02*
D03*
Y812800D02*
D03*
X2209800Y1270000D02*
D03*
X2222500Y1244600D02*
D03*
X2209800Y1219200D02*
D03*
Y1168400D02*
D03*
X2222500Y1143000D02*
D03*
X2209800Y1117600D02*
D03*
X2222500Y1041400D02*
D03*
Y990600D02*
D03*
X2209800Y965200D02*
D03*
X2222500Y939800D02*
D03*
X2209800Y914400D02*
D03*
Y812800D02*
D03*
X2222500Y787400D02*
D03*
X2209800Y762000D02*
D03*
X2184400Y1270000D02*
D03*
X2197100Y939800D02*
D03*
Y889000D02*
D03*
Y838200D02*
D03*
X2184400Y812800D02*
D03*
X2197100Y787400D02*
D03*
X2184400Y762000D02*
D03*
X2159000Y1270000D02*
D03*
Y1219200D02*
D03*
Y1168400D02*
D03*
Y1066800D02*
D03*
Y965200D02*
D03*
X2171700Y787400D02*
D03*
X2159000Y762000D02*
D03*
X2171700Y736600D02*
D03*
X2133600Y1270000D02*
D03*
Y1117600D02*
D03*
X2146300Y1092200D02*
D03*
X2133600Y1066800D02*
D03*
X2146300Y1041400D02*
D03*
Y838200D02*
D03*
Y787400D02*
D03*
Y736600D02*
D03*
X2108200Y1270000D02*
D03*
Y1117600D02*
D03*
X2120900Y1092200D02*
D03*
Y1041400D02*
D03*
X2108200Y812800D02*
D03*
X2120900Y736600D02*
D03*
X2082800Y1270000D02*
D03*
X2095500Y1143000D02*
D03*
X2082800Y1117600D02*
D03*
Y812800D02*
D03*
Y762000D02*
D03*
X2095500Y736600D02*
D03*
X2082800Y711200D02*
D03*
X2095500Y685800D02*
D03*
X2057400Y1270000D02*
D03*
Y1219200D02*
D03*
X2070100Y1193800D02*
D03*
Y1143000D02*
D03*
X2057400Y1066800D02*
D03*
X2070100Y1041400D02*
D03*
X2057400Y1016000D02*
D03*
Y762000D02*
D03*
Y711200D02*
D03*
X2070100Y685800D02*
D03*
X2057400Y609600D02*
D03*
X2032000Y1270000D02*
D03*
Y1219200D02*
D03*
Y1117600D02*
D03*
X2044700Y1092200D02*
D03*
X2032000Y812800D02*
D03*
Y711200D02*
D03*
X2044700Y685800D02*
D03*
X2032000Y660400D02*
D03*
X2044700Y635000D02*
D03*
X2032000Y609600D02*
D03*
X2006600Y914400D02*
D03*
Y812800D02*
D03*
Y762000D02*
D03*
Y711200D02*
D03*
X2019300Y685800D02*
D03*
Y635000D02*
D03*
X2006600Y609600D02*
D03*
X1981200Y1320800D02*
D03*
X1993900Y1295400D02*
D03*
Y1193800D02*
D03*
Y1143000D02*
D03*
X1981200Y1117600D02*
D03*
X1993900Y1092200D02*
D03*
Y939800D02*
D03*
Y889000D02*
D03*
Y838200D02*
D03*
X1981200Y762000D02*
D03*
Y711200D02*
D03*
X1993900Y685800D02*
D03*
X1981200Y609600D02*
D03*
X1968500Y1143000D02*
D03*
Y1092200D02*
D03*
Y1041400D02*
D03*
Y990600D02*
D03*
X1955800Y914400D02*
D03*
Y863600D02*
D03*
Y762000D02*
D03*
X1968500Y685800D02*
D03*
Y635000D02*
D03*
X1955800Y609600D02*
D03*
X1930400Y1371600D02*
D03*
X1943100Y1346200D02*
D03*
Y1143000D02*
D03*
X1930400Y1117600D02*
D03*
X1943100Y1092200D02*
D03*
X1930400Y1066800D02*
D03*
X1943100Y939800D02*
D03*
X1930400Y914400D02*
D03*
X1943100Y889000D02*
D03*
X1930400Y863600D02*
D03*
X1943100Y838200D02*
D03*
X1930400Y812800D02*
D03*
Y762000D02*
D03*
Y660400D02*
D03*
X1943100Y635000D02*
D03*
X1930400Y609600D02*
D03*
X1905000Y1270000D02*
D03*
X1917700Y1244600D02*
D03*
Y1143000D02*
D03*
X1905000Y965200D02*
D03*
X1917700Y939800D02*
D03*
X1905000Y914400D02*
D03*
X1917700Y889000D02*
D03*
X1905000Y863600D02*
D03*
X1917700Y838200D02*
D03*
X1905000Y812800D02*
D03*
Y762000D02*
D03*
X1917700Y685800D02*
D03*
X1905000Y660400D02*
D03*
Y609600D02*
D03*
X1879600Y1422400D02*
D03*
X1892300Y1397000D02*
D03*
X1879600Y1371600D02*
D03*
Y1270000D02*
D03*
X1892300Y1244600D02*
D03*
Y838200D02*
D03*
X1879600Y812800D02*
D03*
Y762000D02*
D03*
X1892300Y685800D02*
D03*
X1879600Y660400D02*
D03*
Y609600D02*
D03*
X1854200Y1371600D02*
D03*
X1866900Y1295400D02*
D03*
Y1244600D02*
D03*
Y838200D02*
D03*
X1854200Y812800D02*
D03*
Y762000D02*
D03*
Y609600D02*
D03*
X1828800Y1473200D02*
D03*
X1841500Y1447800D02*
D03*
X1828800Y1422400D02*
D03*
X1841500Y1397000D02*
D03*
X1828800Y1371600D02*
D03*
Y1117600D02*
D03*
Y1066800D02*
D03*
Y863600D02*
D03*
X1841500Y838200D02*
D03*
X1828800Y812800D02*
D03*
Y762000D02*
D03*
X1841500Y685800D02*
D03*
X1828800Y660400D02*
D03*
Y609600D02*
D03*
X1803400Y1473200D02*
D03*
Y1422400D02*
D03*
X1816100Y1397000D02*
D03*
X1803400Y1371600D02*
D03*
Y1066800D02*
D03*
Y965200D02*
D03*
Y914400D02*
D03*
X1816100Y838200D02*
D03*
X1803400Y812800D02*
D03*
Y762000D02*
D03*
Y711200D02*
D03*
Y609600D02*
D03*
X1778000Y1524000D02*
D03*
X1790700Y1498600D02*
D03*
X1778000Y1473200D02*
D03*
Y1422400D02*
D03*
X1790700Y838200D02*
D03*
X1778000Y812800D02*
D03*
X1790700Y736600D02*
D03*
Y685800D02*
D03*
X1778000Y660400D02*
D03*
Y609600D02*
D03*
X1752600Y1473200D02*
D03*
Y1422400D02*
D03*
Y1371600D02*
D03*
X1765300Y1295400D02*
D03*
Y838200D02*
D03*
X1752600Y812800D02*
D03*
Y711200D02*
D03*
Y609600D02*
D03*
X1727200Y1422400D02*
D03*
Y1371600D02*
D03*
X1739900Y1244600D02*
D03*
X1727200Y1066800D02*
D03*
X1739900Y838200D02*
D03*
X1727200Y812800D02*
D03*
X1739900Y787400D02*
D03*
Y685800D02*
D03*
X1727200Y660400D02*
D03*
Y609600D02*
D03*
X1701800Y1422400D02*
D03*
Y1371600D02*
D03*
X1714500Y1244600D02*
D03*
X1701800Y1117600D02*
D03*
Y1066800D02*
D03*
X1714500Y1041400D02*
D03*
X1701800Y965200D02*
D03*
Y914400D02*
D03*
X1714500Y787400D02*
D03*
X1701800Y711200D02*
D03*
Y609600D02*
D03*
X1676400Y1524000D02*
D03*
X1689100Y1498600D02*
D03*
Y1244600D02*
D03*
Y1143000D02*
D03*
X1676400Y1117600D02*
D03*
Y1066800D02*
D03*
X1689100Y1041400D02*
D03*
Y990600D02*
D03*
X1676400Y965200D02*
D03*
X1689100Y939800D02*
D03*
Y889000D02*
D03*
X1676400Y863600D02*
D03*
Y660400D02*
D03*
Y609600D02*
D03*
X1663700Y1143000D02*
D03*
X1651000Y1117600D02*
D03*
X1663700Y1041400D02*
D03*
X1651000Y1016000D02*
D03*
X1663700Y889000D02*
D03*
X1651000Y863600D02*
D03*
X1663700Y838200D02*
D03*
Y787400D02*
D03*
X1651000Y711200D02*
D03*
Y609600D02*
D03*
X1625600Y1524000D02*
D03*
X1638300Y1498600D02*
D03*
Y1143000D02*
D03*
X1625600Y1117600D02*
D03*
X1638300Y1092200D02*
D03*
X1625600Y965200D02*
D03*
X1638300Y889000D02*
D03*
Y838200D02*
D03*
Y685800D02*
D03*
X1625600Y609600D02*
D03*
X1600200Y1524000D02*
D03*
X1612900Y1498600D02*
D03*
X1600200Y1117600D02*
D03*
X1612900Y1092200D02*
D03*
X1600200Y1066800D02*
D03*
X1612900Y889000D02*
D03*
X1600200Y863600D02*
D03*
X1612900Y838200D02*
D03*
Y787400D02*
D03*
X1600200Y762000D02*
D03*
Y711200D02*
D03*
Y609600D02*
D03*
X1587500Y1143000D02*
D03*
X1574800Y1117600D02*
D03*
X1587500Y1092200D02*
D03*
X1574800Y1066800D02*
D03*
X1587500Y1041400D02*
D03*
Y990600D02*
D03*
X1574800Y965200D02*
D03*
X1587500Y889000D02*
D03*
X1574800Y863600D02*
D03*
Y660400D02*
D03*
Y609600D02*
D03*
X1562100Y1143000D02*
D03*
X1549400Y1117600D02*
D03*
X1562100Y1092200D02*
D03*
X1549400Y965200D02*
D03*
Y914400D02*
D03*
X1562100Y889000D02*
D03*
X1549400Y863600D02*
D03*
Y762000D02*
D03*
Y609600D02*
D03*
X1536700Y939800D02*
D03*
X1524000Y914400D02*
D03*
X1536700Y889000D02*
D03*
X1524000Y863600D02*
D03*
Y812800D02*
D03*
X1536700Y787400D02*
D03*
X1524000Y762000D02*
D03*
Y660400D02*
D03*
Y609600D02*
D03*
X1498600Y1168400D02*
D03*
X1511300Y1143000D02*
D03*
Y1041400D02*
D03*
Y939800D02*
D03*
Y889000D02*
D03*
X1498600Y863600D02*
D03*
Y812800D02*
D03*
X1511300Y787400D02*
D03*
X1498600Y609600D02*
D03*
X1485900Y1244600D02*
D03*
X1473200Y1219200D02*
D03*
X1485900Y1143000D02*
D03*
Y889000D02*
D03*
Y838200D02*
D03*
X1473200Y812800D02*
D03*
X1485900Y787400D02*
D03*
X1473200Y711200D02*
D03*
Y660400D02*
D03*
Y609600D02*
D03*
X1447800Y1270000D02*
D03*
Y1117600D02*
D03*
Y1066800D02*
D03*
X1460500Y1041400D02*
D03*
Y939800D02*
D03*
Y838200D02*
D03*
Y736600D02*
D03*
X1447800Y711200D02*
D03*
X1460500Y685800D02*
D03*
X1447800Y609600D02*
D03*
X1435100Y1447800D02*
D03*
Y1397000D02*
D03*
X1422400Y1270000D02*
D03*
X1435100Y1244600D02*
D03*
X1422400Y1219200D02*
D03*
X1435100Y1143000D02*
D03*
X1422400Y1117600D02*
D03*
Y1066800D02*
D03*
X1435100Y1041400D02*
D03*
X1422400Y965200D02*
D03*
Y660400D02*
D03*
Y609600D02*
D03*
X1397000Y1524000D02*
D03*
Y1371600D02*
D03*
Y1270000D02*
D03*
X1409700Y1244600D02*
D03*
Y1041400D02*
D03*
Y990600D02*
D03*
X1397000Y965200D02*
D03*
X1409700Y939800D02*
D03*
Y889000D02*
D03*
Y787400D02*
D03*
Y736600D02*
D03*
X1397000Y711200D02*
D03*
X1409700Y685800D02*
D03*
X1397000Y609600D02*
D03*
X1371600Y1524000D02*
D03*
X1384300Y1498600D02*
D03*
Y1397000D02*
D03*
Y1295400D02*
D03*
X1371600Y1270000D02*
D03*
X1384300Y1244600D02*
D03*
Y1193800D02*
D03*
X1371600Y1066800D02*
D03*
Y914400D02*
D03*
X1384300Y889000D02*
D03*
X1371600Y762000D02*
D03*
Y711200D02*
D03*
Y660400D02*
D03*
Y609600D02*
D03*
X1346200Y1524000D02*
D03*
X1358900Y1498600D02*
D03*
X1346200Y1473200D02*
D03*
X1358900Y1295400D02*
D03*
X1346200Y1270000D02*
D03*
Y1219200D02*
D03*
X1358900Y1193800D02*
D03*
X1346200Y1168400D02*
D03*
X1358900Y1092200D02*
D03*
Y990600D02*
D03*
X1346200Y965200D02*
D03*
X1358900Y939800D02*
D03*
X1346200Y914400D02*
D03*
Y863600D02*
D03*
Y812800D02*
D03*
Y762000D02*
D03*
Y711200D02*
D03*
X1358900Y685800D02*
D03*
X1346200Y609600D02*
D03*
X1320800Y1524000D02*
D03*
X1333500Y1498600D02*
D03*
X1320800Y1473200D02*
D03*
X1333500Y1447800D02*
D03*
Y1295400D02*
D03*
X1320800Y1270000D02*
D03*
Y1219200D02*
D03*
X1333500Y1193800D02*
D03*
X1320800Y1168400D02*
D03*
X1333500Y1092200D02*
D03*
X1320800Y1066800D02*
D03*
X1333500Y1041400D02*
D03*
X1320800Y1016000D02*
D03*
X1333500Y939800D02*
D03*
Y838200D02*
D03*
X1320800Y711200D02*
D03*
Y660400D02*
D03*
Y609600D02*
D03*
X1308100Y1498600D02*
D03*
X1295400Y1473200D02*
D03*
X1308100Y1447800D02*
D03*
X1295400Y1422400D02*
D03*
Y1219200D02*
D03*
X1308100Y1193800D02*
D03*
Y990600D02*
D03*
X1295400Y965200D02*
D03*
Y914400D02*
D03*
Y863600D02*
D03*
X1308100Y787400D02*
D03*
X1295400Y762000D02*
D03*
X1308100Y736600D02*
D03*
Y685800D02*
D03*
X1295400Y609600D02*
D03*
X1282700Y1447800D02*
D03*
X1270000Y1422400D02*
D03*
X1282700Y1397000D02*
D03*
Y1193800D02*
D03*
Y1143000D02*
D03*
Y1041400D02*
D03*
X1270000Y1016000D02*
D03*
Y965200D02*
D03*
Y914400D02*
D03*
Y863600D02*
D03*
Y812800D02*
D03*
Y762000D02*
D03*
Y711200D02*
D03*
Y660400D02*
D03*
Y609600D02*
D03*
X1257300Y1447800D02*
D03*
X1244600Y1422400D02*
D03*
X1257300Y1397000D02*
D03*
Y1193800D02*
D03*
Y1092200D02*
D03*
X1244600Y1066800D02*
D03*
Y1016000D02*
D03*
X1257300Y990600D02*
D03*
X1244600Y965200D02*
D03*
X1257300Y939800D02*
D03*
X1244600Y914400D02*
D03*
X1257300Y889000D02*
D03*
X1244600Y863600D02*
D03*
X1257300Y838200D02*
D03*
X1244600Y812800D02*
D03*
X1257300Y787400D02*
D03*
Y685800D02*
D03*
X1244600Y609600D02*
D03*
X1219200Y1524000D02*
D03*
X1231900Y1498600D02*
D03*
Y1447800D02*
D03*
X1219200Y1422400D02*
D03*
X1231900Y1397000D02*
D03*
X1219200Y1066800D02*
D03*
X1231900Y1041400D02*
D03*
X1219200Y1016000D02*
D03*
X1231900Y990600D02*
D03*
X1219200Y965200D02*
D03*
X1231900Y939800D02*
D03*
X1219200Y914400D02*
D03*
X1231900Y889000D02*
D03*
X1219200Y863600D02*
D03*
X1231900Y838200D02*
D03*
X1219200Y812800D02*
D03*
Y762000D02*
D03*
Y711200D02*
D03*
Y660400D02*
D03*
Y609600D02*
D03*
X1193800Y1524000D02*
D03*
X1206500Y1498600D02*
D03*
Y1447800D02*
D03*
X1193800Y1422400D02*
D03*
X1206500Y1397000D02*
D03*
X1193800Y1270000D02*
D03*
X1206500Y1092200D02*
D03*
X1193800Y1066800D02*
D03*
X1206500Y1041400D02*
D03*
Y990600D02*
D03*
Y939800D02*
D03*
X1193800Y914400D02*
D03*
X1206500Y889000D02*
D03*
X1193800Y863600D02*
D03*
X1206500Y838200D02*
D03*
X1193800Y711200D02*
D03*
X1206500Y685800D02*
D03*
X1193800Y609600D02*
D03*
X1168400Y1524000D02*
D03*
X1181100Y1498600D02*
D03*
X1168400Y1422400D02*
D03*
X1181100Y1397000D02*
D03*
X1168400Y1270000D02*
D03*
X1181100Y1244600D02*
D03*
X1168400Y1219200D02*
D03*
X1181100Y1143000D02*
D03*
Y990600D02*
D03*
X1168400Y863600D02*
D03*
X1181100Y787400D02*
D03*
X1168400Y762000D02*
D03*
X1181100Y736600D02*
D03*
X1168400Y711200D02*
D03*
Y660400D02*
D03*
X1181100Y635000D02*
D03*
X1168400Y609600D02*
D03*
X1143000Y1524000D02*
D03*
X1155700Y1498600D02*
D03*
X1143000Y1473200D02*
D03*
Y1422400D02*
D03*
X1155700Y1397000D02*
D03*
X1143000Y1270000D02*
D03*
X1155700Y1244600D02*
D03*
X1143000Y1219200D02*
D03*
X1155700Y1193800D02*
D03*
X1143000Y1168400D02*
D03*
X1155700Y990600D02*
D03*
X1143000Y914400D02*
D03*
X1155700Y889000D02*
D03*
X1143000Y812800D02*
D03*
Y762000D02*
D03*
X1155700Y736600D02*
D03*
X1143000Y660400D02*
D03*
X1155700Y635000D02*
D03*
X1143000Y609600D02*
D03*
X1117600Y1524000D02*
D03*
X1130300Y1498600D02*
D03*
X1117600Y1473200D02*
D03*
Y1270000D02*
D03*
X1130300Y1244600D02*
D03*
X1117600Y1219200D02*
D03*
X1130300Y1193800D02*
D03*
X1117600Y1168400D02*
D03*
X1130300Y1092200D02*
D03*
X1117600Y1066800D02*
D03*
X1130300Y1041400D02*
D03*
X1117600Y1016000D02*
D03*
X1130300Y990600D02*
D03*
X1117600Y965200D02*
D03*
X1130300Y939800D02*
D03*
X1117600Y914400D02*
D03*
X1130300Y889000D02*
D03*
X1117600Y863600D02*
D03*
X1130300Y838200D02*
D03*
X1117600Y812800D02*
D03*
X1130300Y787400D02*
D03*
X1117600Y762000D02*
D03*
Y711200D02*
D03*
X1130300Y685800D02*
D03*
Y635000D02*
D03*
X1117600Y609600D02*
D03*
X1092200Y1524000D02*
D03*
X1104900Y1498600D02*
D03*
X1092200Y1473200D02*
D03*
Y1270000D02*
D03*
X1104900Y1244600D02*
D03*
X1092200Y1219200D02*
D03*
X1104900Y1193800D02*
D03*
X1092200Y1168400D02*
D03*
X1104900Y990600D02*
D03*
Y939800D02*
D03*
X1092200Y863600D02*
D03*
X1104900Y838200D02*
D03*
X1092200Y812800D02*
D03*
X1104900Y787400D02*
D03*
X1092200Y711200D02*
D03*
X1104900Y685800D02*
D03*
X1092200Y609600D02*
D03*
X1079500Y1498600D02*
D03*
X1066800Y1473200D02*
D03*
Y1270000D02*
D03*
X1079500Y1244600D02*
D03*
X1066800Y1219200D02*
D03*
X1079500Y1193800D02*
D03*
X1066800Y1168400D02*
D03*
Y1066800D02*
D03*
X1079500Y990600D02*
D03*
X1066800Y863600D02*
D03*
X1079500Y838200D02*
D03*
X1066800Y812800D02*
D03*
Y762000D02*
D03*
X1079500Y736600D02*
D03*
X1066800Y711200D02*
D03*
X1079500Y685800D02*
D03*
X1066800Y660400D02*
D03*
X1079500Y635000D02*
D03*
X1066800Y609600D02*
D03*
X1041400Y1473200D02*
D03*
Y1270000D02*
D03*
X1054100Y1244600D02*
D03*
X1041400Y1219200D02*
D03*
X1054100Y1193800D02*
D03*
X1041400Y1168400D02*
D03*
X1054100Y1092200D02*
D03*
X1041400Y1066800D02*
D03*
X1054100Y990600D02*
D03*
Y939800D02*
D03*
Y889000D02*
D03*
Y838200D02*
D03*
X1041400Y762000D02*
D03*
X1054100Y736600D02*
D03*
X1041400Y711200D02*
D03*
X1054100Y685800D02*
D03*
Y635000D02*
D03*
X1041400Y609600D02*
D03*
X1016000Y1473200D02*
D03*
Y1270000D02*
D03*
X1028700Y1244600D02*
D03*
X1016000Y1219200D02*
D03*
X1028700Y1193800D02*
D03*
X1016000Y1168400D02*
D03*
Y812800D02*
D03*
X1028700Y787400D02*
D03*
X1016000Y762000D02*
D03*
X1028700Y736600D02*
D03*
X1016000Y711200D02*
D03*
X1028700Y685800D02*
D03*
X1003300Y1498600D02*
D03*
X990600Y1473200D02*
D03*
X1003300Y1244600D02*
D03*
X990600Y1219200D02*
D03*
X1003300Y1193800D02*
D03*
X990600Y1168400D02*
D03*
Y1016000D02*
D03*
Y965200D02*
D03*
Y863600D02*
D03*
Y812800D02*
D03*
X1003300Y787400D02*
D03*
X990600Y762000D02*
D03*
X1003300Y736600D02*
D03*
X977900Y1498600D02*
D03*
X965200Y1473200D02*
D03*
X977900Y1295400D02*
D03*
X965200Y1219200D02*
D03*
X977900Y1193800D02*
D03*
X965200Y1168400D02*
D03*
X977900Y1143000D02*
D03*
Y1092200D02*
D03*
X965200Y1066800D02*
D03*
Y1016000D02*
D03*
X977900Y939800D02*
D03*
Y889000D02*
D03*
X965200Y863600D02*
D03*
Y812800D02*
D03*
X977900Y787400D02*
D03*
X965200Y762000D02*
D03*
X977900Y736600D02*
D03*
X952500Y1498600D02*
D03*
Y1295400D02*
D03*
Y1244600D02*
D03*
X939800Y1219200D02*
D03*
X952500Y1193800D02*
D03*
Y1092200D02*
D03*
X939800Y914400D02*
D03*
X952500Y889000D02*
D03*
X939800Y863600D02*
D03*
Y812800D02*
D03*
X952500Y787400D02*
D03*
X939800Y762000D02*
D03*
X952500Y736600D02*
D03*
X914400Y1524000D02*
D03*
X927100Y1498600D02*
D03*
X914400Y1270000D02*
D03*
Y1219200D02*
D03*
X927100Y1193800D02*
D03*
X914400Y1168400D02*
D03*
X927100Y1143000D02*
D03*
X914400Y1117600D02*
D03*
X927100Y1092200D02*
D03*
X914400Y1066800D02*
D03*
X927100Y1041400D02*
D03*
X914400Y1016000D02*
D03*
X927100Y990600D02*
D03*
X914400Y965200D02*
D03*
X927100Y939800D02*
D03*
X914400Y914400D02*
D03*
X927100Y889000D02*
D03*
X914400Y863600D02*
D03*
Y812800D02*
D03*
X927100Y787400D02*
D03*
X914400Y762000D02*
D03*
X927100Y736600D02*
D03*
X889000Y1524000D02*
D03*
X901700Y1498600D02*
D03*
Y1447800D02*
D03*
X889000Y1320800D02*
D03*
Y1270000D02*
D03*
X901700Y1244600D02*
D03*
X889000Y1219200D02*
D03*
X901700Y1092200D02*
D03*
X889000Y1066800D02*
D03*
X901700Y1041400D02*
D03*
X889000Y1016000D02*
D03*
X901700Y990600D02*
D03*
X889000Y965200D02*
D03*
X901700Y939800D02*
D03*
X889000Y914400D02*
D03*
X901700Y889000D02*
D03*
Y838200D02*
D03*
X889000Y812800D02*
D03*
X901700Y787400D02*
D03*
X889000Y762000D02*
D03*
X863600Y1524000D02*
D03*
X876300Y1498600D02*
D03*
Y1447800D02*
D03*
X863600Y1320800D02*
D03*
X876300Y1295400D02*
D03*
X863600Y1270000D02*
D03*
X876300Y1244600D02*
D03*
X863600Y1219200D02*
D03*
X876300Y1193800D02*
D03*
Y1092200D02*
D03*
X863600Y1066800D02*
D03*
X876300Y1041400D02*
D03*
X863600Y1016000D02*
D03*
X876300Y990600D02*
D03*
X863600Y965200D02*
D03*
X876300Y939800D02*
D03*
X863600Y914400D02*
D03*
Y812800D02*
D03*
X876300Y787400D02*
D03*
X850900Y1498600D02*
D03*
X838200Y1473200D02*
D03*
Y1422400D02*
D03*
Y1371600D02*
D03*
Y1320800D02*
D03*
Y1270000D02*
D03*
Y1219200D02*
D03*
X850900Y1193800D02*
D03*
X838200Y1168400D02*
D03*
Y1117600D02*
D03*
X850900Y1092200D02*
D03*
X838200Y1066800D02*
D03*
X850900Y1041400D02*
D03*
X838200Y1016000D02*
D03*
X850900Y990600D02*
D03*
X838200Y965200D02*
D03*
X850900Y939800D02*
D03*
X838200Y914400D02*
D03*
Y812800D02*
D03*
X902970Y1412240D02*
D03*
X1677670Y637540D02*
D03*
X880110Y1329690D02*
D03*
X1390650Y1404620D02*
D03*
X1398680Y1419000D02*
D03*
X1884869Y1322869D02*
D03*
X1899489Y1323489D02*
D03*
X1911000Y1321000D02*
D03*
X1874520Y1231900D02*
D03*
X1244600Y1351280D02*
D03*
X1268730Y1375410D02*
D03*
X995680Y1314450D02*
D03*
Y1292860D02*
D03*
X1209040Y1303020D02*
D03*
X1241384Y1307506D02*
D03*
X1539240Y1082040D02*
D03*
X1529080Y1092200D02*
D03*
X1217930Y1311910D02*
D03*
X1240790Y1295400D02*
D03*
X1395730Y1461770D02*
D03*
X1350010Y1367790D02*
D03*
X1417320Y1370330D02*
D03*
X1346200Y1460500D02*
D03*
X1199522Y1295047D02*
D03*
X1741000Y1024255D02*
D03*
X1791000D02*
D03*
X853440Y1470660D02*
D03*
X844550Y1459230D02*
D03*
X867410Y1473200D02*
D03*
X885190D02*
D03*
X1199349Y1232651D02*
D03*
X1377950Y1316990D02*
D03*
X930910Y1473200D02*
D03*
X916940D02*
D03*
X1539240Y977900D02*
D03*
X1563370Y1177290D02*
D03*
X1529080Y989330D02*
D03*
X1651000Y1211580D02*
D03*
X1774190Y1214120D02*
D03*
X1799000Y1118000D02*
D03*
X1774190Y1323340D02*
D03*
X1642110Y1235710D02*
D03*
X1648460Y1248410D02*
D03*
X1692910Y1325880D02*
D03*
X1883000Y1340485D02*
D03*
X1897000D02*
D03*
X1911000D02*
D03*
X1870000D02*
D03*
X1856740D02*
D03*
Y1322015D02*
D03*
X1870000Y1322000D02*
D03*
X1448000Y1176000D02*
D03*
X1491000Y1188000D02*
D03*
X1943000Y957000D02*
D03*
X1660000Y1394000D02*
D03*
X1009000Y1004000D02*
D03*
X1002000Y1018000D02*
D03*
X1041000Y1132000D02*
D03*
X996000Y1063000D02*
D03*
X1002000Y1037000D02*
D03*
X1016000Y996000D02*
D03*
X1029000Y958000D02*
D03*
X1043000Y918000D02*
D03*
X1022500Y1142500D02*
D03*
X2099000Y958000D02*
D03*
X2211500Y1073500D02*
D03*
X1420000Y1339000D02*
D03*
X1623000Y1315000D02*
D03*
X1615000Y1415000D02*
D03*
X1521000Y1422000D02*
D03*
X1512000Y1334000D02*
D03*
X1546000Y1315000D02*
D03*
X1606000Y1313000D02*
D03*
X1614000Y1322000D02*
D03*
X1571000Y1378000D02*
D03*
X1253988Y1233988D02*
D03*
X1467500Y1341000D02*
D03*
X2045500Y1187000D02*
D03*
Y1165000D02*
D03*
X2031500Y1187000D02*
D03*
Y1165000D02*
D03*
X2018000Y1186500D02*
D03*
X2018500Y1165500D02*
D03*
X2004500Y1187000D02*
D03*
Y1166000D02*
D03*
X1617500Y1149000D02*
D03*
Y1180500D02*
D03*
X1958500Y1183000D02*
D03*
X1959000Y1166500D02*
D03*
X2133000Y1162500D02*
D03*
X2100500Y837500D02*
D03*
X2016000Y831500D02*
D03*
Y957500D02*
D03*
X2210000Y1197500D02*
D03*
D83*
X939405Y1157500D02*
D03*
X1212000Y1124000D02*
D03*
X1868170Y1275080D02*
D03*
X1774190Y1239520D02*
D03*
X1359000Y811000D02*
D03*
X1571000Y1536000D02*
D03*
X1137475Y1122475D02*
D03*
X1392500Y912500D02*
D03*
X1812500Y1097500D02*
D03*
X1912500D02*
D03*
D84*
X870000Y1140000D02*
D03*
X1271270Y1511300D02*
D03*
X870000Y860000D02*
D03*
X2230000D02*
D03*
X1730000Y1510000D02*
D03*
M02*
